<svg width="400" height="386" viewBox="0 0 400 386" fill="none" xmlns="http://www.w3.org/2000/svg">
<g opacity="0.4">
<path opacity="0.5" d="M0 385.475H135.092C136.148 383.333 136.148 380.121 136.148 377.98C136.148 366.201 129.815 357.635 118.206 353.352C106.596 349.069 87.5989 344.786 61.2137 340.503C36.9393 336.22 15.8311 331.937 0 327.654V385.475H0ZM392.612 139.199C384.169 143.482 377.836 150.978 373.615 159.544C369.393 168.11 366.227 178.818 366.227 189.525C366.227 201.304 368.338 210.94 373.615 219.507C378.892 228.073 385.224 234.497 392.612 239.851L394.723 240.922C397.889 225.931 400 209.87 400 192.737C400 173.464 397.889 155.261 392.612 139.199ZM0 1.07076V57.8212C15.8311 57.8212 28.496 52.4674 37.9947 41.7598C48.5488 31.0521 52.7704 17.1322 52.7704 0H0V1.07076ZM96.0422 1.07076C96.0422 19.2737 91.8206 35.3352 83.3773 49.2551C75.9894 64.2458 64.3799 74.9534 49.6042 83.5196C34.8285 91.0149 18.9974 95.298 0 95.298V146.695C21.1082 138.129 47.4934 133.845 77.0449 133.845C93.9314 133.845 110.818 134.916 127.704 138.129V101.723H181.53C208.971 101.723 231.135 109.218 246.966 125.279C263.852 141.341 271.24 163.827 271.24 192.737C271.24 221.648 262.797 244.134 246.966 260.196C230.079 276.257 208.971 283.752 181.53 283.752H127.704V203.445C111.873 199.162 94.9868 197.02 75.9894 197.02C52.7704 197.02 35.8839 200.233 24.2744 207.728C12.6649 214.153 6.33245 223.79 6.33245 235.568C6.33245 248.417 12.6649 256.983 25.3298 262.337C37.9947 267.691 58.0475 273.045 84.4327 277.328C110.818 281.611 132.982 285.894 149.868 292.318C166.755 297.672 181.53 307.309 194.195 320.158C206.86 333.007 212.137 352.281 212.137 375.838C212.137 379.05 212.137 382.263 212.137 385.475C243.799 383.333 273.351 375.838 298.681 362.989C313.456 355.493 327.177 346.927 339.842 336.22V284.823H379.947C381.003 282.682 382.058 281.611 382.058 279.469C376.781 277.328 372.559 275.186 368.338 273.045C354.617 265.549 343.008 253.771 335.62 239.851C327.177 225.931 324.011 208.799 324.011 190.596C324.011 172.393 328.232 155.261 335.62 141.341C339.842 132.775 346.174 126.35 352.507 119.926H348.285V58.892C334.565 44.9721 317.678 33.1937 298.681 24.6276C265.963 8.56611 229.024 1.07076 186.807 1.07076H96.0422Z" fill="url(#paint0_linear_1_3403)" fill-opacity="0.5"/>
</g>
<defs>
<linearGradient id="paint0_linear_1_3403" x1="0" y1="0" x2="468.415" y2="174.646" gradientUnits="userSpaceOnUse">
<stop stop-color="#316EFF"/>
<stop offset="1" stop-color="#D4008C"/>
</linearGradient>
</defs>
</svg>
