<svg width="430" height="430" viewBox="0 0 430 430" fill="none" xmlns="http://www.w3.org/2000/svg">
<g opacity="0.2" filter="url(#filter0_d_1_1792)">
<circle cx="215" cy="195" r="165" fill="url(#paint0_linear_1_1792)"/>
</g>
<g filter="url(#filter1_d_1_1792)">
<circle cx="215" cy="195" r="144" fill="url(#paint1_linear_1_1792)"/>
</g>
<path d="M158.374 222.8H170.29C173.05 222.8 175.498 223.316 177.634 224.348C179.77 225.38 181.426 226.844 182.602 228.74C183.778 230.636 184.366 232.856 184.366 235.4C184.366 237.944 183.778 240.164 182.602 242.06C181.426 243.956 179.77 245.42 177.634 246.452C175.498 247.484 173.05 248 170.29 248H158.374V222.8ZM170.002 242.312C172.162 242.312 173.89 241.7 175.186 240.476C176.506 239.252 177.166 237.56 177.166 235.4C177.166 233.24 176.506 231.548 175.186 230.324C173.89 229.1 172.162 228.488 170.002 228.488H165.502V242.312H170.002ZM198.584 248.324C196.496 248.324 194.612 247.892 192.932 247.028C191.252 246.164 189.932 244.964 188.972 243.428C188.036 241.892 187.568 240.152 187.568 238.208C187.568 236.288 188.036 234.56 188.972 233.024C189.932 231.488 191.24 230.3 192.896 229.46C194.576 228.596 196.472 228.164 198.584 228.164C200.696 228.164 202.592 228.596 204.272 229.46C205.952 230.3 207.26 231.488 208.196 233.024C209.132 234.536 209.6 236.264 209.6 238.208C209.6 240.152 209.132 241.892 208.196 243.428C207.26 244.964 205.952 246.164 204.272 247.028C202.592 247.892 200.696 248.324 198.584 248.324ZM198.584 242.888C199.784 242.888 200.768 242.48 201.536 241.664C202.304 240.824 202.688 239.672 202.688 238.208C202.688 236.768 202.304 235.64 201.536 234.824C200.768 234.008 199.784 233.6 198.584 233.6C197.384 233.6 196.4 234.008 195.632 234.824C194.864 235.64 194.48 236.768 194.48 238.208C194.48 239.672 194.864 240.824 195.632 241.664C196.4 242.48 197.384 242.888 198.584 242.888ZM220.284 230.828C220.98 229.94 221.88 229.28 222.984 228.848C224.112 228.392 225.396 228.164 226.836 228.164V234.32C226.212 234.248 225.696 234.212 225.288 234.212C223.824 234.212 222.672 234.608 221.832 235.4C221.016 236.192 220.608 237.404 220.608 239.036V248H213.768V228.488H220.284V230.828ZM251.249 228.488V248H244.733V245.912C244.013 246.704 243.149 247.304 242.141 247.712C241.133 248.12 240.065 248.324 238.937 248.324C236.417 248.324 234.401 247.58 232.889 246.092C231.401 244.604 230.657 242.372 230.657 239.396V228.488H237.497V238.28C237.497 239.744 237.773 240.812 238.325 241.484C238.877 242.156 239.681 242.492 240.737 242.492C241.817 242.492 242.693 242.12 243.365 241.376C244.061 240.608 244.409 239.444 244.409 237.884V228.488H251.249ZM263.747 248.324C262.115 248.324 260.507 248.144 258.923 247.784C257.339 247.4 256.067 246.908 255.107 246.308L257.159 241.628C258.047 242.18 259.103 242.624 260.327 242.96C261.551 243.272 262.763 243.428 263.963 243.428C265.067 243.428 265.847 243.32 266.303 243.104C266.783 242.864 267.023 242.528 267.023 242.096C267.023 241.664 266.735 241.364 266.159 241.196C265.607 241.004 264.719 240.824 263.495 240.656C261.935 240.464 260.603 240.212 259.499 239.9C258.419 239.588 257.483 239.012 256.691 238.172C255.899 237.332 255.503 236.156 255.503 234.644C255.503 233.396 255.875 232.292 256.619 231.332C257.363 230.348 258.443 229.58 259.859 229.028C261.299 228.452 263.015 228.164 265.007 228.164C266.423 228.164 267.827 228.308 269.219 228.596C270.611 228.884 271.775 229.292 272.711 229.82L270.659 234.464C268.931 233.504 267.059 233.024 265.043 233.024C263.963 233.024 263.171 233.156 262.667 233.42C262.163 233.66 261.911 233.984 261.911 234.392C261.911 234.848 262.187 235.172 262.739 235.364C263.291 235.532 264.203 235.712 265.475 235.904C267.083 236.144 268.415 236.42 269.471 236.732C270.527 237.044 271.439 237.62 272.207 238.46C272.999 239.276 273.395 240.428 273.395 241.916C273.395 243.14 273.023 244.244 272.279 245.228C271.535 246.188 270.431 246.944 268.967 247.496C267.527 248.048 265.787 248.324 263.747 248.324ZM194.722 283.104H184.066L182.086 288H174.814L185.938 262.8H192.958L204.118 288H196.702L194.722 283.104ZM192.634 277.848L189.394 269.784L186.154 277.848H192.634ZM219.091 268.164C220.867 268.164 222.475 268.584 223.915 269.424C225.379 270.24 226.531 271.416 227.371 272.952C228.235 274.464 228.667 276.228 228.667 278.244C228.667 280.26 228.235 282.036 227.371 283.572C226.531 285.084 225.379 286.26 223.915 287.1C222.475 287.916 220.867 288.324 219.091 288.324C216.811 288.324 214.999 287.64 213.655 286.272V294.984H206.815V268.488H213.331V270.432C214.603 268.92 216.523 268.164 219.091 268.164ZM217.651 282.888C218.851 282.888 219.835 282.48 220.603 281.664C221.371 280.824 221.755 279.684 221.755 278.244C221.755 276.804 221.371 275.676 220.603 274.86C219.835 274.02 218.851 273.6 217.651 273.6C216.451 273.6 215.467 274.02 214.699 274.86C213.931 275.676 213.547 276.804 213.547 278.244C213.547 279.684 213.931 280.824 214.699 281.664C215.467 282.48 216.451 282.888 217.651 282.888ZM245.122 268.164C246.898 268.164 248.506 268.584 249.946 269.424C251.41 270.24 252.562 271.416 253.402 272.952C254.266 274.464 254.698 276.228 254.698 278.244C254.698 280.26 254.266 282.036 253.402 283.572C252.562 285.084 251.41 286.26 249.946 287.1C248.506 287.916 246.898 288.324 245.122 288.324C242.842 288.324 241.03 287.64 239.686 286.272V294.984H232.846V268.488H239.362V270.432C240.634 268.92 242.554 268.164 245.122 268.164ZM243.682 282.888C244.882 282.888 245.866 282.48 246.634 281.664C247.402 280.824 247.786 279.684 247.786 278.244C247.786 276.804 247.402 275.676 246.634 274.86C245.866 274.02 244.882 273.6 243.682 273.6C242.482 273.6 241.498 274.02 240.73 274.86C239.962 275.676 239.578 276.804 239.578 278.244C239.578 279.684 239.962 280.824 240.73 281.664C241.498 282.48 242.482 282.888 243.682 282.888Z" fill="white"/>
<path d="M170 197H204.786C205.058 196.417 205.058 195.542 205.058 194.958C205.058 191.75 203.427 189.417 200.438 188.25C197.449 187.083 192.557 185.917 185.763 184.75C179.512 183.583 174.077 182.417 170 181.25V197ZM271.098 129.917C268.923 131.083 267.293 133.125 266.206 135.458C265.119 137.792 264.303 140.708 264.303 143.625C264.303 146.833 264.847 149.458 266.206 151.792C267.565 154.125 269.195 155.875 271.098 157.333L271.641 157.625C272.456 153.542 273 149.167 273 144.5C273 139.25 272.456 134.292 271.098 129.917ZM170 92.2917V107.75C174.077 107.75 177.338 106.292 179.784 103.375C182.501 100.458 183.588 96.6667 183.588 92H170V92.2917ZM194.731 92.2917C194.731 97.25 193.644 101.625 191.47 105.417C189.567 109.5 186.578 112.417 182.773 114.75C178.968 116.792 174.892 117.958 170 117.958V131.958C175.435 129.625 182.23 128.458 189.839 128.458C194.187 128.458 198.536 128.75 202.884 129.625V119.708H216.744C223.81 119.708 229.517 121.75 233.594 126.125C237.942 130.5 239.844 136.625 239.844 144.5C239.844 152.375 237.67 158.5 233.594 162.875C229.245 167.25 223.81 169.292 216.744 169.292H202.884V147.417C198.807 146.25 194.459 145.667 189.567 145.667C183.588 145.667 179.24 146.542 176.251 148.583C173.261 150.333 171.631 152.958 171.631 156.167C171.631 159.667 173.261 162 176.522 163.458C179.784 164.917 184.947 166.375 191.741 167.542C198.536 168.708 204.243 169.875 208.591 171.625C212.939 173.083 216.744 175.708 220.005 179.208C223.266 182.708 224.625 187.958 224.625 194.375C224.625 195.25 224.625 196.125 224.625 197C232.778 196.417 240.388 194.375 246.91 190.875C250.715 188.833 254.248 186.5 257.509 183.583V169.583H267.836C268.108 169 268.38 168.708 268.38 168.125C267.021 167.542 265.934 166.958 264.847 166.375C261.314 164.333 258.325 161.125 256.422 157.333C254.248 153.542 253.433 148.875 253.433 143.917C253.433 138.958 254.52 134.292 256.422 130.5C257.509 128.167 259.14 126.417 260.77 124.667H259.683V108.042C256.15 104.25 251.802 101.042 246.91 98.7083C238.485 94.3333 228.974 92.2917 218.103 92.2917H194.731Z" fill="white"/>
<defs>
<filter id="filter0_d_1_1792" x="0" y="0" width="430" height="430" filterUnits="userSpaceOnUse" color-interpolation-filters="sRGB">
<feFlood flood-opacity="0" result="BackgroundImageFix"/>
<feColorMatrix in="SourceAlpha" type="matrix" values="0 0 0 0 0 0 0 0 0 0 0 0 0 0 0 0 0 0 127 0" result="hardAlpha"/>
<feOffset dy="20"/>
<feGaussianBlur stdDeviation="25"/>
<feComposite in2="hardAlpha" operator="out"/>
<feColorMatrix type="matrix" values="0 0 0 0 0.14902 0 0 0 0 0.784314 0 0 0 0 0.933333 0 0 0 0.5 0"/>
<feBlend mode="normal" in2="BackgroundImageFix" result="effect1_dropShadow_1_1792"/>
<feBlend mode="normal" in="SourceGraphic" in2="effect1_dropShadow_1_1792" result="shape"/>
</filter>
<filter id="filter1_d_1_1792" x="21" y="21" width="388" height="388" filterUnits="userSpaceOnUse" color-interpolation-filters="sRGB">
<feFlood flood-opacity="0" result="BackgroundImageFix"/>
<feColorMatrix in="SourceAlpha" type="matrix" values="0 0 0 0 0 0 0 0 0 0 0 0 0 0 0 0 0 0 127 0" result="hardAlpha"/>
<feOffset dy="20"/>
<feGaussianBlur stdDeviation="25"/>
<feComposite in2="hardAlpha" operator="out"/>
<feColorMatrix type="matrix" values="0 0 0 0 0.14902 0 0 0 0 0.784314 0 0 0 0 0.933333 0 0 0 0.5 0"/>
<feBlend mode="normal" in2="BackgroundImageFix" result="effect1_dropShadow_1_1792"/>
<feBlend mode="normal" in="SourceGraphic" in2="effect1_dropShadow_1_1792" result="shape"/>
</filter>
<linearGradient id="paint0_linear_1_1792" x1="50" y1="273.913" x2="380.003" y2="274.347" gradientUnits="userSpaceOnUse">
<stop stop-color="#00C0B4"/>
<stop offset="1" stop-color="#29C9F3"/>
</linearGradient>
<linearGradient id="paint1_linear_1_1792" x1="71" y1="263.87" x2="359.002" y2="264.248" gradientUnits="userSpaceOnUse">
<stop stop-color="#00C0B4"/>
<stop offset="1" stop-color="#29C9F3"/>
</linearGradient>
</defs>
</svg>
