<svg width="463" height="482" viewBox="0 0 463 482" fill="none" xmlns="http://www.w3.org/2000/svg">
<path opacity="0.5" d="M0 481.119H156.369C157.591 478.446 157.591 474.437 157.591 471.764C157.591 457.063 150.261 446.371 136.823 441.026C123.385 435.68 101.396 430.334 70.8549 424.988C42.7573 419.643 18.3245 414.297 0 408.951V481.119H0ZM454.449 173.737C444.675 179.083 437.346 188.438 432.459 199.13C427.573 209.821 423.908 223.186 423.908 236.55C423.908 251.251 426.351 263.279 432.459 273.971C438.567 284.662 445.897 292.681 454.449 299.363L456.892 300.699C460.557 281.989 463 261.943 463 240.559C463 216.504 460.557 193.784 454.449 173.737ZM0 1.33644V72.1678C18.3245 72.1678 32.9842 65.4856 43.9789 52.1212C56.1952 38.7568 61.0818 21.3831 61.0818 0H0V1.33644ZM111.169 1.33644C111.169 24.056 106.282 44.1026 96.5092 61.4763C87.9578 80.1865 74.5198 93.5509 57.4169 104.242C40.314 113.598 21.9894 118.943 0 118.943V183.093C24.4327 172.401 54.9736 167.055 89.1794 167.055C108.726 167.055 128.272 168.392 147.818 172.401V126.962H210.121C241.884 126.962 267.538 136.317 285.863 156.364C305.409 176.41 313.96 204.476 313.96 240.559C313.96 276.643 304.187 304.709 285.863 324.755C266.317 344.802 241.884 354.157 210.121 354.157H147.818V253.924C129.493 248.578 109.947 245.905 87.9578 245.905C61.0818 245.905 41.5356 249.915 28.0976 259.27C14.6596 267.288 7.32982 279.316 7.32982 294.017C7.32982 310.054 14.6596 320.746 29.3193 327.428C43.9789 334.11 67.19 340.793 97.7309 346.138C128.272 351.484 153.926 356.83 173.472 364.849C193.018 371.531 210.121 383.559 224.781 399.596C239.441 415.633 245.549 439.689 245.549 469.091C245.549 473.1 245.549 477.11 245.549 481.119C282.198 478.446 316.404 469.091 345.723 453.054C362.826 443.699 378.707 433.007 393.367 419.643V355.493H439.789C441.011 352.821 442.232 351.484 442.232 348.811C436.124 346.138 431.237 343.465 426.351 340.793C410.47 331.438 397.032 316.737 388.48 299.363C378.707 281.989 375.042 260.606 375.042 237.887C375.042 215.167 379.929 193.784 388.48 176.41C393.367 165.719 400.697 157.7 408.026 149.681H403.14V73.5043C387.259 56.1305 367.712 41.4297 345.723 30.7382C307.852 10.6915 265.095 1.33644 216.23 1.33644H111.169Z" fill="url(#paint0_linear_1_1882)" fill-opacity="0.5"/>
<defs>
<linearGradient id="paint0_linear_1_1882" x1="0" y1="0" x2="551.611" y2="190.733" gradientUnits="userSpaceOnUse">
<stop stop-color="#316EFF"/>
<stop offset="1" stop-color="#D4008C"/>
</linearGradient>
</defs>
</svg>
