<svg width="452" height="430" viewBox="0 0 452 430" fill="none" xmlns="http://www.w3.org/2000/svg">
<g opacity="0.2" filter="url(#filter0_d_1_1791)">
<circle cx="226" cy="195" r="165" fill="url(#paint0_linear_1_1791)"/>
</g>
<g filter="url(#filter1_d_1_1791)">
<circle cx="226" cy="195" r="144" fill="url(#paint1_linear_1_1791)"/>
</g>
<path d="M169.374 222.8H181.29C184.05 222.8 186.498 223.316 188.634 224.348C190.77 225.38 192.426 226.844 193.602 228.74C194.778 230.636 195.366 232.856 195.366 235.4C195.366 237.944 194.778 240.164 193.602 242.06C192.426 243.956 190.77 245.42 188.634 246.452C186.498 247.484 184.05 248 181.29 248H169.374V222.8ZM181.002 242.312C183.162 242.312 184.89 241.7 186.186 240.476C187.506 239.252 188.166 237.56 188.166 235.4C188.166 233.24 187.506 231.548 186.186 230.324C184.89 229.1 183.162 228.488 181.002 228.488H176.502V242.312H181.002ZM209.584 248.324C207.496 248.324 205.612 247.892 203.932 247.028C202.252 246.164 200.932 244.964 199.972 243.428C199.036 241.892 198.568 240.152 198.568 238.208C198.568 236.288 199.036 234.56 199.972 233.024C200.932 231.488 202.24 230.3 203.896 229.46C205.576 228.596 207.472 228.164 209.584 228.164C211.696 228.164 213.592 228.596 215.272 229.46C216.952 230.3 218.26 231.488 219.196 233.024C220.132 234.536 220.6 236.264 220.6 238.208C220.6 240.152 220.132 241.892 219.196 243.428C218.26 244.964 216.952 246.164 215.272 247.028C213.592 247.892 211.696 248.324 209.584 248.324ZM209.584 242.888C210.784 242.888 211.768 242.48 212.536 241.664C213.304 240.824 213.688 239.672 213.688 238.208C213.688 236.768 213.304 235.64 212.536 234.824C211.768 234.008 210.784 233.6 209.584 233.6C208.384 233.6 207.4 234.008 206.632 234.824C205.864 235.64 205.48 236.768 205.48 238.208C205.48 239.672 205.864 240.824 206.632 241.664C207.4 242.48 208.384 242.888 209.584 242.888ZM231.285 230.828C231.981 229.94 232.881 229.28 233.985 228.848C235.113 228.392 236.397 228.164 237.837 228.164V234.32C237.213 234.248 236.697 234.212 236.289 234.212C234.825 234.212 233.673 234.608 232.833 235.4C232.017 236.192 231.609 237.404 231.609 239.036V248H224.769V228.488H231.285V230.828ZM262.25 228.488V248H255.734V245.912C255.014 246.704 254.15 247.304 253.142 247.712C252.134 248.12 251.066 248.324 249.938 248.324C247.418 248.324 245.402 247.58 243.89 246.092C242.402 244.604 241.658 242.372 241.658 239.396V228.488H248.498V238.28C248.498 239.744 248.774 240.812 249.326 241.484C249.878 242.156 250.682 242.492 251.738 242.492C252.818 242.492 253.694 242.12 254.366 241.376C255.062 240.608 255.41 239.444 255.41 237.884V228.488H262.25ZM274.747 248.324C273.115 248.324 271.507 248.144 269.923 247.784C268.339 247.4 267.067 246.908 266.107 246.308L268.159 241.628C269.047 242.18 270.103 242.624 271.327 242.96C272.551 243.272 273.763 243.428 274.963 243.428C276.067 243.428 276.847 243.32 277.303 243.104C277.783 242.864 278.023 242.528 278.023 242.096C278.023 241.664 277.735 241.364 277.159 241.196C276.607 241.004 275.719 240.824 274.495 240.656C272.935 240.464 271.603 240.212 270.499 239.9C269.419 239.588 268.483 239.012 267.691 238.172C266.899 237.332 266.503 236.156 266.503 234.644C266.503 233.396 266.875 232.292 267.619 231.332C268.363 230.348 269.443 229.58 270.859 229.028C272.299 228.452 274.015 228.164 276.007 228.164C277.423 228.164 278.827 228.308 280.219 228.596C281.611 228.884 282.775 229.292 283.711 229.82L281.659 234.464C279.931 233.504 278.059 233.024 276.043 233.024C274.963 233.024 274.171 233.156 273.667 233.42C273.163 233.66 272.911 233.984 272.911 234.392C272.911 234.848 273.187 235.172 273.739 235.364C274.291 235.532 275.203 235.712 276.475 235.904C278.083 236.144 279.415 236.42 280.471 236.732C281.527 237.044 282.439 237.62 283.207 238.46C283.999 239.276 284.395 240.428 284.395 241.916C284.395 243.14 284.023 244.244 283.279 245.228C282.535 246.188 281.431 246.944 279.967 247.496C278.527 248.048 276.787 248.324 274.747 248.324ZM205.723 283.104H195.067L193.087 288H185.815L196.939 262.8H203.959L215.119 288H207.703L205.723 283.104ZM203.635 277.848L200.395 269.784L197.155 277.848H203.635ZM230.092 268.164C231.868 268.164 233.476 268.584 234.916 269.424C236.38 270.24 237.532 271.416 238.372 272.952C239.236 274.464 239.668 276.228 239.668 278.244C239.668 280.26 239.236 282.036 238.372 283.572C237.532 285.084 236.38 286.26 234.916 287.1C233.476 287.916 231.868 288.324 230.092 288.324C227.812 288.324 226 287.64 224.656 286.272V294.984H217.816V268.488H224.332V270.432C225.604 268.92 227.524 268.164 230.092 268.164ZM228.652 282.888C229.852 282.888 230.836 282.48 231.604 281.664C232.372 280.824 232.756 279.684 232.756 278.244C232.756 276.804 232.372 275.676 231.604 274.86C230.836 274.02 229.852 273.6 228.652 273.6C227.452 273.6 226.468 274.02 225.7 274.86C224.932 275.676 224.548 276.804 224.548 278.244C224.548 279.684 224.932 280.824 225.7 281.664C226.468 282.48 227.452 282.888 228.652 282.888ZM256.123 268.164C257.899 268.164 259.507 268.584 260.947 269.424C262.411 270.24 263.563 271.416 264.403 272.952C265.267 274.464 265.699 276.228 265.699 278.244C265.699 280.26 265.267 282.036 264.403 283.572C263.563 285.084 262.411 286.26 260.947 287.1C259.507 287.916 257.899 288.324 256.123 288.324C253.843 288.324 252.031 287.64 250.687 286.272V294.984H243.847V268.488H250.363V270.432C251.635 268.92 253.555 268.164 256.123 268.164ZM254.683 282.888C255.883 282.888 256.867 282.48 257.635 281.664C258.403 280.824 258.787 279.684 258.787 278.244C258.787 276.804 258.403 275.676 257.635 274.86C256.867 274.02 255.883 273.6 254.683 273.6C253.483 273.6 252.499 274.02 251.731 274.86C250.963 275.676 250.579 276.804 250.579 278.244C250.579 279.684 250.963 280.824 251.731 281.664C252.499 282.48 253.483 282.888 254.683 282.888Z" fill="white"/>
<path d="M181 197H215.787C216.059 196.417 216.059 195.542 216.059 194.958C216.059 191.75 214.428 189.417 211.438 188.25C208.449 187.083 203.557 185.917 196.763 184.75C190.512 183.583 185.077 182.417 181 181.25V197ZM282.098 129.917C279.924 131.083 278.293 133.125 277.206 135.458C276.119 137.792 275.304 140.708 275.304 143.625C275.304 146.833 275.847 149.458 277.206 151.792C278.565 154.125 280.196 155.875 282.098 157.333L282.642 157.625C283.457 153.542 284 149.167 284 144.5C284 139.25 283.457 134.292 282.098 129.917ZM181 92.2917V107.75C185.077 107.75 188.338 106.292 190.784 103.375C193.502 100.458 194.589 96.6667 194.589 92H181V92.2917ZM205.731 92.2917C205.731 97.25 204.644 101.625 202.47 105.417C200.568 109.5 197.578 112.417 193.774 114.75C189.969 116.792 185.892 117.958 181 117.958V131.958C186.436 129.625 193.23 128.458 200.84 128.458C205.188 128.458 209.536 128.75 213.884 129.625V119.708H227.745C234.811 119.708 240.518 121.75 244.594 126.125C248.942 130.5 250.845 136.625 250.845 144.5C250.845 152.375 248.671 158.5 244.594 162.875C240.246 167.25 234.811 169.292 227.745 169.292H213.884V147.417C209.808 146.25 205.46 145.667 200.568 145.667C194.589 145.667 190.241 146.542 187.251 148.583C184.262 150.333 182.631 152.958 182.631 156.167C182.631 159.667 184.262 162 187.523 163.458C190.784 164.917 195.948 166.375 202.742 167.542C209.536 168.708 215.243 169.875 219.592 171.625C223.94 173.083 227.745 175.708 231.006 179.208C234.267 182.708 235.626 187.958 235.626 194.375C235.626 195.25 235.626 196.125 235.626 197C243.779 196.417 251.388 194.375 257.911 190.875C261.716 188.833 265.249 186.5 268.51 183.583V169.583H278.837C279.109 169 279.38 168.708 279.38 168.125C278.022 167.542 276.935 166.958 275.847 166.375C272.314 164.333 269.325 161.125 267.423 157.333C265.249 153.542 264.433 148.875 264.433 143.917C264.433 138.958 265.52 134.292 267.423 130.5C268.51 128.167 270.14 126.417 271.771 124.667H270.684V108.042C267.151 104.25 262.803 101.042 257.911 98.7083C249.486 94.3333 239.974 92.2917 229.103 92.2917H205.731Z" fill="white"/>
<path d="M47.0005 58L102 109" stroke="url(#paint2_linear_1_1791)" stroke-width="2"/>
<path d="M47.0005 334L102 282" stroke="url(#paint3_linear_1_1791)" stroke-width="2"/>
<path d="M405 56L350 107" stroke="url(#paint4_linear_1_1791)" stroke-width="2"/>
<path d="M405 332L350 280" stroke="url(#paint5_linear_1_1791)" stroke-width="2"/>
<path d="M451.661 194.83H376" stroke="url(#paint6_linear_1_1791)" stroke-width="2"/>
<path d="M75.6606 194.83H0.000220239" stroke="url(#paint7_linear_1_1791)" stroke-width="2"/>
<defs>
<filter id="filter0_d_1_1791" x="11.0005" y="0" width="430" height="430" filterUnits="userSpaceOnUse" color-interpolation-filters="sRGB">
<feFlood flood-opacity="0" result="BackgroundImageFix"/>
<feColorMatrix in="SourceAlpha" type="matrix" values="0 0 0 0 0 0 0 0 0 0 0 0 0 0 0 0 0 0 127 0" result="hardAlpha"/>
<feOffset dy="20"/>
<feGaussianBlur stdDeviation="25"/>
<feComposite in2="hardAlpha" operator="out"/>
<feColorMatrix type="matrix" values="0 0 0 0 0.14902 0 0 0 0 0.784314 0 0 0 0 0.933333 0 0 0 0.5 0"/>
<feBlend mode="normal" in2="BackgroundImageFix" result="effect1_dropShadow_1_1791"/>
<feBlend mode="normal" in="SourceGraphic" in2="effect1_dropShadow_1_1791" result="shape"/>
</filter>
<filter id="filter1_d_1_1791" x="32.0005" y="21" width="388" height="388" filterUnits="userSpaceOnUse" color-interpolation-filters="sRGB">
<feFlood flood-opacity="0" result="BackgroundImageFix"/>
<feColorMatrix in="SourceAlpha" type="matrix" values="0 0 0 0 0 0 0 0 0 0 0 0 0 0 0 0 0 0 127 0" result="hardAlpha"/>
<feOffset dy="20"/>
<feGaussianBlur stdDeviation="25"/>
<feComposite in2="hardAlpha" operator="out"/>
<feColorMatrix type="matrix" values="0 0 0 0 0.14902 0 0 0 0 0.784314 0 0 0 0 0.933333 0 0 0 0.5 0"/>
<feBlend mode="normal" in2="BackgroundImageFix" result="effect1_dropShadow_1_1791"/>
<feBlend mode="normal" in="SourceGraphic" in2="effect1_dropShadow_1_1791" result="shape"/>
</filter>
<linearGradient id="paint0_linear_1_1791" x1="61.0005" y1="273.913" x2="391.003" y2="274.347" gradientUnits="userSpaceOnUse">
<stop stop-color="#00C0B4"/>
<stop offset="1" stop-color="#29C9F3"/>
</linearGradient>
<linearGradient id="paint1_linear_1_1791" x1="82.0005" y1="263.87" x2="370.003" y2="264.248" gradientUnits="userSpaceOnUse">
<stop stop-color="#00C0B4"/>
<stop offset="1" stop-color="#29C9F3"/>
</linearGradient>
<linearGradient id="paint2_linear_1_1791" x1="47.0005" y1="95.6957" x2="102.001" y2="95.7736" gradientUnits="userSpaceOnUse">
<stop stop-color="#00C0B4"/>
<stop offset="1" stop-color="#29C9F3"/>
</linearGradient>
<linearGradient id="paint3_linear_1_1791" x1="47.0005" y1="295.565" x2="102.001" y2="295.489" gradientUnits="userSpaceOnUse">
<stop stop-color="#00C0B4"/>
<stop offset="1" stop-color="#29C9F3"/>
</linearGradient>
<linearGradient id="paint4_linear_1_1791" x1="405" y1="93.6957" x2="350" y2="93.7736" gradientUnits="userSpaceOnUse">
<stop stop-color="#00C0B4"/>
<stop offset="1" stop-color="#29C9F3"/>
</linearGradient>
<linearGradient id="paint5_linear_1_1791" x1="405" y1="293.565" x2="350" y2="293.489" gradientUnits="userSpaceOnUse">
<stop stop-color="#00C0B4"/>
<stop offset="1" stop-color="#29C9F3"/>
</linearGradient>
<linearGradient id="paint6_linear_1_1791" x1="423.699" y1="166.869" x2="385.819" y2="204.649" gradientUnits="userSpaceOnUse">
<stop stop-color="#00C0B4"/>
<stop offset="1" stop-color="#29C9F3"/>
</linearGradient>
<linearGradient id="paint7_linear_1_1791" x1="47.6992" y1="166.869" x2="9.81894" y2="204.649" gradientUnits="userSpaceOnUse">
<stop stop-color="#00C0B4"/>
<stop offset="1" stop-color="#29C9F3"/>
</linearGradient>
</defs>
</svg>
