<svg width="275" height="115" viewBox="0 0 275 115" fill="none" xmlns="http://www.w3.org/2000/svg">
<g filter="url(#filter0_d_1_1755)">
<path d="M242.292 84.9042H32.7083C28.4375 84.9042 25 81.4718 25 77.2072V27.697C25 23.4324 28.4375 20 32.7083 20H242.292C246.562 20 250 23.4324 250 27.697V77.3112C250 81.4718 246.562 84.9042 242.292 84.9042Z" fill="white"/>
<path d="M242.292 83.9042H32.7083C28.9884 83.9042 26 80.9181 26 77.2072V27.697C26 23.9861 28.9884 21 32.7083 21H242.292C246.012 21 249 23.9861 249 27.697V77.3112C249 80.9093 246.02 83.9042 242.292 83.9042Z" stroke="url(#paint0_linear_1_1755)" stroke-opacity="0.5" stroke-width="2"/>
</g>
<path d="M99.5833 38.0981L98.6458 41.2185H96.5625L100.104 30.2971H102.708L106.25 41.2185H104.063L103.021 38.0981H99.5833ZM102.812 36.6419L101.979 33.9376C101.771 33.3135 101.563 32.4814 101.458 31.8573C101.25 32.4814 101.146 33.2095 100.938 33.9376L100 36.6419H102.812Z" fill="url(#paint1_linear_1_1755)"/>
<path d="M109.272 33.3134L110.522 37.3698C110.73 38.0979 110.939 38.722 111.043 39.3461C111.147 38.722 111.355 38.0979 111.564 37.3698L112.814 33.3134H114.897L111.876 41.2183H109.897L106.98 33.3134H109.272Z" fill="url(#paint2_linear_1_1755)"/>
<path d="M123.023 39.3463C123.023 40.0744 123.023 40.8025 123.128 41.2186H121.357L121.253 40.3865C120.732 41.0105 120.003 41.4266 118.961 41.4266C117.398 41.4266 116.461 40.2825 116.461 39.0343C116.461 37.0581 118.232 36.0179 121.148 36.0179V35.9139C121.148 35.3939 120.94 34.5618 119.586 34.5618C118.857 34.5618 118.023 34.7698 117.503 35.1858L117.086 33.9377C117.711 33.6256 118.648 33.2096 119.898 33.2096C122.398 33.2096 123.128 34.7698 123.128 36.538V39.3463H123.023ZM121.044 37.3701C119.586 37.3701 118.232 37.6821 118.232 38.8263C118.232 39.5544 118.753 39.9704 119.378 39.9704C120.211 39.9704 120.732 39.4504 120.94 38.9303C120.94 38.8263 120.94 38.6183 120.94 38.5142V37.3701H121.044Z" fill="url(#paint3_linear_1_1755)"/>
<path d="M126.771 32.1694C126.146 32.1694 125.625 31.6493 125.625 31.1292C125.625 30.5052 126.042 30.0891 126.771 30.0891C127.5 30.0891 127.917 30.6092 127.917 31.1292C127.917 31.6493 127.5 32.1694 126.771 32.1694ZM125.833 33.3135H127.812V41.2186H125.833V33.3135Z" fill="url(#paint4_linear_1_1755)"/>
<path d="M132.706 29.6731H130.727V41.2186H132.706V29.6731Z" fill="url(#paint5_linear_1_1755)"/>
<path d="M141.77 39.3464C141.77 40.0745 141.77 40.8026 141.874 41.2187H140.103L139.999 40.3865C139.478 41.0106 138.749 41.4267 137.707 41.4267C136.145 41.4267 135.207 40.2825 135.207 39.0344C135.207 37.0581 136.978 36.018 139.895 36.018V35.914C139.895 35.3939 139.686 34.5618 138.332 34.5618C137.603 34.5618 136.77 34.7698 136.249 35.1859L135.832 33.9377C136.457 33.6256 137.395 33.2096 138.645 33.2096C141.145 33.2096 141.874 34.7698 141.874 36.538V39.3464H141.77ZM139.79 37.3701C138.332 37.3701 136.978 37.6822 136.978 38.8263C136.978 39.5544 137.499 39.9705 138.124 39.9705C138.957 39.9705 139.478 39.4504 139.686 38.9304C139.686 38.8263 139.686 38.6183 139.686 38.5143V37.3701H139.79Z" fill="url(#paint6_linear_1_1755)"/>
<path d="M144.586 29.6731H146.565V34.3537C147.086 33.6256 147.919 33.1056 149.065 33.1056C151.044 33.1056 152.398 34.6658 152.398 37.1621C152.398 39.9705 150.628 41.4267 148.857 41.4267C147.815 41.4267 146.878 41.0107 146.357 40.0745L146.253 41.2187H144.586C144.586 40.6986 144.69 39.7625 144.69 39.0344V29.6731H144.586ZM146.565 37.9942C146.565 38.2023 146.565 38.3063 146.565 38.5143C146.773 39.3464 147.503 39.8665 148.336 39.8665C149.586 39.8665 150.315 38.8264 150.315 37.2661C150.315 35.914 149.69 34.7698 148.336 34.7698C147.503 34.7698 146.773 35.3939 146.565 36.226C146.565 36.33 146.461 36.538 146.461 36.7461V37.9942H146.565Z" fill="url(#paint7_linear_1_1755)"/>
<path d="M156.772 29.6733H154.793V41.2189H156.772V29.6733Z" fill="url(#paint8_linear_1_1755)"/>
<path d="M161.042 37.7862C161.042 39.2423 162.187 39.8664 163.437 39.8664C164.375 39.8664 165 39.7624 165.625 39.5544L165.937 40.9065C165.208 41.2186 164.271 41.4266 163.125 41.4266C160.521 41.4266 159.062 39.8664 159.062 37.4741C159.062 35.2898 160.417 33.2096 162.917 33.2096C165.521 33.2096 166.354 35.2898 166.354 37.0581C166.354 37.4741 166.354 37.6821 166.25 37.8902H161.042V37.7862ZM164.583 36.434C164.583 35.7059 164.271 34.4577 162.917 34.4577C161.667 34.4577 161.146 35.6019 161.042 36.434H164.583Z" fill="url(#paint9_linear_1_1755)"/>
<path d="M176.357 41.4266C174.169 41.4266 172.398 39.8664 172.398 37.3701C172.398 34.7698 174.065 33.2096 176.461 33.2096C178.857 33.2096 180.419 34.8738 180.419 37.2661C180.419 40.0744 178.336 41.4266 176.357 41.4266ZM176.357 39.9704C177.503 39.9704 178.336 38.8263 178.336 37.2661C178.336 36.0179 177.815 34.5618 176.461 34.5618C175.003 34.5618 174.482 35.9139 174.482 37.2661C174.378 38.8263 175.211 39.9704 176.357 39.9704Z" fill="url(#paint10_linear_1_1755)"/>
<path d="M182.71 35.6023C182.71 34.6661 182.71 33.9381 182.605 33.21H184.376L184.48 34.3541C184.793 33.73 185.73 33.002 186.98 33.002C188.335 33.002 189.793 33.9381 189.793 36.4344V41.1149H187.814V36.6424C187.814 35.4982 187.397 34.6661 186.251 34.6661C185.418 34.6661 184.897 35.1862 184.689 35.8103C184.585 36.0183 184.585 36.2263 184.585 36.4344V41.1149H182.605V35.6023H182.71Z" fill="url(#paint11_linear_1_1755)"/>
<path d="M199.167 31.2334V33.3137H201.042V34.7698H199.167V38.2022C199.167 39.1384 199.375 39.6584 200.208 39.6584C200.521 39.6584 200.729 39.6584 200.937 39.5544V41.1146C200.625 41.2186 200.104 41.3226 199.479 41.3226C198.75 41.3226 198.125 41.1146 197.708 40.6985C197.292 40.2825 197.083 39.5544 197.083 38.5143V34.7698H195.938V33.3137H197.083V31.8575L199.167 31.2334Z" fill="url(#paint12_linear_1_1755)"/>
<path d="M203.23 29.6731H205.21V34.3537C205.418 33.9376 205.835 33.6256 206.251 33.4176C206.668 33.2095 207.085 33.1055 207.605 33.1055C208.96 33.1055 210.418 34.0416 210.418 36.538V41.2186H208.439V36.746C208.439 35.6018 208.022 34.7697 206.876 34.7697C206.147 34.7697 205.522 35.2898 205.314 35.9139C205.21 36.1219 205.21 36.3299 205.21 36.538V41.3226H203.23V29.6731Z" fill="url(#paint13_linear_1_1755)"/>
<path d="M214.686 37.7862C214.686 39.2424 215.832 39.8665 217.082 39.8665C218.02 39.8665 218.645 39.7625 219.27 39.5544L219.582 40.9066C218.853 41.2187 217.915 41.4267 216.77 41.4267C214.165 41.4267 212.707 39.8665 212.707 37.4742C212.707 35.2899 214.061 33.2096 216.561 33.2096C219.165 33.2096 219.999 35.2899 219.999 37.0581C219.999 37.4742 219.999 37.6822 219.895 37.8902H214.686V37.7862ZM218.124 36.434C218.124 35.7059 217.811 34.4578 216.457 34.4578C215.207 34.4578 214.686 35.6019 214.582 36.434H218.124Z" fill="url(#paint14_linear_1_1755)"/>
<path d="M74.7911 51.828C74.7911 46.4194 79.2702 43.8191 79.4786 43.611C76.9786 39.8666 73.0202 39.4505 71.5619 39.3465C68.2286 39.0345 64.9994 41.3227 63.3327 41.3227C61.5619 41.3227 59.0619 39.3465 56.2494 39.4505C52.6036 39.5545 49.2702 41.6348 47.3952 44.8592C43.5411 51.412 46.4577 61.1892 50.1036 66.4939C51.9786 69.0942 54.0619 72.0065 56.8744 71.9025C59.5827 71.7985 60.6244 70.1343 63.9577 70.1343C67.1869 70.1343 68.2286 71.9025 71.0411 71.7985C73.9577 71.7985 75.8327 69.1982 77.6036 66.4939C79.6869 63.4775 80.5202 60.5651 80.6244 60.3571C80.4161 60.4611 74.7911 58.2768 74.7911 51.828Z" fill="url(#paint15_linear_1_1755)"/>
<path d="M69.374 35.9142C70.8323 34.042 71.874 31.5457 71.5615 29.0493C69.4781 29.1533 66.7698 30.5055 65.2073 32.2737C63.8531 33.834 62.6031 36.4343 62.9156 38.9306C65.4156 39.0347 67.8115 37.6825 69.374 35.9142Z" fill="url(#paint16_linear_1_1755)"/>
<path d="M114.271 71.4864H110.417L108.333 64.9335H101.042L99.0625 71.4864H95.3125L102.604 49.1235H107.083L114.271 71.4864ZM107.708 62.1252L105.833 56.3004C105.625 55.6764 105.208 54.3242 104.687 52.1399H104.583C104.375 53.076 103.958 54.5322 103.542 56.3004L101.667 62.1252H107.708Z" fill="url(#paint17_linear_1_1755)"/>
<path d="M132.811 63.2698C132.811 65.9741 132.082 68.1584 130.624 69.7186C129.27 71.1748 127.603 71.7988 125.728 71.7988C123.645 71.7988 122.082 71.0707 121.145 69.5106H121.04V77.9356H117.499V60.6694C117.499 58.9012 117.499 57.237 117.395 55.3648H120.52L120.728 57.8611H120.832C121.978 55.9889 123.853 54.9487 126.249 54.9487C128.124 54.9487 129.686 55.6768 131.04 57.237C132.082 58.7972 132.811 60.7735 132.811 63.2698ZM129.165 63.3738C129.165 61.8136 128.853 60.5654 128.124 59.5253C127.395 58.4852 126.353 57.9651 124.999 57.9651C124.165 57.9651 123.332 58.2771 122.603 58.7972C121.874 59.4213 121.457 60.1494 121.145 61.0855C121.04 61.5016 120.936 61.9176 120.936 62.1256V64.83C120.936 65.9741 121.249 67.0142 121.978 67.7423C122.707 68.5744 123.645 68.9905 124.79 68.9905C126.145 68.9905 127.186 68.4704 127.915 67.4303C128.749 66.3902 129.165 65.038 129.165 63.3738Z" fill="url(#paint18_linear_1_1755)"/>
<path d="M151.253 63.2698C151.253 65.9741 150.523 68.1584 149.065 69.7186C147.711 71.1748 146.148 71.7988 144.169 71.7988C142.086 71.7988 140.523 71.0707 139.586 69.5106H139.482V77.9356H135.94V60.6694C135.94 58.9012 135.94 57.237 135.836 55.3648H138.961L139.169 57.8611H139.273C140.419 55.9889 142.294 54.9487 144.69 54.9487C146.565 54.9487 148.128 55.6768 149.482 57.237C150.628 58.7972 151.253 60.7735 151.253 63.2698ZM147.607 63.3738C147.607 61.8136 147.294 60.5654 146.565 59.5253C145.836 58.4852 144.794 57.9651 143.44 57.9651C142.607 57.9651 141.773 58.2771 141.044 58.7972C140.315 59.4213 139.898 60.1494 139.69 61.0855C139.586 61.5016 139.482 61.9176 139.482 62.1256V64.83C139.482 65.9741 139.794 67.0142 140.523 67.7423C141.253 68.5744 142.19 68.9905 143.336 68.9905C144.69 68.9905 145.732 68.4704 146.461 67.4303C147.294 66.3902 147.607 65.038 147.607 63.3738Z" fill="url(#paint19_linear_1_1755)"/>
<path d="M171.979 65.2458C171.979 67.1181 171.354 68.6783 170 69.9264C168.542 71.2786 166.563 71.9027 163.958 71.9027C161.562 71.9027 159.583 71.4866 158.125 70.5505L158.958 67.5341C160.521 68.4703 162.292 68.9903 164.167 68.9903C165.521 68.9903 166.563 68.6783 167.292 68.0542C168.021 67.4301 168.438 66.598 168.438 65.6619C168.438 64.7258 168.125 63.9977 167.5 63.3736C166.875 62.7495 165.833 62.2295 164.375 61.6054C160.417 60.1492 158.542 57.9649 158.542 55.2606C158.542 53.3883 159.271 51.9321 160.625 50.788C161.979 49.6439 163.854 49.0198 166.042 49.0198C168.125 49.0198 169.792 49.3318 171.146 50.0599L170.208 52.9723C168.958 52.2442 167.5 51.9321 165.938 51.9321C164.688 51.9321 163.646 52.2442 163.021 52.8683C162.396 53.3883 162.083 54.1164 162.083 54.8445C162.083 55.6766 162.396 56.4047 163.125 57.0288C163.75 57.5489 164.792 58.1729 166.354 58.797C168.229 59.5251 169.688 60.4612 170.625 61.5014C171.563 62.3335 171.979 63.6856 171.979 65.2458Z" fill="url(#paint20_linear_1_1755)"/>
<path d="M183.853 58.0686H179.895V65.8696C179.895 67.8458 180.624 68.8859 181.978 68.8859C182.603 68.8859 183.124 68.7819 183.54 68.6779L183.645 71.3822C182.915 71.6943 181.978 71.7983 180.832 71.7983C179.374 71.7983 178.332 71.3822 177.499 70.5501C176.665 69.718 176.353 68.2619 176.353 66.1816V58.0686H173.957V55.3642H176.353V52.4519L179.895 51.4117V55.3642H183.853V58.0686Z" fill="url(#paint21_linear_1_1755)"/>
<path d="M201.565 63.2695C201.565 65.7658 200.836 67.7421 199.482 69.4063C198.023 71.0705 196.044 71.9026 193.544 71.9026C191.148 71.9026 189.273 71.0705 187.919 69.5103C186.565 67.9501 185.836 65.9739 185.836 63.5816C185.836 61.0852 186.565 59.005 188.023 57.4448C189.482 55.8846 191.461 55.0525 193.857 55.0525C196.253 55.0525 198.128 55.8846 199.586 57.4448C200.94 58.901 201.565 60.8772 201.565 63.2695ZM197.919 63.3735C197.919 61.9174 197.607 60.6692 196.982 59.5251C196.253 58.2769 195.211 57.5488 193.753 57.5488C192.294 57.5488 191.253 58.1729 190.523 59.5251C189.898 60.5652 189.586 61.9174 189.586 63.3735C189.586 64.8297 189.898 66.0779 190.523 67.222C191.253 68.4702 192.398 69.0943 193.753 69.0943C195.107 69.0943 196.148 68.4702 196.982 67.118C197.607 66.1819 197.919 64.9337 197.919 63.3735Z" fill="url(#paint22_linear_1_1755)"/>
<path d="M213.228 58.485C212.915 58.381 212.499 58.381 212.082 58.381C210.832 58.381 209.895 58.9011 209.165 59.8372C208.54 60.6693 208.228 61.7094 208.228 63.0616V71.4866H204.686V60.4613C204.686 58.589 204.686 56.9248 204.582 55.3646H207.707L207.811 58.485H207.915C208.332 57.4449 208.853 56.6128 209.686 55.9887C210.52 55.3646 211.353 55.1566 212.29 55.1566C212.603 55.1566 212.915 55.1566 213.228 55.2606V58.485Z" fill="url(#paint23_linear_1_1755)"/>
<path d="M229.271 62.6455C229.271 63.2696 229.271 63.7897 229.167 64.3097H218.438C218.438 65.8699 218.958 67.1181 220 67.9502C220.938 68.6783 222.083 69.0943 223.542 69.0943C225.104 69.0943 226.563 68.8863 227.917 68.3662L228.438 70.8626C226.875 71.4866 225.104 71.9027 223.021 71.9027C220.521 71.9027 218.542 71.1746 217.188 69.7184C215.729 68.2622 215 66.286 215 63.7897C215 61.3974 215.625 59.3171 216.979 57.7569C218.333 55.9887 220.208 55.1566 222.604 55.1566C224.896 55.1566 226.667 55.9887 227.917 57.7569C228.75 59.0051 229.271 60.6693 229.271 62.6455ZM225.833 61.7094C225.833 60.6693 225.625 59.7332 225.104 59.0051C224.479 57.965 223.542 57.5489 222.292 57.5489C221.146 57.5489 220.208 58.069 219.479 59.0051C218.854 59.7332 218.542 60.6693 218.438 61.8134H225.833V61.7094Z" fill="url(#paint24_linear_1_1755)"/>
<defs>
<filter id="filter0_d_1_1755" x="0" y="0" width="275" height="114.904" filterUnits="userSpaceOnUse" color-interpolation-filters="sRGB">
<feFlood flood-opacity="0" result="BackgroundImageFix"/>
<feColorMatrix in="SourceAlpha" type="matrix" values="0 0 0 0 0 0 0 0 0 0 0 0 0 0 0 0 0 0 127 0" result="hardAlpha"/>
<feOffset dy="5"/>
<feGaussianBlur stdDeviation="12.5"/>
<feComposite in2="hardAlpha" operator="out"/>
<feColorMatrix type="matrix" values="0 0 0 0 0.109804 0 0 0 0 0.0862745 0 0 0 0 0.294118 0 0 0 0.2 0"/>
<feBlend mode="normal" in2="BackgroundImageFix" result="effect1_dropShadow_1_1755"/>
<feBlend mode="normal" in="SourceGraphic" in2="effect1_dropShadow_1_1755" result="shape"/>
</filter>
<linearGradient id="paint0_linear_1_1755" x1="25" y1="20" x2="142.622" y2="166.509" gradientUnits="userSpaceOnUse">
<stop stop-color="#172E65"/>
<stop offset="1" stop-color="#311145"/>
</linearGradient>
<linearGradient id="paint1_linear_1_1755" x1="96.5625" y1="30.2971" x2="108.292" y2="34.0356" gradientUnits="userSpaceOnUse">
<stop stop-color="#172E65"/>
<stop offset="1" stop-color="#311145"/>
</linearGradient>
<linearGradient id="paint2_linear_1_1755" x1="106.98" y1="33.3134" x2="116.329" y2="36.6775" gradientUnits="userSpaceOnUse">
<stop stop-color="#172E65"/>
<stop offset="1" stop-color="#311145"/>
</linearGradient>
<linearGradient id="paint3_linear_1_1755" x1="116.461" y1="33.2096" x2="124.657" y2="35.5988" gradientUnits="userSpaceOnUse">
<stop stop-color="#172E65"/>
<stop offset="1" stop-color="#311145"/>
</linearGradient>
<linearGradient id="paint4_linear_1_1755" x1="125.625" y1="30.0891" x2="128.665" y2="30.314" gradientUnits="userSpaceOnUse">
<stop stop-color="#172E65"/>
<stop offset="1" stop-color="#311145"/>
</linearGradient>
<linearGradient id="paint5_linear_1_1755" x1="130.727" y1="29.6731" x2="133.356" y2="29.8351" gradientUnits="userSpaceOnUse">
<stop stop-color="#172E65"/>
<stop offset="1" stop-color="#311145"/>
</linearGradient>
<linearGradient id="paint6_linear_1_1755" x1="135.207" y1="33.2096" x2="143.403" y2="35.5987" gradientUnits="userSpaceOnUse">
<stop stop-color="#172E65"/>
<stop offset="1" stop-color="#311145"/>
</linearGradient>
<linearGradient id="paint7_linear_1_1755" x1="144.586" y1="29.6731" x2="154.444" y2="32.0275" gradientUnits="userSpaceOnUse">
<stop stop-color="#172E65"/>
<stop offset="1" stop-color="#311145"/>
</linearGradient>
<linearGradient id="paint8_linear_1_1755" x1="154.793" y1="29.6733" x2="157.423" y2="29.8353" gradientUnits="userSpaceOnUse">
<stop stop-color="#172E65"/>
<stop offset="1" stop-color="#311145"/>
</linearGradient>
<linearGradient id="paint9_linear_1_1755" x1="159.062" y1="33.2096" x2="167.891" y2="36.0244" gradientUnits="userSpaceOnUse">
<stop stop-color="#172E65"/>
<stop offset="1" stop-color="#311145"/>
</linearGradient>
<linearGradient id="paint10_linear_1_1755" x1="172.398" y1="33.2096" x2="181.925" y2="36.5508" gradientUnits="userSpaceOnUse">
<stop stop-color="#172E65"/>
<stop offset="1" stop-color="#311145"/>
</linearGradient>
<linearGradient id="paint11_linear_1_1755" x1="182.605" y1="33.002" x2="191.31" y2="35.7729" gradientUnits="userSpaceOnUse">
<stop stop-color="#172E65"/>
<stop offset="1" stop-color="#311145"/>
</linearGradient>
<linearGradient id="paint12_linear_1_1755" x1="195.938" y1="31.2334" x2="202.528" y2="32.4313" gradientUnits="userSpaceOnUse">
<stop stop-color="#172E65"/>
<stop offset="1" stop-color="#311145"/>
</linearGradient>
<linearGradient id="paint13_linear_1_1755" x1="203.23" y1="29.6731" x2="212.368" y2="31.6988" gradientUnits="userSpaceOnUse">
<stop stop-color="#172E65"/>
<stop offset="1" stop-color="#311145"/>
</linearGradient>
<linearGradient id="paint14_linear_1_1755" x1="212.707" y1="33.2096" x2="221.535" y2="36.0244" gradientUnits="userSpaceOnUse">
<stop stop-color="#172E65"/>
<stop offset="1" stop-color="#311145"/>
</linearGradient>
<linearGradient id="paint15_linear_1_1755" x1="45.5742" y1="39.3173" x2="86.2503" y2="55.0367" gradientUnits="userSpaceOnUse">
<stop stop-color="#172E65"/>
<stop offset="1" stop-color="#311145"/>
</linearGradient>
<linearGradient id="paint16_linear_1_1755" x1="62.8672" y1="29.0493" x2="73.4663" y2="32.4197" gradientUnits="userSpaceOnUse">
<stop stop-color="#172E65"/>
<stop offset="1" stop-color="#311145"/>
</linearGradient>
<linearGradient id="paint17_linear_1_1755" x1="95.3125" y1="49.1235" x2="118.453" y2="56.1721" gradientUnits="userSpaceOnUse">
<stop stop-color="#172E65"/>
<stop offset="1" stop-color="#311145"/>
</linearGradient>
<linearGradient id="paint18_linear_1_1755" x1="117.395" y1="54.9487" x2="136.829" y2="59.632" gradientUnits="userSpaceOnUse">
<stop stop-color="#172E65"/>
<stop offset="1" stop-color="#311145"/>
</linearGradient>
<linearGradient id="paint19_linear_1_1755" x1="135.836" y1="54.9487" x2="155.271" y2="59.632" gradientUnits="userSpaceOnUse">
<stop stop-color="#172E65"/>
<stop offset="1" stop-color="#311145"/>
</linearGradient>
<linearGradient id="paint20_linear_1_1755" x1="158.125" y1="49.0198" x2="175.769" y2="52.858" gradientUnits="userSpaceOnUse">
<stop stop-color="#172E65"/>
<stop offset="1" stop-color="#311145"/>
</linearGradient>
<linearGradient id="paint21_linear_1_1755" x1="173.957" y1="51.4117" x2="186.767" y2="53.6459" gradientUnits="userSpaceOnUse">
<stop stop-color="#172E65"/>
<stop offset="1" stop-color="#311145"/>
</linearGradient>
<linearGradient id="paint22_linear_1_1755" x1="185.836" y1="55.0525" x2="204.694" y2="61.3777" gradientUnits="userSpaceOnUse">
<stop stop-color="#172E65"/>
<stop offset="1" stop-color="#311145"/>
</linearGradient>
<linearGradient id="paint23_linear_1_1755" x1="204.582" y1="55.1566" x2="215.711" y2="57.2738" gradientUnits="userSpaceOnUse">
<stop stop-color="#172E65"/>
<stop offset="1" stop-color="#311145"/>
</linearGradient>
<linearGradient id="paint24_linear_1_1755" x1="215" y1="55.1566" x2="232.403" y2="60.4854" gradientUnits="userSpaceOnUse">
<stop stop-color="#172E65"/>
<stop offset="1" stop-color="#311145"/>
</linearGradient>
</defs>
</svg>
