<svg width="216" height="216" viewBox="0 0 216 216" fill="none" xmlns="http://www.w3.org/2000/svg">
<g filter="url(#filter0_d_1_2336)">
<circle cx="108" cy="88" r="58" fill="white"/>
</g>
<circle cx="108" cy="88" r="45" fill="#F0F7F6"/>
<path d="M78 111.707C78.3399 110.498 78.7059 109.316 79.5294 108.32C82.2353 105.025 87.3987 105.291 89.6732 108.917C91.098 111.176 91.1765 113.554 89.8039 115.865C88.5098 118.017 86.549 119.066 84.0654 119C81.1895 118.92 78.719 116.662 78.1176 113.673C78.0915 113.554 78.0392 113.434 78 113.301C78 112.77 78 112.238 78 111.707ZM87.451 112.517C87.4641 110.791 86.1046 109.369 84.4183 109.343C82.7712 109.316 81.3595 110.724 81.3072 112.451C81.268 114.165 82.7059 115.666 84.3922 115.666C86.0523 115.652 87.4379 114.244 87.451 112.517Z" fill="url(#paint0_linear_1_2336)"/>
<path d="M122.836 51C124.052 51.3454 125.215 51.7705 126.195 52.6339C128.444 54.6132 129.006 57.9342 127.503 60.7238C126.13 63.2876 122.98 64.5894 120.235 63.7259C117.32 62.8093 115.529 60.2323 115.633 57.1106C115.738 54.2811 117.869 51.797 120.784 51.1328C120.901 51.1063 121.019 51.0531 121.137 51C121.699 51 122.274 51 122.836 51ZM125.058 57.5357C125.071 55.8088 123.712 54.3874 122.025 54.3608C120.365 54.3342 118.94 55.7423 118.914 57.4559C118.888 59.1961 120.3 60.6706 121.986 60.6706C123.672 60.6839 125.058 59.2626 125.058 57.5357Z" fill="url(#paint1_linear_1_2336)"/>
<path d="M123.619 73.5031C123.619 75.0706 123.632 76.4255 123.619 77.7938C123.554 84.1966 119.318 89.4703 113.162 90.7455C112.377 90.9049 111.567 90.9581 110.769 90.9979C109.75 91.051 108.992 90.3603 108.966 89.4171C108.939 88.474 109.632 87.7035 110.639 87.6769C112.011 87.6371 113.332 87.4113 114.56 86.8135C118.103 85.0999 120.064 82.2306 120.312 78.2454C120.403 76.7443 120.325 75.2433 120.325 73.6359C120.155 73.7688 120.011 73.8617 119.907 73.968C118.913 74.9643 117.933 75.9739 116.952 76.9702C116.168 77.7672 115.135 77.8203 114.456 77.1429C113.763 76.4521 113.815 75.416 114.6 74.6056C116.613 72.5466 118.626 70.5009 120.652 68.4552C121.515 67.5785 122.469 67.5785 123.345 68.4685C125.358 70.5009 127.358 72.5334 129.345 74.5658C130.142 75.3894 130.22 76.4388 129.554 77.0897C128.822 77.807 127.815 77.7406 127.005 76.917C125.92 75.841 124.848 74.7518 123.619 73.5031Z" fill="url(#paint2_linear_1_2336)"/>
<path d="M91.5558 70.4107C92.7323 71.5797 93.8565 72.6955 94.9676 73.8113C95.4774 74.3294 95.6081 74.9538 95.3598 75.6445C95.1375 76.2689 94.6539 76.5744 94.0264 76.6674C93.4513 76.7471 92.9676 76.5345 92.5624 76.1095C91.4774 74.9936 90.3924 73.8778 89.2421 72.7088C88.1833 73.7848 87.1768 74.8342 86.131 75.8703C85.8434 76.1626 85.5036 76.4415 85.1375 76.5877C84.4317 76.8799 83.6473 76.5744 83.2552 75.95C82.863 75.3257 82.9153 74.4357 83.4643 73.8645C84.4186 72.8682 85.399 71.8852 86.3663 70.9022C86.5362 70.7295 86.6931 70.5568 86.9022 70.331C85.7911 69.2019 84.667 68.1259 83.6212 66.9702C83.2944 66.6115 83.0853 66.0536 83.033 65.5754C82.9676 64.9112 83.3598 64.3798 83.9872 64.1407C84.6408 63.875 85.2813 63.9813 85.8042 64.4994C86.7846 65.4691 87.7519 66.4654 88.7192 67.4484C88.8892 67.6211 88.9807 67.8602 89.1375 68.1392C90.4317 66.8108 91.5428 65.6551 92.6539 64.5127C93.1637 63.9946 93.7911 63.875 94.4578 64.1274C95.0591 64.3533 95.4774 64.8448 95.4382 65.4824C95.412 65.9872 95.2029 66.5849 94.8761 66.9569C94.0003 67.9665 93.0199 68.883 92.0787 69.8395C91.9219 69.9989 91.7781 70.1583 91.5558 70.4107Z" fill="url(#paint3_linear_1_2336)"/>
<path d="M109.58 107.339C110.678 108.454 111.736 109.53 112.795 110.606C113.606 111.43 113.697 112.466 113.031 113.144C112.298 113.888 111.279 113.834 110.442 112.971C109.397 111.908 108.364 110.832 107.266 109.703C107.057 109.902 106.887 110.049 106.73 110.221C105.802 111.164 104.887 112.108 103.959 113.037C103.148 113.834 102.129 113.874 101.462 113.184C100.782 112.493 100.861 111.457 101.645 110.646C102.717 109.544 103.802 108.454 104.9 107.339C103.802 106.223 102.73 105.12 101.645 104.031C101.214 103.606 100.952 103.114 101.017 102.503C101.083 101.826 101.423 101.321 102.063 101.109C102.73 100.883 103.357 101.002 103.867 101.534C104.874 102.556 105.867 103.566 106.874 104.589C106.978 104.695 107.096 104.801 107.266 104.961C108.168 104.044 109.057 103.141 109.946 102.238C110.194 101.985 110.429 101.733 110.691 101.494C111.383 100.869 112.377 100.869 113.004 101.48C113.645 102.105 113.671 103.168 113.017 103.872C112.024 104.921 110.991 105.944 109.972 106.98C109.841 107.06 109.736 107.166 109.58 107.339Z" fill="url(#paint4_linear_1_2336)"/>
<path d="M131.201 100.72C130.508 101.437 129.829 102.128 129.162 102.819C128.731 103.257 128.312 103.709 127.868 104.134C127.084 104.864 126.051 104.864 125.423 104.16C124.809 103.483 124.861 102.473 125.593 101.716C126.678 100.6 127.776 99.4977 128.9 98.342C127.829 97.2527 126.783 96.19 125.75 95.1273C125.528 94.8882 125.293 94.6358 125.162 94.3436C124.822 93.6262 125.057 92.7761 125.672 92.3244C126.286 91.8595 127.188 91.8861 127.776 92.4573C128.744 93.3871 129.672 94.3569 130.6 95.3133C130.796 95.5126 130.979 95.7384 131.227 96.0173C132.129 95.1008 132.966 94.2373 133.802 93.3871C134.09 93.0949 134.378 92.7761 134.678 92.4971C135.384 91.8462 136.404 91.8595 137.031 92.4971C137.633 93.1215 137.646 94.1576 137.018 94.8351C136.077 95.8447 135.097 96.8144 134.116 97.7974C133.946 97.9701 133.711 98.0631 133.45 98.2225C134.744 99.5243 135.868 100.627 136.953 101.769C137.816 102.673 137.619 103.961 136.587 104.506C135.946 104.838 135.201 104.705 134.613 104.12C133.646 103.164 132.704 102.181 131.75 101.211C131.567 101.065 131.41 100.919 131.201 100.72Z" fill="url(#paint5_linear_1_2336)"/>
<path d="M92.7817 90.2805C92.7948 91.2369 92.0889 92.0074 91.187 92.0207C90.3111 92.034 89.5138 91.2768 89.5007 90.4266C89.4745 89.4835 90.2066 88.6997 91.1085 88.6997C92.0236 88.6997 92.7687 89.4038 92.7817 90.2805Z" fill="url(#paint6_linear_1_2336)"/>
<path d="M99.1744 89.3903C99.1613 90.3069 98.3901 91.0508 97.4881 91.0242C96.6123 90.9976 95.8934 90.2404 95.9064 89.3504C95.9195 88.487 96.6777 87.7032 97.5273 87.6899C98.4032 87.6899 99.1875 88.487 99.1744 89.3903Z" fill="url(#paint7_linear_1_2336)"/>
<path d="M105.715 89.3506C105.728 90.2406 104.996 90.9978 104.12 91.0243C103.205 91.0509 102.447 90.2937 102.434 89.3771C102.434 88.4738 103.218 87.6768 104.094 87.6901C104.943 87.7034 105.715 88.4871 105.715 89.3506Z" fill="url(#paint8_linear_1_2336)"/>
<path d="M86.0141 100.841C86.0271 101.744 85.3213 102.501 84.4324 102.528C83.5566 102.555 82.7461 101.758 82.7461 100.854C82.7461 99.9642 83.5043 99.207 84.3801 99.207C85.269 99.207 86.001 99.9376 86.0141 100.841Z" fill="url(#paint9_linear_1_2336)"/>
<path d="M86.2748 92.9639C87.2029 92.9639 87.8303 93.6413 87.8303 94.6111C87.8303 95.5277 87.1375 96.2715 86.2486 96.2715C85.3336 96.2848 84.6146 95.5409 84.6016 94.5845C84.6146 93.6281 85.2944 92.9639 86.2748 92.9639Z" fill="url(#paint10_linear_1_2336)"/>
<defs>
<filter id="filter0_d_1_2336" x="0" y="0" width="216" height="216" filterUnits="userSpaceOnUse" color-interpolation-filters="sRGB">
<feFlood flood-opacity="0" result="BackgroundImageFix"/>
<feColorMatrix in="SourceAlpha" type="matrix" values="0 0 0 0 0 0 0 0 0 0 0 0 0 0 0 0 0 0 127 0" result="hardAlpha"/>
<feOffset dy="20"/>
<feGaussianBlur stdDeviation="25"/>
<feComposite in2="hardAlpha" operator="out"/>
<feColorMatrix type="matrix" values="0 0 0 0 0.14902 0 0 0 0 0.784314 0 0 0 0 0.933333 0 0 0 0.5 0"/>
<feBlend mode="normal" in2="BackgroundImageFix" result="effect1_dropShadow_1_2336"/>
<feBlend mode="normal" in="SourceGraphic" in2="effect1_dropShadow_1_2336" result="shape"/>
</filter>
<linearGradient id="paint0_linear_1_2336" x1="78" y1="115.614" x2="90.7891" y2="115.631" gradientUnits="userSpaceOnUse">
<stop stop-color="#00C0B4"/>
<stop offset="1" stop-color="#29C9F3"/>
</linearGradient>
<linearGradient id="paint1_linear_1_2336" x1="115.629" y1="60.6026" x2="128.342" y2="60.619" gradientUnits="userSpaceOnUse">
<stop stop-color="#00C0B4"/>
<stop offset="1" stop-color="#29C9F3"/>
</linearGradient>
<linearGradient id="paint2_linear_1_2336" x1="108.965" y1="84.9482" x2="130.004" y2="84.9733" gradientUnits="userSpaceOnUse">
<stop stop-color="#00C0B4"/>
<stop offset="1" stop-color="#29C9F3"/>
</linearGradient>
<linearGradient id="paint3_linear_1_2336" x1="83" y1="64" x2="97.8025" y2="69.2275" gradientUnits="userSpaceOnUse">
<stop stop-color="#172E65"/>
<stop offset="1" stop-color="#311145"/>
</linearGradient>
<linearGradient id="paint4_linear_1_2336" x1="101" y1="101" x2="115.808" y2="106.248" gradientUnits="userSpaceOnUse">
<stop stop-color="#172E65"/>
<stop offset="1" stop-color="#311145"/>
</linearGradient>
<linearGradient id="paint5_linear_1_2336" x1="125" y1="92" x2="139.812" y2="97.2427" gradientUnits="userSpaceOnUse">
<stop stop-color="#172E65"/>
<stop offset="1" stop-color="#311145"/>
</linearGradient>
<linearGradient id="paint6_linear_1_2336" x1="89.5" y1="91.1545" x2="92.7819" y2="91.1587" gradientUnits="userSpaceOnUse">
<stop stop-color="#00C0B4"/>
<stop offset="1" stop-color="#29C9F3"/>
</linearGradient>
<linearGradient id="paint7_linear_1_2336" x1="95.9063" y1="90.1549" x2="99.1746" y2="90.1591" gradientUnits="userSpaceOnUse">
<stop stop-color="#00C0B4"/>
<stop offset="1" stop-color="#29C9F3"/>
</linearGradient>
<linearGradient id="paint8_linear_1_2336" x1="102.434" y1="90.155" x2="105.715" y2="90.1592" gradientUnits="userSpaceOnUse">
<stop stop-color="#00C0B4"/>
<stop offset="1" stop-color="#29C9F3"/>
</linearGradient>
<linearGradient id="paint9_linear_1_2336" x1="82.7461" y1="101.662" x2="86.0143" y2="101.666" gradientUnits="userSpaceOnUse">
<stop stop-color="#00C0B4"/>
<stop offset="1" stop-color="#29C9F3"/>
</linearGradient>
<linearGradient id="paint10_linear_1_2336" x1="84.6016" y1="95.4088" x2="87.8303" y2="95.4129" gradientUnits="userSpaceOnUse">
<stop stop-color="#00C0B4"/>
<stop offset="1" stop-color="#29C9F3"/>
</linearGradient>
</defs>
</svg>
