<svg width="216" height="216" viewBox="0 0 216 216" fill="none" xmlns="http://www.w3.org/2000/svg">
<g filter="url(#filter0_d_1_2352)">
<circle cx="108" cy="88" r="58" fill="white"/>
</g>
<circle cx="108" cy="88" r="45" fill="#F0F7F6"/>
<path d="M86.6378 112.31C86.0898 112.914 85.3746 112.997 84.6037 112.997C82.1703 112.979 79.7461 112.988 77.3127 112.988C75.8731 112.988 75 112.115 75 110.685C75 106.2 75 101.707 75 97.2218C75 95.6526 75.8359 94.8077 77.4056 94.8077C79.8019 94.8077 82.2074 94.817 84.6037 94.7984C85.4303 94.7891 86.1734 94.9284 86.7585 95.5969C88.5604 94.1763 90.6223 93.4428 92.8328 93.0714C94.7276 92.7557 96.613 92.6257 98.4799 93.2385C99.4737 93.5635 100.393 94.0463 101.192 94.7241C102.464 95.8012 103.932 96.3026 105.594 96.2747C106.867 96.2562 108.13 96.2933 109.402 96.2655C112.523 96.2005 115.161 99.0138 114.632 101.994C114.622 102.05 114.632 102.115 114.632 102.264C114.975 102.171 115.291 102.106 115.579 102.004C120.455 100.295 125.331 98.6146 130.189 96.869C132.167 96.154 133.913 97.0547 134.61 98.4939C135.437 100.202 134.879 102.115 133.217 103.183C128.192 106.405 123.158 109.627 118.133 112.849C116.926 113.619 115.625 114.009 114.186 114.009C106.867 114.009 99.5387 114.018 92.2198 114.018C90.2136 114 88.3653 113.415 86.6378 112.31ZM103.152 111.697C103.152 111.707 103.152 111.716 103.152 111.716C106.839 111.716 110.517 111.706 114.204 111.716C115.198 111.716 116.09 111.465 116.926 110.917C117.752 110.379 118.588 109.849 119.424 109.311C123.613 106.628 127.811 103.935 132 101.252C132.697 100.806 132.91 100.109 132.576 99.4595C132.269 98.856 131.749 98.7074 130.941 98.9953C126.056 100.713 121.17 102.431 116.276 104.121C115.7 104.316 115.068 104.427 114.464 104.436C112.124 104.473 109.793 104.455 107.452 104.455C106.096 104.455 104.861 104.845 103.765 105.643C103.588 105.773 103.421 105.903 103.235 106.015C102.697 106.33 102.046 106.2 101.712 105.708C101.368 105.207 101.443 104.557 101.935 104.176C103.495 102.941 105.251 102.208 107.266 102.208C108.641 102.208 110.025 102.208 111.399 102.208C112.235 102.208 112.449 102.013 112.412 101.159C112.402 100.843 112.319 100.509 112.18 100.23C111.622 99.0974 110.684 98.531 109.421 98.5217C108.139 98.5124 106.848 98.5032 105.567 98.5217C103.365 98.5589 101.433 97.8811 99.7523 96.4697C98.9721 95.8291 98.0898 95.402 97.096 95.2163C95.3406 94.882 93.613 95.1513 91.904 95.5784C90.2601 95.9869 88.7461 96.6647 87.5573 97.9275C87.3065 98.1968 87.2043 98.466 87.2043 98.8374C87.2136 102.208 87.2415 105.588 87.1858 108.958C87.1765 109.747 87.4737 110.193 88.0774 110.574C89.2755 111.335 90.613 111.669 91.9969 111.688C95.7214 111.716 99.4365 111.697 103.152 111.697ZM84.9288 97.1011C82.356 97.1011 79.839 97.1011 77.2941 97.1011C77.2941 101.642 77.2941 106.173 77.2941 110.704C79.8576 110.704 82.3839 110.704 84.9288 110.704C84.9288 106.163 84.9288 101.651 84.9288 97.1011Z" fill="url(#paint0_linear_1_2352)"/>
<path d="M105.846 89.2646C105.846 88.4289 105.828 87.5933 105.856 86.7576C105.865 86.4327 105.763 86.2284 105.512 86.0148C101.732 82.8672 99.5305 78.8468 98.9918 73.9721C98.063 65.5691 103.153 57.6769 111.178 54.9563C121.775 51.3723 133.106 58.2804 134.787 69.3574C136.32 79.4039 129.233 88.7261 119.137 89.961C116.852 90.2395 114.605 90.0817 112.366 89.5246C112.171 89.4782 111.874 89.5524 111.716 89.6731C110.416 90.6759 109.134 91.6973 107.852 92.7186C107.434 93.0529 106.989 93.2107 106.487 92.96C106.004 92.7186 105.846 92.2822 105.856 91.7623C105.856 90.9359 105.846 90.1003 105.846 89.2646ZM108.122 89.6174C109.106 88.8375 109.998 88.1504 110.871 87.4354C111.326 87.064 111.772 86.9898 112.329 87.1569C115.264 88.0483 118.208 88.0854 121.162 87.2776C128.732 85.207 133.58 77.8997 132.595 70.0538C131.453 60.8338 122.444 54.5014 113.416 56.6926C106.998 58.2525 102.93 62.4122 101.546 68.8189C100.171 75.1792 102.298 80.4902 107.369 84.5756C107.908 85.012 108.159 85.467 108.131 86.1448C108.094 87.2683 108.122 88.3825 108.122 89.6174Z" fill="url(#paint1_linear_1_2352)"/>
<path d="M81.2322 106.878C81.2322 107.528 80.7213 108.02 80.0805 108.011C79.4675 108.001 78.9752 107.491 78.9845 106.869C78.9938 106.237 79.4768 105.764 80.1176 105.764C80.7492 105.764 81.2322 106.246 81.2322 106.878Z" fill="url(#paint2_linear_1_2352)"/>
<path d="M120.056 77.8903C120.371 77.8903 120.631 77.881 120.891 77.8903C121.56 77.9089 122.034 78.3174 122.043 78.9767C122.071 80.3416 122.071 81.6972 122.043 83.0621C122.025 83.7028 121.56 84.1206 120.919 84.1206C118.272 84.1299 115.625 84.1299 112.978 84.1206C112.282 84.1206 111.845 83.6842 111.836 82.9878C111.817 81.6693 111.817 80.3601 111.836 79.0417C111.845 78.3267 112.3 77.8996 113.015 77.8903C113.257 77.881 113.508 77.8903 113.786 77.8903C113.786 76.6554 113.786 75.4576 113.786 74.1763C113.526 74.1763 113.257 74.1856 112.987 74.1763C112.3 74.1577 111.845 73.7306 111.836 73.0435C111.817 71.725 111.817 70.4158 111.826 69.0974C111.836 68.3824 112.319 67.946 113.062 67.946C114.966 67.9367 116.87 67.946 118.774 67.946C119.628 67.946 120.056 68.3638 120.056 69.2274C120.056 71.92 120.056 74.6127 120.056 77.3054C120.056 77.4818 120.056 77.6675 120.056 77.8903ZM119.768 80.1559C119.554 80.1559 119.387 80.1559 119.22 80.1559C118.17 80.1559 117.808 79.7845 117.808 78.7167C117.808 76.0704 117.808 73.4242 117.808 70.778C117.808 70.6015 117.808 70.4158 117.808 70.2301C116.545 70.2301 115.337 70.2301 114.13 70.2301C114.13 70.8058 114.13 71.3536 114.13 71.9293C114.408 71.9293 114.659 71.92 114.901 71.9293C115.616 71.9479 116.071 72.375 116.071 73.0899C116.08 75.0584 116.08 77.0175 116.071 78.986C116.071 79.7009 115.625 80.1373 114.91 80.1559C114.65 80.1652 114.39 80.1559 114.13 80.1559C114.13 80.7501 114.13 81.2979 114.13 81.8365C116.034 81.8365 117.891 81.8365 119.768 81.8365C119.768 81.2794 119.768 80.7501 119.768 80.1559Z" fill="url(#paint3_linear_1_2352)"/>
<path d="M120.054 63.1645C120.036 64.8729 118.633 66.2471 116.915 66.2285C115.169 66.2099 113.785 64.7893 113.813 63.0252C113.841 61.3353 115.271 59.9611 116.971 59.9797C118.698 59.9982 120.073 61.4189 120.054 63.1645ZM117.797 63.0902C117.788 62.6259 117.389 62.2452 116.924 62.2545C116.451 62.2638 116.07 62.6445 116.079 63.118C116.079 63.573 116.488 63.963 116.952 63.9537C117.417 63.9537 117.807 63.5544 117.797 63.0902Z" fill="url(#paint4_linear_1_2352)"/>
<defs>
<filter id="filter0_d_1_2352" x="0" y="0" width="216" height="216" filterUnits="userSpaceOnUse" color-interpolation-filters="sRGB">
<feFlood flood-opacity="0" result="BackgroundImageFix"/>
<feColorMatrix in="SourceAlpha" type="matrix" values="0 0 0 0 0 0 0 0 0 0 0 0 0 0 0 0 0 0 127 0" result="hardAlpha"/>
<feOffset dy="20"/>
<feGaussianBlur stdDeviation="25"/>
<feComposite in2="hardAlpha" operator="out"/>
<feColorMatrix type="matrix" values="0 0 0 0 0.14902 0 0 0 0 0.784314 0 0 0 0 0.933333 0 0 0 0.5 0"/>
<feBlend mode="normal" in2="BackgroundImageFix" result="effect1_dropShadow_1_2352"/>
<feBlend mode="normal" in="SourceGraphic" in2="effect1_dropShadow_1_2352" result="shape"/>
</filter>
<linearGradient id="paint0_linear_1_2352" x1="75" y1="108.485" x2="134.988" y2="108.708" gradientUnits="userSpaceOnUse">
<stop stop-color="#00C0B4"/>
<stop offset="1" stop-color="#29C9F3"/>
</linearGradient>
<linearGradient id="paint1_linear_1_2352" x1="98.8828" y1="54.0039" x2="142.268" y2="68.4094" gradientUnits="userSpaceOnUse">
<stop stop-color="#172E65"/>
<stop offset="1" stop-color="#311145"/>
</linearGradient>
<linearGradient id="paint2_linear_1_2352" x1="78.9844" y1="105.764" x2="81.6396" y2="106.718" gradientUnits="userSpaceOnUse">
<stop stop-color="#172E65"/>
<stop offset="1" stop-color="#311145"/>
</linearGradient>
<linearGradient id="paint3_linear_1_2352" x1="111.82" y1="79.9052" x2="122.064" y2="79.9137" gradientUnits="userSpaceOnUse">
<stop stop-color="#00C0B4"/>
<stop offset="1" stop-color="#29C9F3"/>
</linearGradient>
<linearGradient id="paint4_linear_1_2352" x1="113.813" y1="64.5985" x2="120.055" y2="64.6067" gradientUnits="userSpaceOnUse">
<stop stop-color="#00C0B4"/>
<stop offset="1" stop-color="#29C9F3"/>
</linearGradient>
</defs>
</svg>
