<svg width="216" height="216" viewBox="0 0 216 216" fill="none" xmlns="http://www.w3.org/2000/svg">
<g filter="url(#filter0_d_1_2368)">
<circle cx="108" cy="88" r="58" fill="white"/>
</g>
<circle cx="108" cy="88" r="45" fill="#F0F7F6"/>
<g clip-path="url(#clip0_1_2368)">
<path d="M132 89.6421C132 97.6735 132 105.705 132 113.755C132 117.598 129.601 120 125.751 120C113.911 120 102.089 120 90.2491 120C86.399 120 84 117.598 84 113.755C84 97.7503 84 81.7453 84 65.7403C84 61.6477 86.341 59.3421 90.5006 59.3229C90.8875 59.3229 91.2745 59.3037 91.6614 59.3229C93.2672 59.4574 94.5441 59.3805 95.3761 57.4976C96.1112 55.7876 97.9299 55.019 99.8839 55.019C105.301 54.9998 110.718 54.9806 116.135 55.019C118.612 55.0382 120.334 56.3448 121.32 58.5543C121.591 59.1884 121.92 59.3229 122.539 59.3229C123.99 59.3037 125.441 59.246 126.892 59.419C129.891 59.7456 131.981 62.1089 131.981 65.1639C132 73.3297 132 81.4763 132 89.6421ZM129.098 89.719C129.098 81.6108 129.098 73.5218 129.098 65.4136C129.098 63.4154 127.937 62.2434 125.944 62.2049C124.784 62.1857 123.623 62.2434 122.462 62.1857C121.843 62.1473 121.591 62.3971 121.34 62.9351C120.295 65.2984 118.418 66.528 115.807 66.5472C110.544 66.5665 105.301 66.5665 100.039 66.5472C98.0266 66.5472 96.1499 65.7979 95.3567 64.0302C94.5248 62.1473 93.2672 62.0704 91.6421 62.2049C91.2551 62.2434 90.8682 62.2049 90.4813 62.2049C87.9661 62.2049 86.9021 63.2617 86.9021 65.7787C86.9021 81.7453 86.9021 97.7311 86.9021 113.698C86.9021 116.003 88.0048 117.099 90.3265 117.099C102.128 117.099 113.93 117.099 125.732 117.099C127.976 117.099 129.079 115.984 129.079 113.717C129.098 105.724 129.098 97.7119 129.098 89.719ZM108.048 57.9011C105.398 57.9011 102.767 57.9011 100.116 57.9011C98.3748 57.9011 97.1173 59.0923 97.0979 60.7255C97.0786 62.3779 98.3362 63.646 100.116 63.6652C105.359 63.6844 110.622 63.6844 115.865 63.6652C117.644 63.6652 118.902 62.3971 118.883 60.7255C118.863 59.0923 117.606 57.9203 115.865 57.9011C113.272 57.9011 110.66 57.9011 108.048 57.9011Z" fill="url(#paint0_linear_1_2368)"/>
<path d="M97.8328 85.3579C98.568 85.3579 99.3225 85.3387 100.058 85.3579C102.437 85.4155 104.275 87.2024 104.333 89.5657C104.372 91.1028 104.372 92.6399 104.333 94.177C104.275 96.4058 102.534 98.1927 100.29 98.2887C98.626 98.3656 96.9428 98.3656 95.2596 98.2887C93.1701 98.1927 91.4483 96.5595 91.3322 94.5036C91.2161 92.7552 91.2161 90.9875 91.3322 89.2391C91.4676 87.0871 93.2475 85.4732 95.4144 85.3771C96.227 85.3387 97.0396 85.3579 97.8328 85.3579ZM101.431 91.9098C101.431 91.2373 101.431 90.5648 101.431 89.8923C101.431 89.8347 101.431 89.7578 101.431 89.7002C101.373 88.7972 100.89 88.2784 99.9803 88.24C98.5293 88.2015 97.0782 88.2015 95.6272 88.24C94.7566 88.2592 94.2342 88.7779 94.2149 89.6233C94.1762 91.0644 94.1955 92.5054 94.2149 93.9464C94.2342 94.8687 94.7373 95.3875 95.6659 95.3875C97.1169 95.4067 98.568 95.4259 100.019 95.3875C100.928 95.3682 101.412 94.8303 101.431 93.908C101.451 93.2547 101.431 92.5823 101.431 91.9098Z" fill="url(#paint1_linear_1_2368)"/>
<path d="M97.7546 105.878C98.7026 104.879 99.4185 104.11 100.173 103.361C101.005 102.534 101.798 102.458 102.456 103.092C103.133 103.764 103.056 104.552 102.185 105.417C101.431 106.166 100.657 106.896 99.7474 107.78C100.657 108.606 101.489 109.355 102.282 110.124C103.075 110.892 103.114 111.68 102.495 112.314C101.856 112.968 101.082 112.929 100.289 112.161C99.4765 111.373 98.7026 110.566 97.7933 109.624C97.0001 110.47 96.2649 111.296 95.5104 112.064C94.6591 112.91 93.9046 112.987 93.2274 112.353C92.5309 111.699 92.6083 110.912 93.4983 110.028C94.2528 109.279 95.0267 108.568 96.0327 107.645C95.1234 106.838 94.3108 106.166 93.5563 105.436C92.6276 104.552 92.5503 103.822 93.2081 103.111C93.8659 102.419 94.6591 102.496 95.5297 103.38C96.2262 104.168 96.9227 104.975 97.7546 105.878Z" fill="url(#paint2_linear_1_2368)"/>
<path d="M95.6453 77.6143C96.9996 76.2693 98.1411 75.1165 99.2826 73.9637C100.115 73.1183 100.946 72.2729 101.798 71.4467C102.455 70.8126 103.249 70.755 103.868 71.293C104.487 71.831 104.564 72.6764 103.926 73.3296C101.566 75.7698 99.1665 78.1907 96.7675 80.5924C96.1484 81.2073 95.3938 81.1688 94.7747 80.5732C93.7106 79.5549 92.6852 78.4981 91.6792 77.4222C91.1181 76.8265 91.1375 76.1348 91.6792 75.52C92.2209 74.9052 93.0335 74.8283 93.6526 75.4239C94.3297 76.058 94.9295 76.8073 95.6453 77.6143Z" fill="url(#paint3_linear_1_2368)"/>
<path d="M116.794 91.1405C118.845 91.1405 120.915 91.1405 122.966 91.1405C124.049 91.1405 124.669 91.6401 124.688 92.5239C124.727 93.427 124.069 94.0226 122.966 94.0226C118.787 94.0418 114.589 94.0418 110.41 94.0226C109.346 94.0226 108.746 93.4654 108.727 92.5816C108.727 91.6785 109.307 91.1598 110.39 91.1598C112.538 91.1213 114.666 91.1405 116.794 91.1405Z" fill="url(#paint4_linear_1_2368)"/>
<path d="M116.814 111.334C114.725 111.334 112.635 111.334 110.546 111.334C109.404 111.334 108.766 110.815 108.766 109.912C108.766 108.99 109.385 108.471 110.526 108.452C114.686 108.452 118.826 108.452 122.986 108.452C124.108 108.452 124.746 109.009 124.727 109.932C124.708 110.815 124.088 111.315 123.005 111.334C120.935 111.334 118.865 111.334 116.814 111.334Z" fill="url(#paint5_linear_1_2368)"/>
<path d="M116.676 76.673C114.586 76.673 112.497 76.673 110.407 76.673C109.634 76.673 108.995 76.3655 108.802 75.5586C108.628 74.8669 108.86 74.2712 109.537 73.9638C109.808 73.8293 110.156 73.7909 110.466 73.7909C114.644 73.7717 118.823 73.7717 123.002 73.7909C124.105 73.7909 124.686 74.3289 124.686 75.2127C124.686 76.135 124.086 76.673 122.925 76.6922C120.855 76.6922 118.765 76.673 116.676 76.673Z" fill="url(#paint6_linear_1_2368)"/>
<path d="M116.735 82.4562C118.786 82.4562 120.856 82.4562 122.907 82.4562C124.068 82.4562 124.687 82.9557 124.687 83.878C124.687 84.781 124.068 85.3382 122.926 85.3382C118.767 85.3575 114.626 85.3575 110.467 85.3382C109.325 85.3382 108.706 84.7618 108.745 83.8396C108.764 82.9557 109.345 82.4562 110.447 82.4562C112.556 82.4562 114.646 82.4562 116.735 82.4562Z" fill="url(#paint7_linear_1_2368)"/>
<path d="M116.678 102.669C114.647 102.669 112.615 102.669 110.603 102.669C109.404 102.669 108.746 102.151 108.765 101.209C108.784 100.306 109.404 99.8066 110.564 99.7874C114.685 99.7874 118.806 99.7874 122.927 99.7874C124.069 99.7874 124.707 100.306 124.726 101.19C124.746 102.112 124.069 102.65 122.869 102.669C120.799 102.689 118.748 102.669 116.678 102.669Z" fill="url(#paint8_linear_1_2368)"/>
</g>
<defs>
<filter id="filter0_d_1_2368" x="0" y="0" width="216" height="216" filterUnits="userSpaceOnUse" color-interpolation-filters="sRGB">
<feFlood flood-opacity="0" result="BackgroundImageFix"/>
<feColorMatrix in="SourceAlpha" type="matrix" values="0 0 0 0 0 0 0 0 0 0 0 0 0 0 0 0 0 0 127 0" result="hardAlpha"/>
<feOffset dy="20"/>
<feGaussianBlur stdDeviation="25"/>
<feComposite in2="hardAlpha" operator="out"/>
<feColorMatrix type="matrix" values="0 0 0 0 0.14902 0 0 0 0 0.784314 0 0 0 0 0.933333 0 0 0 0.5 0"/>
<feBlend mode="normal" in2="BackgroundImageFix" result="effect1_dropShadow_1_2368"/>
<feBlend mode="normal" in="SourceGraphic" in2="effect1_dropShadow_1_2368" result="shape"/>
</filter>
<linearGradient id="paint0_linear_1_2368" x1="84" y1="103.043" x2="132" y2="103.089" gradientUnits="userSpaceOnUse">
<stop stop-color="#00C0B4"/>
<stop offset="1" stop-color="#29C9F3"/>
</linearGradient>
<linearGradient id="paint1_linear_1_2368" x1="91.2451" y1="85.3494" x2="106.708" y2="90.9567" gradientUnits="userSpaceOnUse">
<stop stop-color="#172E65"/>
<stop offset="1" stop-color="#311145"/>
</linearGradient>
<linearGradient id="paint2_linear_1_2368" x1="92.7607" y1="102.647" x2="104.755" y2="106.972" gradientUnits="userSpaceOnUse">
<stop stop-color="#172E65"/>
<stop offset="1" stop-color="#311145"/>
</linearGradient>
<linearGradient id="paint3_linear_1_2368" x1="91.2656" y1="78.3995" x2="104.37" y2="78.4219" gradientUnits="userSpaceOnUse">
<stop stop-color="#00C0B4"/>
<stop offset="1" stop-color="#29C9F3"/>
</linearGradient>
<linearGradient id="paint4_linear_1_2368" x1="108.727" y1="93.2802" x2="124.689" y2="93.3956" gradientUnits="userSpaceOnUse">
<stop stop-color="#00C0B4"/>
<stop offset="1" stop-color="#29C9F3"/>
</linearGradient>
<linearGradient id="paint5_linear_1_2368" x1="108.766" y1="110.582" x2="124.727" y2="110.699" gradientUnits="userSpaceOnUse">
<stop stop-color="#00C0B4"/>
<stop offset="1" stop-color="#29C9F3"/>
</linearGradient>
<linearGradient id="paint6_linear_1_2368" x1="108.746" y1="75.9316" x2="124.685" y2="76.0461" gradientUnits="userSpaceOnUse">
<stop stop-color="#00C0B4"/>
<stop offset="1" stop-color="#29C9F3"/>
</linearGradient>
<linearGradient id="paint7_linear_1_2368" x1="108.743" y1="82.4562" x2="113.073" y2="91.0194" gradientUnits="userSpaceOnUse">
<stop stop-color="#172E65"/>
<stop offset="1" stop-color="#311145"/>
</linearGradient>
<linearGradient id="paint8_linear_1_2368" x1="108.765" y1="99.7874" x2="113.077" y2="108.344" gradientUnits="userSpaceOnUse">
<stop stop-color="#172E65"/>
<stop offset="1" stop-color="#311145"/>
</linearGradient>
<clipPath id="clip0_1_2368">
<rect width="48" height="65" fill="white" transform="translate(84 55)"/>
</clipPath>
</defs>
</svg>
