<svg width="216" height="216" viewBox="0 0 216 216" fill="none" xmlns="http://www.w3.org/2000/svg">
<g filter="url(#filter0_d_1_2399)">
<circle cx="108" cy="88" r="58" fill="white"/>
</g>
<circle cx="108" cy="88" r="45" fill="#F0F7F6"/>
<path d="M125.205 71.895C125.652 72.3623 126.107 72.8296 126.561 73.3037C115.905 84.1124 105.235 94.9414 94.5654 105.764C94.0911 105.276 93.6435 104.815 93.1758 104.341C103.832 93.5463 114.515 82.724 125.205 71.895Z" fill="url(#paint0_linear_1_2399)" stroke="url(#paint1_linear_1_2399)"/>
<path d="M87.7064 86.9906C90.6928 86.9906 93.5724 86.9906 96.4786 86.9906C96.4786 87.6679 96.4786 88.3112 96.4786 88.9885C92.911 88.9885 89.35 88.9885 85.7689 88.9885C85.7689 88.3722 85.7555 87.7694 85.7689 87.1667C85.8157 85.6768 86.0094 84.2004 86.4571 82.7782C86.7844 81.742 87.212 80.7533 88.0538 80.0151C88.5816 79.5478 89.1896 79.2769 89.9045 79.2701C90.8131 79.2701 91.695 79.1076 92.5168 78.6945C93.6392 78.1324 94.4209 77.3061 94.4342 75.972C94.4476 74.6581 93.9064 73.5949 92.764 72.938C90.753 71.7867 88.3344 72.8702 87.8066 75.1322C87.8066 75.1458 87.8 75.1525 87.8 75.1661C87.7532 75.3828 87.7732 75.7011 87.6463 75.7891C87.4659 75.9043 87.1786 75.8433 86.9314 75.8501C86.5439 75.8569 86.1564 75.8501 85.7422 75.8501C85.7555 74.9832 85.9226 74.2044 86.2834 73.4662C87.6129 70.7776 90.7864 69.6737 93.4454 71.0011C94.815 71.6851 95.7704 72.789 96.198 74.2789C96.6857 75.9788 96.472 77.5838 95.3429 78.9857C94.5478 79.9745 93.4989 80.6178 92.2896 80.9361C91.5681 81.1258 90.8064 81.207 90.0581 81.2815C89.5437 81.3357 89.223 81.5998 88.9625 81.9994C88.5282 82.6699 88.301 83.4284 88.1474 84.2004C87.9803 85.1079 87.8601 86.0154 87.7064 86.9906Z" fill="url(#paint2_linear_1_2399)" stroke="url(#paint3_linear_1_2399)"/>
<path d="M103.991 70.7169C102.701 74.3198 101.425 77.8686 100.142 81.4511C101.532 81.4511 102.855 81.4511 104.224 81.4511C104.224 79.223 104.224 77.0356 104.224 74.7871C104.859 74.7871 105.46 74.7804 106.055 74.8007C106.115 74.8007 106.222 75.0038 106.222 75.1122C106.235 76.2296 106.229 77.3471 106.229 78.4645C106.229 79.3585 106.235 80.2457 106.222 81.1396C106.215 81.397 106.302 81.4715 106.55 81.4647C107.064 81.4444 107.572 81.4579 108.086 81.4579C108.206 81.4579 108.327 81.4715 108.46 81.4782C108.46 82.169 108.46 82.8259 108.46 83.5099C107.719 83.5099 107.004 83.5099 106.235 83.5099C106.235 85.3723 106.235 87.2009 106.235 89.0565C105.547 89.0565 104.913 89.0565 104.245 89.0565C104.245 87.2144 104.245 85.3859 104.245 83.5167C101.92 83.5167 99.6213 83.5167 97.2695 83.5167C97.4633 82.9614 97.637 82.4467 97.8241 81.932C98.3719 80.4082 98.9264 78.8844 99.4743 77.3674C100.296 75.0851 101.111 72.796 101.94 70.5205C102.107 70.0532 102.167 70.0397 102.621 70.209C103.069 70.3783 103.516 70.5408 103.991 70.7169Z" fill="url(#paint4_linear_1_2399)" stroke="url(#paint5_linear_1_2399)"/>
<path d="M125.954 91.2311C123.021 91.2311 120.095 91.2311 117.122 91.2311C117.122 91.9761 117.122 92.7075 117.122 93.4592C116.441 93.4592 115.806 93.4592 115.145 93.4592C115.145 92.0506 115.145 90.6487 115.145 89.2197C120.122 89.2197 125.093 89.2197 130.11 89.2197C129.756 89.687 129.409 90.134 129.075 90.5877C127.718 92.3892 126.335 94.1636 125.026 95.9989C124.458 96.7912 124.01 97.6852 123.576 98.5724C122.2 101.403 121.545 104.417 121.471 107.559C121.471 107.634 121.458 107.715 121.445 107.817C120.797 107.817 120.155 107.817 119.46 107.817C119.554 101.451 121.866 96.0056 126.055 91.2988C126.021 91.2785 125.988 91.2514 125.954 91.2311Z" fill="url(#paint6_linear_1_2399)" stroke="url(#paint7_linear_1_2399)"/>
<path d="M140.249 80.7135C139.668 78.1332 138.799 75.6545 137.637 73.291C136.12 70.2095 134.183 67.4329 131.811 64.9745C131.751 64.9135 131.657 64.8864 131.577 64.839C131.477 64.6968 131.403 64.5411 131.283 64.4192C129.252 62.4416 127.034 60.7282 124.582 59.3196C120.607 57.0508 116.351 55.676 111.821 55.1816C109.042 54.8837 106.269 54.9514 103.503 55.3916C100.21 55.9131 97.0695 56.9221 94.0763 58.4188C90.9897 59.9629 88.2171 61.954 85.7518 64.3785C85.6515 64.4733 85.5981 64.6088 85.5179 64.7239C85.411 64.7916 85.2841 64.839 85.2039 64.9271C83.2397 66.9588 81.5627 69.214 80.1798 71.6859C78.7166 74.3 77.6009 77.0564 76.9194 79.9753C76.572 81.4787 76.3315 83.0093 76.1244 84.5331C75.9841 85.5557 75.9974 86.6054 75.9573 87.6416C75.9507 87.7432 76.0509 87.9396 76.1043 87.9396C76.7123 87.9599 77.3203 87.9531 77.9483 87.9531C77.9483 87.7906 77.9416 87.6822 77.9483 87.5671C78.0886 85.962 78.1421 84.3434 78.3826 82.7587C78.897 79.5215 79.9459 76.4536 81.4559 73.5551C82.7453 71.0764 84.3287 68.8144 86.2328 66.7827C86.4466 66.5524 86.6337 66.2883 86.8274 66.0377C87.0813 65.8278 87.3419 65.6382 87.5824 65.4147C89.56 63.5387 91.7447 61.9608 94.1298 60.674C97.8779 58.6491 101.873 57.4572 106.102 57.1321C109.396 56.8747 112.65 57.1524 115.863 57.9719C118.616 58.6762 121.228 59.7327 123.693 61.1549C125.417 62.1504 127.034 63.3017 128.531 64.6291C129.105 65.137 129.666 65.672 130.234 66.1867C130.268 66.2409 130.294 66.3019 130.334 66.3493C131.644 67.697 132.8 69.1598 133.842 70.7242C135.385 73.0471 136.601 75.5326 137.47 78.1874C138.325 80.788 138.833 83.4495 138.98 86.1923C139.167 89.6259 138.819 92.9918 137.911 96.2967C137.229 98.7957 136.247 101.173 134.978 103.421C133.795 105.514 132.399 107.444 130.769 109.198C130.548 109.435 130.354 109.706 130.154 109.963C130.054 110.024 129.94 110.072 129.853 110.146C129.386 110.58 128.931 111.027 128.45 111.446C125.785 113.803 122.785 115.611 119.484 116.898C116.819 117.941 114.059 118.605 111.207 118.849C108.34 119.092 105.494 118.964 102.675 118.395C99.4479 117.752 96.388 116.621 93.5151 114.988C91.0832 113.607 88.8785 111.927 86.9009 109.936C85.244 108.27 83.8076 106.421 82.5649 104.417C82.3311 104.031 82.1106 103.638 81.8901 103.245C81.9102 103.225 81.9235 103.204 81.9436 103.191C83.9612 103.841 85.9789 104.484 88.03 105.141C88.2371 104.484 88.4309 103.861 88.638 103.211C85.558 102.222 82.5048 101.234 79.4382 100.252C79.3981 100.326 79.3647 100.374 79.3513 100.421C78.75 102.344 78.1421 104.261 77.5474 106.184C77.5207 106.279 77.5541 106.394 77.5608 106.496C77.494 106.577 77.3938 106.652 77.3604 106.746C77.2067 107.193 77.0731 107.64 76.9328 108.094C76.7791 108.589 76.6321 109.09 76.4718 109.604C77.1265 109.814 77.7412 110.004 78.3692 110.207C78.5229 109.713 78.6832 109.232 78.8235 108.751C78.897 108.494 78.9371 108.23 78.9972 107.972C79.0574 107.857 79.1442 107.756 79.1776 107.634C79.4315 106.841 79.672 106.042 79.9192 105.25C79.9994 104.986 80.0929 104.728 80.1998 104.41C80.5005 104.898 80.761 105.317 81.0216 105.737C81.9703 107.281 83.066 108.717 84.2619 110.072C86.2595 112.327 88.5244 114.257 91.0498 115.869C92.8337 117.007 94.6977 117.968 96.6619 118.74C99.1673 119.722 101.753 120.379 104.425 120.731C106.71 121.029 108.995 121.077 111.287 120.88C113.785 120.67 116.231 120.162 118.609 119.357C120.674 118.659 122.645 117.779 124.542 116.695C126.834 115.388 128.918 113.803 130.829 111.988C131.049 111.778 131.243 111.528 131.443 111.297C131.53 111.237 131.637 111.189 131.711 111.115C133.461 109.286 134.998 107.295 136.294 105.114C137.684 102.791 138.766 100.326 139.561 97.7324C140.303 95.2944 140.77 92.7954 140.937 90.249C141.178 87.0388 140.957 83.8626 140.249 80.7135Z" fill="url(#paint8_linear_1_2399)" stroke="url(#paint9_linear_1_2399)"/>
<defs>
<filter id="filter0_d_1_2399" x="0" y="0" width="216" height="216" filterUnits="userSpaceOnUse" color-interpolation-filters="sRGB">
<feFlood flood-opacity="0" result="BackgroundImageFix"/>
<feColorMatrix in="SourceAlpha" type="matrix" values="0 0 0 0 0 0 0 0 0 0 0 0 0 0 0 0 0 0 127 0" result="hardAlpha"/>
<feOffset dy="20"/>
<feGaussianBlur stdDeviation="25"/>
<feComposite in2="hardAlpha" operator="out"/>
<feColorMatrix type="matrix" values="0 0 0 0 0.14902 0 0 0 0 0.784314 0 0 0 0 0.933333 0 0 0 0.5 0"/>
<feBlend mode="normal" in2="BackgroundImageFix" result="effect1_dropShadow_1_2399"/>
<feBlend mode="normal" in="SourceGraphic" in2="effect1_dropShadow_1_2399" result="shape"/>
</filter>
<linearGradient id="paint0_linear_1_2399" x1="93.1758" y1="96.9283" x2="126.561" y2="96.9716" gradientUnits="userSpaceOnUse">
<stop stop-color="#00C0B4"/>
<stop offset="1" stop-color="#29C9F3"/>
</linearGradient>
<linearGradient id="paint1_linear_1_2399" x1="93.1758" y1="96.9283" x2="126.561" y2="96.9716" gradientUnits="userSpaceOnUse">
<stop stop-color="#00C0B4"/>
<stop offset="1" stop-color="#29C9F3"/>
</linearGradient>
<linearGradient id="paint2_linear_1_2399" x1="85.7422" y1="84.1495" x2="96.4787" y2="84.1576" gradientUnits="userSpaceOnUse">
<stop stop-color="#00C0B4"/>
<stop offset="1" stop-color="#29C9F3"/>
</linearGradient>
<linearGradient id="paint3_linear_1_2399" x1="85.7422" y1="84.1495" x2="96.4787" y2="84.1576" gradientUnits="userSpaceOnUse">
<stop stop-color="#00C0B4"/>
<stop offset="1" stop-color="#29C9F3"/>
</linearGradient>
<linearGradient id="paint4_linear_1_2399" x1="97.2695" y1="84.1139" x2="108.46" y2="84.1226" gradientUnits="userSpaceOnUse">
<stop stop-color="#00C0B4"/>
<stop offset="1" stop-color="#29C9F3"/>
</linearGradient>
<linearGradient id="paint5_linear_1_2399" x1="97.2695" y1="84.1139" x2="108.46" y2="84.1226" gradientUnits="userSpaceOnUse">
<stop stop-color="#00C0B4"/>
<stop offset="1" stop-color="#29C9F3"/>
</linearGradient>
<linearGradient id="paint6_linear_1_2399" x1="115.145" y1="102.965" x2="130.11" y2="102.981" gradientUnits="userSpaceOnUse">
<stop stop-color="#00C0B4"/>
<stop offset="1" stop-color="#29C9F3"/>
</linearGradient>
<linearGradient id="paint7_linear_1_2399" x1="115.145" y1="102.965" x2="130.11" y2="102.981" gradientUnits="userSpaceOnUse">
<stop stop-color="#00C0B4"/>
<stop offset="1" stop-color="#29C9F3"/>
</linearGradient>
<linearGradient id="paint8_linear_1_2399" x1="75.957" y1="55" x2="153.075" y2="82.3208" gradientUnits="userSpaceOnUse">
<stop stop-color="#172E65"/>
<stop offset="1" stop-color="#311145"/>
</linearGradient>
<linearGradient id="paint9_linear_1_2399" x1="75.957" y1="55" x2="153.075" y2="82.3208" gradientUnits="userSpaceOnUse">
<stop stop-color="#172E65"/>
<stop offset="1" stop-color="#311145"/>
</linearGradient>
</defs>
</svg>
