<svg width="216" height="216" viewBox="0 0 216 216" fill="none" xmlns="http://www.w3.org/2000/svg">
<g filter="url(#filter0_d_1_2409)">
<circle cx="108" cy="88" r="58" fill="white"/>
</g>
<circle cx="108" cy="88" r="45" fill="#F0F7F6"/>
<path d="M86.0368 98.3336C84.7006 97.6756 83.4353 96.9163 82.251 96.0254C81.5829 95.5192 81.5424 95.4483 81.755 94.6282C83.4049 88.1084 85.0549 81.5987 86.7048 75.0788C86.9174 74.2487 87.1401 73.4185 87.3324 72.5782C87.4033 72.2542 87.5754 72.1834 87.879 72.1125C88.8407 71.8999 89.7922 71.6063 90.7538 71.3633C94.4789 70.4218 98.1938 69.4094 102 68.8728C103.994 68.5893 105.998 68.3059 108.023 68.1743C109.713 68.073 111.252 68.478 112.638 69.4904C114.025 70.5028 115.372 71.5759 116.819 72.5073C116.89 72.7807 116.374 72.8414 116.556 73.0743C116.829 73.4489 117.153 73.8235 117.538 74.0664C117.76 74.2082 117.902 73.7425 118.145 73.6513C118.175 73.6412 118.206 73.6311 118.236 73.621C119.046 74.7549 119.299 76.0811 119.299 77.4073C119.299 79.1385 119.704 80.809 119.906 82.5098C120.018 83.4007 120.139 84.2815 120.058 85.1826C119.916 86.9239 118.611 87.8857 116.951 87.339C114.592 86.5594 112.74 85.1218 111.646 82.8135C111.09 81.6392 110.665 80.4142 110.371 79.1487C110.3 78.8652 110.189 78.764 109.905 78.7437C108.731 78.683 107.557 78.602 106.373 78.5109C106.14 78.4906 106.008 78.5514 106.079 78.8146C106.089 78.8449 106.089 78.8854 106.099 78.9158C106.494 79.8877 106.099 80.6065 105.472 81.3557C103.7 83.4514 101.858 85.4559 99.6109 87.0353C99.0238 87.4503 98.3962 87.8148 97.7788 88.1995C97.7484 88.24 97.718 88.2805 97.6877 88.321C96.5236 88.7462 95.4 89.2828 94.2056 89.6371C93.5071 89.7687 92.8188 89.9003 92.1203 90.0218C91.2701 90.1636 91.2701 90.1534 91.1688 89.3131C91.1486 89.1815 91.1486 89.0398 91.1182 88.9082C91.0575 88.5842 91.1486 88.4526 91.513 88.402C94.2764 88.0578 96.7969 87.0656 99.0339 85.3952C101.079 83.8664 102.799 82.0239 104.368 80.0295C104.52 79.8371 104.551 79.665 104.5 79.4321C104.348 78.7032 104.227 77.9743 104.085 77.2454C104.014 76.891 104.014 76.6987 104.49 76.7392C106.747 76.9113 108.994 77.0429 111.252 77.1745C111.576 77.1947 111.677 77.3263 111.727 77.6199C111.91 78.683 112.234 79.7156 112.557 80.7381C113.307 83.0869 114.805 84.7371 117.082 85.6584C118.024 86.0431 118.418 85.7596 118.408 84.7371C118.398 83.6538 118.216 82.5908 118.064 81.5177C117.943 80.6166 117.619 79.7561 117.649 78.8348C117.679 77.7212 117.619 76.6075 117.305 75.5243C117.173 75.0687 117.021 74.5929 116.586 74.3398C114.754 73.2565 113.114 71.8898 111.373 70.6749C110.371 69.9662 109.247 69.7232 108.063 69.8346C105.937 70.0371 103.802 70.2497 101.686 70.5939C97.4245 71.2823 93.2642 72.4466 89.0836 73.4894C88.8204 73.5602 88.7394 73.7121 88.6888 73.9348C88.3852 75.1598 88.0714 76.3848 87.7677 77.6098C86.3607 83.178 84.9435 88.7462 83.5264 94.3144C83.4353 94.6687 83.4758 94.8915 83.8098 95.1041C84.5083 95.5495 85.1865 96.0152 85.9254 96.3898C86.3708 96.6125 86.7959 96.9061 87.3324 96.9163C87.8487 97.3111 87.5652 97.8578 87.5855 98.3437C87.5956 98.6171 87.4235 98.688 87.1907 98.6272C86.8061 98.5361 86.4214 98.4349 86.0368 98.3336Z" fill="url(#paint0_linear_1_2409)" stroke="url(#paint1_linear_1_2409)"/>
<path d="M86.0397 98.3333C86.4243 98.4345 86.809 98.5459 87.1936 98.637C87.4264 98.6876 87.6086 98.6168 87.5884 98.3536C87.558 97.8676 87.8516 97.3209 87.3353 96.9261C87.6188 96.6122 87.882 96.2883 88.1755 95.9845C90.1797 93.8686 92.184 91.7527 94.1882 89.6267C95.3827 89.2723 96.5063 88.7358 97.6703 88.3105C96.9112 89.3229 95.9698 90.1734 95.1094 91.0946C92.6597 93.7168 90.1696 96.3085 87.6997 98.9205C86.3737 100.338 86.9811 103.152 88.7221 103.628C89.7141 103.902 90.6251 103.77 91.4147 102.96C94.4615 99.8317 97.5489 96.7337 100.596 93.6054C100.91 93.2916 101.071 93.2713 101.385 93.5953C102.155 94.4052 102.165 94.3849 101.375 95.1949C98.4396 98.1713 95.5143 101.158 92.5788 104.144C91.9006 104.833 91.3337 105.572 91.6677 106.605C92.0321 107.739 92.8521 108.407 94.0161 108.67C95.079 108.913 95.8787 108.569 96.6277 107.779C99.8467 104.347 103.106 100.955 106.345 97.5436C106.821 97.0476 106.831 97.0577 107.236 97.6044C107.823 98.4042 107.823 98.4042 107.145 99.1129C104.159 102.251 101.183 105.4 98.1967 108.538C98.0246 108.721 97.8525 108.883 98.0145 109.156C98.7939 110.492 100.019 111.667 101.81 110.816C102.499 110.492 103.187 110.158 103.744 109.632C105.181 108.275 106.578 106.888 107.995 105.511C109.24 104.296 110.485 103.092 111.71 101.856C111.973 101.593 112.125 101.603 112.338 101.877C112.581 102.191 113.097 102.393 113.087 102.778C113.087 103.132 112.591 103.324 112.318 103.598C110.202 105.683 108.076 107.759 105.961 109.834C105.637 110.158 105.343 110.502 105.1 110.897C104.918 111.201 104.958 111.403 105.272 111.606C106.102 112.132 107.368 111.991 108.319 111.201C109.625 110.128 110.91 109.044 112.206 107.961C112.824 107.445 113.451 106.918 114.069 106.402C114.18 106.301 114.291 106.19 114.463 106.22C114.16 106.989 113.907 107.759 114.18 108.599C113.502 109.014 112.945 109.571 112.348 110.087L112.358 110.077C112.328 110.108 112.297 110.138 112.267 110.168C111.791 110.411 111.457 110.826 111.072 111.191C110.546 111.464 110.141 111.879 109.696 112.254C108.491 113.266 107.135 113.803 105.546 113.509C104.736 113.357 104.068 112.922 103.592 112.254C103.4 111.98 103.258 111.96 102.985 112.102C102.074 112.568 101.112 112.881 100.069 112.74C98.632 112.547 97.6906 111.616 96.901 110.512C96.6379 110.148 96.4658 110.067 96.0204 110.199C93.3177 111.049 90.4126 109.287 89.9267 106.524C89.8963 106.321 89.8457 106.109 89.8963 105.926C90.038 105.41 89.7647 105.41 89.3801 105.4C87.1531 105.369 85.6145 103.902 85.402 101.684C85.3007 100.5 85.4323 99.3761 86.0397 98.3333Z" fill="url(#paint2_linear_1_2409)" stroke="url(#paint3_linear_1_2409)"/>
<path d="M140.812 67C141.379 67.0101 141.622 67.2936 141.743 67.7593C142.553 70.6345 143.383 73.4996 144.203 76.3647C145.66 81.4571 147.108 86.5393 148.566 91.6317C148.869 92.6947 148.728 92.9377 147.675 93.2313C144.608 94.1019 141.551 94.9827 138.484 95.8635C137.644 96.1065 137.299 95.9344 137.077 95.1447C134.799 87.167 132.522 79.1994 130.244 71.2217C129.991 70.3308 130.153 70.0271 131.034 69.774C134.131 68.8932 137.218 68.0023 140.316 67.1215C140.508 67.0709 140.69 67.0304 140.812 67ZM146.814 91.5912C146.784 91.4596 146.754 91.3381 146.723 91.2267C144.638 83.9172 142.543 76.6178 140.468 69.3083C140.356 68.9236 140.225 68.8527 139.84 68.9641C137.401 69.6829 134.961 70.3915 132.501 71.0597C132.036 71.1913 131.995 71.3533 132.117 71.7785C133.655 77.124 135.184 82.4695 136.712 87.8048C137.269 89.7688 137.836 91.7228 138.382 93.6868C138.474 94.031 138.605 94.1222 138.939 93.9905C139.283 93.8589 139.648 93.7779 140.002 93.6767C142.138 93.0693 144.274 92.4618 146.41 91.8443C146.572 91.8139 146.814 91.8443 146.814 91.5912Z" fill="url(#paint4_linear_1_2409)" stroke="url(#paint5_linear_1_2409)"/>
<path d="M68.0019 92.2781C68.0626 92.0352 68.1538 91.6201 68.255 91.2151C70.1681 83.936 72.0711 76.6467 73.9843 69.3675C74.1159 68.8411 74.2576 68.3248 74.3993 67.8085C74.5815 67.1301 74.9358 66.9175 75.6443 67.0998C77.0109 67.444 78.3774 67.8085 79.7439 68.1729C81.566 68.6487 83.3981 69.1246 85.2201 69.6105C85.9996 69.813 86.1818 70.1673 85.9793 70.957C84.6027 76.2316 83.2159 81.5163 81.8291 86.7909C81.1003 89.5649 80.3816 92.3287 79.6629 95.1027C79.4706 95.8215 79.1163 96.0544 78.3976 95.862C75.1888 95.0319 71.98 94.1814 68.7712 93.3411C68.3056 93.2197 67.9715 92.9969 68.0019 92.2781ZM84.1877 71.2101C84.1775 70.9671 83.965 71.0076 83.8131 70.9671C81.3028 70.299 78.7924 69.651 76.2922 68.9727C75.8772 68.8613 75.7759 69.0031 75.695 69.3574C75.4014 70.5723 75.0775 71.7771 74.7637 72.9818C73.1542 79.1271 71.5549 85.2723 69.9252 91.4176C69.8138 91.8225 69.9252 91.944 70.2997 92.0352C72.7797 92.673 75.2597 93.3108 77.7296 93.979C78.1142 94.0802 78.2458 93.9992 78.347 93.6145C80.2602 86.224 82.1935 78.8436 84.1168 71.4632C84.137 71.3822 84.1674 71.3012 84.1877 71.2101Z" fill="url(#paint6_linear_1_2409)" stroke="url(#paint7_linear_1_2409)"/>
<path d="M118.22 73.6208C118.19 73.6309 118.159 73.6411 118.129 73.6512C117.886 73.7423 117.744 74.208 117.521 74.0663C117.137 73.8233 116.813 73.4487 116.54 73.0741C116.357 72.8312 116.884 72.7805 116.803 72.5072C117.43 72.1225 117.855 71.5252 118.382 71.0291C118.635 70.7861 118.878 70.6747 119.232 70.7152C122.127 71.019 125.022 71.3227 127.917 71.6062C128.271 71.6365 128.302 71.8593 128.373 72.1022C129.132 74.6535 129.891 77.2047 130.65 79.7458C132.148 84.7775 133.636 89.8192 135.155 94.8508C135.286 95.276 135.195 95.4684 134.841 95.6911C133.96 96.2277 133.11 96.7946 132.25 97.3616C132.098 97.4628 131.916 97.5236 131.845 97.726C131.298 97.1287 130.59 97.0072 129.83 96.987C130.822 96.3289 131.804 95.6405 132.827 95.0128C133.252 94.7496 133.323 94.5066 133.181 94.0409C131.885 89.7483 130.61 85.4558 129.324 81.1632C128.585 78.6929 127.846 76.2227 127.128 73.7524C126.996 73.2969 126.763 73.1652 126.318 73.1247C124.172 72.9324 122.026 72.6995 119.89 72.4566C119.536 72.4161 119.273 72.4667 119.05 72.7502C118.797 73.0539 118.432 73.2665 118.22 73.6208Z" fill="url(#paint8_linear_1_2409)" stroke="url(#paint9_linear_1_2409)"/>
<path d="M124.706 109.571C123.673 109.581 122.853 109.166 122.266 108.305C121.76 107.566 121.254 106.837 120.718 106.119C119.857 104.975 119.908 103.8 120.606 102.626C121.457 101.198 123.289 100.439 124.787 100.864C125.374 101.036 125.86 101.34 126.214 101.846C126.832 102.707 127.459 103.567 128.056 104.448C128.684 105.369 128.664 106.352 128.218 107.334C127.621 108.66 126.174 109.571 124.706 109.571ZM124.686 107.931C125.576 107.941 126.548 107.232 126.801 106.392C126.913 106.017 126.892 105.663 126.649 105.329C126.072 104.519 125.495 103.709 124.918 102.899C124.675 102.555 124.321 102.413 123.916 102.403C123.066 102.383 122.104 103.081 121.821 103.902C121.679 104.317 121.72 104.691 121.983 105.046C122.55 105.825 123.106 106.605 123.653 107.394C123.916 107.769 124.26 107.911 124.686 107.931Z" fill="url(#paint10_linear_1_2409)" stroke="url(#paint11_linear_1_2409)"/>
<path d="M114.179 108.599C113.906 107.759 114.159 106.989 114.463 106.22C114.898 105.703 115.323 105.187 115.92 104.833C117.277 104.033 119.291 104.053 120.273 105.734C120.627 106.341 121.042 106.928 121.498 107.465C122.763 108.963 122.206 110.826 121.032 111.839C120.06 112.689 118.947 113.043 117.661 112.709C117.226 112.598 116.811 112.395 116.548 112.051C115.708 110.937 114.807 109.864 114.179 108.599ZM118.542 111.18C119.372 111.18 120.253 110.533 120.496 109.743C120.597 109.409 120.597 109.075 120.374 108.781C119.817 108.002 119.261 107.212 118.704 106.432C118.532 106.189 118.289 106.048 117.985 106.007C117.094 105.896 116.072 106.544 115.799 107.404C115.677 107.779 115.718 108.123 115.961 108.457C116.497 109.196 117.024 109.935 117.54 110.684C117.803 111.029 118.117 111.201 118.542 111.18Z" fill="url(#paint12_linear_1_2409)" stroke="url(#paint13_linear_1_2409)"/>
<path d="M129.826 96.9775C130.575 96.9978 131.293 97.1193 131.84 97.7166C132.366 98.4455 132.872 99.1744 133.409 99.8831C134.087 100.804 134.097 101.776 133.551 102.728C132.832 103.983 131.729 104.652 130.271 104.611C129.502 104.591 128.874 104.277 128.419 103.639C127.983 103.022 127.538 102.404 127.103 101.786C126.343 100.713 126.364 99.5794 127.153 98.5164C127.811 97.6153 128.732 97.1395 129.826 96.9775ZM132.275 101.311C132.275 101.23 132.214 101.088 132.133 100.966C131.668 100.308 131.192 99.6503 130.737 98.9922C130.625 98.8302 130.473 98.7391 130.281 98.6986C129.481 98.5063 128.307 99.3364 128.216 100.156C128.196 100.389 128.267 100.582 128.398 100.764C128.834 101.361 129.259 101.969 129.684 102.576C129.805 102.748 129.937 102.88 130.149 102.941C130.959 103.194 132.265 102.242 132.275 101.311Z" fill="url(#paint14_linear_1_2409)" stroke="url(#paint15_linear_1_2409)"/>
<path d="M111.072 111.191C111.457 110.827 111.791 110.412 112.267 110.169C112.297 110.138 112.328 110.108 112.358 110.078L112.348 110.088C112.773 110.068 113.148 109.855 113.583 109.865C114.302 109.885 114.899 110.128 115.314 110.736C115.678 111.282 116.083 111.799 116.427 112.356C116.66 112.72 116.731 113.095 116.69 113.51C116.589 114.552 115.628 115.656 114.585 115.919C113.512 116.193 112.54 115.788 111.852 114.765C111.396 114.097 110.931 113.439 110.89 112.578C110.86 112.102 111.032 111.657 111.072 111.191ZM113.907 114.34C114.413 114.299 114.686 113.996 114.929 113.641C115.152 113.307 114.939 113.074 114.757 112.831C114.534 112.518 114.281 112.214 114.089 111.88C113.876 111.525 113.603 111.444 113.239 111.596C112.864 111.748 112.51 111.92 112.55 112.406C112.611 113.176 113.117 113.712 113.613 114.229C113.684 114.31 113.826 114.32 113.907 114.34Z" fill="url(#paint16_linear_1_2409)" stroke="url(#paint17_linear_1_2409)"/>
<path d="M97.668 88.3113C97.6983 88.2708 97.7287 88.2303 97.7591 88.1898C97.7692 88.2607 97.7388 88.3012 97.668 88.3113Z" fill="black" stroke="black"/>
<path d="M112.357 110.078C112.326 110.108 112.296 110.139 112.266 110.169C112.296 110.139 112.326 110.108 112.357 110.078Z" fill="black" stroke="black"/>
<defs>
<filter id="filter0_d_1_2409" x="0" y="0" width="216" height="216" filterUnits="userSpaceOnUse" color-interpolation-filters="sRGB">
<feFlood flood-opacity="0" result="BackgroundImageFix"/>
<feColorMatrix in="SourceAlpha" type="matrix" values="0 0 0 0 0 0 0 0 0 0 0 0 0 0 0 0 0 0 127 0" result="hardAlpha"/>
<feOffset dy="20"/>
<feGaussianBlur stdDeviation="25"/>
<feComposite in2="hardAlpha" operator="out"/>
<feColorMatrix type="matrix" values="0 0 0 0 0.14902 0 0 0 0 0.784314 0 0 0 0 0.933333 0 0 0 0.5 0"/>
<feBlend mode="normal" in2="BackgroundImageFix" result="effect1_dropShadow_1_2409"/>
<feBlend mode="normal" in="SourceGraphic" in2="effect1_dropShadow_1_2409" result="shape"/>
</filter>
<linearGradient id="paint0_linear_1_2409" x1="81.6406" y1="68.1592" x2="124.185" y2="87.4346" gradientUnits="userSpaceOnUse">
<stop stop-color="#172E65"/>
<stop offset="1" stop-color="#311145"/>
</linearGradient>
<linearGradient id="paint1_linear_1_2409" x1="81.6406" y1="68.1592" x2="124.185" y2="87.4346" gradientUnits="userSpaceOnUse">
<stop stop-color="#172E65"/>
<stop offset="1" stop-color="#311145"/>
</linearGradient>
<linearGradient id="paint2_linear_1_2409" x1="85.3711" y1="106.995" x2="114.464" y2="107.039" gradientUnits="userSpaceOnUse">
<stop stop-color="#00C0B4"/>
<stop offset="1" stop-color="#29C9F3"/>
</linearGradient>
<linearGradient id="paint3_linear_1_2409" x1="85.3711" y1="106.995" x2="114.464" y2="107.039" gradientUnits="userSpaceOnUse">
<stop stop-color="#00C0B4"/>
<stop offset="1" stop-color="#29C9F3"/>
</linearGradient>
<linearGradient id="paint4_linear_1_2409" x1="130.136" y1="88.4093" x2="148.706" y2="88.425" gradientUnits="userSpaceOnUse">
<stop stop-color="#00C0B4"/>
<stop offset="1" stop-color="#29C9F3"/>
</linearGradient>
<linearGradient id="paint5_linear_1_2409" x1="130.136" y1="88.4093" x2="148.706" y2="88.425" gradientUnits="userSpaceOnUse">
<stop stop-color="#00C0B4"/>
<stop offset="1" stop-color="#29C9F3"/>
</linearGradient>
<linearGradient id="paint6_linear_1_2409" x1="68" y1="67.0375" x2="90.927" y2="72.1862" gradientUnits="userSpaceOnUse">
<stop stop-color="#172E65"/>
<stop offset="1" stop-color="#311145"/>
</linearGradient>
<linearGradient id="paint7_linear_1_2409" x1="68" y1="67.0375" x2="90.927" y2="72.1862" gradientUnits="userSpaceOnUse">
<stop stop-color="#172E65"/>
<stop offset="1" stop-color="#311145"/>
</linearGradient>
<linearGradient id="paint8_linear_1_2409" x1="116.501" y1="90.6776" x2="135.212" y2="90.6946" gradientUnits="userSpaceOnUse">
<stop stop-color="#00C0B4"/>
<stop offset="1" stop-color="#29C9F3"/>
</linearGradient>
<linearGradient id="paint9_linear_1_2409" x1="116.501" y1="90.6776" x2="135.212" y2="90.6946" gradientUnits="userSpaceOnUse">
<stop stop-color="#00C0B4"/>
<stop offset="1" stop-color="#29C9F3"/>
</linearGradient>
<linearGradient id="paint10_linear_1_2409" x1="120.077" y1="100.747" x2="130.168" y2="104.225" gradientUnits="userSpaceOnUse">
<stop stop-color="#172E65"/>
<stop offset="1" stop-color="#311145"/>
</linearGradient>
<linearGradient id="paint11_linear_1_2409" x1="120.077" y1="100.747" x2="130.168" y2="104.225" gradientUnits="userSpaceOnUse">
<stop stop-color="#172E65"/>
<stop offset="1" stop-color="#311145"/>
</linearGradient>
<linearGradient id="paint12_linear_1_2409" x1="114.062" y1="104.32" x2="123.789" y2="107.668" gradientUnits="userSpaceOnUse">
<stop stop-color="#172E65"/>
<stop offset="1" stop-color="#311145"/>
</linearGradient>
<linearGradient id="paint13_linear_1_2409" x1="114.062" y1="104.32" x2="123.789" y2="107.668" gradientUnits="userSpaceOnUse">
<stop stop-color="#172E65"/>
<stop offset="1" stop-color="#311145"/>
</linearGradient>
<linearGradient id="paint14_linear_1_2409" x1="126.547" y1="96.9775" x2="135.344" y2="100.039" gradientUnits="userSpaceOnUse">
<stop stop-color="#172E65"/>
<stop offset="1" stop-color="#311145"/>
</linearGradient>
<linearGradient id="paint15_linear_1_2409" x1="126.547" y1="96.9775" x2="135.344" y2="100.039" gradientUnits="userSpaceOnUse">
<stop stop-color="#172E65"/>
<stop offset="1" stop-color="#311145"/>
</linearGradient>
<linearGradient id="paint16_linear_1_2409" x1="110.887" y1="109.865" x2="117.837" y2="112.231" gradientUnits="userSpaceOnUse">
<stop stop-color="#172E65"/>
<stop offset="1" stop-color="#311145"/>
</linearGradient>
<linearGradient id="paint17_linear_1_2409" x1="110.887" y1="109.865" x2="117.837" y2="112.231" gradientUnits="userSpaceOnUse">
<stop stop-color="#172E65"/>
<stop offset="1" stop-color="#311145"/>
</linearGradient>
</defs>
</svg>
