<svg width="522" height="542" viewBox="0 0 522 542" fill="none" xmlns="http://www.w3.org/2000/svg">
<path opacity="0.5" d="M0.371094 541.653H176.415C177.79 538.644 177.79 534.13 177.79 531.121C177.79 514.571 169.538 502.534 154.409 496.516C139.281 490.497 114.525 484.479 80.141 478.46C48.5081 472.442 21.0012 466.424 0.371094 460.405V541.653H0.371094ZM511.999 195.597C500.996 201.615 492.744 212.148 487.242 224.184C481.741 236.221 477.615 251.267 477.615 266.313C477.615 282.863 480.366 296.405 487.242 308.441C494.119 320.478 502.371 329.506 511.999 337.029L514.749 338.533C518.875 317.469 521.626 294.9 521.626 270.827C521.626 243.744 518.875 218.166 511.999 195.597ZM0.371094 1.50459V81.248C21.0012 81.248 37.5053 73.725 49.8834 58.6791C63.6369 43.6332 69.1382 24.0735 69.1382 0H0.371094V1.50459ZM125.527 1.50459C125.527 27.0827 120.026 49.6516 109.023 69.2113C99.3958 90.2756 84.267 105.321 65.0122 117.358C45.7574 127.89 25.1273 133.909 0.371094 133.909V206.129C27.8779 194.092 62.2615 188.074 100.771 188.074C122.777 188.074 144.782 189.579 166.788 194.092V142.936H236.93C272.689 142.936 301.571 153.468 322.201 176.037C344.207 198.606 353.834 230.203 353.834 270.827C353.834 311.451 342.831 343.047 322.201 365.616C300.196 388.185 272.689 398.717 236.93 398.717H166.788V285.873C146.157 279.854 124.152 276.845 99.3958 276.845C69.1382 276.845 47.1327 281.359 32.004 291.891C16.8752 300.918 8.62315 314.46 8.62315 331.01C8.62315 349.065 16.8752 361.102 33.3793 368.625C49.8834 376.148 76.0149 383.671 110.399 389.689C144.782 395.708 173.664 401.726 195.67 410.754C217.675 418.277 236.93 431.818 253.434 449.873C269.938 467.928 276.815 495.011 276.815 528.112C276.815 532.626 276.815 537.14 276.815 541.653C318.075 538.644 356.585 528.112 389.593 510.057C408.848 499.525 426.727 487.488 443.231 472.442V400.222H495.494C496.87 397.212 498.245 395.708 498.245 392.699C491.368 389.689 485.867 386.68 480.366 383.671C462.486 373.139 447.357 356.588 437.73 337.029C426.727 317.469 422.601 293.396 422.601 267.817C422.601 242.239 428.103 218.166 437.73 198.606C443.231 186.569 451.484 177.542 459.736 168.514H454.234V82.7526C436.355 63.1929 414.349 46.6424 389.593 34.6056C346.957 12.0367 298.82 1.50459 243.807 1.50459H125.527Z" fill="url(#paint0_linear_1_1782)" fill-opacity="0.15"/>
<defs>
<linearGradient id="paint0_linear_1_1782" x1="0.371094" y1="0" x2="621.386" y2="214.731" gradientUnits="userSpaceOnUse">
<stop stop-color="#316EFF"/>
<stop offset="1" stop-color="#D4008C"/>
</linearGradient>
</defs>
</svg>
