<svg width="125" height="125" viewBox="0 0 125 125" fill="none" xmlns="http://www.w3.org/2000/svg">
<g filter="url(#filter0_d_1_2427)">
<circle cx="62.5" cy="52.5" r="32.5" fill="url(#paint0_linear_1_2427)"/>
</g>
<path d="M80.122 67.7755C79.2952 70.2538 77.5618 71.0266 75.0283 71C66.5479 70.92 58.0674 70.9733 49.5869 70.9733C46.3601 70.9733 45 69.5876 45 66.3364C45 60.6869 47.6935 56.6629 52.4671 55.1972C54.3339 54.6376 56.2006 54.5576 58.0941 55.2238C61.0009 56.2365 63.9611 56.3697 66.8412 55.2505C71.4281 53.465 78.5485 56.4763 79.8553 63.2984C79.9353 63.7248 80.042 64.1512 80.122 64.5776C80.122 65.6435 80.122 66.7095 80.122 67.7755ZM76.2551 67.1625C76.2551 66.4164 76.3084 65.6968 76.2551 65.004C75.9084 60.3404 72.0415 57.6222 67.5879 58.9547C64.1211 59.994 60.6542 60.0206 57.2407 58.8747C54.7072 58.022 52.6004 58.7148 50.787 60.447C48.8402 62.2858 48.5469 64.6309 48.8669 67.1625C58.0407 67.1625 67.0812 67.1625 76.2551 67.1625Z" fill="white"/>
<path d="M64.1203 31C65.6937 31.6662 67.4272 32.0926 68.8406 32.9987C73.2941 35.9034 74.9209 41.6063 72.8941 46.5097C70.9207 51.4131 65.587 54.2911 60.4668 53.3051C55.3198 52.2925 51.4529 47.8688 51.3196 42.7788C51.1329 37.2358 54.6531 32.5723 59.9067 31.2931C60.2534 31.2132 60.5734 31.1066 60.9201 31C61.9868 31 63.0536 31 64.1203 31ZM62.4669 49.7075C66.6004 49.7342 69.9606 46.4564 69.9873 42.3524C70.0406 38.1686 66.7071 34.7575 62.5469 34.7575C58.4666 34.7308 55.0798 38.0353 55.0531 42.1392C54.9998 46.3498 58.28 49.6809 62.4669 49.7075Z" fill="white"/>
<defs>
<filter id="filter0_d_1_2427" x="0" y="0" width="125" height="125" filterUnits="userSpaceOnUse" color-interpolation-filters="sRGB">
<feFlood flood-opacity="0" result="BackgroundImageFix"/>
<feColorMatrix in="SourceAlpha" type="matrix" values="0 0 0 0 0 0 0 0 0 0 0 0 0 0 0 0 0 0 127 0" result="hardAlpha"/>
<feOffset dy="10"/>
<feGaussianBlur stdDeviation="15"/>
<feComposite in2="hardAlpha" operator="out"/>
<feColorMatrix type="matrix" values="0 0 0 0 0.833341 0 0 0 0 0 0 0 0 0 0.550005 0 0 0 0.4 0"/>
<feBlend mode="normal" in2="BackgroundImageFix" result="effect1_dropShadow_1_2427"/>
<feBlend mode="normal" in="SourceGraphic" in2="effect1_dropShadow_1_2427" result="shape"/>
</filter>
<linearGradient id="paint0_linear_1_2427" x1="30" y1="20" x2="106.786" y2="47.5895" gradientUnits="userSpaceOnUse">
<stop stop-color="#316EFF"/>
<stop offset="1" stop-color="#D4008C"/>
</linearGradient>
</defs>
</svg>
