<svg width="358" height="345" viewBox="0 0 358 345" fill="none" xmlns="http://www.w3.org/2000/svg">
<path opacity="0.5" d="M0 345H120.908C121.852 343.083 121.852 340.208 121.852 338.292C121.852 327.75 116.185 320.083 105.794 316.25C95.4037 312.417 78.4011 308.583 54.7863 304.75C33.0607 300.917 14.1689 297.083 0 293.25V345H0ZM351.388 124.583C343.831 128.417 338.164 135.125 334.385 142.792C330.607 150.458 327.773 160.042 327.773 169.625C327.773 180.167 329.662 188.792 334.385 196.458C339.108 204.125 344.776 209.875 351.388 214.667L353.277 215.625C356.111 202.208 358 187.833 358 172.5C358 155.25 356.111 138.958 351.388 124.583ZM0 0.958333V51.75C14.1689 51.75 25.504 46.9583 34.0053 37.375C43.4512 27.7917 47.2295 15.3333 47.2295 0H0V0.958333ZM85.9578 0.958333C85.9578 17.25 82.1794 31.625 74.6227 44.0833C68.0106 57.5 57.62 67.0833 44.3958 74.75C31.1715 81.4583 17.0026 85.2917 0 85.2917V131.292C18.8918 123.625 42.5066 119.792 68.9551 119.792C84.0686 119.792 99.1821 120.75 114.296 123.625V91.0417H162.47C187.029 91.0417 206.865 97.75 221.034 112.125C236.148 126.5 242.76 146.625 242.76 172.5C242.76 198.375 235.203 218.5 221.034 232.875C205.921 247.25 187.029 253.958 162.47 253.958H114.296V182.083C100.127 178.25 85.0132 176.333 68.0105 176.333C47.2295 176.333 32.1161 179.208 21.7256 185.917C11.3351 191.667 5.66755 200.292 5.66755 210.833C5.66755 222.333 11.3351 230 22.6702 234.792C34.0053 239.583 51.9525 244.375 75.5673 248.208C99.1821 252.042 119.018 255.875 134.132 261.625C149.245 266.417 162.47 275.042 173.805 286.542C185.14 298.042 189.863 315.292 189.863 336.375C189.863 339.25 189.863 342.125 189.863 345C218.201 343.083 244.649 336.375 267.319 324.875C280.544 318.167 292.823 310.5 304.158 300.917V254.917H340.053C340.997 253 341.942 252.042 341.942 250.125C337.219 248.208 333.441 246.292 329.662 244.375C317.383 237.667 306.992 227.125 300.38 214.667C292.823 202.208 289.989 186.875 289.989 170.583C289.989 154.292 293.768 138.958 300.38 126.5C304.158 118.833 309.826 113.083 315.493 107.333H311.715V52.7083C299.435 40.25 284.322 29.7083 267.319 22.0417C238.037 7.66667 204.976 0.958333 167.193 0.958333H85.9578Z" fill="url(#paint0_linear_1_386)" fill-opacity="0.5"/>
<defs>
<linearGradient id="paint0_linear_1_386" x1="0" y1="0" x2="419.231" y2="156.308" gradientUnits="userSpaceOnUse">
<stop stop-color="#316EFF"/>
<stop offset="1" stop-color="#D4008C"/>
</linearGradient>
</defs>
</svg>
