<svg width="93" height="94" viewBox="0 0 93 94" fill="none" xmlns="http://www.w3.org/2000/svg">
<ellipse cx="46.6748" cy="47" rx="36.1861" ry="36.3609" fill="#F0F7F6"/>
<g clip-path="url(#clip0_1_974)">
<path d="M66.7583 44.0575C66.7583 48.7457 66.7632 53.4289 66.7534 58.1171C66.7534 58.8349 66.6896 59.5528 66.6847 60.2706C66.6798 61.3548 66.1352 62.1518 65.36 62.8103C64.9332 63.1716 64.4523 63.4588 63.9028 63.6073C63.8341 63.6271 63.7605 63.6915 63.7213 63.7558C63.6575 63.8598 63.6084 63.9736 63.5643 64.0924C63.0884 65.3895 62.1758 66.2162 60.8854 66.6469C60.7922 66.6766 60.7038 66.7806 60.6548 66.8747C60.5567 67.0628 60.5027 67.2757 60.4144 67.4687C59.9973 68.3846 59.3153 69.0282 58.4273 69.4737C58.074 69.6519 57.7257 69.7311 57.3283 69.7311C48.482 69.7212 39.6358 69.7262 30.7896 69.7212C30.5933 69.7212 30.3823 69.6668 30.2106 69.5777C29.8181 69.3747 29.4158 69.1767 29.0723 68.9044C28.1401 68.1618 27.674 67.1717 27.6691 65.9588C27.6642 64.5132 27.625 63.0726 27.625 61.6271C27.6201 53.4091 27.6201 45.1912 27.625 36.9782C27.625 35.9039 27.6986 34.8346 27.7084 33.7603C27.7231 32.6167 28.3069 31.7999 29.141 31.1266C29.5483 30.7999 30.0046 30.5425 30.5246 30.3939C30.6277 30.3642 30.7013 30.2009 30.7601 30.0821C30.9417 29.7306 31.084 29.3593 31.2851 29.0226C31.712 28.3097 32.3449 27.8345 33.1054 27.5424C33.5273 27.379 33.7678 27.1117 33.9297 26.681C34.3614 25.5374 35.2151 24.8097 36.3338 24.4038C36.6086 24.3047 36.9324 24.3196 37.2317 24.3196C41.1666 24.2998 45.0966 24.275 49.0315 24.2701C53.1529 24.2651 57.2743 24.275 61.3957 24.28C62.166 24.28 62.9314 24.28 63.7017 24.2899C63.8439 24.2899 64.0009 24.3245 64.1187 24.3939C64.5799 24.6562 65.0705 24.8939 65.4729 25.2305C66.3217 25.9434 66.7289 26.8889 66.7338 28.0177C66.7387 29.3791 66.778 30.7405 66.778 32.1019C66.7829 36.0871 66.778 40.0723 66.778 44.0575C66.7731 44.0575 66.7632 44.0575 66.7583 44.0575ZM29.1459 50.0823C29.1508 50.0823 29.1508 50.0823 29.1459 50.0823C29.1459 55.4834 29.1508 60.8894 29.141 66.2905C29.141 66.7063 29.2588 67.0479 29.4943 67.3648C29.8917 67.8994 30.3873 68.241 31.084 68.2311C31.6237 68.2212 32.1634 68.2658 32.7031 68.2658C40.8133 68.2757 48.9236 68.2757 57.0339 68.2955C57.4951 68.2955 57.8974 68.1965 58.2752 67.944C58.8051 67.5925 59.1436 67.1321 59.1632 66.4638C59.1878 65.5331 59.2516 64.6024 59.2516 63.6716C59.2663 56.1913 59.2663 48.7061 59.281 41.2258C59.281 40.9832 59.2074 40.9238 58.9768 40.9238C57.0976 40.9337 55.2136 40.9337 53.3344 40.9238C52.5396 40.9188 51.7497 40.899 50.9598 40.8594C50.3857 40.8297 50.2974 40.7208 50.2925 40.1515C50.2778 37.5871 50.268 35.0227 50.2581 32.4534C50.2532 31.7999 50.2581 31.7949 49.5909 31.79C46.1711 31.7801 42.7563 31.7603 39.3365 31.7702C36.6282 31.7751 33.9248 31.8098 31.2164 31.8445C30.9221 31.8494 30.608 31.9138 30.3382 32.0375C29.6219 32.3643 29.195 32.9237 29.1803 33.7504C29.1754 34.1217 29.1508 34.493 29.1508 34.8643C29.1459 39.9386 29.1459 45.013 29.1459 50.0823ZM35.2838 27.0969C35.5586 27.1167 35.7941 27.1414 36.0247 27.1414C40.0136 27.1662 44.0025 27.1959 47.9914 27.2157C51.0334 27.2305 54.0753 27.2305 57.1173 27.2454C57.2252 27.2454 57.3626 27.2899 57.4411 27.3642C59.5165 29.4484 61.5821 31.5375 63.6477 33.6316C63.7213 33.7059 63.7752 33.8445 63.7802 33.9534C63.79 34.6861 63.7851 35.4237 63.7851 36.1564C63.7851 41.7753 63.7802 47.3942 63.79 53.0081C63.7949 55.929 63.8243 58.8498 63.8439 61.7706C63.8439 61.8696 63.8636 61.9687 63.8783 62.0974C64.261 61.9439 64.521 61.6914 64.7614 61.4241C65.0803 61.0627 65.257 60.6667 65.257 60.1518C65.2472 49.3348 65.2472 38.5228 65.257 27.7058C65.257 27.3097 65.1539 26.978 64.9283 26.6761C64.5505 26.1612 64.0893 25.7899 63.4024 25.785C62.1414 25.7751 60.8854 25.7305 59.6244 25.7256C55.1106 25.7157 50.5967 25.7058 46.0828 25.7107C43.1292 25.7107 40.1804 25.7355 37.2268 25.7454C36.4074 25.7454 35.8432 26.1662 35.4016 26.8147C35.3623 26.884 35.3378 26.9731 35.2838 27.0969ZM62.2641 34.8841C62.1512 34.8792 62.0678 34.8693 61.9893 34.8693C60.3604 34.8544 58.7364 34.8395 57.1075 34.8247C56.5334 34.8197 56.2636 34.5376 56.2636 33.9484C56.2636 32.3296 56.2587 30.7157 56.2734 29.0969C56.2734 28.8642 56.2194 28.79 55.979 28.79C48.7126 28.7949 41.4414 28.7949 34.175 28.7949C33.3605 28.7949 32.811 29.2355 32.3891 29.8741C32.2075 30.1464 32.2713 30.2504 32.6099 30.2603C33.3311 30.285 34.0474 30.3098 34.7687 30.3098C40.1313 30.3147 45.494 30.3197 50.8567 30.3147C51.102 30.3147 51.2885 30.3791 51.4651 30.5524C52.0392 31.1167 52.6328 31.6613 53.202 32.2306C55.5276 34.5623 57.8385 36.9089 60.1641 39.2406C60.537 39.6119 60.7235 39.998 60.7235 40.5377C60.7186 42.8248 60.7578 45.107 60.7676 47.3942C60.7823 53.1616 60.7922 58.929 60.802 64.6915C60.802 64.8251 60.8167 64.9637 60.8216 65.137C60.9443 65.0826 61.0277 65.0529 61.1013 65.0133C61.7685 64.6469 62.166 64.1222 62.1758 63.3202C62.1905 62.2409 62.2543 61.1617 62.2543 60.0775C62.2641 51.7606 62.2641 43.4486 62.269 35.1316C62.2788 35.0574 62.269 34.9831 62.2641 34.8841ZM51.6957 32.9583C51.6908 33.0227 51.681 33.0672 51.681 33.1168C51.7006 35.097 51.7202 37.0723 51.7399 39.0525C51.7448 39.3891 51.7497 39.3941 52.0833 39.3941C54.0017 39.3941 55.925 39.3891 57.8434 39.3842C57.9121 39.3842 57.9759 39.3693 58.0348 39.3644C55.9201 37.2257 53.8153 35.097 51.6957 32.9583ZM57.8925 29.9682C57.8581 29.9929 57.8287 30.0177 57.7944 30.0424C57.7895 30.0821 57.7796 30.1217 57.7796 30.1613C57.7747 31.1662 57.7747 32.1712 57.7649 33.1811C57.7649 33.3593 57.8581 33.3593 57.9857 33.3593C58.9768 33.3593 59.963 33.3593 60.9541 33.3593C61.008 33.3593 61.0571 33.3445 61.1405 33.3296C60.0415 32.191 58.967 31.0821 57.8925 29.9682Z" fill="url(#paint0_linear_1_974)"/>
<path d="M39.6214 59.0869C36.0103 59.374 31.4032 55.8888 31.4081 50.7996C31.4081 46.3243 35.1958 42.5025 39.5576 42.4728C44.1892 42.4431 47.923 46.5025 47.9377 50.8392C47.9426 55.0125 44.0764 59.3492 39.6214 59.0869ZM43.9194 56.2254C43.8654 56.1561 43.8458 56.1264 43.8163 56.0967C42.3591 54.6264 40.9069 53.1511 39.4447 51.6858C39.3662 51.6066 39.2141 51.562 39.0964 51.562C37.8796 51.5521 36.6579 51.5521 35.4411 51.557C34.6905 51.562 33.9349 51.5867 33.1842 51.5966C32.9585 51.6016 32.8898 51.6858 32.934 51.9184C33.4737 54.77 35.132 56.6066 37.8796 57.4235C38.8952 57.7254 39.9403 57.6561 40.9706 57.5126C42.0648 57.3641 43.0117 56.874 43.9194 56.2254ZM40.4457 43.9876C40.4407 44.0619 40.4309 44.1114 40.4309 44.1609C40.4309 46.2302 40.426 48.2996 40.4358 50.3689C40.4358 50.4729 40.5094 50.6016 40.583 50.6808C41.5054 51.6165 42.4278 52.5521 43.3551 53.4779C43.8458 53.963 44.3511 54.4333 44.8418 54.9135C44.9742 55.0472 45.0773 55.0373 45.1754 54.8838C45.2147 54.8195 45.2588 54.7601 45.2981 54.7007C47.0006 52.0917 46.7749 48.6016 44.7584 46.2302C43.6299 44.8985 42.158 44.2302 40.4457 43.9876ZM32.88 49.9877C34.926 50.0818 36.9131 50.0372 38.8952 50.0521C38.91 49.9877 38.9247 49.9531 38.9247 49.9234C38.9149 48.0372 38.905 46.1461 38.8952 44.2599C38.8952 44.047 38.802 44.0173 38.6205 44.047C35.9367 44.5025 34.1458 46.0421 33.2234 48.6115C33.0714 49.0273 33.0027 49.4778 32.88 49.9877Z" fill="url(#paint1_linear_1_974)"/>
<path d="M30.6379 62.1612C30.6379 61.7354 30.6428 61.3394 30.6379 60.9433C30.633 60.7304 30.7557 60.7106 30.9225 60.7106C32.2717 60.7057 33.621 60.6809 34.9702 60.6809C39.9257 60.6809 44.8811 60.6809 49.8366 60.6859C52.3732 60.6859 54.9049 60.7007 57.4415 60.6958C57.6574 60.6958 57.7506 60.7453 57.7408 60.978C57.7261 61.3641 57.7359 61.7503 57.7359 62.1513C48.7081 62.1612 39.6804 62.1612 30.6379 62.1612Z" fill="#281C51"/>
<path d="M57.7502 64.0566C57.7502 64.5467 57.7502 65.022 57.7502 65.522C48.7175 65.522 39.6898 65.522 30.6326 65.522C30.6326 65.0468 30.6326 64.5616 30.6326 64.0566C39.6603 64.0566 48.6881 64.0566 57.7502 64.0566Z" fill="#281C51"/>
<path d="M38.9589 36.2041C41.3483 36.2041 43.7328 36.2041 46.1222 36.2041C46.451 36.2041 46.451 36.2041 46.451 36.5408C46.451 36.8477 46.4362 37.1497 46.4559 37.4566C46.4657 37.6645 46.3921 37.719 46.1909 37.719C44.6209 37.714 43.0508 37.714 41.4808 37.714C38.2327 37.714 34.9896 37.714 31.7416 37.714C31.4129 37.714 31.4129 37.714 31.4129 37.3774C31.4129 37.0705 31.4227 36.7685 31.408 36.4615C31.3981 36.2536 31.4717 36.1942 31.6729 36.1992C33.243 36.2041 34.813 36.2041 36.383 36.2041C37.2417 36.2041 38.1003 36.2041 38.9589 36.2041Z" fill="#281C51"/>
<path d="M46.436 39.4231C46.436 39.943 46.436 40.4182 46.436 40.9133C41.4364 40.9133 36.4466 40.9133 31.4127 40.9133C31.4127 40.4529 31.4077 39.9925 31.4225 39.537C31.4225 39.4974 31.5647 39.433 31.6433 39.4281C32.6147 39.4182 33.5911 39.4231 34.5626 39.4231C38.4288 39.4231 42.2999 39.4231 46.1662 39.4231C46.2496 39.4231 46.3281 39.4231 46.436 39.4231Z" fill="#281C51"/>
<path d="M49.4689 45.0067C49.4689 44.4968 49.4689 44.0116 49.4689 43.5116C49.5621 43.5067 49.6406 43.4968 49.7191 43.4968C52.3097 43.4968 54.9002 43.5017 57.4859 43.4918C57.7165 43.4918 57.7803 43.5611 57.7705 43.7839C57.7558 44.1849 57.7656 44.5859 57.7656 45.0067C54.9886 45.0067 52.2361 45.0067 49.4689 45.0067Z" fill="#281C51"/>
<path d="M57.7507 47.7216C57.7507 48.2167 57.7507 48.7018 57.7507 49.2068C54.9982 49.2068 52.2457 49.2068 49.4736 49.2068C49.4736 48.7266 49.4736 48.2365 49.4736 47.7216C52.2261 47.7216 54.9835 47.7216 57.7507 47.7216Z" fill="#281C51"/>
<path d="M57.7507 51.9313C57.7507 52.4263 57.7507 52.9065 57.7507 53.4066C54.9884 53.4066 52.2408 53.4066 49.4736 53.4066C49.4736 52.9164 49.4736 52.4362 49.4736 51.9313C52.2261 51.9313 54.9786 51.9313 57.7507 51.9313Z" fill="#281C51"/>
<path d="M57.7305 57.6016C54.9731 57.6016 52.2256 57.6016 49.4633 57.6016C49.4633 57.1065 49.4633 56.6313 49.4633 56.1263C49.5516 56.1214 49.6399 56.1115 49.7282 56.1115C52.3041 56.1263 54.875 56.1412 57.4509 56.1511C57.6618 56.1511 57.7403 56.2055 57.7354 56.4233C57.7207 56.8095 57.7305 57.1956 57.7305 57.6016Z" fill="#281C51"/>
</g>
<circle cx="46.5" cy="47" r="45.5" stroke="url(#paint2_linear_1_974)" stroke-width="2" stroke-dasharray="6 6"/>
<defs>
<linearGradient id="paint0_linear_1_974" x1="27.6213" y1="57.8714" x2="66.7805" y2="57.9157" gradientUnits="userSpaceOnUse">
<stop stop-color="#00C0B4"/>
<stop offset="1" stop-color="#29C9F3"/>
</linearGradient>
<linearGradient id="paint1_linear_1_974" x1="31.4081" y1="54.7649" x2="47.9378" y2="54.7865" gradientUnits="userSpaceOnUse">
<stop stop-color="#00C0B4"/>
<stop offset="1" stop-color="#29C9F3"/>
</linearGradient>
<linearGradient id="paint2_linear_1_974" x1="3.53612e-07" y1="69.2391" x2="93.0007" y2="69.3614" gradientUnits="userSpaceOnUse">
<stop stop-color="#00C0B4"/>
<stop offset="1" stop-color="#29C9F3"/>
</linearGradient>
<clipPath id="clip0_1_974">
<rect width="39.1579" height="45.4511" fill="white" transform="translate(27.6203 24.2744)"/>
</clipPath>
</defs>
</svg>
