<svg width="320" height="233" viewBox="0 0 320 233" fill="none" xmlns="http://www.w3.org/2000/svg">
<g style="mix-blend-mode:screen">
<path d="M67 213H129.818C130.309 212.011 130.309 210.528 130.309 209.539C130.309 204.1 127.364 200.144 121.966 198.167C116.567 196.189 107.734 194.211 95.4644 192.233C84.1768 190.256 74.3615 188.278 67 186.3V213ZM249.565 99.2778C245.639 101.256 242.694 104.717 240.731 108.672C238.768 112.628 237.296 117.572 237.296 122.517C237.296 127.956 238.277 132.406 240.731 136.361C243.185 140.317 246.129 143.283 249.565 145.756L250.546 146.25C252.018 139.328 253 131.911 253 124C253 115.1 252.018 106.694 249.565 99.2778ZM67 35.4944V61.7C74.3615 61.7 80.2507 59.2278 84.6675 54.2833C89.5752 49.3389 91.5383 42.9111 91.5383 35H67V35.4944ZM111.66 35.4944C111.66 43.9 109.697 51.3167 105.77 57.7444C102.335 64.6667 96.9367 69.6111 90.066 73.5667C83.1952 77.0278 75.8338 79.0056 67 79.0056V102.739C76.8153 98.7833 89.0844 96.8056 102.826 96.8056C110.678 96.8056 118.53 97.3 126.383 98.7833V81.9722H151.412C164.172 81.9722 174.478 85.4333 181.839 92.85C189.691 100.267 193.127 110.65 193.127 124C193.127 137.35 189.201 147.733 181.839 155.15C173.987 162.567 164.172 166.028 151.412 166.028H126.383V128.944C119.021 126.967 111.169 125.978 102.335 125.978C91.5383 125.978 83.686 127.461 78.2876 130.922C72.8892 133.889 69.9446 138.339 69.9446 143.778C69.9446 149.711 72.8892 153.667 78.7784 156.139C84.6675 158.611 93.9921 161.083 106.261 163.061C118.53 165.039 128.836 167.017 136.689 169.983C144.541 172.456 151.412 176.906 157.301 182.839C163.19 188.772 165.644 197.672 165.644 208.55V213C180.367 212.011 194.108 208.55 205.887 202.617C212.757 199.156 219.137 195.2 225.026 190.256V166.522H243.675C243.807 166.257 243.938 166.028 244.061 165.815C244.394 165.233 244.657 164.774 244.657 164.05C242.203 163.061 240.24 162.072 238.277 161.083C231.897 157.622 226.499 152.183 223.063 145.756C219.137 139.328 217.665 131.417 217.665 123.011C217.665 114.606 219.628 106.694 223.063 100.267C225.026 96.3111 227.971 93.3445 230.916 90.3778H228.952V62.1944C222.573 55.7667 214.72 50.3278 205.887 46.3722C190.673 38.9556 173.496 35.4944 153.865 35.4944H111.66Z" fill="url(#paint0_linear_1_822)" fill-opacity="0.35"/>
<path d="M67 213H129.818C130.309 212.011 130.309 210.528 130.309 209.539C130.309 204.1 127.364 200.144 121.966 198.167C116.567 196.189 107.734 194.211 95.4644 192.233C84.1768 190.256 74.3615 188.278 67 186.3V213ZM249.565 99.2778C245.639 101.256 242.694 104.717 240.731 108.672C238.768 112.628 237.296 117.572 237.296 122.517C237.296 127.956 238.277 132.406 240.731 136.361C243.185 140.317 246.129 143.283 249.565 145.756L250.546 146.25C252.018 139.328 253 131.911 253 124C253 115.1 252.018 106.694 249.565 99.2778ZM67 35.4944V61.7C74.3615 61.7 80.2507 59.2278 84.6675 54.2833C89.5752 49.3389 91.5383 42.9111 91.5383 35H67V35.4944ZM111.66 35.4944C111.66 43.9 109.697 51.3167 105.77 57.7444C102.335 64.6667 96.9367 69.6111 90.066 73.5667C83.1952 77.0278 75.8338 79.0056 67 79.0056V102.739C76.8153 98.7833 89.0844 96.8056 102.826 96.8056C110.678 96.8056 118.53 97.3 126.383 98.7833V81.9722H151.412C164.172 81.9722 174.478 85.4333 181.839 92.85C189.691 100.267 193.127 110.65 193.127 124C193.127 137.35 189.201 147.733 181.839 155.15C173.987 162.567 164.172 166.028 151.412 166.028H126.383V128.944C119.021 126.967 111.169 125.978 102.335 125.978C91.5383 125.978 83.686 127.461 78.2876 130.922C72.8892 133.889 69.9446 138.339 69.9446 143.778C69.9446 149.711 72.8892 153.667 78.7784 156.139C84.6675 158.611 93.9921 161.083 106.261 163.061C118.53 165.039 128.836 167.017 136.689 169.983C144.541 172.456 151.412 176.906 157.301 182.839C163.19 188.772 165.644 197.672 165.644 208.55V213C180.367 212.011 194.108 208.55 205.887 202.617C212.757 199.156 219.137 195.2 225.026 190.256V166.522H243.675C243.807 166.257 243.938 166.028 244.061 165.815C244.394 165.233 244.657 164.774 244.657 164.05C242.203 163.061 240.24 162.072 238.277 161.083C231.897 157.622 226.499 152.183 223.063 145.756C219.137 139.328 217.665 131.417 217.665 123.011C217.665 114.606 219.628 106.694 223.063 100.267C225.026 96.3111 227.971 93.3445 230.916 90.3778H228.952V62.1944C222.573 55.7667 214.72 50.3278 205.887 46.3722C190.673 38.9556 173.496 35.4944 153.865 35.4944H111.66Z" stroke="url(#paint1_linear_1_822)"/>
</g>
<g style="mix-blend-mode:screen" opacity="0.4">
<path d="M14 83.3001H25.8186C25.9109 83.1133 25.9109 82.8331 25.9109 82.6463C25.9109 81.619 25.3569 80.8719 24.3413 80.4983C23.3256 80.1247 21.6636 79.7511 19.3553 79.3776C17.2316 79.004 15.385 78.6304 14 78.2568V83.3001ZM48.3477 61.8195C47.6091 62.1931 47.0551 62.8469 46.6858 63.594C46.3164 64.3412 46.0394 65.2751 46.0394 66.209C46.0394 67.2364 46.2241 68.0769 46.6858 68.8241C47.1474 69.5712 47.7014 70.1316 48.3477 70.5985L48.5324 70.6919C48.8094 69.3844 48.9941 67.9835 48.9941 66.4892C48.9941 64.8081 48.8094 63.2204 48.3477 61.8195ZM14 49.7717V54.7216C15.385 54.7216 16.493 54.2546 17.324 53.3207C18.2473 52.3868 18.6166 51.1726 18.6166 49.6783H14V49.7717ZM22.4023 49.7717C22.4023 51.3594 22.0329 52.7603 21.2943 53.9745C20.6479 55.282 19.6323 56.2159 18.3396 56.9631C17.047 57.6168 15.662 57.9904 14 57.9904V62.4733C15.8467 61.7261 18.155 61.3526 20.7403 61.3526C22.2176 61.3526 23.6949 61.446 25.1722 61.7261V58.5508H29.8812C32.2819 58.5508 34.2208 59.2045 35.6058 60.6054C37.0832 62.0063 37.7295 63.9676 37.7295 66.4892C37.7295 69.0109 36.9908 70.9721 35.6058 72.373C34.1285 73.7739 32.2819 74.4277 29.8812 74.4277H25.1722V67.4232C23.7873 67.0496 22.3099 66.8628 20.6479 66.8628C18.6166 66.8628 17.1393 67.143 16.1237 67.7967C15.108 68.3571 14.554 69.1976 14.554 70.225C14.554 71.3457 15.108 72.0928 16.216 72.5598C17.324 73.0268 19.0783 73.4937 21.3866 73.8673C23.6949 74.2409 25.6339 74.6145 27.1112 75.1748C28.5886 75.6418 29.8812 76.4823 30.9892 77.6031C32.0972 78.7238 32.5589 80.4049 32.5589 82.4595V83.3001C35.3288 83.1133 37.9142 82.4595 40.1301 81.3388C41.4228 80.6851 42.6231 79.9379 43.7311 79.004V74.5211H47.2397C47.2645 74.471 47.2892 74.4277 47.3122 74.3875C47.3749 74.2775 47.4244 74.1909 47.4244 74.0541C46.9628 73.8673 46.5935 73.6806 46.2242 73.4938L46.2241 73.4938C45.0238 72.84 44.0081 71.8127 43.3618 70.5985C42.6231 69.3844 42.3461 67.8901 42.3461 66.3024C42.3461 64.7147 42.7154 63.2204 43.3618 62.0063C43.7311 61.2592 44.2851 60.6988 44.8391 60.1385L44.8391 60.1384H44.4698V54.815C43.2694 53.6009 41.7921 52.5736 40.1301 51.8264C37.2678 50.4255 34.0362 49.7717 30.3429 49.7717H22.4023Z" fill="url(#paint2_linear_1_822)" fill-opacity="0.35"/>
<path d="M14 83.3001H25.8186C25.9109 83.1133 25.9109 82.8331 25.9109 82.6463C25.9109 81.619 25.3569 80.8719 24.3413 80.4983C23.3256 80.1247 21.6636 79.7511 19.3553 79.3776C17.2316 79.004 15.385 78.6304 14 78.2568V83.3001ZM48.3477 61.8195C47.6091 62.1931 47.0551 62.8469 46.6858 63.594C46.3164 64.3412 46.0394 65.2751 46.0394 66.209C46.0394 67.2364 46.2241 68.0769 46.6858 68.8241C47.1474 69.5712 47.7014 70.1316 48.3477 70.5985L48.5324 70.6919C48.8094 69.3844 48.9941 67.9835 48.9941 66.4892C48.9941 64.8081 48.8094 63.2204 48.3477 61.8195ZM14 49.7717V54.7216C15.385 54.7216 16.493 54.2546 17.324 53.3207C18.2473 52.3868 18.6166 51.1726 18.6166 49.6783H14V49.7717ZM22.4023 49.7717C22.4023 51.3594 22.0329 52.7603 21.2943 53.9745C20.6479 55.282 19.6323 56.2159 18.3396 56.9631C17.047 57.6168 15.662 57.9904 14 57.9904V62.4733C15.8467 61.7261 18.155 61.3526 20.7403 61.3526C22.2176 61.3526 23.6949 61.446 25.1722 61.7261V58.5508H29.8812C32.2819 58.5508 34.2208 59.2045 35.6058 60.6054C37.0832 62.0063 37.7295 63.9676 37.7295 66.4892C37.7295 69.0109 36.9908 70.9721 35.6058 72.373C34.1285 73.7739 32.2819 74.4277 29.8812 74.4277H25.1722V67.4232C23.7873 67.0496 22.3099 66.8628 20.6479 66.8628C18.6166 66.8628 17.1393 67.143 16.1237 67.7967C15.108 68.3571 14.554 69.1976 14.554 70.225C14.554 71.3457 15.108 72.0928 16.216 72.5598C17.324 73.0268 19.0783 73.4937 21.3866 73.8673C23.6949 74.2409 25.6339 74.6145 27.1112 75.1748C28.5886 75.6418 29.8812 76.4823 30.9892 77.6031C32.0972 78.7238 32.5589 80.4049 32.5589 82.4595V83.3001C35.3288 83.1133 37.9142 82.4595 40.1301 81.3388C41.4228 80.6851 42.6231 79.9379 43.7311 79.004V74.5211H47.2397C47.2645 74.471 47.2892 74.4277 47.3122 74.3875C47.3749 74.2775 47.4244 74.1909 47.4244 74.0541C46.9628 73.8673 46.5935 73.6806 46.2242 73.4938L46.2241 73.4938C45.0238 72.84 44.0081 71.8127 43.3618 70.5985C42.6231 69.3844 42.3461 67.8901 42.3461 66.3024C42.3461 64.7147 42.7154 63.2204 43.3618 62.0063C43.7311 61.2592 44.2851 60.6988 44.8391 60.1385L44.8391 60.1384H44.4698V54.815C43.2694 53.6009 41.7921 52.5736 40.1301 51.8264C37.2678 50.4255 34.0362 49.7717 30.3429 49.7717H22.4023Z" stroke="url(#paint3_linear_1_822)"/>
</g>
<g style="mix-blend-mode:screen" opacity="0.5">
<path d="M247 230H266.588C266.741 229.694 266.741 229.236 266.741 228.931C266.741 227.25 265.823 226.028 264.14 225.417C262.456 224.806 259.702 224.194 255.876 223.583C252.356 222.972 249.296 222.361 247 221.75V230ZM303.929 194.861C302.704 195.472 301.786 196.542 301.174 197.764C300.562 198.986 300.103 200.514 300.103 202.042C300.103 203.722 300.409 205.097 301.174 206.319C301.939 207.542 302.858 208.458 303.929 209.222L304.235 209.375C304.694 207.236 305 204.944 305 202.5C305 199.75 304.694 197.153 303.929 194.861ZM247 175.153V183.25C249.296 183.25 251.132 182.486 252.509 180.958C254.04 179.431 254.652 177.444 254.652 175H247V175.153ZM260.926 175.153C260.926 177.75 260.314 180.042 259.09 182.028C258.018 184.167 256.335 185.694 254.193 186.917C252.05 187.986 249.755 188.597 247 188.597V195.931C250.061 194.708 253.887 194.097 258.172 194.097C260.62 194.097 263.069 194.25 265.517 194.708V189.514H273.322C277.301 189.514 280.515 190.583 282.81 192.875C285.259 195.167 286.33 198.375 286.33 202.5C286.33 206.625 285.106 209.833 282.81 212.125C280.361 214.417 277.301 215.486 273.322 215.486H265.517V204.028C263.222 203.417 260.773 203.111 258.018 203.111C254.652 203.111 252.203 203.569 250.52 204.639C248.836 205.556 247.918 206.931 247.918 208.611C247.918 210.444 248.836 211.667 250.673 212.431C252.509 213.194 255.417 213.958 259.243 214.569C263.069 215.181 266.282 215.792 268.731 216.708C271.179 217.472 273.322 218.847 275.158 220.681C276.995 222.514 277.76 225.264 277.76 228.625V230C282.351 229.694 286.636 228.625 290.309 226.792C292.451 225.722 294.441 224.5 296.277 222.972V215.639H302.092C302.133 215.557 302.174 215.486 302.212 215.42C302.316 215.24 302.398 215.099 302.398 214.875C301.633 214.569 301.021 214.264 300.409 213.958C298.42 212.889 296.736 211.208 295.665 209.222C294.441 207.236 293.982 204.792 293.982 202.194C293.982 199.597 294.594 197.153 295.665 195.167C296.277 193.944 297.195 193.028 298.113 192.111H297.501V183.403C295.512 181.417 293.063 179.736 290.309 178.514C285.565 176.222 280.208 175.153 274.087 175.153H260.926Z" fill="url(#paint4_linear_1_822)" fill-opacity="0.35"/>
<path d="M247 230H266.588C266.741 229.694 266.741 229.236 266.741 228.931C266.741 227.25 265.823 226.028 264.14 225.417C262.456 224.806 259.702 224.194 255.876 223.583C252.356 222.972 249.296 222.361 247 221.75V230ZM303.929 194.861C302.704 195.472 301.786 196.542 301.174 197.764C300.562 198.986 300.103 200.514 300.103 202.042C300.103 203.722 300.409 205.097 301.174 206.319C301.939 207.542 302.858 208.458 303.929 209.222L304.235 209.375C304.694 207.236 305 204.944 305 202.5C305 199.75 304.694 197.153 303.929 194.861ZM247 175.153V183.25C249.296 183.25 251.132 182.486 252.509 180.958C254.04 179.431 254.652 177.444 254.652 175H247V175.153ZM260.926 175.153C260.926 177.75 260.314 180.042 259.09 182.028C258.018 184.167 256.335 185.694 254.193 186.917C252.05 187.986 249.755 188.597 247 188.597V195.931C250.061 194.708 253.887 194.097 258.172 194.097C260.62 194.097 263.069 194.25 265.517 194.708V189.514H273.322C277.301 189.514 280.515 190.583 282.81 192.875C285.259 195.167 286.33 198.375 286.33 202.5C286.33 206.625 285.106 209.833 282.81 212.125C280.361 214.417 277.301 215.486 273.322 215.486H265.517V204.028C263.222 203.417 260.773 203.111 258.018 203.111C254.652 203.111 252.203 203.569 250.52 204.639C248.836 205.556 247.918 206.931 247.918 208.611C247.918 210.444 248.836 211.667 250.673 212.431C252.509 213.194 255.417 213.958 259.243 214.569C263.069 215.181 266.282 215.792 268.731 216.708C271.179 217.472 273.322 218.847 275.158 220.681C276.995 222.514 277.76 225.264 277.76 228.625V230C282.351 229.694 286.636 228.625 290.309 226.792C292.451 225.722 294.441 224.5 296.277 222.972V215.639H302.092C302.133 215.557 302.174 215.486 302.212 215.42C302.316 215.24 302.398 215.099 302.398 214.875C301.633 214.569 301.021 214.264 300.409 213.958C298.42 212.889 296.736 211.208 295.665 209.222C294.441 207.236 293.982 204.792 293.982 202.194C293.982 199.597 294.594 197.153 295.665 195.167C296.277 193.944 297.195 193.028 298.113 192.111H297.501V183.403C295.512 181.417 293.063 179.736 290.309 178.514C285.565 176.222 280.208 175.153 274.087 175.153H260.926Z" stroke="url(#paint5_linear_1_822)"/>
</g>
<path d="M98.1599 4.8H99.3439V14.976H105.616V16H98.1599V4.8ZM117.502 14.976V16H109.582V4.8H117.262V5.824H110.766V9.808H116.558V10.816H110.766V14.976H117.502ZM129.309 13.008H123.069L121.725 16H120.493L125.613 4.8H126.781L131.901 16H130.653L129.309 13.008ZM128.877 12.048L126.189 6.032L123.501 12.048H128.877ZM143.402 16L140.842 12.4C140.554 12.432 140.255 12.448 139.946 12.448H136.938V16H135.754V4.8H139.946C141.375 4.8 142.495 5.14133 143.306 5.824C144.116 6.50667 144.522 7.44533 144.522 8.64C144.522 9.51467 144.298 10.256 143.85 10.864C143.412 11.4613 142.783 11.8933 141.962 12.16L144.698 16H143.402ZM139.914 11.44C141.023 11.44 141.871 11.1947 142.458 10.704C143.044 10.2133 143.338 9.52533 143.338 8.64C143.338 7.73333 143.044 7.04 142.458 6.56C141.871 6.06933 141.023 5.824 139.914 5.824H136.938V11.44H139.914ZM158.676 4.8V16H157.7L150.5 6.912V16H149.316V4.8H150.292L157.508 13.888V4.8H158.676ZM182.151 4.8V16H181.015V7.04L176.615 14.576H176.055L171.655 7.088V16H170.519V4.8H171.495L176.359 13.104L181.175 4.8H182.151ZM192.697 16.096C191.587 16.096 190.579 15.8507 189.673 15.36C188.777 14.8587 188.073 14.176 187.561 13.312C187.059 12.448 186.809 11.4773 186.809 10.4C186.809 9.32267 187.059 8.352 187.561 7.488C188.073 6.624 188.777 5.94667 189.673 5.456C190.579 4.95467 191.587 4.704 192.697 4.704C193.806 4.704 194.803 4.94933 195.689 5.44C196.585 5.93067 197.289 6.61333 197.801 7.488C198.313 8.352 198.569 9.32267 198.569 10.4C198.569 11.4773 198.313 12.4533 197.801 13.328C197.289 14.192 196.585 14.8693 195.689 15.36C194.803 15.8507 193.806 16.096 192.697 16.096ZM192.697 15.04C193.582 15.04 194.382 14.8427 195.097 14.448C195.811 14.0427 196.371 13.488 196.777 12.784C197.182 12.0693 197.385 11.2747 197.385 10.4C197.385 9.52533 197.182 8.736 196.777 8.032C196.371 7.31733 195.811 6.76267 195.097 6.368C194.382 5.96267 193.582 5.76 192.697 5.76C191.811 5.76 191.006 5.96267 190.281 6.368C189.566 6.76267 189.001 7.31733 188.585 8.032C188.179 8.736 187.977 9.52533 187.977 10.4C187.977 11.2747 188.179 12.0693 188.585 12.784C189.001 13.488 189.566 14.0427 190.281 14.448C191.006 14.8427 191.811 15.04 192.697 15.04ZM210.87 16L208.31 12.4C208.022 12.432 207.724 12.448 207.414 12.448H204.406V16H203.222V4.8H207.414C208.844 4.8 209.964 5.14133 210.774 5.824C211.585 6.50667 211.99 7.44533 211.99 8.64C211.99 9.51467 211.766 10.256 211.318 10.864C210.881 11.4613 210.252 11.8933 209.43 12.16L212.166 16H210.87ZM207.382 11.44C208.492 11.44 209.34 11.1947 209.926 10.704C210.513 10.2133 210.806 9.52533 210.806 8.64C210.806 7.73333 210.513 7.04 209.926 6.56C209.34 6.06933 208.492 5.824 207.382 5.824H204.406V11.44H207.382ZM224.705 14.976V16H216.785V4.8H224.465V5.824H217.969V9.808H223.761V10.816H217.969V14.976H224.705Z" fill="#29C9F3"/>
<g filter="url(#filter0_d_1_822)">
<rect x="16" y="132" width="289" height="56" rx="28" fill="url(#paint6_linear_1_822)"/>
</g>
<path d="M73.9348 150.176C74.5748 150.379 75.0761 150.72 75.4388 151.2C75.8015 151.669 75.9828 152.251 75.9828 152.944C75.9828 153.925 75.5988 154.683 74.8308 155.216C74.0735 155.739 72.9641 156 71.5028 156H65.7108V144.8H71.1828C72.5481 144.8 73.5935 145.061 74.3188 145.584C75.0548 146.107 75.4228 146.816 75.4228 147.712C75.4228 148.256 75.2895 148.741 75.0228 149.168C74.7668 149.595 74.4041 149.931 73.9348 150.176ZM68.2868 146.752V149.392H70.8628C71.5028 149.392 71.9881 149.28 72.3188 149.056C72.6495 148.832 72.8148 148.501 72.8148 148.064C72.8148 147.627 72.6495 147.301 72.3188 147.088C71.9881 146.864 71.5028 146.752 70.8628 146.752H68.2868ZM71.3108 154.048C71.9935 154.048 72.5055 153.936 72.8468 153.712C73.1988 153.488 73.3748 153.141 73.3748 152.672C73.3748 151.744 72.6868 151.28 71.3108 151.28H68.2868V154.048H71.3108ZM84.9212 156.192C83.3212 156.192 82.0732 155.749 81.1772 154.864C80.2919 153.979 79.8492 152.715 79.8492 151.072V144.8H82.4412V150.976C82.4412 152.981 83.2732 153.984 84.9372 153.984C85.7479 153.984 86.3665 153.744 86.7932 153.264C87.2199 152.773 87.4332 152.011 87.4332 150.976V144.8H89.9932V151.072C89.9932 152.715 89.5452 153.979 88.6492 154.864C87.7639 155.749 86.5212 156.192 84.9212 156.192ZM94.5546 144.8H97.1466V156H94.5546V144.8ZM101.805 144.8H104.397V153.888H110.013V156H101.805V144.8ZM113.461 144.8H118.549C119.765 144.8 120.837 145.035 121.765 145.504C122.703 145.963 123.429 146.613 123.941 147.456C124.463 148.299 124.725 149.28 124.725 150.4C124.725 151.52 124.463 152.501 123.941 153.344C123.429 154.187 122.703 154.843 121.765 155.312C120.837 155.771 119.765 156 118.549 156H113.461V144.8ZM118.421 153.872C119.541 153.872 120.431 153.563 121.093 152.944C121.765 152.315 122.101 151.467 122.101 150.4C122.101 149.333 121.765 148.491 121.093 147.872C120.431 147.243 119.541 146.928 118.421 146.928H116.053V153.872H118.421ZM140.587 152.032V156H137.995V152L133.659 144.8H136.411L139.403 149.776L142.395 144.8H144.939L140.587 152.032ZM152.963 156.192C151.8 156.192 150.75 155.941 149.811 155.44C148.883 154.939 148.152 154.251 147.619 153.376C147.096 152.491 146.835 151.499 146.835 150.4C146.835 149.301 147.096 148.315 147.619 147.44C148.152 146.555 148.883 145.861 149.811 145.36C150.75 144.859 151.8 144.608 152.963 144.608C154.126 144.608 155.171 144.859 156.099 145.36C157.027 145.861 157.758 146.555 158.291 147.44C158.824 148.315 159.091 149.301 159.091 150.4C159.091 151.499 158.824 152.491 158.291 153.376C157.758 154.251 157.027 154.939 156.099 155.44C155.171 155.941 154.126 156.192 152.963 156.192ZM152.963 153.984C153.624 153.984 154.222 153.835 154.755 153.536C155.288 153.227 155.704 152.8 156.003 152.256C156.312 151.712 156.467 151.093 156.467 150.4C156.467 149.707 156.312 149.088 156.003 148.544C155.704 148 155.288 147.579 154.755 147.28C154.222 146.971 153.624 146.816 152.963 146.816C152.302 146.816 151.704 146.971 151.171 147.28C150.638 147.579 150.216 148 149.907 148.544C149.608 149.088 149.459 149.707 149.459 150.4C149.459 151.093 149.608 151.712 149.907 152.256C150.216 152.8 150.638 153.227 151.171 153.536C151.704 153.835 152.302 153.984 152.963 153.984ZM168.015 156.192C166.415 156.192 165.167 155.749 164.271 154.864C163.386 153.979 162.943 152.715 162.943 151.072V144.8H165.535V150.976C165.535 152.981 166.367 153.984 168.031 153.984C168.842 153.984 169.46 153.744 169.887 153.264C170.314 152.773 170.527 152.011 170.527 150.976V144.8H173.087V151.072C173.087 152.715 172.639 153.979 171.743 154.864C170.858 155.749 169.615 156.192 168.015 156.192ZM184.784 156L182.624 152.88H182.496H180.24V156H177.648V144.8H182.496C183.488 144.8 184.347 144.965 185.072 145.296C185.808 145.627 186.374 146.096 186.768 146.704C187.163 147.312 187.36 148.032 187.36 148.864C187.36 149.696 187.158 150.416 186.752 151.024C186.358 151.621 185.792 152.08 185.056 152.4L187.568 156H184.784ZM184.736 148.864C184.736 148.235 184.534 147.755 184.128 147.424C183.723 147.083 183.131 146.912 182.352 146.912H180.24V150.816H182.352C183.131 150.816 183.723 150.645 184.128 150.304C184.534 149.963 184.736 149.483 184.736 148.864ZM205.081 156L202.921 152.88H202.793H200.537V156H197.945V144.8H202.793C203.785 144.8 204.644 144.965 205.369 145.296C206.105 145.627 206.671 146.096 207.065 146.704C207.46 147.312 207.657 148.032 207.657 148.864C207.657 149.696 207.455 150.416 207.049 151.024C206.655 151.621 206.089 152.08 205.353 152.4L207.865 156H205.081ZM205.033 148.864C205.033 148.235 204.831 147.755 204.425 147.424C204.02 147.083 203.428 146.912 202.649 146.912H200.537V150.816H202.649C203.428 150.816 204.02 150.645 204.425 150.304C204.831 149.963 205.033 149.483 205.033 148.864ZM217.135 156.192C215.972 156.192 214.921 155.941 213.983 155.44C213.055 154.939 212.324 154.251 211.791 153.376C211.268 152.491 211.007 151.499 211.007 150.4C211.007 149.301 211.268 148.315 211.791 147.44C212.324 146.555 213.055 145.861 213.983 145.36C214.921 144.859 215.972 144.608 217.135 144.608C218.297 144.608 219.343 144.859 220.271 145.36C221.199 145.861 221.929 146.555 222.463 147.44C222.996 148.315 223.263 149.301 223.263 150.4C223.263 151.499 222.996 152.491 222.463 153.376C221.929 154.251 221.199 154.939 220.271 155.44C219.343 155.941 218.297 156.192 217.135 156.192ZM217.135 153.984C217.796 153.984 218.393 153.835 218.927 153.536C219.46 153.227 219.876 152.8 220.175 152.256C220.484 151.712 220.639 151.093 220.639 150.4C220.639 149.707 220.484 149.088 220.175 148.544C219.876 148 219.46 147.579 218.927 147.28C218.393 146.971 217.796 146.816 217.135 146.816C216.473 146.816 215.876 146.971 215.343 147.28C214.809 147.579 214.388 148 214.079 148.544C213.78 149.088 213.631 149.707 213.631 150.4C213.631 151.093 213.78 151.712 214.079 152.256C214.388 152.8 214.809 153.227 215.343 153.536C215.876 153.835 216.473 153.984 217.135 153.984ZM235.435 150.176C236.075 150.379 236.576 150.72 236.939 151.2C237.301 151.669 237.483 152.251 237.483 152.944C237.483 153.925 237.099 154.683 236.331 155.216C235.573 155.739 234.464 156 233.003 156H227.211V144.8H232.683C234.048 144.8 235.093 145.061 235.819 145.584C236.555 146.107 236.923 146.816 236.923 147.712C236.923 148.256 236.789 148.741 236.523 149.168C236.267 149.595 235.904 149.931 235.435 150.176ZM229.787 146.752V149.392H232.363C233.003 149.392 233.488 149.28 233.819 149.056C234.149 148.832 234.315 148.501 234.315 148.064C234.315 147.627 234.149 147.301 233.819 147.088C233.488 146.864 233.003 146.752 232.363 146.752H229.787ZM232.811 154.048C233.493 154.048 234.005 153.936 234.347 153.712C234.699 153.488 234.875 153.141 234.875 152.672C234.875 151.744 234.187 151.28 232.811 151.28H229.787V154.048H232.811ZM246.869 156.192C245.707 156.192 244.656 155.941 243.717 155.44C242.789 154.939 242.059 154.251 241.525 153.376C241.003 152.491 240.741 151.499 240.741 150.4C240.741 149.301 241.003 148.315 241.525 147.44C242.059 146.555 242.789 145.861 243.717 145.36C244.656 144.859 245.707 144.608 246.869 144.608C248.032 144.608 249.077 144.859 250.005 145.36C250.933 145.861 251.664 146.555 252.197 147.44C252.731 148.315 252.997 149.301 252.997 150.4C252.997 151.499 252.731 152.491 252.197 153.376C251.664 154.251 250.933 154.939 250.005 155.44C249.077 155.941 248.032 156.192 246.869 156.192ZM246.869 153.984C247.531 153.984 248.128 153.835 248.661 153.536C249.195 153.227 249.611 152.8 249.909 152.256C250.219 151.712 250.373 151.093 250.373 150.4C250.373 149.707 250.219 149.088 249.909 148.544C249.611 148 249.195 147.579 248.661 147.28C248.128 146.971 247.531 146.816 246.869 146.816C246.208 146.816 245.611 146.971 245.077 147.28C244.544 147.579 244.123 148 243.813 148.544C243.515 149.088 243.365 149.707 243.365 150.4C243.365 151.093 243.515 151.712 243.813 152.256C244.123 152.8 244.544 153.227 245.077 153.536C245.611 153.835 246.208 153.984 246.869 153.984ZM117.618 173.6H112.418L111.426 176H108.77L113.762 164.8H116.322L121.33 176H118.61L117.618 173.6ZM116.802 171.632L115.026 167.344L113.25 171.632H116.802ZM124.492 164.8H129.58C130.796 164.8 131.868 165.035 132.796 165.504C133.735 165.963 134.46 166.613 134.972 167.456C135.495 168.299 135.756 169.28 135.756 170.4C135.756 171.52 135.495 172.501 134.972 173.344C134.46 174.187 133.735 174.843 132.796 175.312C131.868 175.771 130.796 176 129.58 176H124.492V164.8ZM129.452 173.872C130.572 173.872 131.463 173.563 132.124 172.944C132.796 172.315 133.132 171.467 133.132 170.4C133.132 169.333 132.796 168.491 132.124 167.872C131.463 167.243 130.572 166.928 129.452 166.928H127.084V173.872H129.452ZM150.104 164.8L145.256 176H142.696L137.864 164.8H140.664L144.072 172.8L147.528 164.8H150.104ZM153.039 164.8H155.631V176H153.039V164.8ZM163.969 176.192C163.084 176.192 162.225 176.075 161.393 175.84C160.572 175.595 159.91 175.28 159.409 174.896L160.289 172.944C160.769 173.296 161.34 173.579 162.001 173.792C162.662 174.005 163.324 174.112 163.985 174.112C164.721 174.112 165.265 174.005 165.617 173.792C165.969 173.568 166.145 173.275 166.145 172.912C166.145 172.645 166.038 172.427 165.825 172.256C165.622 172.075 165.356 171.931 165.025 171.824C164.705 171.717 164.268 171.6 163.713 171.472C162.86 171.269 162.161 171.067 161.617 170.864C161.073 170.661 160.604 170.336 160.209 169.888C159.825 169.44 159.633 168.843 159.633 168.096C159.633 167.445 159.809 166.859 160.161 166.336C160.513 165.803 161.041 165.381 161.745 165.072C162.46 164.763 163.329 164.608 164.353 164.608C165.068 164.608 165.766 164.693 166.449 164.864C167.132 165.035 167.729 165.28 168.241 165.6L167.441 167.568C166.406 166.981 165.372 166.688 164.337 166.688C163.612 166.688 163.073 166.805 162.721 167.04C162.38 167.275 162.209 167.584 162.209 167.968C162.209 168.352 162.406 168.64 162.801 168.832C163.206 169.013 163.82 169.195 164.641 169.376C165.494 169.579 166.193 169.781 166.737 169.984C167.281 170.187 167.745 170.507 168.129 170.944C168.524 171.381 168.721 171.973 168.721 172.72C168.721 173.36 168.54 173.947 168.177 174.48C167.825 175.003 167.292 175.419 166.577 175.728C165.862 176.037 164.993 176.192 163.969 176.192ZM177.916 176.192C176.753 176.192 175.703 175.941 174.764 175.44C173.836 174.939 173.105 174.251 172.572 173.376C172.049 172.491 171.788 171.499 171.788 170.4C171.788 169.301 172.049 168.315 172.572 167.44C173.105 166.555 173.836 165.861 174.764 165.36C175.703 164.859 176.753 164.608 177.916 164.608C179.079 164.608 180.124 164.859 181.052 165.36C181.98 165.861 182.711 166.555 183.244 167.44C183.777 168.315 184.044 169.301 184.044 170.4C184.044 171.499 183.777 172.491 183.244 173.376C182.711 174.251 181.98 174.939 181.052 175.44C180.124 175.941 179.079 176.192 177.916 176.192ZM177.916 173.984C178.577 173.984 179.175 173.835 179.708 173.536C180.241 173.227 180.657 172.8 180.956 172.256C181.265 171.712 181.42 171.093 181.42 170.4C181.42 169.707 181.265 169.088 180.956 168.544C180.657 168 180.241 167.579 179.708 167.28C179.175 166.971 178.577 166.816 177.916 166.816C177.255 166.816 176.657 166.971 176.124 167.28C175.591 167.579 175.169 168 174.86 168.544C174.561 169.088 174.412 169.707 174.412 170.4C174.412 171.093 174.561 171.712 174.86 172.256C175.169 172.8 175.591 173.227 176.124 173.536C176.657 173.835 177.255 173.984 177.916 173.984ZM195.128 176L192.968 172.88H192.84H190.584V176H187.992V164.8H192.84C193.832 164.8 194.691 164.965 195.416 165.296C196.152 165.627 196.717 166.096 197.112 166.704C197.507 167.312 197.704 168.032 197.704 168.864C197.704 169.696 197.501 170.416 197.096 171.024C196.701 171.621 196.136 172.08 195.4 172.4L197.912 176H195.128ZM195.08 168.864C195.08 168.235 194.877 167.755 194.472 167.424C194.067 167.083 193.475 166.912 192.696 166.912H190.584V170.816H192.696C193.475 170.816 194.067 170.645 194.472 170.304C194.877 169.963 195.08 169.483 195.08 168.864ZM206.977 172.032V176H204.385V172L200.049 164.8H202.801L205.793 169.776L208.785 164.8H211.329L206.977 172.032Z" fill="white"/>
<path d="M46.2324 69.336C44.8724 69.336 43.5524 69.168 42.2724 68.832C40.9924 68.496 39.9524 68.048 39.1524 67.488L40.7124 63.984C41.4644 64.48 42.3364 64.88 43.3284 65.184C44.3204 65.488 45.2964 65.64 46.2564 65.64C48.0804 65.64 48.9924 65.184 48.9924 64.272C48.9924 63.792 48.7284 63.44 48.2004 63.216C47.6884 62.976 46.8564 62.728 45.7044 62.472C44.4404 62.2 43.3844 61.912 42.5364 61.608C41.6884 61.288 40.9604 60.784 40.3524 60.096C39.7444 59.408 39.4404 58.48 39.4404 57.312C39.4404 56.288 39.7204 55.368 40.2804 54.552C40.8404 53.72 41.6724 53.064 42.7764 52.584C43.8964 52.104 45.2644 51.864 46.8804 51.864C47.9844 51.864 49.0724 51.992 50.1444 52.248C51.2164 52.488 52.1604 52.848 52.9764 53.328L51.5124 56.856C49.9124 55.992 48.3604 55.56 46.8564 55.56C45.9124 55.56 45.2244 55.704 44.7924 55.992C44.3604 56.264 44.1444 56.624 44.1444 57.072C44.1444 57.52 44.4004 57.856 44.9124 58.08C45.4244 58.304 46.2484 58.536 47.3844 58.776C48.6644 59.048 49.7204 59.344 50.5524 59.664C51.4004 59.968 52.1284 60.464 52.7364 61.152C53.3604 61.824 53.6724 62.744 53.6724 63.912C53.6724 64.92 53.3924 65.832 52.8324 66.648C52.2724 67.464 51.4324 68.12 50.3124 68.616C49.1924 69.096 47.8324 69.336 46.2324 69.336ZM64.6275 68.472C64.2435 68.712 63.7715 68.896 63.2115 69.024C62.6675 69.152 62.0835 69.216 61.4595 69.216C59.7635 69.216 58.4595 68.8 57.5475 67.968C56.6355 67.136 56.1795 65.896 56.1795 64.248V59.88H54.2835V56.472H56.1795V53.088H60.7395V56.472H63.7155V59.88H60.7395V64.2C60.7395 64.664 60.8595 65.032 61.0995 65.304C61.3555 65.56 61.6915 65.688 62.1075 65.688C62.6355 65.688 63.0995 65.552 63.4995 65.28L64.6275 68.472ZM71.9299 55.776C74.0899 55.776 75.7379 56.272 76.8739 57.264C78.0099 58.24 78.5779 59.744 78.5779 61.776V69H74.3299V67.32C73.6739 68.584 72.3939 69.216 70.4899 69.216C69.4819 69.216 68.6099 69.04 67.8739 68.688C67.1379 68.336 66.5779 67.864 66.1939 67.272C65.8259 66.664 65.6419 65.976 65.6419 65.208C65.6419 63.976 66.1139 63.024 67.0579 62.352C68.0019 61.664 69.4579 61.32 71.4259 61.32H74.0179C73.9379 59.944 73.0179 59.256 71.2579 59.256C70.6339 59.256 70.0019 59.36 69.3619 59.568C68.7219 59.76 68.1779 60.032 67.7299 60.384L66.1939 57.288C66.9139 56.808 67.7859 56.44 68.8099 56.184C69.8499 55.912 70.8899 55.776 71.9299 55.776ZM71.7619 66.336C72.2899 66.336 72.7539 66.208 73.1539 65.952C73.5539 65.696 73.8419 65.32 74.0179 64.824V63.696H72.0499C70.7219 63.696 70.0579 64.136 70.0579 65.016C70.0579 65.416 70.2099 65.736 70.5139 65.976C70.8179 66.216 71.2339 66.336 71.7619 66.336ZM85.8002 57.552C86.2642 56.96 86.8642 56.52 87.6002 56.232C88.3522 55.928 89.2082 55.776 90.1682 55.776V59.88C89.7522 59.832 89.4082 59.808 89.1362 59.808C88.1602 59.808 87.3922 60.072 86.8322 60.6C86.2882 61.128 86.0162 61.936 86.0162 63.024V69H81.4562V55.992H85.8002V57.552ZM101.424 68.472C101.04 68.712 100.568 68.896 100.008 69.024C99.4644 69.152 98.8804 69.216 98.2564 69.216C96.5604 69.216 95.2564 68.8 94.3444 67.968C93.4324 67.136 92.9764 65.896 92.9764 64.248V59.88H91.0804V56.472H92.9764V53.088H97.5364V56.472H100.512V59.88H97.5364V64.2C97.5364 64.664 97.6564 65.032 97.8964 65.304C98.1524 65.56 98.4884 65.688 98.9044 65.688C99.4324 65.688 99.8964 65.552 100.296 65.28L101.424 68.472ZM123.295 60.24C124.255 60.576 125.007 61.104 125.551 61.824C126.095 62.528 126.367 63.384 126.367 64.392C126.367 65.864 125.775 67 124.591 67.8C123.407 68.6 121.695 69 119.455 69H110.383V52.2H118.975C121.119 52.2 122.751 52.6 123.871 53.4C124.991 54.184 125.551 55.248 125.551 56.592C125.551 57.392 125.351 58.112 124.951 58.752C124.567 59.376 124.015 59.872 123.295 60.24ZM115.087 55.632V58.872H118.351C119.951 58.872 120.751 58.328 120.751 57.24C120.751 56.168 119.951 55.632 118.351 55.632H115.087ZM119.071 65.568C120.735 65.568 121.567 65 121.567 63.864C121.567 62.728 120.735 62.16 119.071 62.16H115.087V65.568H119.071ZM142.292 55.992V69H137.948V67.608C137.468 68.136 136.892 68.536 136.22 68.808C135.548 69.08 134.836 69.216 134.084 69.216C132.404 69.216 131.06 68.72 130.052 67.728C129.06 66.736 128.564 65.248 128.564 63.264V55.992H133.124V62.52C133.124 63.496 133.308 64.208 133.676 64.656C134.044 65.104 134.58 65.328 135.284 65.328C136.004 65.328 136.588 65.08 137.036 64.584C137.5 64.072 137.732 63.296 137.732 62.256V55.992H142.292ZM145.23 55.992H149.79V69H145.23V55.992ZM147.51 54.552C146.678 54.552 146.006 54.32 145.494 53.856C144.982 53.392 144.726 52.816 144.726 52.128C144.726 51.44 144.982 50.864 145.494 50.4C146.006 49.936 146.678 49.704 147.51 49.704C148.342 49.704 149.014 49.928 149.526 50.376C150.038 50.808 150.294 51.368 150.294 52.056C150.294 52.776 150.038 53.376 149.526 53.856C149.014 54.32 148.342 54.552 147.51 54.552ZM152.753 51.192H157.313V69H152.753V51.192ZM174.101 51.192V69H169.757V67.704C168.909 68.712 167.637 69.216 165.941 69.216C164.757 69.216 163.677 68.944 162.701 68.4C161.725 67.84 160.949 67.048 160.373 66.024C159.813 65 159.533 63.816 159.533 62.472C159.533 61.128 159.813 59.952 160.373 58.944C160.949 57.92 161.725 57.136 162.701 56.592C163.677 56.048 164.757 55.776 165.941 55.776C167.493 55.776 168.693 56.224 169.541 57.12V51.192H174.101ZM166.901 65.592C167.685 65.592 168.333 65.32 168.845 64.776C169.357 64.216 169.613 63.448 169.613 62.472C169.613 61.512 169.357 60.76 168.845 60.216C168.349 59.672 167.701 59.4 166.901 59.4C166.101 59.4 165.445 59.672 164.933 60.216C164.421 60.76 164.165 61.512 164.165 62.472C164.165 63.448 164.421 64.216 164.933 64.776C165.445 65.32 166.101 65.592 166.901 65.592ZM177.034 55.992H181.594V69H177.034V55.992ZM179.314 54.552C178.482 54.552 177.81 54.32 177.298 53.856C176.786 53.392 176.53 52.816 176.53 52.128C176.53 51.44 176.786 50.864 177.298 50.4C177.81 49.936 178.482 49.704 179.314 49.704C180.146 49.704 180.818 49.928 181.33 50.376C181.842 50.808 182.098 51.368 182.098 52.056C182.098 52.776 181.842 53.376 181.33 53.856C180.818 54.32 180.146 54.552 179.314 54.552ZM193.03 55.776C194.646 55.776 195.942 56.256 196.918 57.216C197.91 58.176 198.406 59.624 198.406 61.56V69H193.846V62.304C193.846 60.528 193.134 59.64 191.71 59.64C190.926 59.64 190.294 59.896 189.814 60.408C189.35 60.92 189.118 61.688 189.118 62.712V69H184.558V55.992H188.902V57.408C189.414 56.88 190.022 56.48 190.726 56.208C191.43 55.92 192.198 55.776 193.03 55.776ZM215.448 55.992V66.624C215.448 69.04 214.792 70.848 213.48 72.048C212.168 73.264 210.28 73.872 207.816 73.872C206.536 73.872 205.336 73.728 204.216 73.44C203.096 73.152 202.144 72.728 201.36 72.168L203.016 68.976C203.544 69.408 204.208 69.744 205.008 69.984C205.824 70.24 206.624 70.368 207.408 70.368C208.608 70.368 209.488 70.104 210.048 69.576C210.608 69.048 210.888 68.264 210.888 67.224V66.792C210.008 67.816 208.72 68.328 207.024 68.328C205.872 68.328 204.808 68.072 203.832 67.56C202.856 67.032 202.08 66.296 201.504 65.352C200.928 64.392 200.64 63.288 200.64 62.04C200.64 60.808 200.928 59.72 201.504 58.776C202.08 57.816 202.856 57.08 203.832 56.568C204.808 56.04 205.872 55.776 207.024 55.776C208.88 55.776 210.24 56.376 211.104 57.576V55.992H215.448ZM208.104 64.704C208.92 64.704 209.592 64.456 210.12 63.96C210.664 63.464 210.936 62.824 210.936 62.04C210.936 61.256 210.672 60.624 210.144 60.144C209.616 59.648 208.936 59.4 208.104 59.4C207.272 59.4 206.584 59.648 206.04 60.144C205.512 60.624 205.248 61.256 205.248 62.04C205.248 62.824 205.52 63.464 206.064 63.96C206.608 64.456 207.288 64.704 208.104 64.704ZM234.578 62.976V69H229.826V62.904L223.418 52.2H228.434L232.418 58.872L236.402 52.2H241.01L234.578 62.976ZM247.101 69.216C245.709 69.216 244.453 68.928 243.333 68.352C242.213 67.776 241.333 66.976 240.693 65.952C240.069 64.928 239.757 63.768 239.757 62.472C239.757 61.192 240.069 60.04 240.693 59.016C241.333 57.992 242.205 57.2 243.309 56.64C244.429 56.064 245.693 55.776 247.101 55.776C248.509 55.776 249.773 56.064 250.893 56.64C252.013 57.2 252.885 57.992 253.509 59.016C254.133 60.024 254.445 61.176 254.445 62.472C254.445 63.768 254.133 64.928 253.509 65.952C252.885 66.976 252.013 67.776 250.893 68.352C249.773 68.928 248.509 69.216 247.101 69.216ZM247.101 65.592C247.901 65.592 248.557 65.32 249.069 64.776C249.581 64.216 249.837 63.448 249.837 62.472C249.837 61.512 249.581 60.76 249.069 60.216C248.557 59.672 247.901 59.4 247.101 59.4C246.301 59.4 245.645 59.672 245.133 60.216C244.621 60.76 244.365 61.512 244.365 62.472C244.365 63.448 244.621 64.216 245.133 64.776C245.645 65.32 246.301 65.592 247.101 65.592ZM270.238 55.992V69H265.894V67.608C265.414 68.136 264.838 68.536 264.166 68.808C263.494 69.08 262.782 69.216 262.03 69.216C260.35 69.216 259.006 68.72 257.998 67.728C257.006 66.736 256.51 65.248 256.51 63.264V55.992H261.07V62.52C261.07 63.496 261.254 64.208 261.622 64.656C261.99 65.104 262.526 65.328 263.23 65.328C263.95 65.328 264.534 65.08 264.982 64.584C265.446 64.072 265.678 63.296 265.678 62.256V55.992H270.238ZM277.519 57.552C277.983 56.96 278.583 56.52 279.319 56.232C280.071 55.928 280.927 55.776 281.887 55.776V59.88C281.471 59.832 281.127 59.808 280.855 59.808C279.879 59.808 279.111 60.072 278.551 60.6C278.007 61.128 277.735 61.936 277.735 63.024V69H273.175V55.992H277.519V57.552ZM88.0238 84.2H95.9678C97.8078 84.2 99.4398 84.544 100.864 85.232C102.288 85.92 103.392 86.896 104.176 88.16C104.96 89.424 105.352 90.904 105.352 92.6C105.352 94.296 104.96 95.776 104.176 97.04C103.392 98.304 102.288 99.28 100.864 99.968C99.4398 100.656 97.8078 101 95.9678 101H88.0238V84.2ZM95.7758 97.208C97.2158 97.208 98.3678 96.8 99.2318 95.984C100.112 95.168 100.552 94.04 100.552 92.6C100.552 91.16 100.112 90.032 99.2318 89.216C98.3678 88.4 97.2158 87.992 95.7758 87.992H92.7758V97.208H95.7758ZM114.164 101.216C112.772 101.216 111.516 100.928 110.396 100.352C109.276 99.776 108.396 98.976 107.756 97.952C107.132 96.928 106.82 95.768 106.82 94.472C106.82 93.192 107.132 92.04 107.756 91.016C108.396 89.992 109.268 89.2 110.372 88.64C111.492 88.064 112.756 87.776 114.164 87.776C115.572 87.776 116.836 88.064 117.956 88.64C119.076 89.2 119.948 89.992 120.572 91.016C121.196 92.024 121.508 93.176 121.508 94.472C121.508 95.768 121.196 96.928 120.572 97.952C119.948 98.976 119.076 99.776 117.956 100.352C116.836 100.928 115.572 101.216 114.164 101.216ZM114.164 97.592C114.964 97.592 115.62 97.32 116.132 96.776C116.644 96.216 116.9 95.448 116.9 94.472C116.9 93.512 116.644 92.76 116.132 92.216C115.62 91.672 114.964 91.4 114.164 91.4C113.364 91.4 112.708 91.672 112.196 92.216C111.684 92.76 111.428 93.512 111.428 94.472C111.428 95.448 111.684 96.216 112.196 96.776C112.708 97.32 113.364 97.592 114.164 97.592ZM127.964 89.552C128.428 88.96 129.028 88.52 129.764 88.232C130.516 87.928 131.372 87.776 132.332 87.776V91.88C131.916 91.832 131.572 91.808 131.3 91.808C130.324 91.808 129.556 92.072 128.996 92.6C128.452 93.128 128.18 93.936 128.18 95.024V101H123.62V87.992H127.964V89.552ZM147.941 87.992V101H143.597V99.608C143.117 100.136 142.541 100.536 141.869 100.808C141.197 101.08 140.485 101.216 139.733 101.216C138.053 101.216 136.709 100.72 135.701 99.728C134.709 98.736 134.213 97.248 134.213 95.264V87.992H138.773V94.52C138.773 95.496 138.957 96.208 139.325 96.656C139.693 97.104 140.229 97.328 140.933 97.328C141.653 97.328 142.237 97.08 142.685 96.584C143.149 96.072 143.381 95.296 143.381 94.256V87.992H147.941ZM155.606 101.216C154.518 101.216 153.446 101.096 152.39 100.856C151.334 100.6 150.486 100.272 149.846 99.872L151.214 96.752C151.806 97.12 152.51 97.416 153.326 97.64C154.142 97.848 154.95 97.952 155.75 97.952C156.486 97.952 157.006 97.88 157.31 97.736C157.63 97.576 157.79 97.352 157.79 97.064C157.79 96.776 157.598 96.576 157.214 96.464C156.846 96.336 156.254 96.216 155.438 96.104C154.398 95.976 153.51 95.808 152.774 95.6C152.054 95.392 151.43 95.008 150.902 94.448C150.374 93.888 150.11 93.104 150.11 92.096C150.11 91.264 150.358 90.528 150.854 89.888C151.35 89.232 152.07 88.72 153.014 88.352C153.974 87.968 155.118 87.776 156.446 87.776C157.39 87.776 158.326 87.872 159.254 88.064C160.182 88.256 160.958 88.528 161.582 88.88L160.214 91.976C159.062 91.336 157.814 91.016 156.47 91.016C155.75 91.016 155.222 91.104 154.886 91.28C154.55 91.44 154.382 91.656 154.382 91.928C154.382 92.232 154.566 92.448 154.934 92.576C155.302 92.688 155.91 92.808 156.758 92.936C157.83 93.096 158.718 93.28 159.422 93.488C160.126 93.696 160.734 94.08 161.246 94.64C161.774 95.184 162.038 95.952 162.038 96.944C162.038 97.76 161.79 98.496 161.294 99.152C160.798 99.792 160.062 100.296 159.086 100.664C158.126 101.032 156.966 101.216 155.606 101.216ZM187.187 84.2V101H183.275L175.859 92.048V101H171.203V84.2H175.115L182.531 93.152V84.2H187.187ZM196.851 101.216C195.459 101.216 194.203 100.928 193.083 100.352C191.963 99.776 191.083 98.976 190.443 97.952C189.819 96.928 189.507 95.768 189.507 94.472C189.507 93.192 189.819 92.04 190.443 91.016C191.083 89.992 191.955 89.2 193.059 88.64C194.179 88.064 195.443 87.776 196.851 87.776C198.259 87.776 199.523 88.064 200.643 88.64C201.763 89.2 202.635 89.992 203.259 91.016C203.883 92.024 204.195 93.176 204.195 94.472C204.195 95.768 203.883 96.928 203.259 97.952C202.635 98.976 201.763 99.776 200.643 100.352C199.523 100.928 198.259 101.216 196.851 101.216ZM196.851 97.592C197.651 97.592 198.307 97.32 198.819 96.776C199.331 96.216 199.587 95.448 199.587 94.472C199.587 93.512 199.331 92.76 198.819 92.216C198.307 91.672 197.651 91.4 196.851 91.4C196.051 91.4 195.395 91.672 194.883 92.216C194.371 92.76 194.115 93.512 194.115 94.472C194.115 95.448 194.371 96.216 194.883 96.776C195.395 97.32 196.051 97.592 196.851 97.592ZM227.508 87.992L222.876 101H218.46L216.012 93.92L213.468 101H209.052L204.42 87.992H208.74L211.404 95.864L214.164 87.992H218.052L220.74 95.936L223.5 87.992H227.508ZM228.35 84.2H233.773L232.862 94.88H229.238L228.35 84.2ZM231.062 101.216C230.262 101.216 229.606 100.976 229.094 100.496C228.582 100 228.326 99.4 228.326 98.696C228.326 97.976 228.582 97.384 229.094 96.92C229.606 96.456 230.262 96.224 231.062 96.224C231.862 96.224 232.51 96.456 233.006 96.92C233.518 97.384 233.773 97.976 233.773 98.696C233.773 99.4 233.518 100 233.006 100.496C232.494 100.976 231.846 101.216 231.062 101.216Z" fill="#EBEFF8"/>
<defs>
<filter id="filter0_d_1_822" x="-9" y="127" width="339" height="106" filterUnits="userSpaceOnUse" color-interpolation-filters="sRGB">
<feFlood flood-opacity="0" result="BackgroundImageFix"/>
<feColorMatrix in="SourceAlpha" type="matrix" values="0 0 0 0 0 0 0 0 0 0 0 0 0 0 0 0 0 0 127 0" result="hardAlpha"/>
<feOffset dy="20"/>
<feGaussianBlur stdDeviation="12.5"/>
<feComposite in2="hardAlpha" operator="out"/>
<feColorMatrix type="matrix" values="0 0 0 0 0.14902 0 0 0 0 0.784314 0 0 0 0 0.933333 0 0 0 0.25 0"/>
<feBlend mode="normal" in2="BackgroundImageFix" result="effect1_dropShadow_1_822"/>
<feBlend mode="normal" in="SourceGraphic" in2="effect1_dropShadow_1_822" result="shape"/>
</filter>
<linearGradient id="paint0_linear_1_822" x1="67" y1="35" x2="284.44" y2="116.639" gradientUnits="userSpaceOnUse">
<stop stop-color="#316EFF"/>
<stop offset="1" stop-color="#D4008C"/>
</linearGradient>
<linearGradient id="paint1_linear_1_822" x1="67" y1="35" x2="284.44" y2="116.639" gradientUnits="userSpaceOnUse">
<stop stop-color="#316EFF"/>
<stop offset="1" stop-color="#D4008C"/>
</linearGradient>
<linearGradient id="paint2_linear_1_822" x1="14" y1="49.6783" x2="54.9491" y2="64.9921" gradientUnits="userSpaceOnUse">
<stop stop-color="#316EFF"/>
<stop offset="1" stop-color="#D4008C"/>
</linearGradient>
<linearGradient id="paint3_linear_1_822" x1="14" y1="49.6783" x2="54.9491" y2="64.9921" gradientUnits="userSpaceOnUse">
<stop stop-color="#316EFF"/>
<stop offset="1" stop-color="#D4008C"/>
</linearGradient>
<linearGradient id="paint4_linear_1_822" x1="247" y1="175" x2="314.65" y2="200.633" gradientUnits="userSpaceOnUse">
<stop stop-color="#316EFF"/>
<stop offset="1" stop-color="#D4008C"/>
</linearGradient>
<linearGradient id="paint5_linear_1_822" x1="247" y1="175" x2="314.65" y2="200.633" gradientUnits="userSpaceOnUse">
<stop stop-color="#316EFF"/>
<stop offset="1" stop-color="#D4008C"/>
</linearGradient>
<linearGradient id="paint6_linear_1_822" x1="16" y1="173.391" x2="304.989" y2="175.352" gradientUnits="userSpaceOnUse">
<stop stop-color="#00C0B4"/>
<stop offset="1" stop-color="#29C9F3"/>
</linearGradient>
</defs>
</svg>
