<svg width="690" height="611" viewBox="0 0 690 611" fill="none" xmlns="http://www.w3.org/2000/svg">
<path opacity="0.1" d="M305.599 265.078L54.7282 397.813C40.9023 405.129 40.7568 424.882 54.4733 432.401L309.766 572.329C334.498 585.885 364.598 585.145 388.634 570.39L628.345 423.246C641.479 415.184 640.637 395.828 626.854 388.936L377.482 264.251C354.793 252.906 328.021 253.214 305.599 265.078Z" fill="url(#paint0_linear_1_417)"/>
<path opacity="0.1" d="M305.472 248.121L23.3393 397.013C9.48871 404.323 9.34317 424.108 23.0847 431.621L310.474 588.736C335.166 602.235 365.191 601.498 389.191 586.804L659.174 421.503C672.333 413.447 671.491 394.059 657.683 387.173L377.209 247.297C354.56 236.002 327.856 236.308 305.472 248.121Z" stroke="url(#paint1_linear_1_417)" stroke-width="2.35713"/>
<path d="M549.387 322.075L548.941 329.652L493.675 361.296L494.121 354.165L549.387 322.075Z" fill="url(#paint2_linear_1_417)"/>
<path d="M494.123 354.166L493.677 361.297L438.411 329.207L438.857 322.076L494.123 354.166Z" fill="url(#paint3_linear_1_417)"/>
<path d="M438.858 322.075L494.124 354.165L549.39 322.075L494.124 292.659L438.858 322.075Z" fill="url(#paint4_linear_1_417)"/>
<path d="M412.115 326.086L494.123 373.775L575.685 326.532L493.232 282.408L412.115 326.086Z" stroke="url(#paint5_linear_1_417)" stroke-width="0.778435" stroke-miterlimit="10"/>
<path d="M144.698 319.846L145.144 326.977L200.41 359.067L199.519 351.491L144.698 319.846Z" fill="url(#paint6_linear_1_417)"/>
<path d="M199.517 351.491L200.409 359.068L255.675 326.978L254.783 319.401L199.517 351.491Z" fill="url(#paint7_linear_1_417)"/>
<path d="M254.787 319.401L199.521 351.491L144.701 319.847L199.967 289.985L254.787 319.401Z" fill="url(#paint8_linear_1_417)"/>
<path d="M281.973 323.858L199.965 371.101L118.403 323.858L200.411 280.18L281.973 323.858Z" stroke="url(#paint9_linear_1_417)" stroke-width="0.778435" stroke-miterlimit="10"/>
<path d="M200.413 420.126L347.046 505.254L493.68 420.572L346.155 341.684L200.413 420.126Z" stroke="url(#paint10_linear_1_417)" stroke-width="0.778435" stroke-miterlimit="10"/>
<path d="M447.774 412.995L446.882 426.366L346.155 484.306L347.047 470.936L447.774 412.995Z" fill="url(#paint11_linear_1_417)"/>
<path d="M347.048 470.936L346.156 484.307L245.43 425.921L246.321 412.55L347.048 470.936Z" fill="url(#paint12_linear_1_417)"/>
<path d="M246.322 412.55L347.049 470.936L447.775 412.996L346.603 358.621L246.322 412.55Z" fill="url(#paint13_linear_1_417)"/>
<path d="M299.806 373.328C299.806 373.328 299.806 372.883 299.806 373.328C298.915 372.437 298.469 371.546 297.578 371.1C297.132 370.654 296.686 370.209 296.686 369.763C296.241 369.317 295.795 368.426 295.349 367.98C295.349 367.534 294.904 367.089 294.904 367.089C294.458 366.197 294.012 365.752 293.567 364.86C293.567 364.86 293.567 364.415 293.121 364.415C292.675 363.523 292.23 362.632 292.23 361.74C292.23 361.295 292.23 361.295 292.23 360.849C292.23 359.958 291.784 359.512 291.784 358.621C291.784 358.175 291.784 358.175 291.784 357.729C291.784 356.838 291.784 355.946 291.784 355.055L290.447 412.995C290.447 412.995 290.447 412.995 290.447 413.441C290.447 414.332 290.447 414.778 290.447 415.669V416.115C290.447 416.561 290.447 416.561 290.447 417.006C290.447 417.452 290.447 417.898 290.447 417.898C290.447 418.344 290.447 418.789 290.892 419.235C290.892 419.681 290.892 419.681 290.892 420.126V420.572C291.338 421.463 291.338 421.909 291.784 422.8C291.784 422.8 291.784 423.246 292.23 423.246C292.675 423.692 292.675 424.583 293.121 425.029L293.567 425.475C293.567 425.92 294.012 426.366 294.012 426.366C294.012 426.812 294.458 426.812 294.458 427.257C294.458 427.703 294.904 427.703 294.904 428.149C295.349 428.594 295.349 429.04 295.795 429.486C295.795 429.932 296.241 429.932 296.241 430.377C296.686 430.823 297.132 431.269 297.578 431.714C298.024 432.16 298.915 433.051 299.361 433.497C299.806 433.943 299.806 433.943 300.252 434.389C300.698 434.389 300.698 434.834 301.143 434.834C302.035 435.726 303.372 436.617 304.263 437.063C305.6 437.954 306.937 438.845 308.275 439.291C308.72 439.737 309.166 439.737 309.612 440.183C310.503 440.628 311.394 441.074 312.286 441.52C312.731 441.965 313.177 441.965 314.069 442.411C314.96 442.857 315.851 443.302 316.743 443.748C317.188 443.748 318.08 444.194 318.525 444.194C318.971 444.194 319.417 444.639 319.417 444.639C319.863 444.639 320.308 445.085 320.754 445.085C322.091 445.531 322.982 445.977 324.319 446.422C324.765 446.422 325.211 446.868 325.657 446.868C326.102 446.868 326.548 446.868 326.548 447.314C327.439 447.314 328.331 447.759 328.776 447.759C329.222 447.759 329.668 448.205 330.113 448.205C330.559 448.205 331.005 448.205 331.451 448.651C331.896 448.651 332.788 449.096 333.233 449.096C333.679 449.096 334.125 449.096 334.57 449.542C335.462 449.542 335.908 449.542 336.799 449.988C337.245 449.988 337.69 449.988 338.136 449.988H338.582C339.919 449.988 341.256 450.433 342.593 450.433C342.593 450.433 342.593 450.433 343.039 450.433C343.484 450.433 343.484 450.433 343.93 450.433C344.821 450.433 345.713 450.433 346.604 450.433C347.05 450.433 347.496 450.433 347.941 450.433C348.387 450.433 348.833 450.433 349.278 450.433C349.724 450.433 350.17 450.433 350.615 450.433C351.507 450.433 352.844 450.433 353.735 450.433H354.181C355.518 450.433 356.855 450.433 358.192 449.988C358.638 449.988 358.638 449.988 359.084 449.988C359.529 449.988 359.975 449.988 360.421 449.988C360.866 449.988 361.758 449.988 362.203 449.988C362.649 449.988 363.095 449.988 363.54 449.542C363.986 449.542 364.878 449.542 365.323 449.096C365.769 449.096 366.215 449.096 366.215 449.096C366.66 449.096 367.552 448.651 367.997 448.651C368.889 448.651 369.335 448.205 370.226 448.205C370.672 448.205 370.672 448.205 371.117 448.205C371.563 448.205 372.009 447.759 372.454 447.759C373.346 447.314 374.683 447.314 375.574 446.868C376.02 446.868 376.02 446.868 376.466 446.422C376.911 446.422 377.803 445.977 378.248 445.531C378.694 445.531 379.14 445.085 379.585 445.085C380.923 444.639 382.26 443.748 383.597 443.302C394.739 437.954 400.533 429.932 401.424 421.909L402.762 363.969C402.316 371.991 396.076 380.014 384.934 385.362C383.597 385.808 382.26 386.699 380.923 387.145C380.477 387.145 380.031 387.591 379.585 387.591C378.694 388.036 377.803 388.036 376.911 388.482C376.02 388.928 374.683 388.928 373.791 389.373C372.9 389.373 372.454 389.819 371.563 389.819C370.672 389.819 370.226 390.265 369.335 390.265C368.443 390.265 367.552 390.711 366.66 390.711C366.215 390.711 365.323 390.711 364.878 391.156C363.986 391.156 362.649 391.602 361.758 391.602C361.312 391.602 360.866 391.602 360.421 391.602C359.084 391.602 357.301 392.048 355.964 392.048H355.518C354.181 392.048 352.844 392.048 351.061 392.048C350.615 392.048 350.17 392.048 349.724 392.048C348.387 392.048 347.05 392.048 345.713 392.048C345.267 392.048 345.267 392.048 344.821 392.048C343.039 392.048 341.702 391.602 339.919 391.602C339.473 391.602 339.027 391.602 338.582 391.602C337.245 391.602 336.353 391.156 335.016 391.156C334.57 391.156 333.679 391.156 333.233 390.711C332.342 390.711 331.451 390.265 330.559 390.265C329.668 390.265 328.776 389.819 328.331 389.819C327.439 389.819 326.994 389.373 326.102 389.373C324.765 388.928 323.428 388.482 322.537 388.036C321.645 387.591 321.2 387.591 320.308 387.145C319.863 387.145 318.971 386.699 318.525 386.699C317.634 386.254 316.743 385.808 315.851 385.362C315.406 384.917 314.96 384.917 314.069 384.471C313.177 384.025 312.286 383.579 311.394 383.134C310.949 382.688 310.503 382.688 310.057 382.242C308.72 381.351 307.383 380.905 306.046 380.014C304.709 379.122 303.818 378.231 302.926 377.785C302.48 377.785 302.48 377.34 302.035 377.34C301.589 374.666 300.698 374.22 299.806 373.328Z" fill="url(#paint14_linear_1_417)"/>
<path d="M306.493 378.677C285.545 364.86 286.882 344.358 309.167 333.216C331.897 322.074 367.107 324.302 388.054 338.564C409.002 352.826 407.665 372.883 385.38 384.025C362.65 395.167 327.44 392.939 306.493 378.677Z" fill="url(#paint15_linear_1_417)"/>
<path d="M314.513 374.666C297.576 363.523 298.913 347.033 316.741 338.119C335.015 329.205 363.093 330.988 380.03 342.13C396.966 353.272 396.075 369.763 377.801 378.677C359.973 388.037 331.449 385.808 314.513 374.666Z" fill="url(#paint16_linear_1_417)"/>
<path d="M291.78 354.609C291.78 355.5 291.78 356.392 291.78 357.283C291.78 357.729 291.78 357.729 291.78 358.174C291.78 359.066 291.78 359.511 292.226 360.403C292.226 360.849 292.226 360.849 292.226 361.294C292.672 362.186 292.672 363.077 293.118 363.968C293.118 363.968 293.118 364.414 293.563 364.414C294.009 365.305 294.455 365.751 294.9 366.643C294.9 367.088 295.346 367.534 295.346 367.534C295.792 367.98 296.237 368.871 296.683 369.317C297.129 369.762 297.129 370.208 297.574 370.654C298.02 371.545 298.912 371.991 299.357 372.882C300.249 373.774 301.14 374.665 302.031 375.556C302.477 375.556 302.477 376.002 302.923 376.002C303.814 376.894 305.151 377.785 306.043 378.231C307.38 379.122 308.717 380.013 310.054 380.459C310.5 380.905 310.945 380.905 311.391 381.35C312.282 381.796 313.174 382.242 314.065 382.688C314.511 383.133 314.957 383.133 315.848 383.579C316.739 384.025 317.631 384.47 318.522 384.916C318.968 384.916 319.859 385.362 320.305 385.362C321.196 385.807 321.642 385.807 322.533 386.253C323.87 386.699 324.762 387.145 326.099 387.59C326.99 387.59 327.436 388.036 328.327 388.036C329.219 388.036 330.11 388.482 330.556 388.482C331.447 388.482 332.339 388.927 333.23 388.927C333.676 388.927 334.567 389.373 335.013 389.373C336.35 389.373 337.241 389.819 338.578 389.819C339.024 389.819 339.47 389.819 339.915 389.819C341.698 389.819 343.035 390.264 344.818 390.264C345.264 390.264 345.264 390.264 345.709 390.264C347.046 390.264 348.384 390.264 349.721 390.264C350.166 390.264 350.612 390.264 351.058 390.264C352.395 390.264 353.732 390.264 355.515 390.264H355.96C357.743 390.264 359.08 390.264 360.417 389.819C360.863 389.819 361.309 389.819 361.754 389.819C362.646 389.819 363.983 389.373 364.874 389.373C365.32 389.373 366.211 389.373 366.657 388.927C367.548 388.927 368.44 388.482 369.331 388.482C370.223 388.482 370.668 388.036 371.56 388.036C372.451 388.036 372.897 387.59 373.788 387.59C374.679 387.145 376.017 387.144 376.908 386.699C377.799 386.253 378.691 386.253 379.582 385.807C380.028 385.807 380.473 385.362 380.919 385.362C382.256 384.916 383.593 384.025 384.93 383.579C395.627 378.231 401.867 370.654 402.758 362.631L403.204 236.054L291.78 235.609V356.392V354.609Z" fill="url(#paint17_linear_1_417)"/>
<path opacity="0.3" d="M302.925 355.501C302.925 356.393 302.925 356.839 302.925 357.73V358.176C302.925 358.621 302.925 359.513 303.371 359.958V360.404C303.371 361.296 303.817 361.741 304.262 362.633V363.078C304.708 363.524 304.708 364.415 305.154 364.861C305.154 365.307 305.599 365.307 305.599 365.752C306.045 366.198 306.045 366.644 306.491 367.09C306.936 367.535 306.936 367.981 307.382 367.981C307.828 368.427 308.273 369.318 309.165 369.764C310.056 370.655 310.502 371.101 311.393 371.546L311.839 371.992C312.73 372.438 313.622 373.329 314.513 373.775C315.405 374.221 316.296 375.112 317.633 375.558C318.079 375.558 318.524 376.003 318.524 376.003C319.416 376.449 319.861 376.895 320.753 377.34C321.199 377.34 321.644 377.786 322.09 377.786C322.981 378.232 323.427 378.232 324.318 378.678C324.764 378.678 325.21 379.123 325.655 379.123C326.101 379.123 326.993 379.569 327.438 379.569C328.33 380.015 329.221 380.015 330.558 380.46C331.004 380.46 331.895 380.906 332.341 380.906C332.787 380.906 333.678 381.352 334.124 381.352C335.015 381.352 335.461 381.797 336.352 381.797C336.798 381.797 337.244 381.797 337.689 382.243C338.581 382.243 339.472 382.689 340.363 382.689C340.809 382.689 341.255 382.689 341.255 382.689C342.592 382.689 343.929 383.135 345.266 383.135H345.712C346.603 383.135 347.94 383.135 348.832 383.135C349.277 383.135 349.723 383.135 349.723 383.135C351.06 383.135 351.951 383.135 353.288 383.135H353.734C355.071 383.135 356.408 383.134 357.3 382.689C357.745 382.689 358.191 382.689 358.191 382.689C359.083 382.689 359.974 382.689 360.865 382.243C361.311 382.243 361.757 382.243 362.202 382.243C363.094 382.243 363.539 381.797 364.431 381.797C364.877 381.797 365.322 381.352 366.214 381.352C366.659 381.352 367.551 380.906 367.996 380.906C368.888 380.46 369.779 380.46 370.671 380.015C371.562 379.569 372.008 379.569 372.899 379.123C373.345 379.123 373.79 378.678 373.79 378.678C374.682 378.232 376.019 377.786 376.91 377.34C385.824 372.884 390.281 367.09 391.172 360.404L447.045 164.636L249.67 232.115L302.034 355.056L302.925 355.501Z" fill="url(#paint18_linear_1_417)"/>
<path d="M383.536 83.269C383.536 82.5933 383.536 82.5933 383.536 83.269C386.239 82.5933 388.266 81.9175 390.293 81.2418C391.645 81.2418 392.321 80.566 393.672 80.566C395.024 80.566 396.375 79.8903 397.727 79.8903C398.402 79.8903 399.078 79.8903 400.43 79.8903C402.457 79.8903 403.808 79.8903 405.836 79.8903C406.511 79.8903 406.511 79.8903 407.187 79.8903C409.214 79.8903 411.242 80.566 413.269 80.566C413.945 80.566 413.945 80.566 414.621 80.566C415.972 81.2418 417.999 81.2418 419.351 81.9175C420.027 81.9175 420.027 81.9175 420.702 82.5933C422.73 83.269 424.081 83.9448 426.108 85.2963L392.321 65.6993C392.321 65.6993 392.321 65.6993 391.645 65.6993C390.293 65.0236 388.942 64.3478 387.59 63.672H386.914C386.239 63.672 386.239 63.672 385.563 62.9963C384.887 62.9963 384.211 62.3205 383.536 62.3205C381.508 60.969 380.833 60.969 380.157 60.969C379.481 60.969 379.481 60.969 378.805 60.2932H378.13C376.778 60.2932 374.751 59.6175 373.399 59.6175C372.724 59.6175 372.724 59.6175 372.048 59.6175C370.696 59.6175 369.345 59.6175 367.993 59.6175C367.317 59.6175 367.317 59.6175 366.642 59.6175C365.966 59.6175 365.29 59.6175 363.939 59.6175C363.263 59.6175 362.587 59.6175 361.911 59.6175C361.236 59.6175 360.56 59.6175 359.884 60.2932C358.533 60.2932 357.857 60.969 356.505 60.969C355.83 60.969 355.154 60.969 354.478 61.6448C353.127 62.3205 351.775 62.3205 350.424 62.9963C350.424 62.9963 350.423 62.9963 349.748 62.9963C348.396 63.672 346.369 64.3478 344.342 65.0236C343.666 65.0236 342.99 65.6993 342.314 65.6993C341.639 65.6993 340.963 66.3751 340.287 66.3751C337.584 67.7266 335.557 69.0781 332.854 70.4296C330.151 71.7811 327.448 73.8084 324.745 75.1599C324.069 75.8357 323.393 76.5115 322.042 77.1872C320.014 78.5387 318.663 79.8903 316.636 81.2418C315.96 81.9175 314.608 82.5933 313.933 83.269C312.581 84.6206 310.554 85.9721 309.202 87.3236C308.526 87.9994 307.175 89.3509 306.499 90.0266C305.823 90.7024 305.148 91.3781 304.472 91.3781C303.796 92.0539 303.12 92.7297 302.445 93.4054C300.417 95.4327 299.066 97.46 297.039 99.4873C296.363 100.163 295.687 100.839 295.011 101.515C294.336 102.19 294.336 102.866 293.66 103.542C292.308 104.893 291.633 106.245 290.281 107.596C289.605 108.272 288.929 108.948 288.254 110.299C287.578 110.975 286.902 111.651 286.902 112.327C286.226 113.678 285.551 114.354 284.875 115.705C284.199 116.381 283.523 117.057 283.523 117.733C282.848 119.084 282.172 120.436 280.82 121.787C280.145 122.463 279.469 123.139 279.469 124.49L278.793 125.166C277.442 127.193 276.09 129.896 274.739 131.924C274.739 131.924 274.739 131.924 274.739 132.599C274.739 133.275 274.063 133.275 274.063 133.951C273.387 135.302 272.036 137.33 271.36 138.681C270.684 139.357 270.684 140.033 270.008 141.384C269.332 142.06 269.332 142.736 268.657 144.087C267.981 144.763 267.981 145.439 267.305 146.115C266.629 148.142 265.278 150.169 264.602 152.196C264.602 152.872 264.602 152.872 263.926 153.548C262.575 156.251 261.899 158.278 261.223 160.981C261.223 161.657 261.223 161.657 260.548 162.333C259.872 163.009 259.872 164.36 259.872 165.036C259.196 166.387 259.196 167.739 258.52 169.09C258.52 169.766 257.845 171.118 257.845 171.793C257.169 173.145 257.169 173.821 256.493 175.172C256.493 175.848 255.817 176.524 255.817 177.2C255.142 178.551 255.142 179.903 255.142 181.254C254.466 182.606 254.466 183.957 253.79 185.309C253.79 185.984 253.79 185.984 253.114 186.66C253.114 188.012 253.114 188.687 252.439 189.363C251.763 191.39 251.763 194.093 251.087 196.121C251.087 196.797 251.087 197.472 251.087 198.148C251.087 199.5 251.087 200.851 250.411 202.203C250.411 202.878 250.411 204.23 250.411 204.906C250.411 208.284 249.735 210.987 249.735 214.366C249.735 240.721 259.196 258.966 274.063 267.075L307.851 286.672C292.984 277.888 283.523 259.642 283.523 233.963C283.523 231.26 283.523 227.881 284.199 224.503C284.199 223.827 284.199 222.475 284.199 221.8C284.199 219.772 284.875 217.745 284.875 215.718C284.875 213.69 285.551 211.663 286.226 208.96C286.226 207.609 286.902 206.257 286.902 204.23C286.902 202.878 287.578 201.527 288.254 200.175C288.929 198.148 288.929 196.121 289.605 194.093C289.605 192.742 290.281 192.066 290.957 190.715C291.633 188.687 292.308 185.984 292.984 183.957C292.984 183.281 293.66 181.93 293.66 181.254C295.011 177.875 295.687 175.172 297.039 172.469C297.039 171.793 297.039 171.793 297.714 171.118C299.066 168.415 300.417 165.712 301.769 163.009C302.445 162.333 302.445 161.657 303.12 160.306C304.472 157.603 305.823 155.575 307.175 152.872C307.175 152.196 307.851 152.196 307.851 151.521C309.202 148.818 311.23 146.115 313.257 142.736C313.933 142.06 314.608 141.384 314.608 140.033C315.96 138.006 317.311 135.978 318.663 133.951C319.339 132.599 320.014 131.924 320.69 130.572C322.042 129.221 323.393 127.193 324.745 125.842C326.096 124.49 326.772 123.139 328.123 121.787C329.475 120.436 330.151 119.084 331.502 118.408C333.53 116.381 334.881 114.354 336.908 112.327C338.26 110.975 338.936 109.624 340.287 108.948C340.963 108.272 342.314 106.921 342.99 106.245C344.342 104.893 346.369 103.542 347.72 102.19C348.396 101.515 349.748 100.839 350.424 100.163C352.451 98.8115 353.802 97.46 355.83 96.1085C356.505 95.4327 357.181 94.7569 358.533 94.0812C361.236 92.0539 363.939 90.7024 366.642 89.3509C369.345 87.9994 372.048 86.6478 374.075 85.2963C374.751 85.2963 375.427 84.6206 376.102 84.6206C378.805 84.6206 380.833 83.9448 383.536 83.269Z" fill="url(#paint19_linear_1_417)"/>
<path d="M366.642 90.7033C412.593 64.3487 449.76 85.2972 449.76 138.006C449.76 190.716 413.269 254.237 367.317 280.591C321.366 306.946 284.199 285.997 284.199 233.288C284.199 181.255 320.69 117.058 366.642 90.7033Z" fill="url(#paint20_linear_1_417)"/>
<path d="M366.64 98.1358C408.537 73.8085 443 93.4055 443 142.06C443 190.715 409.212 249.506 366.64 273.833C324.743 297.485 290.279 278.563 290.279 229.909C290.279 181.254 324.743 122.463 366.64 98.1358Z" fill="url(#paint21_linear_1_417)"/>
<path d="M366.64 104.892C405.834 82.5923 436.919 100.162 436.919 145.438C436.919 190.038 405.834 244.774 366.64 267.074C327.446 289.374 296.362 271.805 296.362 226.529C296.362 181.929 327.446 127.192 366.64 104.892Z" fill="url(#paint22_linear_1_417)"/>
<path d="M359.207 18.3964C432.865 -22.8249 492.332 11.6388 491.656 96.1086C490.98 180.578 430.162 281.942 356.504 323.839C282.847 365.061 223.38 330.597 224.056 246.127C224.731 161.657 284.874 59.6177 359.207 18.3964Z" stroke="url(#paint23_linear_1_417)" stroke-width="1.57142" stroke-miterlimit="10" stroke-dasharray="3.93 3.93"/>
<path d="M355.829 18.3964C282.171 -22.8249 222.704 11.6388 223.38 96.1086C224.056 180.578 284.874 281.942 358.532 323.839C432.189 365.061 491.656 330.597 490.98 246.127C490.305 161.657 429.486 59.6177 355.829 18.3964Z" stroke="url(#paint24_linear_1_417)" stroke-width="1.57142" stroke-miterlimit="10" stroke-dasharray="3.93 3.93"/>
<path d="M248.382 64.3486C166.615 87.3244 149.722 153.549 209.864 213.016C270.007 271.807 384.886 300.864 466.652 278.564C548.419 255.588 565.313 189.364 505.171 129.897C445.028 70.4305 330.149 41.3728 248.382 64.3486Z" stroke="url(#paint25_linear_1_417)" stroke-width="1.57142" stroke-miterlimit="10" stroke-dasharray="3.93 3.93"/>
<path d="M243.197 505.254L242.751 512.385L187.485 544.475L187.931 536.898L243.197 505.254Z" fill="url(#paint26_linear_1_417)"/>
<path d="M187.931 536.898L187.486 544.475L132.22 512.385L132.665 504.808L187.931 536.898Z" fill="url(#paint27_linear_1_417)"/>
<path d="M132.666 504.809L187.932 536.899L243.198 505.254L187.486 475.393L132.666 504.809Z" fill="url(#paint28_linear_1_417)"/>
<path d="M105.924 509.266L187.486 556.51L269.048 509.712L187.04 465.588L105.924 509.266Z" stroke="url(#paint29_linear_1_417)" stroke-width="0.778435" stroke-miterlimit="10"/>
<path d="M222.697 484.752L268.603 459.793" stroke="url(#paint30_linear_1_417)" stroke-width="0.778435" stroke-miterlimit="10"/>
<path d="M444.205 509.266L444.651 516.397L499.917 548.487L499.471 540.91L444.205 509.266Z" fill="url(#paint31_linear_1_417)"/>
<path d="M499.47 540.911L499.916 548.488L555.182 516.398L554.736 508.821L499.47 540.911Z" fill="url(#paint32_linear_1_417)"/>
<path d="M554.737 508.821L499.471 540.911L444.205 509.266L499.917 479.405L554.737 508.821Z" fill="url(#paint33_linear_1_417)"/>
<path d="M581.479 513.277L499.917 560.521L418.355 513.277L500.363 469.599L581.479 513.277Z" stroke="url(#paint34_linear_1_417)" stroke-width="0.778435" stroke-miterlimit="10"/>
<path d="M464.708 488.319L418.801 463.806" stroke="url(#paint35_linear_1_417)" stroke-width="0.778435" stroke-miterlimit="10"/>
<path d="M409.443 375.558L455.349 351.045" stroke="url(#paint36_linear_1_417)" stroke-width="0.778435" stroke-miterlimit="10"/>
<path d="M281.525 376.449L234.281 351.045" stroke="url(#paint37_linear_1_417)" stroke-width="0.778435" stroke-miterlimit="10"/>
<path d="M325.018 266.417L355.657 245.288C355.657 244.648 356.295 243.367 356.295 242.727C356.295 239.526 355.018 237.605 352.465 238.245C349.912 238.885 345.444 240.806 339.699 243.367C333.954 245.928 329.486 247.849 326.294 249.13L325.018 266.417ZM418.211 132.601C416.296 135.162 414.381 138.363 413.743 141.565C412.466 144.766 411.828 148.608 411.828 151.169C411.828 154.37 411.828 156.931 413.105 158.852C414.381 160.773 415.658 161.413 416.935 162.053H417.573C418.85 156.931 419.488 152.449 419.488 147.327C419.488 141.565 419.488 136.443 418.211 132.601ZM331.401 154.37L330.762 171.017C334.592 168.456 337.145 165.255 339.699 160.133C342.252 155.651 343.529 150.529 343.529 145.406L331.401 154.37ZM353.103 139.644C353.103 144.766 351.827 150.529 349.273 155.651C347.358 161.413 344.805 165.895 340.975 171.017C337.784 175.499 333.954 179.341 329.486 182.542L328.847 197.268C333.954 191.506 339.699 185.743 346.72 181.261C350.55 178.7 354.38 176.139 358.21 174.859L358.848 163.974L370.976 155.651C377.359 151.169 381.827 149.888 385.657 152.449C389.487 154.37 390.764 160.133 390.125 168.456C389.487 176.779 387.572 184.463 383.742 192.146C379.912 199.189 374.806 204.951 368.423 209.433L356.295 217.757L357.571 194.707C353.742 195.987 350.55 197.908 346.082 201.11C340.975 204.951 337.145 208.153 333.954 212.634C331.401 216.476 329.486 220.318 329.486 223.519C329.486 227.361 330.762 228.641 333.316 228.001C335.869 227.361 340.337 226.08 346.72 222.879C352.465 219.677 357.571 217.757 361.401 217.116C365.231 215.836 368.423 216.476 370.976 218.397C373.529 220.318 374.806 224.799 374.168 231.842C374.168 232.483 374.168 233.763 374.168 234.403C381.189 228.641 388.211 222.238 393.955 214.555C397.147 210.073 400.977 205.591 403.53 200.469L404.168 185.743L413.105 179.341C413.105 178.7 413.743 178.06 413.743 177.42C412.466 177.42 411.828 177.42 410.551 177.42C407.36 177.42 405.445 175.499 403.53 172.938C401.615 170.377 401.615 165.895 401.615 160.133C401.615 155.01 402.892 149.248 404.807 144.126C406.083 140.925 407.36 138.363 409.275 135.162L408.637 135.802L409.913 117.875C406.722 115.954 403.53 115.314 399.062 115.954C392.04 116.594 383.742 119.796 374.168 126.839L353.103 139.644Z" fill="white"/>
<path d="M321.645 268.666L352.649 247.537C352.649 246.897 353.295 245.616 353.295 244.976C353.295 241.775 352.003 239.854 349.42 240.494C346.836 241.135 342.315 243.055 336.501 245.616C330.688 248.178 326.167 250.098 322.937 251.379L321.645 268.666ZM415.948 135.491C414.011 138.052 412.073 141.253 411.427 144.454C410.135 147.656 409.489 151.497 409.489 154.058C409.489 157.26 409.489 159.821 410.781 161.742C412.073 163.662 413.365 164.303 414.657 164.943H415.303C416.594 159.821 417.24 155.339 417.24 150.217C416.594 144.454 416.594 139.332 415.948 135.491ZM328.104 157.26L327.459 173.907C331.334 171.346 333.918 168.144 336.501 163.022C339.085 158.54 340.377 153.418 340.377 148.296L328.104 157.26ZM350.065 141.893C350.065 147.015 348.774 152.778 346.19 157.9C344.252 163.662 341.669 168.144 337.793 173.266C334.564 177.748 330.688 181.59 326.167 184.791L325.521 199.517C330.688 193.755 336.501 187.992 343.606 183.511C347.482 180.95 351.357 178.388 355.233 177.108L355.879 166.223L368.151 157.9C374.61 153.418 379.131 152.138 383.007 154.699C386.882 156.619 388.174 162.382 387.528 170.705C386.882 179.029 384.945 186.712 381.069 194.395C377.194 201.438 372.026 207.2 365.567 211.682L353.295 220.006L354.587 196.956C350.711 198.237 347.482 200.158 342.96 203.359C337.793 207.2 333.918 210.402 330.688 214.884C328.104 218.725 326.167 222.567 326.167 225.768C326.167 229.61 327.459 230.89 330.042 230.25C332.626 229.61 337.147 228.329 343.606 225.128C349.42 221.927 354.587 220.006 358.462 219.366C362.338 218.085 365.567 218.725 368.151 220.646C370.735 222.567 372.026 227.049 371.381 234.092C371.381 234.732 371.381 236.012 371.381 236.653C378.486 230.89 385.591 224.488 391.404 216.804C394.633 212.323 398.509 207.841 401.093 202.719L401.738 187.992L410.781 181.59C410.781 180.95 411.427 180.309 411.427 179.669C410.135 179.669 409.489 179.669 408.198 179.669C404.968 179.669 403.03 177.748 401.093 175.187C399.155 172.626 399.155 168.144 399.155 162.382C399.155 157.26 400.447 151.497 402.384 146.375C403.676 143.174 404.968 140.613 406.906 137.411L406.26 138.052L407.552 120.124C404.322 118.203 401.093 117.563 396.571 118.203C389.466 118.844 381.069 122.045 371.381 129.088L350.065 141.893Z" fill="url(#paint38_linear_1_417)"/>
<g style="mix-blend-mode:screen" opacity="0.5">
<path d="M303.419 354.707C303.419 355.598 303.419 356.044 303.419 356.935V357.381C303.419 357.827 303.419 358.718 303.865 359.164V359.609C303.865 360.501 304.311 360.946 304.756 361.838V362.283C305.202 362.729 305.202 363.621 305.648 364.066C305.648 364.512 306.094 364.512 306.094 364.958C306.539 365.403 306.539 365.849 306.985 366.295C307.431 366.74 307.431 367.186 307.876 367.186C308.322 367.632 308.768 368.523 309.659 368.969C310.55 369.86 310.996 370.306 311.888 370.752L312.333 371.197C313.225 371.643 314.116 372.534 315.007 372.98C315.899 373.426 316.79 374.317 318.127 374.763C318.573 374.763 319.019 375.209 319.019 375.209C319.91 375.654 320.356 376.1 321.247 376.546C321.693 376.546 322.139 376.991 322.584 376.991C323.476 377.437 323.921 377.437 324.813 377.883C325.258 377.883 325.704 378.328 326.15 378.328C326.595 378.328 327.487 378.774 327.933 378.774C328.824 379.22 329.715 379.22 331.052 379.666C331.498 379.666 332.389 380.111 332.835 380.111C333.281 380.111 334.172 380.557 334.618 380.557C335.509 380.557 335.955 381.003 336.846 381.003C337.292 381.003 337.738 381.003 338.183 381.448C339.075 381.448 339.966 381.894 340.858 381.894C341.303 381.894 341.749 381.894 341.749 381.894C343.086 381.894 344.423 382.34 345.76 382.34H346.206C347.097 382.34 348.434 382.34 349.326 382.34C349.772 382.34 350.217 382.34 350.217 382.34C351.554 382.34 352.446 382.34 353.783 382.34H354.228C355.566 382.34 356.903 382.34 357.794 381.894C358.24 381.894 358.685 381.894 358.685 381.894C359.577 381.894 360.468 381.894 361.36 381.448C361.805 381.448 362.251 381.448 362.697 381.448C363.588 381.448 364.034 381.003 364.925 381.003C365.371 381.003 365.816 380.557 366.708 380.557C367.154 380.557 368.045 380.111 368.491 380.111C369.382 379.666 370.273 379.666 371.165 379.22C372.056 378.774 372.502 378.774 373.393 378.328C373.839 378.328 374.285 377.883 374.285 377.883C375.176 377.437 376.513 376.991 377.405 376.546C386.318 372.089 390.775 366.295 391.667 359.609L448.732 46.5485L236.736 59.4819L302.528 354.261L303.419 354.707Z" fill="url(#paint39_linear_1_417)"/>
</g>
<defs>
<linearGradient id="paint0_linear_1_417" x1="22.4904" y1="246.173" x2="615.293" y2="635.35" gradientUnits="userSpaceOnUse">
<stop stop-color="#316EFF"/>
<stop offset="1" stop-color="#D4008C"/>
</linearGradient>
<linearGradient id="paint1_linear_1_417" x1="-9" y1="229.304" x2="640.97" y2="657.112" gradientUnits="userSpaceOnUse">
<stop stop-color="#316EFF"/>
<stop offset="1" stop-color="#D4008C"/>
</linearGradient>
<linearGradient id="paint2_linear_1_417" x1="493.675" y1="351.065" x2="549.387" y2="351.169" gradientUnits="userSpaceOnUse">
<stop stop-color="#00C0B4"/>
<stop offset="1" stop-color="#29C9F3"/>
</linearGradient>
<linearGradient id="paint3_linear_1_417" x1="438.411" y1="351.065" x2="494.123" y2="351.169" gradientUnits="userSpaceOnUse">
<stop stop-color="#00C0B4"/>
<stop offset="1" stop-color="#29C9F3"/>
</linearGradient>
<linearGradient id="paint4_linear_1_417" x1="495.022" y1="229.882" x2="491.235" y2="661.261" gradientUnits="userSpaceOnUse">
<stop stop-color="#85FFC4"/>
<stop offset="0.0602226" stop-color="#84F6C4"/>
<stop offset="0.1604" stop-color="#7FDCC3"/>
<stop offset="0.2882" stop-color="#79B3C1"/>
<stop offset="0.437" stop-color="#707ABF"/>
<stop offset="0.5674" stop-color="#6742BD"/>
<stop offset="0.8652" stop-color="#411D87"/>
<stop offset="0.9944" stop-color="#3C148A"/>
</linearGradient>
<linearGradient id="paint5_linear_1_417" x1="412.115" y1="349.94" x2="575.685" y2="350.325" gradientUnits="userSpaceOnUse">
<stop stop-color="#00C0B4"/>
<stop offset="1" stop-color="#29C9F3"/>
</linearGradient>
<linearGradient id="paint6_linear_1_417" x1="144.698" y1="348.836" x2="200.41" y2="348.94" gradientUnits="userSpaceOnUse">
<stop stop-color="#00C0B4"/>
<stop offset="1" stop-color="#29C9F3"/>
</linearGradient>
<linearGradient id="paint7_linear_1_417" x1="199.517" y1="348.72" x2="255.675" y2="348.825" gradientUnits="userSpaceOnUse">
<stop stop-color="#00C0B4"/>
<stop offset="1" stop-color="#29C9F3"/>
</linearGradient>
<linearGradient id="paint8_linear_1_417" x1="198.967" y1="227.482" x2="202.754" y2="658.861" gradientUnits="userSpaceOnUse">
<stop stop-color="#85FFC4"/>
<stop offset="0.0602226" stop-color="#84F6C4"/>
<stop offset="0.1604" stop-color="#7FDCC3"/>
<stop offset="0.2882" stop-color="#79B3C1"/>
<stop offset="0.437" stop-color="#707ABF"/>
<stop offset="0.5674" stop-color="#6742BD"/>
<stop offset="0.8652" stop-color="#411D87"/>
<stop offset="0.9944" stop-color="#3C148A"/>
</linearGradient>
<linearGradient id="paint9_linear_1_417" x1="118.403" y1="347.383" x2="281.974" y2="347.77" gradientUnits="userSpaceOnUse">
<stop stop-color="#00C0B4"/>
<stop offset="1" stop-color="#29C9F3"/>
</linearGradient>
<linearGradient id="paint10_linear_1_417" x1="200.413" y1="462.584" x2="493.681" y2="463.275" gradientUnits="userSpaceOnUse">
<stop stop-color="#00C0B4"/>
<stop offset="1" stop-color="#29C9F3"/>
</linearGradient>
<linearGradient id="paint11_linear_1_417" x1="346.155" y1="465.703" x2="447.774" y2="465.894" gradientUnits="userSpaceOnUse">
<stop stop-color="#00C0B4"/>
<stop offset="1" stop-color="#29C9F3"/>
</linearGradient>
<linearGradient id="paint12_linear_1_417" x1="245.43" y1="465.588" x2="347.048" y2="465.777" gradientUnits="userSpaceOnUse">
<stop stop-color="#00C0B4"/>
<stop offset="1" stop-color="#29C9F3"/>
</linearGradient>
<linearGradient id="paint13_linear_1_417" x1="348.496" y1="244.262" x2="341.58" y2="1032.14" gradientUnits="userSpaceOnUse">
<stop stop-color="#85FFC4"/>
<stop offset="0.0602226" stop-color="#84F6C4"/>
<stop offset="0.1604" stop-color="#7FDCC3"/>
<stop offset="0.2882" stop-color="#79B3C1"/>
<stop offset="0.437" stop-color="#707ABF"/>
<stop offset="0.5674" stop-color="#6742BD"/>
<stop offset="0.8652" stop-color="#411D87"/>
<stop offset="0.9944" stop-color="#3C148A"/>
</linearGradient>
<linearGradient id="paint14_linear_1_417" x1="294.343" y1="402.326" x2="481.725" y2="398.975" gradientUnits="userSpaceOnUse">
<stop stop-color="#85FFC4"/>
<stop offset="0.0602226" stop-color="#84F6C4"/>
<stop offset="0.1604" stop-color="#7FDCC3"/>
<stop offset="0.2882" stop-color="#79B3C1"/>
<stop offset="0.437" stop-color="#707ABF"/>
<stop offset="0.5674" stop-color="#6742BD"/>
<stop offset="0.8652" stop-color="#411D87"/>
<stop offset="0.9944" stop-color="#3C148A"/>
</linearGradient>
<linearGradient id="paint15_linear_1_417" x1="355.471" y1="431.857" x2="322.126" y2="130.412" gradientUnits="userSpaceOnUse">
<stop stop-color="#85FFC4"/>
<stop offset="0.0602226" stop-color="#84F6C4"/>
<stop offset="0.1604" stop-color="#7FDCC3"/>
<stop offset="0.2882" stop-color="#79B3C1"/>
<stop offset="0.437" stop-color="#707ABF"/>
<stop offset="0.5674" stop-color="#6742BD"/>
<stop offset="0.8652" stop-color="#411D87"/>
<stop offset="0.9944" stop-color="#3C148A"/>
</linearGradient>
<linearGradient id="paint16_linear_1_417" x1="404.811" y1="387.619" x2="238.162" y2="303.25" gradientUnits="userSpaceOnUse">
<stop stop-color="#85FFC4"/>
<stop offset="0.0602226" stop-color="#84F6C4"/>
<stop offset="0.1604" stop-color="#7FDCC3"/>
<stop offset="0.2882" stop-color="#79B3C1"/>
<stop offset="0.437" stop-color="#707ABF"/>
<stop offset="0.5674" stop-color="#6742BD"/>
<stop offset="0.8652" stop-color="#411D87"/>
<stop offset="0.9944" stop-color="#3C148A"/>
</linearGradient>
<linearGradient id="paint17_linear_1_417" x1="347.217" y1="388.887" x2="348.459" y2="-71.0061" gradientUnits="userSpaceOnUse">
<stop offset="0.0391061" stop-color="#85FFC4" stop-opacity="0.6"/>
<stop offset="0.0608056" stop-color="#95FFCC" stop-opacity="0.5334"/>
<stop offset="0.142" stop-color="#CEFFE7" stop-opacity="0.2841"/>
<stop offset="0.2024" stop-color="#F2FFF9" stop-opacity="0.0990559"/>
<stop offset="0.2346" stop-color="white" stop-opacity="0"/>
</linearGradient>
<linearGradient id="paint18_linear_1_417" x1="249.67" y1="164.636" x2="487.844" y2="241.94" gradientUnits="userSpaceOnUse">
<stop stop-color="#316EFF"/>
<stop offset="1" stop-color="#D4008C"/>
</linearGradient>
<linearGradient id="paint19_linear_1_417" x1="370.13" y1="64.8391" x2="204.751" y2="416.577" gradientUnits="userSpaceOnUse">
<stop stop-color="#85FFC4"/>
<stop offset="0.0602226" stop-color="#84F6C4"/>
<stop offset="0.1604" stop-color="#7FDCC3"/>
<stop offset="0.2882" stop-color="#79B3C1"/>
<stop offset="0.437" stop-color="#707ABF"/>
<stop offset="0.5674" stop-color="#6742BD"/>
<stop offset="0.8652" stop-color="#411D87"/>
<stop offset="0.9944" stop-color="#3C148A"/>
</linearGradient>
<linearGradient id="paint20_linear_1_417" x1="221.943" y1="133.221" x2="817.635" y2="348.788" gradientUnits="userSpaceOnUse">
<stop stop-color="#85FFC4"/>
<stop offset="0.0602226" stop-color="#84F6C4"/>
<stop offset="0.1604" stop-color="#7FDCC3"/>
<stop offset="0.2882" stop-color="#79B3C1"/>
<stop offset="0.437" stop-color="#707ABF"/>
<stop offset="0.5674" stop-color="#6742BD"/>
<stop offset="0.8652" stop-color="#411D87"/>
<stop offset="0.9944" stop-color="#3C148A"/>
</linearGradient>
<linearGradient id="paint21_linear_1_417" x1="242.912" y1="278.847" x2="602.377" y2="8.53765" gradientUnits="userSpaceOnUse">
<stop stop-color="#85FFC4"/>
<stop offset="0.0602226" stop-color="#84F6C4"/>
<stop offset="0.1604" stop-color="#7FDCC3"/>
<stop offset="0.2882" stop-color="#79B3C1"/>
<stop offset="0.437" stop-color="#707ABF"/>
<stop offset="0.5674" stop-color="#6742BD"/>
<stop offset="0.8652" stop-color="#411D87"/>
<stop offset="0.9944" stop-color="#3C148A"/>
</linearGradient>
<linearGradient id="paint22_linear_1_417" x1="417.054" y1="-51.6518" x2="237.457" y2="797.869" gradientUnits="userSpaceOnUse">
<stop stop-color="#85FFC4"/>
<stop offset="0.1003" stop-color="#84FCC4"/>
<stop offset="0.1839" stop-color="#83F1C3"/>
<stop offset="0.2615" stop-color="#80E0C3"/>
<stop offset="0.3354" stop-color="#7CC8C2"/>
<stop offset="0.4068" stop-color="#77A8C1"/>
<stop offset="0.4763" stop-color="#7181BF"/>
<stop offset="0.543" stop-color="#6A54BE"/>
<stop offset="0.5674" stop-color="#6742BD"/>
<stop offset="0.8652" stop-color="#411D87"/>
<stop offset="0.9944" stop-color="#3C148A"/>
</linearGradient>
<linearGradient id="paint23_linear_1_417" x1="251.901" y1="131.344" x2="462.767" y2="210.758" gradientUnits="userSpaceOnUse">
<stop stop-color="#85FFC4"/>
<stop offset="0.0602226" stop-color="#84F6C4"/>
<stop offset="0.1604" stop-color="#7FDCC3"/>
<stop offset="0.2882" stop-color="#79B3C1"/>
<stop offset="0.437" stop-color="#707ABF"/>
<stop offset="0.5674" stop-color="#6742BD"/>
<stop offset="0.8652" stop-color="#6742BD"/>
<stop offset="0.9944" stop-color="#6742BD"/>
</linearGradient>
<linearGradient id="paint24_linear_1_417" x1="223.374" y1="1" x2="553.922" y2="94.4164" gradientUnits="userSpaceOnUse">
<stop stop-color="#316EFF"/>
<stop offset="1" stop-color="#D4008C"/>
</linearGradient>
<linearGradient id="paint25_linear_1_417" x1="173.89" y1="56.4894" x2="542.096" y2="268.13" gradientUnits="userSpaceOnUse">
<stop stop-color="#316EFF"/>
<stop offset="1" stop-color="#D4008C"/>
</linearGradient>
<linearGradient id="paint26_linear_1_417" x1="187.485" y1="534.244" x2="243.197" y2="534.348" gradientUnits="userSpaceOnUse">
<stop stop-color="#00C0B4"/>
<stop offset="1" stop-color="#29C9F3"/>
</linearGradient>
<linearGradient id="paint27_linear_1_417" x1="132.22" y1="534.127" x2="187.932" y2="534.23" gradientUnits="userSpaceOnUse">
<stop stop-color="#00C0B4"/>
<stop offset="1" stop-color="#29C9F3"/>
</linearGradient>
<linearGradient id="paint28_linear_1_417" x1="188.677" y1="412.926" x2="184.889" y2="844.305" gradientUnits="userSpaceOnUse">
<stop stop-color="#85FFC4"/>
<stop offset="0.0602226" stop-color="#84F6C4"/>
<stop offset="0.1604" stop-color="#7FDCC3"/>
<stop offset="0.2882" stop-color="#79B3C1"/>
<stop offset="0.437" stop-color="#707ABF"/>
<stop offset="0.5674" stop-color="#6742BD"/>
<stop offset="0.8652" stop-color="#411D87"/>
<stop offset="0.9944" stop-color="#3C148A"/>
</linearGradient>
<linearGradient id="paint29_linear_1_417" x1="105.924" y1="532.791" x2="269.048" y2="533.176" gradientUnits="userSpaceOnUse">
<stop stop-color="#00C0B4"/>
<stop offset="1" stop-color="#29C9F3"/>
</linearGradient>
<linearGradient id="paint30_linear_1_417" x1="222.697" y1="478.241" x2="268.603" y2="478.352" gradientUnits="userSpaceOnUse">
<stop stop-color="#00C0B4"/>
<stop offset="1" stop-color="#29C9F3"/>
</linearGradient>
<linearGradient id="paint31_linear_1_417" x1="444.205" y1="538.256" x2="499.917" y2="538.36" gradientUnits="userSpaceOnUse">
<stop stop-color="#00C0B4"/>
<stop offset="1" stop-color="#29C9F3"/>
</linearGradient>
<linearGradient id="paint32_linear_1_417" x1="499.47" y1="538.14" x2="555.182" y2="538.243" gradientUnits="userSpaceOnUse">
<stop stop-color="#00C0B4"/>
<stop offset="1" stop-color="#29C9F3"/>
</linearGradient>
<linearGradient id="paint33_linear_1_417" x1="498.687" y1="416.903" x2="502.474" y2="848.282" gradientUnits="userSpaceOnUse">
<stop stop-color="#85FFC4"/>
<stop offset="0.0602226" stop-color="#84F6C4"/>
<stop offset="0.1604" stop-color="#7FDCC3"/>
<stop offset="0.2882" stop-color="#79B3C1"/>
<stop offset="0.437" stop-color="#707ABF"/>
<stop offset="0.5674" stop-color="#6742BD"/>
<stop offset="0.8652" stop-color="#411D87"/>
<stop offset="0.9944" stop-color="#3C148A"/>
</linearGradient>
<linearGradient id="paint34_linear_1_417" x1="418.355" y1="536.802" x2="581.48" y2="537.187" gradientUnits="userSpaceOnUse">
<stop stop-color="#00C0B4"/>
<stop offset="1" stop-color="#29C9F3"/>
</linearGradient>
<linearGradient id="paint35_linear_1_417" x1="418.801" y1="481.924" x2="464.708" y2="482.037" gradientUnits="userSpaceOnUse">
<stop stop-color="#00C0B4"/>
<stop offset="1" stop-color="#29C9F3"/>
</linearGradient>
<linearGradient id="paint36_linear_1_417" x1="409.443" y1="369.163" x2="455.35" y2="369.276" gradientUnits="userSpaceOnUse">
<stop stop-color="#00C0B4"/>
<stop offset="1" stop-color="#29C9F3"/>
</linearGradient>
<linearGradient id="paint37_linear_1_417" x1="234.281" y1="369.822" x2="281.525" y2="369.937" gradientUnits="userSpaceOnUse">
<stop stop-color="#00C0B4"/>
<stop offset="1" stop-color="#29C9F3"/>
</linearGradient>
<linearGradient id="paint38_linear_1_417" x1="321.645" y1="117.963" x2="442.856" y2="145.589" gradientUnits="userSpaceOnUse">
<stop stop-color="#316EFF"/>
<stop offset="1" stop-color="#D4008C"/>
</linearGradient>
<linearGradient id="paint39_linear_1_417" x1="236.736" y1="46.5485" x2="505.664" y2="107.552" gradientUnits="userSpaceOnUse">
<stop stop-color="#316EFF"/>
<stop offset="1" stop-color="#D4008C"/>
</linearGradient>
</defs>
</svg>
