<svg width="92" height="92" viewBox="0 0 92 92" fill="none" xmlns="http://www.w3.org/2000/svg">
<ellipse cx="46.1729" cy="46" rx="35.797" ry="35.9699" fill="#F0F7F6"/>
<path d="M55.0137 64.1964C55.0137 65.5018 55.0063 66.8145 55.021 68.1199C55.021 68.4572 54.911 68.6992 54.625 68.8899C51.9629 70.6573 49.3008 72.4394 46.646 74.2141C46.338 74.4195 46.0373 74.4195 45.7293 74.2141C43.1039 72.454 40.4711 70.7013 37.831 68.9559C37.479 68.7212 37.3616 68.4426 37.3616 68.0465C37.369 65.4798 37.369 62.913 37.3616 60.3462C37.3616 59.9429 37.4936 59.6642 37.8383 59.4369C40.4491 57.7135 43.0452 55.9827 45.6413 54.252C46.0886 53.9586 46.3013 53.9586 46.7413 54.252C49.3374 55.9901 51.9335 57.7208 54.537 59.4515C54.8597 59.6642 55.021 59.9209 55.0137 60.3242C55.0063 61.6003 55.0137 62.8983 55.0137 64.1964ZM39.2757 60.0822C39.327 60.1482 39.349 60.1776 39.3784 60.1996C41.5931 61.6736 43.8006 63.155 46.0226 64.6217C46.1106 64.6804 46.3233 64.6437 46.426 64.5777C48.1274 63.4557 49.8215 62.3263 51.5155 61.1969C52.0362 60.8449 52.5642 60.4929 53.1069 60.1262C53.0409 60.0676 53.0116 60.0309 52.9676 60.0016C50.7748 58.5422 48.5821 57.0828 46.3967 55.6087C46.1913 55.4694 46.0666 55.5574 45.9126 55.66C44.9373 56.3127 43.9619 56.9581 42.9939 57.6108C41.7618 58.4322 40.5371 59.2462 39.2757 60.0822ZM53.6863 61.3803C53.5176 61.4829 53.4149 61.5343 53.3123 61.6003C51.2515 62.9717 49.1981 64.3504 47.13 65.7144C46.9173 65.8538 46.844 66.0005 46.8513 66.2498C46.8587 68.1932 46.8587 70.1293 46.8587 72.0727C46.8587 72.1754 46.8733 72.2707 46.888 72.4027C46.9687 72.3587 47.02 72.344 47.0567 72.3147C49.2128 70.8846 51.3615 69.4473 53.5103 68.0025C53.6129 67.9365 53.6789 67.7459 53.6863 67.6065C53.701 66.9098 53.6936 66.2131 53.6936 65.5164C53.6863 64.167 53.6863 62.8177 53.6863 61.3803ZM38.733 61.3876C38.7184 61.5196 38.7037 61.5636 38.7037 61.6149C38.7037 63.6317 38.6964 65.6484 38.711 67.6579C38.711 67.7825 38.8064 67.9585 38.9164 68.0319C40.5151 69.1099 42.1138 70.1806 43.7199 71.2513C44.2919 71.6327 44.8713 72.014 45.4873 72.4174C45.5093 72.2927 45.5313 72.2267 45.5313 72.1607C45.5313 70.1586 45.5386 68.1565 45.524 66.1545C45.524 66.0225 45.3993 65.8391 45.2819 65.7584C43.6979 64.6877 42.0992 63.6244 40.5078 62.561C39.9357 62.1796 39.3564 61.8056 38.733 61.3876Z" fill="url(#paint0_linear_1_902)" stroke="url(#paint1_linear_1_902)" stroke-width="0.5"/>
<path d="M34.6482 43.6916C33.5482 44.4249 32.5435 45.0923 31.5387 45.7597C30.3874 46.5224 29.236 47.2851 28.0993 48.0624C27.9599 48.1578 27.8206 48.3558 27.8133 48.5098C27.7986 50.5265 27.7986 52.5433 27.8059 54.56C27.8059 54.604 27.8133 54.6553 27.8279 54.736C27.9159 54.692 27.9966 54.67 28.0626 54.626C29.1113 53.9367 30.16 53.24 31.2161 52.5506C31.3627 52.4553 31.5387 52.3673 31.7074 52.3453C32.0154 52.3013 32.2574 52.4479 32.3674 52.7486C32.4774 53.064 32.4188 53.35 32.1401 53.526C30.622 54.5453 29.0893 55.55 27.5639 56.5621C27.2486 56.7748 26.9406 56.7014 26.6399 56.4961C25.3125 55.6087 23.9778 54.7213 22.6504 53.834C21.3597 52.9759 20.0763 52.1032 18.7782 51.2525C18.4776 51.0545 18.3235 50.8199 18.3235 50.4385C18.3382 47.8204 18.3309 45.2096 18.3235 42.5915C18.3235 42.2322 18.4482 41.9902 18.7416 41.7995C21.367 40.0541 23.9851 38.3087 26.6032 36.556C27.0066 36.2846 27.3366 36.3066 27.7399 36.5706C30.3507 38.3307 32.9761 40.0761 35.6016 41.8142C35.8656 41.9902 35.9829 42.2102 35.9829 42.5109C35.9829 44.5863 35.9903 46.669 35.9829 48.7444C35.9829 49.2285 35.7262 49.4851 35.3082 49.4778C34.8902 49.4705 34.6629 49.2065 34.6629 48.7151C34.6555 47.1971 34.6629 45.6863 34.6629 44.1683C34.6482 44.0436 34.6482 43.9189 34.6482 43.6916ZM20.2156 42.4449C22.5697 44.0143 24.8578 45.5397 27.1606 47.0724C29.478 45.5323 31.7734 43.9996 34.0908 42.4522C33.9955 42.3789 33.9662 42.3422 33.9222 42.3202C31.7368 40.8681 29.5587 39.4161 27.3806 37.9494C27.1972 37.8247 27.0946 37.854 26.9332 37.964C25.6572 38.8221 24.3738 39.6728 23.0977 40.5235C22.1517 41.1541 21.213 41.7848 20.2156 42.4449ZM26.4565 54.758C26.4712 54.6553 26.4859 54.604 26.4859 54.56C26.4859 52.5359 26.4932 50.5045 26.4785 48.4804C26.4785 48.3411 26.3465 48.1504 26.2145 48.0624C24.1318 46.6617 22.0344 45.2683 19.9443 43.8823C19.8709 43.8309 19.7903 43.8016 19.6803 43.7429C19.6729 43.8529 19.6656 43.9116 19.6656 43.9703C19.6656 45.9723 19.6583 47.9744 19.6729 49.9765C19.6729 50.1232 19.8049 50.3138 19.9296 50.4018C20.8903 51.0619 21.873 51.7072 22.8484 52.3599C24.0364 53.1446 25.2245 53.9367 26.4565 54.758Z" fill="url(#paint2_linear_1_902)" stroke="url(#paint3_linear_1_902)" stroke-width="0.5"/>
<path d="M57.7271 43.7282C57.7271 43.8969 57.7271 44.0142 57.7271 44.1316C57.7271 45.635 57.7344 47.1384 57.7197 48.6418C57.7197 48.8398 57.6757 49.0598 57.573 49.2284C57.419 49.4851 57.1404 49.5511 56.8617 49.4631C56.5243 49.3604 56.3923 49.1038 56.3923 48.7591C56.3923 46.6837 56.3923 44.6083 56.3923 42.5255C56.3923 42.2175 56.517 41.9975 56.7737 41.8215C59.4431 40.0467 62.1126 38.2647 64.782 36.4826C65.068 36.2919 65.3467 36.2919 65.6327 36.4826C68.3095 38.272 70.9936 40.0541 73.6703 41.8435C73.905 41.9975 74.015 42.2028 74.015 42.4888C74.0077 45.1803 74.0077 47.8644 74.015 50.5558C74.015 50.8565 73.8904 51.0618 73.6483 51.2232C71.0156 52.9759 68.3828 54.7213 65.7647 56.4814C65.376 56.7381 65.046 56.7381 64.6573 56.4741C63.2346 55.5134 61.7899 54.5673 60.3598 53.6139C59.9418 53.3353 59.8391 52.9833 60.0665 52.6239C60.2792 52.2866 60.6825 52.2352 61.0932 52.4992C62.1566 53.1959 63.2126 53.9 64.2686 54.5967C64.3347 54.6407 64.408 54.6773 64.518 54.7433C64.5253 54.6113 64.5327 54.5233 64.5327 54.4353C64.5327 52.4699 64.54 50.5045 64.5253 48.5317C64.5253 48.3777 64.43 48.1724 64.3126 48.0917C62.1786 46.6543 60.0371 45.2243 57.8884 43.8016C57.8664 43.7796 57.8297 43.7722 57.7271 43.7282ZM58.2917 42.4302C58.3651 42.4962 58.3944 42.5328 58.4311 42.5548C60.6238 44.0142 62.8166 45.4736 65.0093 46.9404C65.1707 47.043 65.266 47.043 65.4274 46.933C67.1728 45.767 68.9182 44.6083 70.6636 43.4422C71.1476 43.1195 71.6243 42.7969 72.1303 42.4522C72.0423 42.3788 72.0056 42.3422 71.9543 42.3055C69.9962 41.0001 68.0088 39.7314 66.0947 38.3673C65.4127 37.8833 64.98 37.9127 64.3126 38.3747C62.3546 39.7681 60.3305 41.0661 58.2917 42.4302ZM72.7023 43.7282C72.5996 43.7722 72.563 43.7869 72.5336 43.8089C70.3922 45.239 68.2435 46.6617 66.1094 48.0991C65.9847 48.1797 65.882 48.3851 65.882 48.5317C65.8674 50.4972 65.8747 52.4699 65.8747 54.4353C65.8747 54.5233 65.8894 54.6187 65.8967 54.7433C65.9847 54.6993 66.0434 54.6773 66.0874 54.648C68.2068 53.2326 70.3262 51.8172 72.453 50.4092C72.6363 50.2845 72.7023 50.1525 72.7023 49.9325C72.695 47.9891 72.695 46.0457 72.695 44.1022C72.7023 43.9922 72.7023 43.8822 72.7023 43.7282Z" fill="url(#paint4_linear_1_902)" stroke="url(#paint5_linear_1_902)" stroke-width="0.5"/>
<path d="M46.8953 37.0914C47.5627 36.6513 48.2007 36.2333 48.8387 35.808C49.3447 35.4706 49.8508 35.1333 50.3641 34.7959C50.7161 34.5686 51.1268 34.6346 51.3395 34.9426C51.5448 35.2506 51.4642 35.6686 51.1121 35.896C49.6014 36.908 48.0834 37.9054 46.5653 38.9101C46.3086 39.0788 46.0373 39.0641 45.7733 38.8881C44.2992 37.9127 42.8251 36.9373 41.3511 35.9546C40.9184 35.6686 40.8157 35.2799 41.0504 34.9353C41.2851 34.5979 41.6811 34.5686 42.1138 34.8546C43.1405 35.5366 44.1672 36.2186 45.1939 36.9007C45.2819 36.9593 45.3773 37.0033 45.5166 37.084C45.5239 36.93 45.5386 36.8127 45.5386 36.6953C45.5386 34.7739 45.5313 32.8598 45.5459 30.9384C45.5459 30.6744 45.4579 30.5204 45.2452 30.3811C43.1698 29.0097 41.1017 27.6236 39.0263 26.2376C38.9457 26.1863 38.865 26.1422 38.733 26.0616C38.7257 26.2303 38.711 26.3623 38.711 26.4869C38.711 28.005 38.711 29.5157 38.711 31.0338C38.711 31.5618 38.4616 31.8331 38.0143 31.8258C37.6769 31.8185 37.4716 31.6351 37.4056 31.3125C37.3763 31.1584 37.3763 30.9971 37.3763 30.8358C37.3763 28.929 37.3836 27.0223 37.3689 25.1155C37.3616 24.6095 37.5376 24.2942 37.9703 24.0082C40.5444 22.3214 43.0965 20.6054 45.6559 18.8966C46.0886 18.6106 46.3013 18.5959 46.7266 18.8746C49.3667 20.6347 52.0068 22.3948 54.647 24.1548C54.9183 24.3308 55.0356 24.5655 55.0356 24.8882C55.0283 26.9416 55.0356 28.995 55.0283 31.0484C55.0283 31.5398 54.7643 31.8258 54.3463 31.8185C53.9356 31.8111 53.7009 31.5398 53.7009 31.0558C53.7009 29.5377 53.7009 28.027 53.7009 26.5089C53.7009 26.3769 53.7009 26.2449 53.7009 26.0469C53.5616 26.1276 53.4662 26.1716 53.3856 26.2229C51.2955 27.6163 49.1981 29.0097 47.1153 30.4104C47.0053 30.4838 46.888 30.6524 46.8806 30.7698C46.866 32.8085 46.8733 34.8546 46.8733 36.8933C46.8513 36.952 46.8733 36.996 46.8953 37.0914ZM39.2683 24.7635C39.393 24.8589 39.4737 24.9249 39.5617 24.9835C41.6811 26.3989 43.8079 27.807 45.9199 29.2297C46.1473 29.3837 46.294 29.3397 46.492 29.2077C48.5894 27.7996 50.6941 26.4063 52.7915 25.0055C52.8942 24.9395 52.9896 24.8589 53.1142 24.7635C50.7675 23.2015 48.4794 21.6687 46.1913 20.1433C43.8739 21.6834 41.5858 23.2161 39.2683 24.7635Z" fill="url(#paint6_linear_1_902)" stroke="url(#paint7_linear_1_902)" stroke-width="0.5"/>
<path d="M52.3882 56.3274C52.1901 56.1441 51.9481 56.0121 51.8308 55.8067C51.6768 55.5281 51.7795 55.2274 52.0508 55.0294C52.6008 54.6187 53.1508 54.2227 53.7009 53.8193C55.9523 52.1839 58.1964 50.5412 60.4478 48.9058C60.5285 48.8471 60.6091 48.7958 60.6898 48.7371C61.0492 48.5024 61.4525 48.5391 61.6725 48.8398C61.9072 49.1478 61.8265 49.5585 61.4598 49.8298C60.7191 50.3798 59.9638 50.9225 59.2158 51.4726C57.1477 52.9833 55.0723 54.4867 52.9968 55.9901C52.8355 56.1074 52.6522 56.1881 52.3882 56.3274Z" fill="#281C51" stroke="#281C51" stroke-width="0.5"/>
<path d="M42.096 55.6308C41.964 55.8068 41.8687 56.0195 41.7 56.1441C41.4433 56.3275 41.1646 56.2542 40.9153 56.0708C40.1966 55.5428 39.4779 55.0221 38.7519 54.4941C36.6544 52.9687 34.5497 51.436 32.4523 49.9032C32.2836 49.7786 32.1149 49.6026 32.0416 49.4119C31.9463 49.1479 32.0123 48.8692 32.2763 48.7005C32.5476 48.5245 32.8336 48.5318 33.0976 48.7225C33.8017 49.2285 34.4984 49.7419 35.2024 50.2479C37.3145 51.7806 39.4266 53.3134 41.5386 54.8534C41.788 55.0368 42.0667 55.2054 42.096 55.6308Z" fill="#281C51" stroke="#281C51" stroke-width="0.5"/>
<path d="M50.3496 30.9999C50.4303 31.0366 50.6136 31.0806 50.7529 31.1833C53.5911 33.2367 56.4218 35.3048 59.2526 37.3655C59.6486 37.6515 59.744 38.0402 59.5093 38.3702C59.2746 38.7076 58.8493 38.7442 58.4386 38.4436C56.2678 36.8668 54.0971 35.2828 51.9263 33.6987C51.2443 33.2 50.5696 32.7013 49.8876 32.21C49.6162 32.012 49.5356 31.7553 49.6382 31.44C49.7336 31.1393 49.9536 31.0146 50.3496 30.9999Z" fill="#281C51" stroke="#281C51" stroke-width="0.5"/>
<path d="M42.1262 31.5472C41.9501 31.7892 41.8548 32.0238 41.6788 32.1485C39.2514 33.9306 36.8093 35.7053 34.3745 37.4801C33.9712 37.7734 33.5678 38.0741 33.1645 38.3674C32.7831 38.6461 32.3431 38.6241 32.1158 38.3161C31.8957 38.0154 31.9984 37.5534 32.3578 37.2967C35.1959 35.2286 38.0413 33.1606 40.8794 31.0851C41.1288 30.9018 41.4075 30.8358 41.6641 30.9971C41.8328 31.1145 41.9428 31.3198 42.1262 31.5472Z" fill="#281C51" stroke="#281C51" stroke-width="0.5"/>
<circle cx="46" cy="46" r="45" stroke="url(#paint8_linear_1_902)" stroke-width="2" stroke-dasharray="6 6"/>
<defs>
<linearGradient id="paint0_linear_1_902" x1="37.3616" y1="69.063" x2="55.0211" y2="69.0832" gradientUnits="userSpaceOnUse">
<stop stop-color="#00C0B4"/>
<stop offset="1" stop-color="#29C9F3"/>
</linearGradient>
<linearGradient id="paint1_linear_1_902" x1="37.3616" y1="69.063" x2="55.0211" y2="69.0832" gradientUnits="userSpaceOnUse">
<stop stop-color="#00C0B4"/>
<stop offset="1" stop-color="#29C9F3"/>
</linearGradient>
<linearGradient id="paint2_linear_1_902" x1="18.3235" y1="51.3872" x2="35.9863" y2="51.4074" gradientUnits="userSpaceOnUse">
<stop stop-color="#00C0B4"/>
<stop offset="1" stop-color="#29C9F3"/>
</linearGradient>
<linearGradient id="paint3_linear_1_902" x1="18.3235" y1="51.3872" x2="35.9863" y2="51.4074" gradientUnits="userSpaceOnUse">
<stop stop-color="#00C0B4"/>
<stop offset="1" stop-color="#29C9F3"/>
</linearGradient>
<linearGradient id="paint4_linear_1_902" x1="56.3923" y1="51.3686" x2="74.0152" y2="51.3887" gradientUnits="userSpaceOnUse">
<stop stop-color="#00C0B4"/>
<stop offset="1" stop-color="#29C9F3"/>
</linearGradient>
<linearGradient id="paint5_linear_1_902" x1="56.3923" y1="51.3686" x2="74.0152" y2="51.3887" gradientUnits="userSpaceOnUse">
<stop stop-color="#00C0B4"/>
<stop offset="1" stop-color="#29C9F3"/>
</linearGradient>
<linearGradient id="paint6_linear_1_902" x1="37.3687" y1="33.7187" x2="55.0358" y2="33.7389" gradientUnits="userSpaceOnUse">
<stop stop-color="#00C0B4"/>
<stop offset="1" stop-color="#29C9F3"/>
</linearGradient>
<linearGradient id="paint7_linear_1_902" x1="37.3687" y1="33.7187" x2="55.0358" y2="33.7389" gradientUnits="userSpaceOnUse">
<stop stop-color="#00C0B4"/>
<stop offset="1" stop-color="#29C9F3"/>
</linearGradient>
<linearGradient id="paint8_linear_1_902" x1="3.49809e-07" y1="68" x2="92.0007" y2="68.1209" gradientUnits="userSpaceOnUse">
<stop stop-color="#00C0B4"/>
<stop offset="1" stop-color="#29C9F3"/>
</linearGradient>
</defs>
</svg>
