<svg width="92" height="92" viewBox="0 0 92 92" fill="none" xmlns="http://www.w3.org/2000/svg">
<ellipse cx="46.1729" cy="46" rx="35.797" ry="35.9699" fill="#F0F7F6"/>
<path d="M70.3322 58.0758C71.3579 58.0758 72.3088 58.0758 73.3237 58.0758C73.3237 58.7373 73.3344 59.3561 73.3131 59.975C73.3131 60.1137 73.2062 60.2737 73.1101 60.3911C72.5224 61.2127 71.9028 62.0129 71.3258 62.8558C71.0908 63.1972 70.8343 63.2932 70.4497 63.2932C58.1523 63.2826 45.8441 63.2826 33.5467 63.2826C29.7752 63.2826 26.0037 63.2719 22.2215 63.2932C21.8155 63.2932 21.5805 63.1652 21.3561 62.8451C20.8646 62.1302 20.3625 61.4154 19.8176 60.7325C19.4864 60.3164 19.3261 59.9003 19.3795 59.3668C19.4116 58.9614 19.3902 58.5559 19.3902 58.0865C20.3839 58.0865 21.3561 58.0865 22.3818 58.0865C22.3818 57.7984 22.3818 57.5743 22.3818 57.3503C22.3818 48.5692 22.4032 39.7881 22.3604 31.007C22.3497 29.4705 23.2793 28.3609 24.9673 28.3609C39.2307 28.3929 53.4833 28.3929 67.7466 28.3609C69.3813 28.3609 70.3536 29.4065 70.3536 30.9536C70.3215 39.66 70.3429 48.3771 70.3429 57.0835C70.3322 57.3929 70.3322 57.6917 70.3322 58.0758ZM69.1035 58.0331C69.1142 57.8517 69.1356 57.6917 69.1356 57.5316C69.1356 48.6438 69.1356 39.7454 69.1356 30.8576C69.1356 29.876 68.8044 29.5559 67.8107 29.5559C53.5474 29.5559 39.2841 29.5559 25.0208 29.5559C23.8455 29.5559 23.5677 29.8226 23.5677 30.9963C23.5677 39.8201 23.5677 48.6332 23.5677 57.457C23.5677 57.649 23.5677 57.8304 23.5677 58.0224C38.7819 58.0331 53.932 58.0331 69.1035 58.0331ZM20.4907 59.3028C20.6082 59.5802 20.6723 59.7936 20.7899 59.975C21.1852 60.5405 21.6339 61.0846 22.0185 61.6501C22.2108 61.9382 22.4352 62.0129 22.7771 62.0129C38.4614 62.0022 54.135 62.0129 69.8193 61.9915C70.0437 61.9915 70.3322 61.8528 70.4711 61.6821C70.9839 61.0633 71.4433 60.4124 71.9134 59.7616C71.9989 59.6442 72.0203 59.4948 72.0951 59.3028C54.8829 59.3028 37.7669 59.3028 20.4907 59.3028Z" fill="url(#paint0_linear_1_914)"/>
<path d="M25.7365 47.705C25.854 46.3606 25.9288 45.0696 26.0784 43.7893C26.1639 43.0957 26.3241 42.3915 26.5592 41.7407C26.8049 41.0472 27.3712 40.5884 28.0763 40.3323C28.9311 40.0229 29.7751 39.7241 30.6726 39.404C31.2602 40.5243 31.8265 41.6233 32.4248 42.7116C32.5209 42.8823 32.7346 43.1277 32.8735 43.1171C33.0551 43.0957 33.2795 42.893 33.3757 42.7009C33.9633 41.6233 34.5189 40.535 35.1279 39.3827C36.2924 39.8202 37.4356 40.2576 38.5895 40.6951C39.6473 40.2789 40.7798 39.8308 41.9337 39.3827C42.5533 40.567 43.141 41.6767 43.7286 42.7863C43.8034 42.925 43.985 43.1491 44.0598 43.1277C44.2094 43.0851 44.3696 42.925 44.4551 42.7756C45.0534 41.666 45.6304 40.5457 46.2394 39.3934C47.1689 39.7348 48.077 40.0335 48.9531 40.407C49.8506 40.7911 50.4062 41.5806 50.5558 42.4876C50.8229 44.1947 50.9404 45.9338 51.122 47.7157C42.6068 47.705 34.2304 47.705 25.7365 47.705ZM38.5147 46.5207C38.4827 45.123 38.4827 43.7572 38.0553 42.4449C37.9271 42.0501 37.5532 41.666 37.1899 41.4419C36.7412 41.1539 36.1749 41.0365 35.6941 40.8658C35.6193 40.9191 35.5766 40.9298 35.5659 40.9511C35.1492 41.698 34.6685 42.4129 34.3372 43.1918C33.974 44.0453 33.4611 44.4081 32.5103 44.2801C32.0936 44.2267 31.8478 44.1413 31.6448 43.7572C31.1427 42.7863 30.5978 41.8367 30.0422 40.8444C29.5828 41.0045 29.1768 41.1645 28.7601 41.2926C27.9054 41.57 27.4353 42.1675 27.3391 43.0424C27.2323 43.992 27.1682 44.9522 27.0934 45.9125C27.072 46.1152 27.0934 46.318 27.0934 46.5207C30.929 46.5207 34.7005 46.5207 38.5147 46.5207ZM49.8292 46.6167C49.7224 45.443 49.6262 44.3121 49.5301 43.1811C49.4553 42.3168 48.9959 41.73 48.1946 41.4099C47.8634 41.2819 47.5215 41.1859 47.1903 41.0472C46.8911 40.9085 46.7522 41.0151 46.6133 41.2819C46.1432 42.1781 45.6304 43.053 45.1603 43.9493C45.0107 44.248 44.8077 44.3014 44.4979 44.3441C43.4722 44.5148 42.8311 44.152 42.4786 43.1597C42.2862 42.6369 41.9443 42.1568 41.6772 41.666C41.5384 41.4206 41.3995 41.1859 41.2285 40.9085C40.502 41.1965 39.8182 41.4739 39.2519 41.698C39.4549 43.4265 39.6366 45.0056 39.8182 46.6167C43.1089 46.6167 46.421 46.6167 49.8292 46.6167Z" fill="url(#paint1_linear_1_914)"/>
<path d="M54.1133 47.1182C54.1133 45.219 54.1133 43.3625 54.1133 41.4633C58.045 41.4633 61.9661 41.4633 65.9299 41.4633C65.9299 43.3305 65.9299 45.2083 65.9299 47.1182C62.0195 47.1182 58.0985 47.1182 54.1133 47.1182ZM55.3099 45.9125C58.4831 45.9125 61.6135 45.9125 64.7333 45.9125C64.7333 44.8242 64.7333 43.7893 64.7333 42.733C61.5708 42.733 58.451 42.733 55.3099 42.733C55.3099 43.7999 55.3099 44.8349 55.3099 45.9125Z" fill="#281C51"/>
<path d="M36.8477 49.8282C39.6256 49.8282 42.3714 49.8282 45.16 49.8282C45.16 51.7167 45.16 53.5839 45.16 55.4831C42.3821 55.4831 39.6363 55.4831 36.8477 55.4831C36.8477 53.6053 36.8477 51.7274 36.8477 49.8282ZM38.1191 54.2881C40.0743 54.2881 42.0082 54.2881 43.942 54.2881C43.942 53.2105 43.942 52.1542 43.942 51.1192C41.9761 51.1192 40.0636 51.1192 38.1191 51.1192C38.1191 52.1862 38.1191 53.2318 38.1191 54.2881Z" fill="#281C51"/>
<path d="M34.8392 49.839C34.8392 51.7382 34.8392 53.5734 34.8392 55.4619C32.072 55.4619 29.3155 55.4619 26.5056 55.4619C26.5056 53.6054 26.5056 51.7382 26.5056 49.839C29.2834 49.839 32.0399 49.839 34.8392 49.839ZM27.7129 54.2776C29.6787 54.2776 31.6126 54.2776 33.5464 54.2776C33.5464 53.2106 33.5464 52.1863 33.5464 51.1194C31.5912 51.1194 29.6681 51.1194 27.7129 51.1194C27.7129 52.1863 27.7129 53.2213 27.7129 54.2776Z" fill="#281C51"/>
<path d="M57.6395 49.839C60.4173 49.839 63.1632 49.839 65.941 49.839C65.941 51.7275 65.941 53.5841 65.941 55.4833C63.1738 55.4833 60.428 55.4833 57.6395 55.4833C57.6395 53.6161 57.6395 51.7596 57.6395 49.839ZM58.9109 54.2776C60.8768 54.2776 62.8106 54.2776 64.7444 54.2776C64.7444 53.2106 64.7444 52.1863 64.7444 51.1194C62.7892 51.1194 60.8661 51.1194 58.9109 51.1194C58.9109 52.1863 58.9109 53.232 58.9109 54.2776Z" fill="#281C51"/>
<path d="M55.5988 49.839C55.5988 51.7275 55.5988 53.5734 55.5988 55.4619C52.8316 55.4619 50.0751 55.4619 47.2865 55.4619C47.2865 53.5947 47.2865 51.7382 47.2865 49.839C50.043 49.839 52.7888 49.839 55.5988 49.839ZM54.3167 51.13C52.3294 51.13 50.4063 51.13 48.4831 51.13C48.4831 52.2077 48.4831 53.2533 48.4831 54.2883C50.449 54.2883 52.3828 54.2883 54.3167 54.2883C54.3167 53.2213 54.3167 52.197 54.3167 51.13Z" fill="#281C51"/>
<path d="M47.4038 35.9684C47.4038 37.8676 45.8652 39.3933 43.9742 39.3827C42.1151 39.372 40.5766 37.8356 40.5766 35.9684C40.5766 34.0905 42.1365 32.5434 44.0169 32.5541C45.8973 32.5648 47.4038 34.0905 47.4038 35.9684ZM46.1217 35.9577C46.1217 34.7627 45.1815 33.8345 43.9955 33.8345C42.8416 33.8345 41.8587 34.8374 41.8694 35.9897C41.8801 37.1741 42.8416 38.113 44.0169 38.1023C45.2135 38.0916 46.1217 37.1634 46.1217 35.9577Z" fill="url(#paint2_linear_1_914)"/>
<path d="M29.3907 35.9684C29.3907 34.1012 30.9078 32.5648 32.7776 32.5648C34.6686 32.5541 36.2285 34.1119 36.2178 35.979C36.2072 37.8462 34.6793 39.372 32.8203 39.3826C30.9292 39.3933 29.4014 37.8676 29.3907 35.9684ZM30.6835 35.979C30.6835 37.174 31.6237 38.1023 32.8203 38.1023C34.0062 38.1023 34.9571 37.142 34.9464 35.9684C34.9464 34.784 33.9955 33.8344 32.8096 33.8451C31.6344 33.8451 30.6728 34.816 30.6835 35.979Z" fill="url(#paint3_linear_1_914)"/>
<path d="M65.9407 37.6223C65.9407 38.0171 65.9407 38.3585 65.9407 38.7533C61.9983 38.7533 58.0879 38.7533 54.1241 38.7533C54.1241 38.3905 54.1241 38.0277 54.1241 37.6223C58.0558 37.6223 61.9769 37.6223 65.9407 37.6223Z" fill="#281C51"/>
<path d="M57.5324 35.595C57.5324 35.2216 57.5324 34.8695 57.5324 34.4747C60.3317 34.4747 63.1095 34.4747 65.9301 34.4747C65.9301 34.8268 65.9301 35.1896 65.9301 35.595C63.1629 35.595 60.3744 35.595 57.5324 35.595Z" fill="#281C51"/>
<circle cx="46" cy="46" r="45" stroke="url(#paint4_linear_1_914)" stroke-width="2" stroke-dasharray="6 6"/>
<defs>
<linearGradient id="paint0_linear_1_914" x1="19.3694" y1="54.1804" x2="73.3267" y2="54.29" gradientUnits="userSpaceOnUse">
<stop stop-color="#00C0B4"/>
<stop offset="1" stop-color="#29C9F3"/>
</linearGradient>
<linearGradient id="paint1_linear_1_914" x1="25.7365" y1="45.5419" x2="51.1219" y2="45.6435" gradientUnits="userSpaceOnUse">
<stop stop-color="#00C0B4"/>
<stop offset="1" stop-color="#29C9F3"/>
</linearGradient>
<linearGradient id="paint2_linear_1_914" x1="40.5766" y1="37.6013" x2="47.4038" y2="37.6103" gradientUnits="userSpaceOnUse">
<stop stop-color="#00C0B4"/>
<stop offset="1" stop-color="#29C9F3"/>
</linearGradient>
<linearGradient id="paint3_linear_1_914" x1="29.3907" y1="37.6041" x2="36.218" y2="37.6131" gradientUnits="userSpaceOnUse">
<stop stop-color="#00C0B4"/>
<stop offset="1" stop-color="#29C9F3"/>
</linearGradient>
<linearGradient id="paint4_linear_1_914" x1="3.49809e-07" y1="68" x2="92.0007" y2="68.1209" gradientUnits="userSpaceOnUse">
<stop stop-color="#00C0B4"/>
<stop offset="1" stop-color="#29C9F3"/>
</linearGradient>
</defs>
</svg>
