<svg width="187" height="173" viewBox="0 0 187 173" fill="none" xmlns="http://www.w3.org/2000/svg">
<path opacity="0.1" d="M155.85 86.025C155.85 124.098 125.048 154.9 86.975 154.9C48.9024 154.9 18.1 124.098 18.1 86.025C18.1 47.9525 48.9024 17.15 86.975 17.15C125.048 17.15 155.85 47.9525 155.85 86.025Z" fill="url(#paint0_linear_1_317)"/>
<path d="M115.095 57.8101C113.1 57.3351 111.105 56.7651 109.015 56.2901C108.35 56.1001 107.97 55.8151 107.78 55.1501C107.4 54.0101 106.925 52.7751 106.355 51.6351C105.975 50.8751 105.975 50.3051 106.45 49.5451C107.59 47.6451 108.73 45.7451 109.775 43.9401C108.255 42.4201 106.83 40.9951 105.31 39.4751C103.41 40.6151 101.51 41.7551 99.5151 42.8951C98.9451 43.2751 98.3751 43.2751 97.8051 42.9901C96.5701 42.4201 95.3351 41.9451 94.1001 41.4701C93.5301 41.2801 93.1501 40.9001 92.9601 40.2351C92.7701 39.2851 92.4851 38.2401 92.2001 37.2901C91.9151 36.0551 91.5351 34.8201 91.2501 33.5851C89.1601 33.5851 87.0701 33.5851 85.0751 33.5851C84.9801 33.7751 84.9801 33.8701 84.9801 34.0601C84.5051 36.0551 83.9351 38.1451 83.4601 40.1401C83.2701 40.8051 82.9851 41.1851 82.3201 41.4701C81.0851 41.9451 79.8501 42.4201 78.6151 42.9901C78.0451 43.2751 77.5701 43.2751 77.0001 42.8951C75.7651 42.1351 74.5301 41.3751 73.2001 40.6151C72.5351 40.2351 71.7751 39.7601 71.2051 39.3801C69.6851 40.9001 68.2601 42.3251 66.7401 43.8451C67.8801 45.7451 69.0201 47.7401 70.2551 49.6401C70.5401 50.2101 70.5401 50.6851 70.3501 51.2551C69.7801 52.4901 69.3051 53.7251 68.8301 54.9601C68.6401 55.6251 68.2601 56.0051 67.5951 56.1001C66.2651 56.3851 65.0301 56.7651 63.7001 57.0501C62.7501 57.2401 61.8951 57.5251 60.9451 57.7151C60.9451 59.8051 60.9451 61.8951 60.9451 63.9851C63.1301 64.5551 65.3151 65.1251 67.5001 65.6001C68.1651 65.7901 68.5451 66.1701 68.7351 66.7401C69.2101 67.9751 69.5901 69.1151 70.1601 70.2551C70.5401 70.9201 70.5401 71.4901 70.0651 72.1551C68.9251 74.0551 67.7851 75.9551 66.6451 77.7601C68.1651 79.2801 69.5901 80.7051 71.1101 82.2251C73.0101 81.0851 74.9101 79.9451 76.9051 78.7101C77.3801 78.4251 77.8551 78.3301 78.3301 78.6151C79.6601 79.1851 80.9901 79.7551 82.4151 80.3251C82.8901 80.5151 83.1751 80.8001 83.3651 81.3701C83.5551 82.1301 83.7451 82.7951 83.9351 83.4601C84.3151 84.9801 84.6951 86.5951 85.0751 88.1151C87.1651 88.1151 89.2551 88.1151 91.3451 88.1151C91.9151 85.9301 92.4851 83.7451 92.9601 81.6551C93.1501 80.8951 93.5301 80.5151 94.1951 80.2301C95.3351 79.8501 96.5701 79.3751 97.6151 78.8051C98.2801 78.4251 98.8501 78.4251 99.5151 78.9001C101.415 80.0401 103.315 81.1801 105.12 82.3201C106.64 80.8001 108.065 79.3751 109.585 77.8551C109.49 77.7601 109.395 77.5701 109.3 77.3801C108.255 75.5751 107.115 73.7701 106.07 71.9651C105.785 71.4901 105.785 71.0151 105.975 70.5401C106.545 69.2101 107.115 67.8801 107.685 66.4551C107.875 65.9801 108.16 65.6951 108.635 65.6001C109.49 65.4101 110.44 65.1251 111.295 64.9351C112.72 64.5551 114.05 64.2701 115.475 63.8901C115.475 61.8001 115.475 59.7101 115.475 57.7151C115.475 57.9051 115.285 57.8101 115.095 57.8101ZM88.4001 70.8251C82.9851 70.8251 78.6151 66.4551 78.6151 61.0401C78.6151 55.6251 82.9851 51.2551 88.4001 51.2551C93.8151 51.2551 98.1851 55.6251 98.1851 61.0401C98.1851 66.4551 93.8151 70.8251 88.4001 70.8251Z" fill="white" stroke="url(#paint1_linear_1_317)" stroke-width="3" stroke-miterlimit="10"/>
<path d="M86.5 172C133.72 172 172 133.72 172 86.5C172 39.2797 133.72 1 86.5 1C39.2797 1 1 39.2797 1 86.5C1 133.72 39.2797 172 86.5 172Z" stroke="url(#paint2_linear_1_317)" stroke-width="2" stroke-dasharray="6 6"/>
<path d="M22.47 8.81373L26.65 16.8887C26.935 17.5537 27.505 18.0287 28.075 18.3137L36.15 22.4937C36.53 22.6837 36.53 23.1587 36.15 23.3487L28.075 27.5287C27.41 27.8137 26.935 28.3837 26.65 28.9537L22.47 37.0287C22.28 37.4087 21.805 37.4087 21.615 37.0287L17.435 28.9537C17.15 28.2887 16.58 27.8137 16.01 27.5287L7.935 23.3487C7.555 23.1587 7.555 22.6837 7.935 22.4937L16.01 18.3137C16.675 18.0287 17.15 17.4587 17.435 16.8887L21.615 8.81373C21.805 8.52873 22.28 8.52873 22.47 8.81373Z" fill="white" stroke="url(#paint3_linear_1_317)" stroke-width="3"/>
<path d="M172.855 72.5587L176.37 79.3987C176.655 80.0637 177.225 80.5387 177.795 80.8237L184.635 84.3387C185.015 84.5287 185.015 85.0037 184.635 85.1937L177.795 88.7087C177.13 88.9937 176.655 89.5637 176.37 90.1337L172.855 96.9737C172.665 97.3537 172.19 97.3537 172 96.9737L168.485 90.1337C168.2 89.4687 167.63 88.9937 167.06 88.7087L160.22 85.1937C159.84 85.0037 159.84 84.5287 160.22 84.3387L167.06 80.8237C167.725 80.5387 168.2 79.9687 168.485 79.3987L172 72.5587C172.19 72.2737 172.665 72.2737 172.855 72.5587Z" fill="white" stroke="#281C51" stroke-width="3"/>
<path d="M33.9652 146.089L37.1952 152.264C37.4802 152.834 38.0502 153.404 38.6202 153.689L44.7952 156.919C45.1752 157.109 45.1752 157.584 44.7952 157.774L38.6202 161.004C37.9552 161.289 37.4802 161.859 37.1952 162.429L33.9652 168.604C33.7752 168.984 33.3002 168.984 33.1102 168.604L29.8802 162.429C29.5952 161.859 29.0252 161.289 28.4552 161.004L22.2802 157.774C21.9002 157.584 21.9002 157.109 22.2802 156.919L28.4552 153.689C29.1202 153.404 29.5952 152.834 29.8802 152.264L33.1102 146.089C33.3002 145.709 33.7752 145.709 33.9652 146.089Z" fill="white" stroke="url(#paint4_linear_1_317)" stroke-width="3"/>
<path d="M57.8098 114.715V105.975H81.6548V96.855" stroke="url(#paint5_linear_1_317)" stroke-width="3" stroke-miterlimit="10" stroke-linecap="round" stroke-linejoin="round"/>
<path d="M120.32 114.715V105.975H96.3799V96.855" stroke="url(#paint6_linear_1_317)" stroke-width="3" stroke-miterlimit="10" stroke-linecap="round" stroke-linejoin="round"/>
<path d="M88.9701 96.855V114.715" stroke="url(#paint7_linear_1_317)" stroke-width="3" stroke-miterlimit="10" stroke-linecap="round" stroke-linejoin="round"/>
<path d="M58.76 44.8899C58.76 44.8899 46.885 57.0499 54.485 79.5649" stroke="url(#paint8_linear_1_317)" stroke-width="3" stroke-miterlimit="10" stroke-linecap="round" stroke-linejoin="round"/>
<path d="M121.555 52.3C121.555 52.3 129.345 69.115 117.47 86.88" stroke="url(#paint9_linear_1_317)" stroke-width="3" stroke-miterlimit="10" stroke-linecap="round" stroke-linejoin="round"/>
<path d="M118.135 47.7399C118.922 47.7399 119.56 47.1019 119.56 46.3149C119.56 45.5279 118.922 44.8899 118.135 44.8899C117.348 44.8899 116.71 45.5279 116.71 46.3149C116.71 47.1019 117.348 47.7399 118.135 47.7399Z" fill="#281C51"/>
<path d="M57.9049 86.88C58.6919 86.88 59.3299 86.242 59.3299 85.455C59.3299 84.668 58.6919 84.03 57.9049 84.03C57.1179 84.03 56.4799 84.668 56.4799 85.455C56.4799 86.242 57.1179 86.88 57.9049 86.88Z" fill="#281C51"/>
<path d="M65.0301 136.375H47.1701C46.1251 136.375 45.2701 135.52 45.2701 134.475V116.615C45.2701 115.57 46.1251 114.715 47.1701 114.715H65.0301C66.0751 114.715 66.9301 115.57 66.9301 116.615V134.475C66.9301 135.52 66.0751 136.375 65.0301 136.375Z" stroke="url(#paint10_linear_1_317)" stroke-width="3" stroke-miterlimit="10" stroke-linejoin="round"/>
<path d="M113.005 136.375H130.865C131.91 136.375 132.765 135.52 132.765 134.475V116.615C132.765 115.57 131.91 114.715 130.865 114.715H113.005C111.96 114.715 111.105 115.57 111.105 116.615V134.475C111.105 135.52 111.96 136.375 113.005 136.375Z" stroke="url(#paint11_linear_1_317)" stroke-width="3" stroke-miterlimit="10" stroke-linecap="round" stroke-linejoin="round"/>
<path d="M79.9451 136.375H97.9001C98.9451 136.375 99.8001 135.52 99.8001 134.475V116.615C99.8001 115.57 98.9451 114.715 97.9001 114.715H79.9451C78.9001 114.715 78.0451 115.57 78.0451 116.615V134.475C78.0451 135.52 78.9001 136.375 79.9451 136.375Z" stroke="url(#paint12_linear_1_317)" stroke-width="3" stroke-miterlimit="10" stroke-linecap="round" stroke-linejoin="round"/>
<defs>
<linearGradient id="paint0_linear_1_317" x1="18.1" y1="86.025" x2="155.85" y2="86.025" gradientUnits="userSpaceOnUse">
<stop stop-color="#092054"/>
<stop offset="0.1943" stop-color="#213E67"/>
<stop offset="0.4694" stop-color="#456F84"/>
<stop offset="0.7053" stop-color="#629A9C"/>
<stop offset="0.8897" stop-color="#76B7AE"/>
<stop offset="1" stop-color="#7EC3B4"/>
</linearGradient>
<linearGradient id="paint1_linear_1_317" x1="59.6035" y1="61.0504" x2="117.119" y2="61.0504" gradientUnits="userSpaceOnUse">
<stop stop-color="#172E65"/>
<stop offset="1" stop-color="#311145"/>
</linearGradient>
<linearGradient id="paint2_linear_1_317" x1="-5.11527" y1="104.059" x2="179.074" y2="68.7575" gradientUnits="userSpaceOnUse">
<stop stop-color="#0491B2"/>
<stop offset="1" stop-color="#29F4F4"/>
</linearGradient>
<linearGradient id="paint3_linear_1_317" x1="2.91387" y1="26.6024" x2="41.3846" y2="19.2291" gradientUnits="userSpaceOnUse">
<stop stop-color="#0491B2"/>
<stop offset="1" stop-color="#29F4F4"/>
</linearGradient>
<linearGradient id="paint4_linear_1_317" x1="17.4529" y1="160.421" x2="49.8493" y2="154.212" gradientUnits="userSpaceOnUse">
<stop stop-color="#0491B2"/>
<stop offset="1" stop-color="#29F4F4"/>
</linearGradient>
<linearGradient id="paint5_linear_1_317" x1="56.5108" y1="104.318" x2="82.9847" y2="107.211" gradientUnits="userSpaceOnUse">
<stop stop-color="#0491B2"/>
<stop offset="1" stop-color="#29F4F4"/>
</linearGradient>
<linearGradient id="paint6_linear_1_317" x1="121.572" y1="104.318" x2="95.0984" y2="107.211" gradientUnits="userSpaceOnUse">
<stop stop-color="#0491B2"/>
<stop offset="1" stop-color="#29F4F4"/>
</linearGradient>
<linearGradient id="paint7_linear_1_317" x1="-nan" y1="-nan" x2="-nan" y2="-nan" gradientUnits="userSpaceOnUse">
<stop stop-color="#0491B2"/>
<stop offset="1" stop-color="#29F4F4"/>
</linearGradient>
<linearGradient id="paint8_linear_1_317" x1="61.9768" y1="61.6004" x2="50.0015" y2="62.9091" gradientUnits="userSpaceOnUse">
<stop stop-color="#0491B2"/>
<stop offset="1" stop-color="#29F4F4"/>
</linearGradient>
<linearGradient id="paint9_linear_1_317" x1="126.09" y1="68.8866" x2="114.208" y2="70.1851" gradientUnits="userSpaceOnUse">
<stop stop-color="#0491B2"/>
<stop offset="1" stop-color="#29F4F4"/>
</linearGradient>
<linearGradient id="paint10_linear_1_317" x1="42.9892" y1="124.088" x2="69.2129" y2="126.954" gradientUnits="userSpaceOnUse">
<stop stop-color="#0491B2"/>
<stop offset="1" stop-color="#29F4F4"/>
</linearGradient>
<linearGradient id="paint11_linear_1_317" x1="135.094" y1="124.088" x2="108.871" y2="126.954" gradientUnits="userSpaceOnUse">
<stop stop-color="#0491B2"/>
<stop offset="1" stop-color="#29F4F4"/>
</linearGradient>
<linearGradient id="paint12_linear_1_317" x1="102.048" y1="124.088" x2="75.8243" y2="126.954" gradientUnits="userSpaceOnUse">
<stop stop-color="#0491B2"/>
<stop offset="1" stop-color="#29F4F4"/>
</linearGradient>
</defs>
</svg>
