<svg width="180" height="180" viewBox="0 0 180 180" fill="none" xmlns="http://www.w3.org/2000/svg">
<path opacity="0.1" d="M162.45 89.7751C162.45 127.848 131.648 158.65 93.575 158.65C55.5024 158.65 24.7 127.848 24.7 89.7751C24.7 51.7026 55.5024 20.9001 93.575 20.9001C131.648 20.9001 162.45 51.7026 162.45 89.7751Z" fill="url(#paint0_linear_1_183)"/>
<path d="M124.737 112.389C122.276 111.774 119.712 111.158 117.251 110.543C116.431 110.338 116.021 109.928 115.713 109.108C115.201 107.672 114.688 106.236 113.97 104.801C113.457 103.878 113.457 103.16 114.073 102.237C115.508 99.9814 116.841 97.623 118.277 95.2645C116.431 93.4188 114.585 91.5731 112.74 89.7273C110.381 91.1629 108.023 92.5985 105.562 94.0341C104.844 94.4442 104.229 94.4442 103.408 94.1366C101.87 93.4188 100.332 92.8036 98.7939 92.2908C98.0761 91.9832 97.5634 91.5731 97.4609 90.7527C97.1533 89.5222 96.8457 88.2917 96.538 87.1638C96.1279 85.6257 95.7177 84.0876 95.4101 82.5494C92.744 82.5494 90.283 82.5494 87.7195 82.5494C87.617 82.7545 87.6169 82.9596 87.5144 83.0621C86.8992 85.6257 86.2839 88.0867 85.6687 90.6502C85.4636 91.4705 85.0534 91.9832 84.2331 92.2908C82.695 92.9061 81.1569 93.5213 79.6187 94.2391C78.901 94.5468 78.2857 94.5468 77.6705 94.1366C76.1323 93.2137 74.5942 92.2908 72.9536 91.368C72.0307 90.8553 71.2104 90.3426 70.4926 89.8299C68.6468 91.6756 66.8011 93.5213 64.9554 95.3671C66.3909 97.7255 67.8265 100.187 69.2621 102.545C69.6722 103.16 69.6722 103.775 69.3646 104.493C68.6468 106.031 68.0316 107.569 67.4163 109.108C67.1087 109.928 66.6985 110.338 65.8782 110.543C64.2376 110.953 62.6994 111.364 61.0588 111.774C59.9308 112.081 58.8029 112.389 57.6749 112.697C57.6749 115.363 57.6749 117.824 57.6749 120.387C60.4435 121.105 63.1096 121.72 65.8782 122.438C66.6985 122.643 67.2113 123.053 67.4163 123.874C67.929 125.309 68.5443 126.847 69.2621 128.283C69.6722 129.206 69.6722 129.821 69.1595 130.641C67.724 133 66.2884 135.358 64.9554 137.614C66.8011 139.46 68.6468 141.306 70.4926 143.151C72.851 141.716 75.2095 140.28 77.6705 138.845C78.2857 138.537 78.7984 138.434 79.4137 138.742C81.0543 139.46 82.7975 140.178 84.4382 140.793C85.0534 140.998 85.4636 141.408 85.5661 142.023C85.7712 142.946 85.9763 143.767 86.1814 144.689C86.6941 146.638 87.1042 148.483 87.617 150.432C90.283 150.432 92.744 150.432 95.3075 150.432C96.0253 147.766 96.6406 145.1 97.3584 142.433C97.5634 141.511 98.0762 140.998 98.8965 140.69C100.332 140.178 101.768 139.562 103.203 138.947C104.126 138.537 104.741 138.537 105.562 139.05C107.92 140.485 110.279 141.921 112.534 143.254C114.38 141.408 116.226 139.562 118.072 137.717C117.969 137.511 117.867 137.306 117.764 137.101C116.431 134.845 115.098 132.59 113.765 130.436C113.457 129.821 113.355 129.308 113.662 128.693C114.38 127.052 115.098 125.309 115.713 123.668C115.918 123.053 116.328 122.746 116.944 122.54C118.072 122.233 119.097 122.028 120.225 121.72C121.968 121.31 123.711 120.9 125.455 120.387C125.455 117.824 125.455 115.26 125.455 112.697C125.147 112.491 124.942 112.491 124.737 112.389ZM91.5135 128.59C84.7458 128.59 79.3111 123.156 79.3111 116.388C79.3111 109.62 84.7458 104.186 91.5135 104.186C98.2812 104.186 103.716 109.62 103.716 116.388C103.716 123.156 98.1787 128.59 91.5135 128.59Z" fill="white" stroke="url(#paint1_linear_1_183)" stroke-width="3" stroke-miterlimit="10"/>
<path d="M144.63 87.6762C144.63 82.4466 140.426 78.1399 135.094 78.1399C133.556 78.1399 132.12 78.5501 130.787 79.1653C127.096 72.7052 120.123 68.3985 112.227 68.3985C110.074 68.3985 107.92 68.7061 105.972 69.3214C105.972 69.0137 105.972 68.7061 105.972 68.3985C105.972 60.0927 99.3069 53.4275 91.001 53.4275C84.4384 53.4275 79.0037 57.6317 76.8504 63.374C73.9792 61.8359 70.6979 61.0155 67.314 61.0155C55.932 61.0155 46.7033 70.2442 46.7033 81.6263C46.7033 83.1644 46.9083 84.6 47.216 86.0356C46.7033 85.933 46.088 85.933 45.5753 85.933C36.9618 85.933 29.8865 92.9058 29.8865 101.622C29.8865 106.851 32.45 111.363 36.3466 114.234H54.804H144.117V90.855C144.425 89.8296 144.63 88.8042 144.63 87.6762Z" fill="white" stroke="url(#paint2_linear_1_183)" stroke-width="2" stroke-miterlimit="10"/>
<path d="M172.715 58.2246C189.897 102.165 168.173 151.734 124.231 168.916C80.2895 186.097 30.7193 164.373 13.5376 120.433C-3.74286 76.3933 17.9811 26.8242 62.0216 9.64294C105.963 -7.43963 155.534 14.1851 172.715 58.2246Z" stroke="url(#paint3_linear_1_183)" stroke-width="2" stroke-miterlimit="10" stroke-dasharray="7 7"/>
<path d="M138.612 22.8336C143.887 20.7734 146.494 14.8269 144.433 9.55171C142.373 4.27656 136.427 1.67034 131.152 3.73057C125.876 5.79079 123.27 11.7373 125.33 17.0124C127.391 22.2876 133.337 24.8938 138.612 22.8336Z" fill="white" stroke="url(#paint4_linear_1_183)" stroke-width="3" stroke-miterlimit="10"/>
<path d="M55.0122 175.784C60.2874 173.723 62.8936 167.777 60.8334 162.502C58.7732 157.227 52.8267 154.62 47.5515 156.681C42.2764 158.741 39.6701 164.687 41.7304 169.962C43.7906 175.238 49.7371 177.844 55.0122 175.784Z" fill="white" stroke="url(#paint5_linear_1_183)" stroke-width="3" stroke-miterlimit="10"/>
<path d="M12.7592 75.0751C16.7155 73.53 18.6702 69.0701 17.125 65.1137C15.5799 61.1574 11.12 59.2027 7.16363 60.7479C3.20727 62.293 1.25261 66.7529 2.79778 70.7093C4.34294 74.6656 8.80282 76.6203 12.7592 75.0751Z" fill="white" stroke="url(#paint6_linear_1_183)" stroke-width="3" stroke-miterlimit="10"/>
<path d="M167.609 142.525C171.566 140.98 173.52 136.52 171.975 132.564C170.43 128.607 165.97 126.653 162.014 128.198C158.057 129.743 156.103 134.203 157.648 138.159C159.193 142.116 163.653 144.07 167.609 142.525Z" fill="white" stroke="url(#paint7_linear_1_183)" stroke-width="3" stroke-miterlimit="10"/>
<path d="M168.624 100.597C168.727 99.4685 168.83 98.3406 168.83 97.1101C168.83 80.9086 156.422 67.7833 141.041 67.7833C125.762 67.7833 113.252 80.9086 113.252 97.1101C113.252 98.3406 113.355 99.4685 113.457 100.597H168.624V100.597Z" fill="white" stroke="url(#paint8_linear_1_183)" stroke-width="3" stroke-miterlimit="10"/>
<path d="M140.631 75.9867C149.466 75.9867 156.627 68.3657 156.627 58.9648C156.627 49.5639 149.466 41.943 140.631 41.943C131.796 41.943 124.635 49.5639 124.635 58.9648C124.635 68.3657 131.796 75.9867 140.631 75.9867Z" fill="white" stroke="url(#paint9_linear_1_183)" stroke-width="3" stroke-miterlimit="10"/>
<path d="M56.7525 92.8034C57.4703 92.3933 58.3931 92.1882 59.4185 92.1882C60.9567 92.1882 62.2897 92.8034 63.4176 94.0339L65.7761 91.8805C65.0583 90.9577 64.1354 90.2399 63.0075 89.8297C61.8795 89.317 60.649 89.1119 59.316 89.1119C57.6753 89.1119 56.2398 89.4196 54.9067 90.1374C53.5737 90.8551 52.5483 91.778 51.8305 93.0085C51.1127 94.239 50.7025 95.6746 50.7025 97.2127C50.7025 98.7508 51.1127 100.186 51.8305 101.417C52.5483 102.647 53.5737 103.57 54.9067 104.288C56.2398 105.006 57.6753 105.313 59.316 105.313C60.649 105.313 61.8795 105.108 63.0075 104.596C64.1354 104.083 65.0583 103.365 65.7761 102.545L63.4176 100.391C62.3922 101.622 61.0592 102.237 59.4185 102.237C58.3931 102.237 57.5728 102.032 56.7525 101.622C56.0347 101.212 55.4194 100.597 54.9067 99.7762C54.4966 99.0584 54.2915 98.1356 54.2915 97.1102C54.2915 96.0847 54.4966 95.2644 54.9067 94.4441C55.3169 93.8288 55.9321 93.2136 56.7525 92.8034Z" fill="#2C174B"/>
<path d="M83.003 98.1353C83.6182 97.315 83.8233 96.2896 83.8233 95.0591C83.8233 93.9311 83.5157 92.9057 83.003 91.9828C82.4903 91.1625 81.6699 90.4447 80.6445 90.0346C79.6191 89.5219 78.3886 89.3168 77.0556 89.3168H70.1853V105.108H73.8768V100.699H77.0556H77.2607L80.3369 105.108H84.2335L80.6445 99.9811C81.6699 99.5709 82.4903 98.9556 83.003 98.1353ZM79.3115 97.1099C78.6962 97.6226 77.8759 97.8277 76.8505 97.8277H73.8768V92.2905H76.8505C77.9785 92.2905 78.7988 92.4956 79.3115 93.0083C79.9267 93.521 80.1318 94.1362 80.1318 95.0591C80.1318 95.982 79.8242 96.5972 79.3115 97.1099Z" fill="#2C174B"/>
<path d="M106.587 89.3168H103.511L97.7687 99.1607L91.8213 89.3168H88.8476V105.108H92.2315V95.8794L96.8458 103.467H98.4865L103.101 95.6743L103.203 105.108H106.587V89.3168Z" fill="#2C174B"/>
<defs>
<linearGradient id="paint0_linear_1_183" x1="24.7424" y1="89.7288" x2="162.492" y2="89.7288" gradientUnits="userSpaceOnUse">
<stop stop-color="#092054"/>
<stop offset="0.1943" stop-color="#213E67"/>
<stop offset="0.4694" stop-color="#456F84"/>
<stop offset="0.7053" stop-color="#629A9C"/>
<stop offset="0.8897" stop-color="#76B7AE"/>
<stop offset="1" stop-color="#7EC3B4"/>
</linearGradient>
<linearGradient id="paint1_linear_1_183" x1="56.0465" y1="116.423" x2="126.945" y2="116.423" gradientUnits="userSpaceOnUse">
<stop stop-color="#172E65"/>
<stop offset="1" stop-color="#311145"/>
</linearGradient>
<linearGradient id="paint2_linear_1_183" x1="28.8766" y1="83.8589" x2="145.665" y2="83.8589" gradientUnits="userSpaceOnUse">
<stop stop-color="#00C0B4"/>
<stop offset="1" stop-color="#29C9F3"/>
</linearGradient>
<linearGradient id="paint3_linear_1_183" x1="12.5534" y1="120.734" x2="173.588" y2="57.8402" gradientUnits="userSpaceOnUse">
<stop stop-color="#00C0B4"/>
<stop offset="1" stop-color="#29C9F3"/>
</linearGradient>
<linearGradient id="paint4_linear_1_183" x1="126.409" y1="21.0864" x2="143.299" y2="5.51915" gradientUnits="userSpaceOnUse">
<stop stop-color="#00C0B4"/>
<stop offset="1" stop-color="#29C9F3"/>
</linearGradient>
<linearGradient id="paint5_linear_1_183" x1="42.8518" y1="174.055" x2="59.7417" y2="158.488" gradientUnits="userSpaceOnUse">
<stop stop-color="#00C0B4"/>
<stop offset="1" stop-color="#29C9F3"/>
</linearGradient>
<linearGradient id="paint6_linear_1_183" x1="3.44834" y1="73.8766" x2="16.455" y2="61.8884" gradientUnits="userSpaceOnUse">
<stop stop-color="#172E65"/>
<stop offset="1" stop-color="#311145"/>
</linearGradient>
<linearGradient id="paint7_linear_1_183" x1="158.332" y1="141.375" x2="171.338" y2="129.387" gradientUnits="userSpaceOnUse">
<stop stop-color="#172E65"/>
<stop offset="1" stop-color="#311145"/>
</linearGradient>
<linearGradient id="paint8_linear_1_183" x1="111.802" y1="84.2461" x2="170.389" y2="84.2461" gradientUnits="userSpaceOnUse">
<stop stop-color="#00C0B4"/>
<stop offset="1" stop-color="#29C9F3"/>
</linearGradient>
<linearGradient id="paint9_linear_1_183" x1="123.16" y1="59.0053" x2="158.141" y2="59.0053" gradientUnits="userSpaceOnUse">
<stop stop-color="#00C0B4"/>
<stop offset="1" stop-color="#29C9F3"/>
</linearGradient>
</defs>
</svg>
