<svg width="92" height="92" viewBox="0 0 92 92" fill="none" xmlns="http://www.w3.org/2000/svg">
<ellipse cx="46.1729" cy="46" rx="35.797" ry="35.9699" fill="#F0F7F6"/>
<path d="M46.6195 19.7142C50.6779 22.1074 52.4584 25.8113 52.5778 30.3692C52.6673 34.1526 52.5977 37.9459 52.5877 41.7392C52.5877 42.0867 52.6872 42.3052 52.9757 42.5137C54.1792 43.3876 55.353 44.3011 56.5566 45.1849C56.9644 45.4828 57.1633 45.8502 57.1534 46.3567C57.1335 46.9723 57.1534 47.5781 57.1434 48.1937C57.1335 48.9385 56.8251 49.2563 56.0791 49.2563C54.7661 49.2662 53.4631 49.2761 52.1501 49.2463C51.7223 49.2364 51.5632 49.3754 51.5035 49.7726C51.4339 50.2493 51.3245 50.716 51.1852 51.1728C50.9067 52.1062 50.101 52.7517 49.1262 52.7616C47.3059 52.7814 45.4756 52.7814 43.6553 52.7616C42.6407 52.7517 41.8251 52.0863 41.5466 51.1033C41.4073 50.6266 41.3178 50.14 41.2283 49.6535C41.1785 49.3655 41.0492 49.2463 40.7309 49.2463C39.4179 49.2662 38.1149 49.2563 36.8019 49.2563C35.8072 49.2563 35.5585 49.008 35.5585 48.0349C35.5585 47.4589 35.5784 46.873 35.5585 46.2971C35.5386 45.8204 35.7276 45.4828 36.1155 45.2048C37.3489 44.321 38.5724 43.4074 39.8158 42.5237C40.1242 42.3052 40.2236 42.0768 40.2236 41.7094C40.2037 37.9657 40.1739 34.232 40.1938 30.4884C40.2137 27.4299 41.1288 24.6693 43.0585 22.2663C43.904 21.2137 44.9783 20.4193 46.1222 19.7043C46.2813 19.7142 46.4504 19.7142 46.6195 19.7142ZM37.2097 47.5979C43.3171 47.5979 49.4047 47.5979 55.4524 47.5979C55.6912 46.7837 55.4226 46.2673 54.7363 45.8304C53.7615 45.2048 52.8662 44.46 51.9213 43.7848C51.7223 43.6458 51.4438 43.5465 51.2051 43.5465C48.0022 43.5266 44.8092 43.5266 41.6063 43.5465C41.3675 43.5465 41.089 43.6458 40.8801 43.7848C39.8954 44.46 38.9703 45.2246 37.9557 45.8403C37.2694 46.2673 37.0306 46.7837 37.2097 47.5979ZM50.9564 35.1158C47.9126 35.1158 44.8888 35.1158 41.8549 35.1158C41.8549 37.3898 41.8549 39.6241 41.8549 41.8881C44.8987 41.8881 47.9226 41.8881 50.9564 41.8881C50.9564 39.6141 50.9564 37.3799 50.9564 35.1158ZM41.845 33.4178C44.9186 33.4178 47.9325 33.4178 50.9863 33.4178C50.9465 31.3821 51.1554 29.3762 50.5784 27.41C49.902 25.0963 48.7382 23.1004 46.7289 21.6804C46.4703 21.4917 46.3012 21.5016 46.0426 21.6804C44.4511 22.8025 43.3967 24.3317 42.6407 26.0993C41.646 28.4626 41.7952 30.9253 41.845 33.4178ZM42.7999 49.296C42.9093 49.7925 42.9988 50.2493 43.1182 50.6862C43.2077 51.0536 43.4962 51.1728 43.8344 51.1728C45.5353 51.1728 47.2462 51.1728 48.9471 51.1728C49.2953 51.1728 49.5738 51.0238 49.6633 50.6763C49.7827 50.2393 49.8622 49.7826 49.9617 49.296C47.5744 49.296 45.2369 49.296 42.7999 49.296Z" fill="url(#paint0_linear_1_929)"/>
<path d="M61.739 70.5563C58.4864 69.0072 55.2337 67.4482 51.9811 65.8991C51.0958 65.4721 50.9864 65.1643 51.4141 64.2606C52.0109 63.0094 52.6077 61.7582 53.2045 60.4971C53.6521 59.5538 53.9108 59.4644 54.8657 59.9013C54.9353 59.9311 55.0149 59.9609 55.1044 60.0006C55.2039 59.2757 55.2536 58.5508 55.4128 57.8557C55.8504 55.9293 56.875 54.3603 58.4267 53.1389C59.2523 52.4835 59.869 51.699 60.2967 50.7358C60.7941 49.6237 61.3611 48.5313 61.8684 47.4192C62.5547 45.9297 63.6588 44.9863 65.3498 44.6884C65.3498 44.5196 65.3498 44.3408 65.3498 44.172C65.31 42.5832 65.2503 40.9944 65.2404 39.4056C65.2304 37.5387 66.3644 36.1485 68.0753 35.8705C68.7318 35.7612 69.0899 36.0095 69.1993 36.655C69.7364 40.0312 70.2736 43.4074 70.8007 46.7936C70.9897 48.0051 71.2484 49.2165 71.2583 50.428C71.2682 52.2651 70.6217 53.9333 69.4579 55.3633C67.9062 57.2599 66.3743 59.1764 64.7629 61.0135C63.9274 61.9568 63.9572 62.9896 64.0965 64.0819C64.1164 64.201 64.2755 64.3301 64.4048 64.4096C64.932 64.7373 65.0713 65.0948 64.8027 65.6608C64.1263 67.1006 63.4499 68.5306 62.7437 69.9506C62.6343 70.179 62.4154 70.3378 62.2364 70.5364C62.0673 70.5563 61.8982 70.5563 61.739 70.5563ZM62.4353 63.496C62.1469 61.798 62.9426 60.6262 63.9174 59.514C64.8326 58.4714 65.7079 57.389 66.5832 56.3066C67.3392 55.3633 68.1349 54.4497 68.7716 53.4368C69.4778 52.3147 69.806 51.0238 69.6071 49.6932C69.1197 46.456 68.5925 43.2287 68.0852 39.9915C67.9659 39.2467 67.8365 38.5019 67.7072 37.7175C67.001 38.1445 66.8319 38.7601 66.8418 39.4453C66.8717 41.1136 66.9314 42.7818 66.9712 44.46C66.9811 44.7182 67.0408 44.8671 67.3094 44.9764C68.1648 45.3041 68.2842 45.6615 67.8863 46.5056C66.9015 48.5611 65.9168 50.6167 64.942 52.6821C64.8723 52.8311 64.8127 52.99 64.7132 53.1191C64.4446 53.4666 64.0965 53.5659 63.6986 53.3673C63.3405 53.1786 63.1913 52.8609 63.3007 52.4537C63.3505 52.2949 63.4201 52.1459 63.4897 51.997C64.2855 50.3287 65.0812 48.6604 65.877 46.9823C65.9665 46.7936 66.0461 46.595 66.1356 46.3964C65.0514 46.168 63.9871 46.7539 63.43 47.8958C62.873 49.0279 62.3259 50.15 61.8186 51.3018C61.2516 52.5729 60.4559 53.6156 59.3617 54.4894C57.6707 55.8399 56.8451 57.6372 56.7755 59.7921C56.7556 60.4673 56.8252 61.0532 57.6409 61.2617C57.999 61.3511 58.3272 61.5795 58.6754 61.7384C59.8889 62.2945 61.0925 62.8605 62.4353 63.496ZM63.052 65.5813C60.1873 64.2209 57.3524 62.8704 54.4976 61.5199C54.0003 62.5725 53.5129 63.5854 53.0255 64.6181C55.9002 65.9885 58.7251 67.329 61.5699 68.6795C62.0772 67.6369 62.5547 66.624 63.052 65.5813Z" fill="#281C51"/>
<path d="M30.5056 70.5563C30.2867 70.2981 30.0182 70.0598 29.8689 69.7619C29.2323 68.471 28.6256 67.1701 28.0089 65.8693C27.6309 65.0749 27.6906 64.8564 28.4266 64.3699C28.5062 64.3103 28.5957 64.211 28.6156 64.1117C28.7947 62.9499 28.7549 61.8973 27.8796 60.9241C26.3378 59.1963 24.8955 57.3791 23.4333 55.5817C21.7821 53.5858 21.1454 51.3217 21.5732 48.7399C22.2297 44.8473 22.8265 40.9348 23.4432 37.0422C23.4631 36.8933 23.4929 36.7443 23.5228 36.6053C23.6521 36.0194 23.9704 35.801 24.5573 35.8804C26.1587 36.1088 27.3822 37.3898 27.422 39.0084C27.4518 40.4284 27.3822 41.8484 27.3623 43.2783C27.3524 43.7351 27.3623 44.2018 27.3623 44.599C27.989 44.8771 28.6256 45.1154 29.2025 45.4431C29.9485 45.8602 30.4061 46.5652 30.7741 47.3199C31.3809 48.581 31.928 49.8818 32.6044 51.1132C32.9824 51.7884 33.4698 52.4637 34.0666 52.9502C36.2052 54.6979 37.4286 56.8627 37.5082 59.6431C37.5082 59.7226 37.5182 59.8119 37.5281 59.8914C37.5281 59.9212 37.558 59.951 37.5878 60.0105C37.747 59.941 37.9061 59.8616 38.0752 59.7921C38.7019 59.524 39.06 59.6431 39.3683 60.2687C40.0348 61.649 40.7012 63.0392 41.3577 64.4294C41.6959 65.1543 41.5666 65.5019 40.8305 65.8494C37.6674 67.3588 34.4943 68.8583 31.3312 70.3676C31.2118 70.4272 31.1123 70.4967 30.993 70.5662C30.8338 70.5563 30.6647 70.5563 30.5056 70.5563ZM26.5367 46.3467C26.6461 46.5851 26.7357 46.7737 26.8252 46.9723C27.6607 48.72 28.4963 50.4578 29.3219 52.2055C29.5606 52.7119 29.4213 53.1488 29.0036 53.3574C28.5957 53.556 28.1382 53.4269 27.9193 52.9701C26.8351 50.7259 25.7509 48.4718 24.6965 46.2176C24.4478 45.7013 24.6368 45.2246 25.1839 45.0658C25.6614 44.9168 25.8106 44.6685 25.7509 44.2118C25.731 44.0529 25.7509 43.8841 25.7509 43.7153C25.7807 42.196 25.8305 40.6766 25.8404 39.1474C25.8504 38.5417 25.5619 38.065 25.0248 37.7274C24.985 37.8168 24.9651 37.8466 24.9651 37.8764C24.3683 41.6101 23.7913 45.3537 23.1746 49.0874C22.8364 51.1529 23.3736 52.9502 24.6667 54.549C26.2085 56.4456 27.79 58.3224 29.3418 60.2191C29.6501 60.5964 29.9485 61.0333 30.0878 61.4901C30.2768 62.1058 30.3066 62.7612 30.416 63.4166C30.426 63.4166 30.4757 63.4166 30.5155 63.3967C32.2065 62.5924 33.8975 61.798 35.5686 60.9738C35.7178 60.9043 35.857 60.656 35.867 60.4872C36.0858 57.9749 35.1707 55.9193 33.2111 54.3504C32.2463 53.5758 31.5201 52.6424 31.0029 51.5302C30.4061 50.2493 29.7993 48.9782 29.1727 47.7171C28.6554 46.7042 27.6806 46.2176 26.5367 46.3467ZM38.1846 61.51C35.3099 62.8803 32.485 64.2209 29.6402 65.5714C30.1475 66.6339 30.6349 67.6468 31.1223 68.6696C33.9969 67.2992 36.8219 65.9587 39.6667 64.6082C39.1594 63.5556 38.6919 62.5527 38.1846 61.51Z" fill="#281C51"/>
<path d="M47.1469 57.0018C47.1469 57.7763 47.1569 58.5608 47.1469 59.3354C47.137 59.961 46.8286 60.3284 46.3412 60.3184C45.8538 60.3184 45.5355 59.9411 45.5355 59.3254C45.5256 57.7366 45.5256 56.1478 45.5355 54.559C45.5355 53.9433 45.8638 53.5759 46.3512 53.5759C46.8386 53.5759 47.137 53.9433 47.1469 54.5689C47.1569 55.3832 47.1469 56.1875 47.1469 57.0018Z" fill="url(#paint1_linear_1_929)"/>
<path d="M52.3887 55.5421C52.3887 55.8897 52.3986 56.2373 52.3887 56.5848C52.3688 57.121 52.0405 57.4587 51.583 57.4587C51.1353 57.4487 50.817 57.121 50.7971 56.6146C50.7773 55.8897 50.7773 55.1648 50.7971 54.4399C50.8071 53.9335 51.1353 53.5958 51.583 53.5958C52.0505 53.5859 52.3688 53.9335 52.3986 54.4697C52.3986 54.4995 52.3986 54.5392 52.3986 54.569C52.3887 54.8768 52.3887 55.2145 52.3887 55.5421Z" fill="url(#paint2_linear_1_929)"/>
<path d="M42.024 55.4923C42.024 55.8597 42.0439 56.2172 42.024 56.5747C41.9942 57.1109 41.656 57.4485 41.2084 57.4485C40.7508 57.4386 40.4425 57.101 40.4226 56.5548C40.4027 55.8597 40.4027 55.1745 40.4226 54.4794C40.4325 53.9333 40.7508 53.5857 41.2084 53.5857C41.656 53.5758 41.9942 53.9233 42.034 54.4596C42.0439 54.7972 42.024 55.1447 42.024 55.4923Z" fill="url(#paint3_linear_1_929)"/>
<path d="M43.5164 29.3067C43.5164 27.7179 44.7896 26.4369 46.391 26.4468C47.9825 26.4568 49.2757 27.7377 49.2657 29.3166C49.2558 30.8955 47.9627 32.1864 46.3811 32.1864C44.7995 32.1864 43.5164 30.9055 43.5164 29.3067ZM47.6344 29.3266C47.6344 28.6215 47.0774 28.0555 46.391 28.0555C45.7047 28.0555 45.1278 28.6315 45.1278 29.3166C45.1278 29.982 45.6749 30.538 46.3612 30.548C47.0774 30.5678 47.6344 30.0415 47.6344 29.3266Z" fill="url(#paint4_linear_1_929)"/>
<circle cx="46" cy="46" r="45" stroke="url(#paint5_linear_1_929)" stroke-width="2" stroke-dasharray="6 6"/>
<defs>
<linearGradient id="paint0_linear_1_929" x1="35.5571" y1="44.1489" x2="57.1539" y2="44.1675" gradientUnits="userSpaceOnUse">
<stop stop-color="#00C0B4"/>
<stop offset="1" stop-color="#29C9F3"/>
</linearGradient>
<linearGradient id="paint1_linear_1_929" x1="45.5281" y1="58.5597" x2="47.1514" y2="58.5602" gradientUnits="userSpaceOnUse">
<stop stop-color="#00C0B4"/>
<stop offset="1" stop-color="#29C9F3"/>
</linearGradient>
<linearGradient id="paint2_linear_1_929" x1="50.7822" y1="56.4509" x2="52.3986" y2="56.4518" gradientUnits="userSpaceOnUse">
<stop stop-color="#00C0B4"/>
<stop offset="1" stop-color="#29C9F3"/>
</linearGradient>
<linearGradient id="paint3_linear_1_929" x1="40.4077" y1="56.4408" x2="42.0368" y2="56.4417" gradientUnits="userSpaceOnUse">
<stop stop-color="#00C0B4"/>
<stop offset="1" stop-color="#29C9F3"/>
</linearGradient>
<linearGradient id="paint4_linear_1_929" x1="43.5164" y1="30.6891" x2="49.2658" y2="30.6967" gradientUnits="userSpaceOnUse">
<stop stop-color="#00C0B4"/>
<stop offset="1" stop-color="#29C9F3"/>
</linearGradient>
<linearGradient id="paint5_linear_1_929" x1="3.49809e-07" y1="68" x2="92.0007" y2="68.1209" gradientUnits="userSpaceOnUse">
<stop stop-color="#00C0B4"/>
<stop offset="1" stop-color="#29C9F3"/>
</linearGradient>
</defs>
</svg>
