<svg width="93" height="94" viewBox="0 0 93 94" fill="none" xmlns="http://www.w3.org/2000/svg">
<ellipse cx="46.6748" cy="47" rx="36.1861" ry="36.3609" fill="#F0F7F6"/>
<circle cx="46.5" cy="47" r="45.5" stroke="url(#paint0_linear_1_960)" stroke-width="2" stroke-dasharray="6 6"/>
<path d="M17.8308 60.2857L22.9143 54.5308H34.7758L44.265 45.5599H51.3819L60.1932 38.9586H73.0714" stroke="#281C51" stroke-width="2" stroke-linecap="round"/>
<path d="M61.9323 39.1335C61.9323 40.2225 61.0495 41.1053 59.9605 41.1053C58.8715 41.1053 57.9887 40.2225 57.9887 39.1335C57.9887 38.0445 58.8715 37.1617 59.9605 37.1617C61.0495 37.1617 61.9323 38.0445 61.9323 39.1335Z" fill="#F0F7F6" stroke="#281C51" stroke-width="2"/>
<circle cx="44.0526" cy="45.6015" r="1.79699" fill="#F0F7F6" stroke="#281C51" stroke-width="2"/>
<circle cx="34.6128" cy="53.9925" r="1.79699" fill="#F0F7F6" stroke="#281C51" stroke-width="2"/>
<circle cx="22.7255" cy="53.9925" r="1.79699" fill="#F0F7F6" stroke="#281C51" stroke-width="2"/>
<path fill-rule="evenodd" clip-rule="evenodd" d="M72.4699 39.8604C72.4699 46.9775 66.7003 52.7471 59.5832 52.7471C52.4661 52.7471 46.6965 46.9775 46.6965 39.8604C46.6965 32.7432 52.4661 26.9737 59.5832 26.9737C66.7003 26.9737 72.4699 32.7432 72.4699 39.8604ZM62.0924 54.5365C69.1193 53.3438 74.4699 47.2269 74.4699 39.8604C74.4699 31.6387 67.8049 24.9737 59.5832 24.9737C51.3615 24.9737 44.6965 31.6387 44.6965 39.8604C44.6965 47.3435 50.2179 53.5371 57.4089 54.5894V55.0744V56.7615C57.4089 57.0965 57.4913 57.4123 57.6369 57.6898C56.496 58.3977 55.7363 59.6618 55.7363 61.1033V69.4738C55.7363 70.5783 56.6317 71.4738 57.7363 71.4738H61.765C62.8696 71.4738 63.765 70.5783 63.765 69.4738V61.1033C63.765 59.6618 63.0053 58.3977 61.8644 57.6898C62.01 57.4123 62.0924 57.0965 62.0924 56.7615V55.0744V54.5365ZM60.0924 55.0744H59.4089L59.4089 56.7615L60.0924 56.7615V55.0744ZM61.765 69.4738V61.1033C61.765 59.9907 60.8632 59.0889 59.7506 59.0889C58.6381 59.0889 57.7363 59.9907 57.7363 61.1033V69.4738H61.765Z" fill="url(#paint1_linear_1_960)"/>
<path d="M34.6128 41.8051C34.6128 42.9217 34.1976 43.8686 33.3674 44.646C32.5509 45.4233 31.3609 45.8756 29.7972 46.0028V48.3985H28.4687V46.0028C27.4586 45.9463 26.4968 45.7555 25.5835 45.4304C24.6841 45.0912 23.9645 44.6672 23.4248 44.1584L24.1928 42.5047C24.691 42.9711 25.3206 43.3598 26.0817 43.6708C26.8428 43.9676 27.6385 44.1442 28.4687 44.2008V39.2822C27.5001 39.042 26.6906 38.7805 26.0402 38.4978C25.4036 38.2151 24.8639 37.7982 24.4211 37.247C23.9922 36.6958 23.7777 35.9749 23.7777 35.0845C23.7777 33.9679 24.1721 33.021 24.9608 32.2436C25.7634 31.4663 26.9327 31.014 28.4687 30.8868V28.4699H29.7972V30.8656C30.5859 30.8939 31.347 31.0211 32.0804 31.2472C32.8277 31.4733 33.4711 31.7772 34.0108 32.1588L33.3258 33.8549C32.205 33.1341 31.0287 32.7383 29.7972 32.6676V37.6074C30.8073 37.8618 31.6376 38.1303 32.288 38.413C32.9384 38.6816 33.485 39.0914 33.9278 39.6426C34.3844 40.1797 34.6128 40.9005 34.6128 41.8051ZM25.8118 34.9997C25.8118 35.6075 26.0402 36.0809 26.4968 36.4202C26.9535 36.7594 27.6108 37.042 28.4687 37.2682V32.6888C27.5831 32.8019 26.9189 33.0705 26.4761 33.4945C26.0333 33.9043 25.8118 34.4061 25.8118 34.9997ZM29.7972 44.1796C30.7243 44.0948 31.4162 43.8545 31.8729 43.4588C32.3434 43.0489 32.5786 42.5401 32.5786 41.9323C32.5786 41.3104 32.3364 40.8369 31.8521 40.5119C31.3816 40.1727 30.6966 39.8759 29.7972 39.6214V44.1796Z" fill="url(#paint2_linear_1_960)"/>
<defs>
<linearGradient id="paint0_linear_1_960" x1="3.53612e-07" y1="69.2391" x2="93.0007" y2="69.3614" gradientUnits="userSpaceOnUse">
<stop stop-color="#00C0B4"/>
<stop offset="1" stop-color="#29C9F3"/>
</linearGradient>
<linearGradient id="paint1_linear_1_960" x1="44.6965" y1="59.3432" x2="74.4702" y2="59.3683" gradientUnits="userSpaceOnUse">
<stop stop-color="#00C0B4"/>
<stop offset="1" stop-color="#29C9F3"/>
</linearGradient>
<linearGradient id="paint2_linear_1_960" x1="23.4248" y1="43.1997" x2="34.6129" y2="43.208" gradientUnits="userSpaceOnUse">
<stop stop-color="#00C0B4"/>
<stop offset="1" stop-color="#29C9F3"/>
</linearGradient>
</defs>
</svg>
