<svg width="20" height="20" viewBox="0 0 20 20" fill="none" xmlns="http://www.w3.org/2000/svg">
<path d="M14.6774 4.16382C14.0781 4.16382 13.5769 4.6391 13.5769 5.22001C13.5769 5.81147 14.0672 6.28676 14.6774 6.28676C15.2875 6.28676 15.7778 5.81147 15.7778 5.22001C15.7778 4.6391 15.2875 4.16382 14.6774 4.16382Z" fill="url(#paint0_linear_1_369)"/>
<path d="M9.80623 5.52612C7.26754 5.52612 5.20825 7.52231 5.20825 9.98323C5.20825 12.4441 7.26754 14.4403 9.80623 14.4403C12.3449 14.4403 14.4042 12.4441 14.4042 9.98323C14.4042 7.53288 12.3449 5.52612 9.80623 5.52612ZM9.80623 12.8455C8.18278 12.8455 6.86438 11.5675 6.86438 9.99379C6.86438 8.42007 8.18278 7.14208 9.80623 7.14208C11.4297 7.14208 12.748 8.42007 12.748 9.99379C12.7589 11.5675 11.4297 12.8455 9.80623 12.8455Z" fill="url(#paint1_linear_1_369)"/>
<path d="M13.4571 19.0452H6.00443C2.91005 19.0452 0.393158 16.6054 0.393158 13.6059V6.37099C0.393158 3.37143 2.91005 0.931641 6.00443 0.931641H13.4571C16.5514 0.931641 19.0684 3.37143 19.0684 6.37099V13.5953C19.0684 16.6054 16.5514 19.0452 13.4571 19.0452ZM6.00443 2.64265C3.87977 2.64265 2.14735 4.32199 2.14735 6.38155V13.6059C2.14735 15.6654 3.87977 17.3448 6.00443 17.3448H13.4571C15.5817 17.3448 17.3141 15.6654 17.3141 13.6059V6.37099C17.3141 4.31143 15.5817 2.6321 13.4571 2.6321H6.00443V2.64265Z" fill="url(#paint2_linear_1_369)"/>
<defs>
<linearGradient id="paint0_linear_1_369" x1="13.5769" y1="5.73295" x2="15.7779" y2="5.73595" gradientUnits="userSpaceOnUse">
<stop stop-color="#00C0B4"/>
<stop offset="1" stop-color="#29C9F3"/>
</linearGradient>
<linearGradient id="paint1_linear_1_369" x1="5.20825" y1="12.1149" x2="14.4043" y2="12.1274" gradientUnits="userSpaceOnUse">
<stop stop-color="#00C0B4"/>
<stop offset="1" stop-color="#29C9F3"/>
</linearGradient>
<linearGradient id="paint2_linear_1_369" x1="0.393158" y1="14.3199" x2="19.0685" y2="14.3452" gradientUnits="userSpaceOnUse">
<stop stop-color="#00C0B4"/>
<stop offset="1" stop-color="#29C9F3"/>
</linearGradient>
</defs>
</svg>
