<svg width="219" height="42" viewBox="0 0 219 42" fill="none" xmlns="http://www.w3.org/2000/svg">
<path d="M65.3838 7.79994H76.3998C79.0878 7.79994 81.4758 8.32794 83.5638 9.38394C85.6518 10.4159 87.2718 11.8919 88.4238 13.8119C89.5758 15.7079 90.1518 17.9039 90.1518 20.3999C90.1518 22.8959 89.5758 25.1039 88.4238 27.0239C87.2718 28.9199 85.6518 30.3959 83.5638 31.4519C81.4758 32.4839 79.0878 32.9999 76.3998 32.9999H65.3838V7.79994ZM76.1838 29.0399C78.0318 29.0399 79.6518 28.6919 81.0438 27.9959C82.4598 27.2759 83.5398 26.2679 84.2838 24.9719C85.0518 23.6519 85.4358 22.1279 85.4358 20.3999C85.4358 18.6719 85.0518 17.1599 84.2838 15.8639C83.5398 14.5439 82.4598 13.5359 81.0438 12.8399C79.6518 12.1199 78.0318 11.7599 76.1838 11.7599H70.0638V29.0399H76.1838Z" fill="white"/>
<path d="M111.898 33.3599C109.33 33.3599 107.014 32.8079 104.95 31.7039C102.886 30.5759 101.266 29.0279 100.09 27.0599C98.914 25.0679 98.326 22.8479 98.326 20.3999C98.326 17.9519 98.914 15.7439 100.09 13.7759C101.266 11.7839 102.886 10.2359 104.95 9.13194C107.014 8.00394 109.33 7.43994 111.898 7.43994C114.466 7.43994 116.782 8.00394 118.846 9.13194C120.91 10.2359 122.53 11.7719 123.706 13.7399C124.882 15.7079 125.47 17.9279 125.47 20.3999C125.47 22.8719 124.882 25.0919 123.706 27.0599C122.53 29.0279 120.91 30.5759 118.846 31.7039C116.782 32.8079 114.466 33.3599 111.898 33.3599ZM111.898 29.2559C113.578 29.2559 115.09 28.8839 116.434 28.1399C117.778 27.3719 118.834 26.3159 119.602 24.9719C120.37 23.6039 120.754 22.0799 120.754 20.3999C120.754 18.7199 120.37 17.2079 119.602 15.8639C118.834 14.4959 117.778 13.4399 116.434 12.6959C115.09 11.9279 113.578 11.5439 111.898 11.5439C110.218 11.5439 108.706 11.9279 107.362 12.6959C106.018 13.4399 104.962 14.4959 104.194 15.8639C103.426 17.2079 103.042 18.7199 103.042 20.3999C103.042 22.0799 103.426 23.6039 104.194 24.9719C104.962 26.3159 106.018 27.3719 107.362 28.1399C108.706 28.8839 110.218 29.2559 111.898 29.2559Z" fill="white"/>
<path d="M151.919 32.9999L146.771 25.6199C146.555 25.6439 146.231 25.6559 145.799 25.6559H140.111V32.9999H135.431V7.79994H145.799C147.983 7.79994 149.879 8.15994 151.487 8.87994C153.119 9.59994 154.367 10.6319 155.231 11.9759C156.095 13.3199 156.527 14.9159 156.527 16.7639C156.527 18.6599 156.059 20.2919 155.123 21.6599C154.211 23.0279 152.891 24.0479 151.163 24.7199L156.959 32.9999H151.919ZM151.811 16.7639C151.811 15.1559 151.283 13.9199 150.227 13.0559C149.171 12.1919 147.623 11.7599 145.583 11.7599H140.111V21.8039H145.583C147.623 21.8039 149.171 21.3719 150.227 20.5079C151.283 19.6199 151.811 18.3719 151.811 16.7639Z" fill="white"/>
<path d="M177.599 33.3599C174.119 33.3599 171.407 32.3879 169.463 30.4439C167.519 28.4759 166.547 25.6679 166.547 22.0199V7.79994H171.227V21.8399C171.227 26.7839 173.363 29.2559 177.635 29.2559C181.883 29.2559 184.007 26.7839 184.007 21.8399V7.79994H188.615V22.0199C188.615 25.6679 187.643 28.4759 185.699 30.4439C183.779 32.3879 181.079 33.3599 177.599 33.3599Z" fill="white"/>
<path d="M207.981 33.3599C206.037 33.3599 204.153 33.0839 202.329 32.5319C200.529 31.9799 199.101 31.2479 198.045 30.3359L199.665 26.6999C200.697 27.5159 201.957 28.1879 203.445 28.7159C204.957 29.2199 206.469 29.4719 207.981 29.4719C209.853 29.4719 211.245 29.1719 212.157 28.5719C213.093 27.9719 213.561 27.1799 213.561 26.1959C213.561 25.4759 213.297 24.8879 212.769 24.4319C212.265 23.9519 211.617 23.5799 210.825 23.3159C210.033 23.0519 208.953 22.7519 207.585 22.4159C205.665 21.9599 204.105 21.5039 202.905 21.0479C201.729 20.5919 200.709 19.8839 199.845 18.9239C199.005 17.9399 198.585 16.6199 198.585 14.9639C198.585 13.5719 198.957 12.3119 199.701 11.1839C200.469 10.0319 201.609 9.11994 203.121 8.44794C204.657 7.77594 206.529 7.43994 208.737 7.43994C210.273 7.43994 211.785 7.63194 213.273 8.01594C214.761 8.39994 216.045 8.95194 217.125 9.67194L215.649 13.3079C214.545 12.6599 213.393 12.1679 212.193 11.8319C210.993 11.4959 209.829 11.3279 208.701 11.3279C206.853 11.3279 205.473 11.6399 204.561 12.2639C203.673 12.8879 203.229 13.7159 203.229 14.7479C203.229 15.4679 203.481 16.0559 203.985 16.5119C204.513 16.9679 205.173 17.3279 205.965 17.5919C206.757 17.8559 207.837 18.1559 209.205 18.4919C211.077 18.9239 212.613 19.3799 213.813 19.8599C215.013 20.3159 216.033 21.0239 216.873 21.9839C217.737 22.9439 218.169 24.2399 218.169 25.8719C218.169 27.2639 217.785 28.5239 217.017 29.6519C216.273 30.7799 215.133 31.6799 213.597 32.3519C212.061 33.0239 210.189 33.3599 207.981 33.3599Z" fill="white"/>
<path d="M0 42H14.8602C14.9763 41.7667 14.9763 41.4167 14.9763 41.1833C14.9763 39.9 14.2797 38.9667 13.0026 38.5C11.7256 38.0333 9.63588 37.5667 6.73351 37.1C4.06332 36.6333 1.74142 36.1667 0 35.7V42H0ZM43.1873 15.1667C42.2586 15.6333 41.562 16.45 41.0976 17.3833C40.6332 18.3167 40.285 19.4833 40.285 20.65C40.285 21.9333 40.5172 22.9833 41.0976 23.9167C41.6781 24.85 42.3747 25.55 43.1873 26.1333L43.4195 26.25C43.7678 24.6167 44 22.8667 44 21C44 18.9 43.7678 16.9167 43.1873 15.1667ZM0 0.116667V6.3C1.74142 6.3 3.13456 5.71667 4.17942 4.55C5.34037 3.38333 5.80475 1.86667 5.80475 0H0V0.116667ZM10.5646 0.116667C10.5646 2.1 10.1003 3.85 9.1715 5.36667C8.35884 7 7.08179 8.16667 5.45646 9.1C3.83113 9.91667 2.08971 10.3833 0 10.3833V15.9833C2.3219 15.05 5.22427 14.5833 8.47493 14.5833C10.3325 14.5833 12.19 14.7 14.0475 15.05V11.0833H19.9683C22.9868 11.0833 25.4248 11.9 27.1662 13.65C29.0237 15.4 29.8364 17.85 29.8364 21C29.8364 24.15 28.9076 26.6 27.1662 28.35C25.3087 30.1 22.9868 30.9167 19.9683 30.9167H14.0475V22.1667C12.3061 21.7 10.4485 21.4667 8.35884 21.4667C5.80475 21.4667 3.94723 21.8167 2.67018 22.6333C1.39314 23.3333 0.69657 24.3833 0.69657 25.6667C0.69657 27.0667 1.39314 28 2.78628 28.5833C4.17942 29.1667 6.38522 29.75 9.2876 30.2167C12.19 30.6833 14.628 31.15 16.4855 31.85C18.343 32.4333 19.9683 33.4833 21.3615 34.8833C22.7546 36.2833 23.3351 38.3833 23.3351 40.95C23.3351 41.3 23.3351 41.65 23.3351 42C26.8179 41.7667 30.0686 40.95 32.8549 39.55C34.4802 38.7333 35.9894 37.8 37.3826 36.6333V31.0333H41.7942C41.9103 30.8 42.0264 30.6833 42.0264 30.45C41.4459 30.2167 40.9815 29.9833 40.5172 29.75C39.0079 28.9333 37.7309 27.65 36.9182 26.1333C35.9894 24.6167 35.6412 22.75 35.6412 20.7667C35.6412 18.7833 36.1055 16.9167 36.9182 15.4C37.3826 14.4667 38.0792 13.7667 38.7757 13.0667H38.3113V6.41667C36.8021 4.9 34.9446 3.61667 32.8549 2.68333C29.2559 0.933333 25.1926 0.116667 20.5488 0.116667H10.5646Z" fill="url(#paint0_linear_1_178)"/>
<defs>
<linearGradient id="paint0_linear_1_178" x1="1.673e-07" y1="31.0435" x2="44.0003" y2="31.1041" gradientUnits="userSpaceOnUse">
<stop stop-color="#00C0B4"/>
<stop offset="1" stop-color="#29C9F3"/>
</linearGradient>
</defs>
</svg>
