<svg width="516" height="292" viewBox="0 0 516 292" fill="none" xmlns="http://www.w3.org/2000/svg">
<g style="mix-blend-mode:screen">
<path d="M99 291.549H201.484C202.285 289.929 202.285 287.5 202.285 285.88C202.285 276.972 197.481 270.493 188.674 267.253C179.866 264.014 165.455 260.774 145.438 257.535C127.023 254.296 111.01 251.056 99 247.817V291.549ZM396.844 105.282C390.439 108.521 385.635 114.19 382.433 120.669C379.23 127.148 376.828 135.246 376.828 143.345C376.828 152.253 378.429 159.542 382.433 166.021C386.436 172.5 391.24 177.359 396.844 181.408L398.446 182.218C400.848 170.88 402.449 158.732 402.449 145.775C402.449 131.197 400.848 117.429 396.844 105.282ZM99 0.809858V43.7323C111.01 43.7323 120.618 39.6831 127.824 31.5845C135.83 23.4859 139.033 12.9577 139.033 0H99V0.809858ZM171.86 0.809858C171.86 14.5774 168.657 26.7253 162.252 37.2535C156.647 48.5915 147.84 56.6901 136.631 63.1689C125.422 68.838 113.412 72.0774 99 72.0774V110.951C115.013 104.472 135.03 101.232 157.448 101.232C170.258 101.232 183.069 102.042 195.879 104.472V76.9365H236.713C257.53 76.9365 274.344 82.6056 286.354 94.7534C299.164 106.901 304.769 123.908 304.769 145.775C304.769 167.641 298.364 184.648 286.354 196.796C273.543 208.943 257.53 214.612 236.713 214.612H195.879V153.873C183.87 150.634 171.059 149.014 156.647 149.014C139.033 149.014 126.222 151.443 117.415 157.113C108.608 161.972 103.804 169.26 103.804 178.169C103.804 187.887 108.608 194.366 118.216 198.415C127.824 202.465 143.036 206.514 163.053 209.753C183.069 212.993 199.883 216.232 212.693 221.091C225.504 225.141 236.713 232.429 246.321 242.148C255.929 251.866 259.932 266.443 259.932 284.26V291.549C283.952 289.929 306.37 284.26 325.586 274.542C336.795 268.873 347.204 262.394 356.812 254.296V215.422H387.236C387.451 214.988 387.666 214.612 387.865 214.264C388.409 213.31 388.838 212.559 388.838 211.373C384.835 209.753 381.632 208.134 378.43 206.514L378.429 206.514C368.021 200.845 359.213 191.936 353.609 181.408C347.204 170.88 344.802 157.922 344.802 144.155C344.802 130.387 348.004 117.429 353.609 106.901C356.812 100.422 361.615 95.5633 366.419 90.7041H363.217V44.5422C352.808 34.014 339.998 25.1056 325.586 18.6267C300.766 6.47887 272.743 0.809858 240.716 0.809858H171.86Z" fill="url(#paint0_linear_1_28)" fill-opacity="0.35"/>
<path d="M99 291.549H201.484C202.285 289.929 202.285 287.5 202.285 285.88C202.285 276.972 197.481 270.493 188.674 267.253C179.866 264.014 165.455 260.774 145.438 257.535C127.023 254.296 111.01 251.056 99 247.817V291.549ZM396.844 105.282C390.439 108.521 385.635 114.19 382.433 120.669C379.23 127.148 376.828 135.246 376.828 143.345C376.828 152.253 378.429 159.542 382.433 166.021C386.436 172.5 391.24 177.359 396.844 181.408L398.446 182.218C400.848 170.88 402.449 158.732 402.449 145.775C402.449 131.197 400.848 117.429 396.844 105.282ZM99 0.809858V43.7323C111.01 43.7323 120.618 39.6831 127.824 31.5845C135.83 23.4859 139.033 12.9577 139.033 0H99V0.809858ZM171.86 0.809858C171.86 14.5774 168.657 26.7253 162.252 37.2535C156.647 48.5915 147.84 56.6901 136.631 63.1689C125.422 68.838 113.412 72.0774 99 72.0774V110.951C115.013 104.472 135.03 101.232 157.448 101.232C170.258 101.232 183.069 102.042 195.879 104.472V76.9365H236.713C257.53 76.9365 274.344 82.6056 286.354 94.7534C299.164 106.901 304.769 123.908 304.769 145.775C304.769 167.641 298.364 184.648 286.354 196.796C273.543 208.943 257.53 214.612 236.713 214.612H195.879V153.873C183.87 150.634 171.059 149.014 156.647 149.014C139.033 149.014 126.222 151.443 117.415 157.113C108.608 161.972 103.804 169.26 103.804 178.169C103.804 187.887 108.608 194.366 118.216 198.415C127.824 202.465 143.036 206.514 163.053 209.753C183.069 212.993 199.883 216.232 212.693 221.091C225.504 225.141 236.713 232.429 246.321 242.148C255.929 251.866 259.932 266.443 259.932 284.26V291.549C283.952 289.929 306.37 284.26 325.586 274.542C336.795 268.873 347.204 262.394 356.812 254.296V215.422H387.236C387.451 214.988 387.666 214.612 387.865 214.264C388.409 213.31 388.838 212.559 388.838 211.373C384.835 209.753 381.632 208.134 378.43 206.514L378.429 206.514C368.021 200.845 359.213 191.936 353.609 181.408C347.204 170.88 344.802 157.922 344.802 144.155C344.802 130.387 348.004 117.429 353.609 106.901C356.812 100.422 361.615 95.5633 366.419 90.7041H363.217V44.5422C352.808 34.014 339.998 25.1056 325.586 18.6267C300.766 6.47887 272.743 0.809858 240.716 0.809858H171.86Z" stroke="url(#paint1_linear_1_28)"/>
</g>
<g style="mix-blend-mode:screen" opacity="0.4">
<path d="M0 78.8235H21.0289C21.1932 78.4912 21.1932 77.9926 21.1932 77.6603C21.1932 75.8324 20.2075 74.5029 18.4003 73.8382C16.5931 73.1735 13.6359 72.5088 9.52873 71.8441C5.75009 71.1794 2.46433 70.5147 0 69.85V78.8235ZM61.1153 40.6029C59.801 41.2676 58.8153 42.4309 58.1581 43.7603C57.5009 45.0897 57.0081 46.7515 57.0081 48.4132C57.0081 50.2412 57.3367 51.7368 58.1581 53.0662C58.9795 54.3956 59.9653 55.3926 61.1153 56.2235L61.4439 56.3897C61.9367 54.0632 62.2653 51.5706 62.2653 48.9118C62.2653 45.9206 61.9367 43.0956 61.1153 40.6029ZM0 19.1662V27.9735C2.46433 27.9735 4.43579 27.1426 5.91438 25.4809C7.55727 23.8191 8.21442 21.6588 8.21442 19H0V19.1662ZM14.9502 19.1662C14.9502 21.9912 14.2931 24.4838 12.9788 26.6441C11.8288 28.9706 10.0216 30.6324 7.72155 31.9618C5.42152 33.125 2.95719 33.7897 0 33.7897V41.7662C3.28577 40.4368 7.39298 39.7721 11.9931 39.7721C14.6217 39.7721 17.2503 39.9382 19.8789 40.4368V34.7868H28.2576C32.5291 34.7868 35.9792 35.95 38.4435 38.4426C41.0721 40.9353 42.2221 44.425 42.2221 48.9118C42.2221 53.3985 40.9078 56.8882 38.4435 59.3809C35.8149 61.8735 32.5291 63.0368 28.2576 63.0368H19.8789V50.5735C17.4146 49.9088 14.786 49.5765 11.8288 49.5765C8.21442 49.5765 5.58581 50.075 3.77863 51.2382C1.97146 52.2353 0.98573 53.7309 0.98573 55.5588C0.98573 57.5529 1.97146 58.8824 3.94292 59.7132C5.91438 60.5441 9.03586 61.375 13.1431 62.0397C17.2503 62.7044 20.7003 63.3691 23.329 64.3662C25.9576 65.1971 28.2576 66.6926 30.2291 68.6868C32.2005 70.6809 33.022 73.6721 33.022 77.3279V78.8235C37.9506 78.4912 42.5507 77.3279 46.4936 75.3338C48.7937 74.1706 50.9294 72.8412 52.9009 71.1794V63.2029H59.1438C59.1878 63.1139 59.2319 63.0368 59.2727 62.9652C59.3844 62.7696 59.4724 62.6154 59.4724 62.3721C58.651 62.0397 57.9938 61.7074 57.3367 61.375C55.2009 60.2118 53.3937 58.3838 52.2437 56.2235C50.9294 54.0632 50.4365 51.4044 50.4365 48.5794C50.4365 45.7544 51.0937 43.0956 52.2437 40.9353C52.9009 39.6059 53.8866 38.6088 54.8723 37.6118H54.2152V28.1397C52.0794 25.9794 49.4508 24.1515 46.4936 22.8221C41.4007 20.3294 35.6506 19.1662 29.079 19.1662H14.9502Z" fill="url(#paint2_linear_1_28)" fill-opacity="0.35"/>
<path d="M0 78.8235H21.0289C21.1932 78.4912 21.1932 77.9926 21.1932 77.6603C21.1932 75.8324 20.2075 74.5029 18.4003 73.8382C16.5931 73.1735 13.6359 72.5088 9.52873 71.8441C5.75009 71.1794 2.46433 70.5147 0 69.85V78.8235ZM61.1153 40.6029C59.801 41.2676 58.8153 42.4309 58.1581 43.7603C57.5009 45.0897 57.0081 46.7515 57.0081 48.4132C57.0081 50.2412 57.3367 51.7368 58.1581 53.0662C58.9795 54.3956 59.9653 55.3926 61.1153 56.2235L61.4439 56.3897C61.9367 54.0632 62.2653 51.5706 62.2653 48.9118C62.2653 45.9206 61.9367 43.0956 61.1153 40.6029ZM0 19.1662V27.9735C2.46433 27.9735 4.43579 27.1426 5.91438 25.4809C7.55727 23.8191 8.21442 21.6588 8.21442 19H0V19.1662ZM14.9502 19.1662C14.9502 21.9912 14.2931 24.4838 12.9788 26.6441C11.8288 28.9706 10.0216 30.6324 7.72155 31.9618C5.42152 33.125 2.95719 33.7897 0 33.7897V41.7662C3.28577 40.4368 7.39298 39.7721 11.9931 39.7721C14.6217 39.7721 17.2503 39.9382 19.8789 40.4368V34.7868H28.2576C32.5291 34.7868 35.9792 35.95 38.4435 38.4426C41.0721 40.9353 42.2221 44.425 42.2221 48.9118C42.2221 53.3985 40.9078 56.8882 38.4435 59.3809C35.8149 61.8735 32.5291 63.0368 28.2576 63.0368H19.8789V50.5735C17.4146 49.9088 14.786 49.5765 11.8288 49.5765C8.21442 49.5765 5.58581 50.075 3.77863 51.2382C1.97146 52.2353 0.98573 53.7309 0.98573 55.5588C0.98573 57.5529 1.97146 58.8824 3.94292 59.7132C5.91438 60.5441 9.03586 61.375 13.1431 62.0397C17.2503 62.7044 20.7003 63.3691 23.329 64.3662C25.9576 65.1971 28.2576 66.6926 30.2291 68.6868C32.2005 70.6809 33.022 73.6721 33.022 77.3279V78.8235C37.9506 78.4912 42.5507 77.3279 46.4936 75.3338C48.7937 74.1706 50.9294 72.8412 52.9009 71.1794V63.2029H59.1438C59.1878 63.1139 59.2319 63.0368 59.2727 62.9652C59.3844 62.7696 59.4724 62.6154 59.4724 62.3721C58.651 62.0397 57.9938 61.7074 57.3367 61.375C55.2009 60.2118 53.3937 58.3838 52.2437 56.2235C50.9294 54.0632 50.4365 51.4044 50.4365 48.5794C50.4365 45.7544 51.0937 43.0956 52.2437 40.9353C52.9009 39.6059 53.8866 38.6088 54.8723 37.6118H54.2152V28.1397C52.0794 25.9794 49.4508 24.1515 46.4936 22.8221C41.4007 20.3294 35.6506 19.1662 29.079 19.1662H14.9502Z" stroke="url(#paint3_linear_1_28)"/>
</g>
<g style="mix-blend-mode:screen" opacity="0.5">
<path d="M420 287.235H452.422C452.675 286.723 452.675 285.954 452.675 285.442C452.675 282.624 451.156 280.574 448.369 279.549C445.583 278.524 441.024 277.499 434.691 276.475C428.865 275.45 423.799 274.425 420 273.4V287.235ZM514.227 228.307C512.201 229.332 510.681 231.125 509.668 233.175C508.654 235.225 507.894 237.787 507.894 240.349C507.894 243.167 508.401 245.473 509.668 247.523C510.934 249.573 512.454 251.11 514.227 252.391L514.734 252.647C515.493 249.06 516 245.217 516 241.118C516 236.506 515.493 232.15 514.227 228.307ZM420 195.256V208.835C423.799 208.835 426.839 207.554 429.119 204.992C431.652 202.43 432.665 199.099 432.665 195H420V195.256ZM443.05 195.256C443.05 199.612 442.037 203.455 440.011 206.786C438.237 210.373 435.451 212.935 431.905 214.984C428.359 216.778 424.559 217.803 420 217.803V230.101C425.066 228.051 431.398 227.026 438.491 227.026C442.544 227.026 446.596 227.282 450.649 228.051V219.34H463.567C470.153 219.34 475.472 221.133 479.272 224.976C483.325 228.82 485.098 234.2 485.098 241.118C485.098 248.035 483.071 253.416 479.272 257.259C475.219 261.102 470.153 262.895 463.567 262.895H450.649V243.68C446.85 242.655 442.797 242.142 438.237 242.142C432.665 242.142 428.612 242.911 425.826 244.705C423.04 246.242 421.52 248.548 421.52 251.366C421.52 254.441 423.04 256.49 426.079 257.771C429.119 259.052 433.931 260.333 440.264 261.358C446.596 262.383 451.916 263.408 455.968 264.945C460.021 266.226 463.567 268.532 466.607 271.607C469.646 274.681 470.913 279.293 470.913 284.929V287.235C478.512 286.723 485.604 284.929 491.683 281.855C495.23 280.061 498.522 278.012 501.562 275.45V263.152H511.187C511.255 263.014 511.323 262.895 511.386 262.785C511.558 262.484 511.694 262.246 511.694 261.871C510.427 261.358 509.414 260.846 508.401 260.333C505.108 258.54 502.322 255.722 500.549 252.391C498.522 249.06 497.763 244.961 497.763 240.605C497.763 236.25 498.776 232.15 500.549 228.82C501.562 226.77 503.082 225.233 504.602 223.695L504.602 223.695H503.588V209.092C500.296 205.761 496.243 202.942 491.683 200.893C483.831 197.05 474.966 195.256 464.834 195.256H443.05Z" fill="url(#paint4_linear_1_28)" fill-opacity="0.35"/>
<path d="M420 287.235H452.422C452.675 286.723 452.675 285.954 452.675 285.442C452.675 282.624 451.156 280.574 448.369 279.549C445.583 278.524 441.024 277.499 434.691 276.475C428.865 275.45 423.799 274.425 420 273.4V287.235ZM514.227 228.307C512.201 229.332 510.681 231.125 509.668 233.175C508.654 235.225 507.894 237.787 507.894 240.349C507.894 243.167 508.401 245.473 509.668 247.523C510.934 249.573 512.454 251.11 514.227 252.391L514.734 252.647C515.493 249.06 516 245.217 516 241.118C516 236.506 515.493 232.15 514.227 228.307ZM420 195.256V208.835C423.799 208.835 426.839 207.554 429.119 204.992C431.652 202.43 432.665 199.099 432.665 195H420V195.256ZM443.05 195.256C443.05 199.612 442.037 203.455 440.011 206.786C438.237 210.373 435.451 212.935 431.905 214.984C428.359 216.778 424.559 217.803 420 217.803V230.101C425.066 228.051 431.398 227.026 438.491 227.026C442.544 227.026 446.596 227.282 450.649 228.051V219.34H463.567C470.153 219.34 475.472 221.133 479.272 224.976C483.325 228.82 485.098 234.2 485.098 241.118C485.098 248.035 483.071 253.416 479.272 257.259C475.219 261.102 470.153 262.895 463.567 262.895H450.649V243.68C446.85 242.655 442.797 242.142 438.237 242.142C432.665 242.142 428.612 242.911 425.826 244.705C423.04 246.242 421.52 248.548 421.52 251.366C421.52 254.441 423.04 256.49 426.079 257.771C429.119 259.052 433.931 260.333 440.264 261.358C446.596 262.383 451.916 263.408 455.968 264.945C460.021 266.226 463.567 268.532 466.607 271.607C469.646 274.681 470.913 279.293 470.913 284.929V287.235C478.512 286.723 485.604 284.929 491.683 281.855C495.23 280.061 498.522 278.012 501.562 275.45V263.152H511.187C511.255 263.014 511.323 262.895 511.386 262.785C511.558 262.484 511.694 262.246 511.694 261.871C510.427 261.358 509.414 260.846 508.401 260.333C505.108 258.54 502.322 255.722 500.549 252.391C498.522 249.06 497.763 244.961 497.763 240.605C497.763 236.25 498.776 232.15 500.549 228.82C501.562 226.77 503.082 225.233 504.602 223.695L504.602 223.695H503.588V209.092C500.296 205.761 496.243 202.942 491.683 200.893C483.831 197.05 474.966 195.256 464.834 195.256H443.05Z" stroke="url(#paint5_linear_1_28)"/>
</g>
<defs>
<linearGradient id="paint0_linear_1_28" x1="99" y1="0" x2="454.088" y2="132.793" gradientUnits="userSpaceOnUse">
<stop stop-color="#316EFF"/>
<stop offset="1" stop-color="#D4008C"/>
</linearGradient>
<linearGradient id="paint1_linear_1_28" x1="99" y1="0" x2="454.088" y2="132.793" gradientUnits="userSpaceOnUse">
<stop stop-color="#316EFF"/>
<stop offset="1" stop-color="#D4008C"/>
</linearGradient>
<linearGradient id="paint2_linear_1_28" x1="0" y1="19" x2="72.8612" y2="46.248" gradientUnits="userSpaceOnUse">
<stop stop-color="#316EFF"/>
<stop offset="1" stop-color="#D4008C"/>
</linearGradient>
<linearGradient id="paint3_linear_1_28" x1="0" y1="19" x2="72.8612" y2="46.248" gradientUnits="userSpaceOnUse">
<stop stop-color="#316EFF"/>
<stop offset="1" stop-color="#D4008C"/>
</linearGradient>
<linearGradient id="paint4_linear_1_28" x1="420" y1="195" x2="532.337" y2="237.011" gradientUnits="userSpaceOnUse">
<stop stop-color="#316EFF"/>
<stop offset="1" stop-color="#D4008C"/>
</linearGradient>
<linearGradient id="paint5_linear_1_28" x1="420" y1="195" x2="532.337" y2="237.011" gradientUnits="userSpaceOnUse">
<stop stop-color="#316EFF"/>
<stop offset="1" stop-color="#D4008C"/>
</linearGradient>
</defs>
</svg>
