<svg width="20" height="15" viewBox="0 0 20 15" fill="none" xmlns="http://www.w3.org/2000/svg">
<path d="M19.0088 2.10498C18.401 2.36015 17.7336 2.51547 17.0901 2.61532C17.4 2.57094 17.8528 2.04951 18.0316 1.83872C18.3057 1.51698 18.5441 1.15087 18.6752 0.751471C18.6871 0.718188 18.699 0.684912 18.6752 0.662723C18.6394 0.651629 18.6037 0.651623 18.5679 0.673811C17.8409 1.03992 17.0901 1.2951 16.2916 1.4837C16.2201 1.4948 16.1725 1.4837 16.1367 1.45042C16.0652 1.38385 16.0056 1.31728 15.9341 1.26181C15.6004 0.995545 15.2429 0.784754 14.8258 0.629433C14.2895 0.429735 13.7055 0.340985 13.1335 0.374268C12.5734 0.407551 12.0251 0.551774 11.5246 0.79585C11.0241 1.03992 10.5831 1.37275 10.2256 1.78324C9.85615 2.20483 9.59394 2.70408 9.45092 3.22551C9.31983 3.73585 9.33175 4.23509 9.41517 4.74543C9.42709 4.83418 9.4152 4.84528 9.33178 4.83418C6.19746 4.4015 3.61133 3.35864 1.50192 1.12868C1.40658 1.02883 1.35892 1.02883 1.28742 1.13977C0.369764 2.42671 0.810686 4.49026 1.96669 5.51094C2.12162 5.64407 2.27658 5.7772 2.44342 5.91034C2.38383 5.92143 1.62109 5.84377 0.929868 5.51094C0.834527 5.45547 0.786863 5.48875 0.786863 5.5886C0.774945 5.73282 0.786849 5.85487 0.810685 6.01019C0.989448 7.30822 1.95479 8.5175 3.28956 8.99456C3.44449 9.06112 3.62323 9.1055 3.79008 9.13879C3.49214 9.20535 3.17038 9.24972 2.31231 9.18316C2.20505 9.16097 2.15739 9.21644 2.20506 9.3052C2.86052 10.9583 4.26682 11.4464 5.31556 11.7349C5.45857 11.757 5.60157 11.757 5.74458 11.7903C5.73266 11.8014 5.73267 11.8014 5.72076 11.8125C5.37515 12.3118 4.15955 12.6779 3.59943 12.8665C2.57452 13.1993 1.45424 13.3546 0.36974 13.2548C0.190977 13.2326 0.155222 13.2326 0.107552 13.2548C0.0598819 13.277 0.0956448 13.3213 0.155233 13.3657C0.369749 13.4989 0.59618 13.6209 0.822614 13.7318C1.51383 14.0758 2.22888 14.342 2.97969 14.5306C6.86482 15.5291 11.2266 14.7969 14.1465 12.101C16.4346 9.98196 17.2331 7.06415 17.2331 4.14634C17.2331 4.0354 17.3761 3.96882 17.4595 3.91335C18.0554 3.49177 18.5321 3.00362 18.9731 2.43781C19.0684 2.31578 19.0684 2.20483 19.0684 2.16046C19.0684 2.14936 19.0684 2.14936 19.0684 2.14936C19.0923 2.0606 19.0923 2.0717 19.0088 2.10498Z" fill="url(#paint0_linear_1_361)"/>
<defs>
<linearGradient id="paint0_linear_1_361" x1="0.0854645" y1="11.1512" x2="19.0823" y2="11.1837" gradientUnits="userSpaceOnUse">
<stop stop-color="#00C0B4"/>
<stop offset="1" stop-color="#29C9F3"/>
</linearGradient>
</defs>
</svg>
