<svg width="430" height="430" viewBox="0 0 430 430" fill="none" xmlns="http://www.w3.org/2000/svg">
<g opacity="0.2" filter="url(#filter0_d_1_2579)">
<circle cx="215" cy="195" r="165" fill="url(#paint0_linear_1_2579)"/>
</g>
<g filter="url(#filter1_d_1_2579)">
<circle cx="215" cy="195" r="144" fill="url(#paint1_linear_1_2579)"/>
</g>
<path d="M187.564 136.6L180.3 159H173.516L169.228 145.368L164.748 159H157.964L150.7 136.6H157.228L161.74 150.904L166.476 136.6H172.3L176.812 151.032L181.516 136.6H187.564ZM206.993 150.36C206.993 150.403 206.961 150.904 206.897 151.864H194.289C194.545 152.76 195.035 153.453 195.76 153.944C196.507 154.413 197.435 154.648 198.545 154.648C199.377 154.648 200.091 154.531 200.689 154.296C201.307 154.061 201.926 153.677 202.545 153.144L205.745 156.472C204.059 158.349 201.595 159.288 198.353 159.288C196.326 159.288 194.545 158.904 193.009 158.136C191.473 157.368 190.278 156.301 189.424 154.936C188.593 153.571 188.177 152.024 188.177 150.296C188.177 148.589 188.582 147.064 189.393 145.72C190.225 144.355 191.366 143.288 192.817 142.52C194.267 141.752 195.899 141.368 197.713 141.368C199.441 141.368 201.009 141.731 202.417 142.456C203.825 143.16 204.934 144.195 205.745 145.56C206.577 146.904 206.993 148.504 206.993 150.36ZM197.745 145.688C196.806 145.688 196.017 145.955 195.377 146.488C194.758 147.021 194.363 147.747 194.193 148.664H201.297C201.126 147.747 200.721 147.021 200.081 146.488C199.462 145.955 198.683 145.688 197.745 145.688ZM217.719 141.368C220.599 141.368 222.796 142.029 224.311 143.352C225.826 144.653 226.583 146.659 226.583 149.368V159H220.919V156.76C220.044 158.445 218.338 159.288 215.799 159.288C214.455 159.288 213.292 159.053 212.311 158.584C211.33 158.115 210.583 157.485 210.071 156.696C209.58 155.885 209.335 154.968 209.335 153.944C209.335 152.301 209.964 151.032 211.223 150.136C212.482 149.219 214.423 148.76 217.047 148.76H220.503C220.396 146.925 219.17 146.008 216.823 146.008C215.991 146.008 215.148 146.147 214.295 146.424C213.442 146.68 212.716 147.043 212.119 147.512L210.071 143.384C211.031 142.744 212.194 142.253 213.559 141.912C214.946 141.549 216.332 141.368 217.719 141.368ZM217.495 155.448C218.199 155.448 218.818 155.277 219.351 154.936C219.884 154.595 220.268 154.093 220.503 153.432V151.928H217.879C216.108 151.928 215.223 152.515 215.223 153.688C215.223 154.221 215.426 154.648 215.831 154.968C216.236 155.288 216.791 155.448 217.495 155.448ZM231.421 135.256H237.501V159H231.421V135.256ZM256.139 158.296C255.627 158.616 254.997 158.861 254.251 159.032C253.525 159.203 252.747 159.288 251.915 159.288C249.653 159.288 247.915 158.733 246.699 157.624C245.483 156.515 244.875 154.861 244.875 152.664V146.84H242.347V142.296H244.875V137.784H250.955V142.296H254.923V146.84H250.955V152.6C250.955 153.219 251.115 153.709 251.435 154.072C251.776 154.413 252.224 154.584 252.779 154.584C253.483 154.584 254.101 154.403 254.635 154.04L256.139 158.296ZM270.779 141.368C272.934 141.368 274.662 142.008 275.963 143.288C277.286 144.568 277.947 146.499 277.947 149.08V159H271.867V150.072C271.867 147.704 270.918 146.52 269.019 146.52C267.974 146.52 267.131 146.861 266.491 147.544C265.873 148.227 265.563 149.251 265.563 150.616V159H259.483V135.256H265.563V143.256C266.225 142.637 267.003 142.168 267.899 141.848C268.795 141.528 269.755 141.368 270.779 141.368ZM119.386 204L119.322 192.128L113.562 201.792H110.746L105.018 192.448V204H99.1619V181.6H104.378L112.25 194.528L119.93 181.6H125.146L125.21 204H119.386ZM137.797 186.368C140.677 186.368 142.874 187.029 144.389 188.352C145.904 189.653 146.661 191.659 146.661 194.368V204H140.997V201.76C140.122 203.445 138.416 204.288 135.877 204.288C134.533 204.288 133.37 204.053 132.389 203.584C131.408 203.115 130.661 202.485 130.149 201.696C129.658 200.885 129.413 199.968 129.413 198.944C129.413 197.301 130.042 196.032 131.301 195.136C132.56 194.219 134.501 193.76 137.125 193.76H140.581C140.474 191.925 139.248 191.008 136.901 191.008C136.069 191.008 135.226 191.147 134.373 191.424C133.52 191.68 132.794 192.043 132.197 192.512L130.149 188.384C131.109 187.744 132.272 187.253 133.637 186.912C135.024 186.549 136.41 186.368 137.797 186.368ZM137.573 200.448C138.277 200.448 138.896 200.277 139.429 199.936C139.962 199.595 140.346 199.093 140.581 198.432V196.928H137.957C136.186 196.928 135.301 197.515 135.301 198.688C135.301 199.221 135.504 199.648 135.909 199.968C136.314 200.288 136.869 200.448 137.573 200.448ZM162.795 186.368C164.95 186.368 166.678 187.008 167.979 188.288C169.302 189.568 169.963 191.499 169.963 194.08V204H163.883V195.072C163.883 192.704 162.934 191.52 161.035 191.52C159.99 191.52 159.147 191.861 158.507 192.544C157.888 193.227 157.579 194.251 157.579 195.616V204H151.499V186.656H157.291V188.544C157.974 187.84 158.784 187.307 159.723 186.944C160.662 186.56 161.686 186.368 162.795 186.368ZM182.172 186.368C185.052 186.368 187.249 187.029 188.764 188.352C190.279 189.653 191.036 191.659 191.036 194.368V204H185.372V201.76C184.497 203.445 182.791 204.288 180.252 204.288C178.908 204.288 177.745 204.053 176.764 203.584C175.783 203.115 175.036 202.485 174.524 201.696C174.033 200.885 173.788 199.968 173.788 198.944C173.788 197.301 174.417 196.032 175.676 195.136C176.935 194.219 178.876 193.76 181.5 193.76H184.956C184.849 191.925 183.623 191.008 181.276 191.008C180.444 191.008 179.601 191.147 178.748 191.424C177.895 191.68 177.169 192.043 176.572 192.512L174.524 188.384C175.484 187.744 176.647 187.253 178.012 186.912C179.399 186.549 180.785 186.368 182.172 186.368ZM181.948 200.448C182.652 200.448 183.271 200.277 183.804 199.936C184.337 199.595 184.721 199.093 184.956 198.432V196.928H182.332C180.561 196.928 179.676 197.515 179.676 198.688C179.676 199.221 179.879 199.648 180.284 199.968C180.689 200.288 181.244 200.448 181.948 200.448ZM214.78 186.656V200.832C214.78 204.053 213.905 206.464 212.156 208.064C210.407 209.685 207.889 210.496 204.604 210.496C202.897 210.496 201.297 210.304 199.804 209.92C198.311 209.536 197.041 208.971 195.996 208.224L198.204 203.968C198.908 204.544 199.793 204.992 200.86 205.312C201.948 205.653 203.015 205.824 204.06 205.824C205.66 205.824 206.833 205.472 207.58 204.768C208.327 204.064 208.7 203.019 208.7 201.632V201.056C207.527 202.421 205.809 203.104 203.548 203.104C202.012 203.104 200.593 202.763 199.292 202.08C197.991 201.376 196.956 200.395 196.188 199.136C195.42 197.856 195.036 196.384 195.036 194.72C195.036 193.077 195.42 191.627 196.188 190.368C196.956 189.088 197.991 188.107 199.292 187.424C200.593 186.72 202.012 186.368 203.548 186.368C206.023 186.368 207.836 187.168 208.988 188.768V186.656H214.78ZM204.988 198.272C206.076 198.272 206.972 197.941 207.676 197.28C208.401 196.619 208.764 195.765 208.764 194.72C208.764 193.675 208.412 192.832 207.708 192.192C207.004 191.531 206.097 191.2 204.988 191.2C203.879 191.2 202.961 191.531 202.236 192.192C201.532 192.832 201.18 193.675 201.18 194.72C201.18 195.765 201.543 196.619 202.268 197.28C202.993 197.941 203.9 198.272 204.988 198.272ZM237.414 195.36C237.414 195.403 237.382 195.904 237.318 196.864H224.71C224.966 197.76 225.457 198.453 226.182 198.944C226.929 199.413 227.857 199.648 228.966 199.648C229.798 199.648 230.513 199.531 231.11 199.296C231.729 199.061 232.348 198.677 232.966 198.144L236.166 201.472C234.481 203.349 232.017 204.288 228.774 204.288C226.748 204.288 224.966 203.904 223.43 203.136C221.894 202.368 220.7 201.301 219.846 199.936C219.014 198.571 218.598 197.024 218.598 195.296C218.598 193.589 219.004 192.064 219.814 190.72C220.646 189.355 221.788 188.288 223.238 187.52C224.689 186.752 226.321 186.368 228.134 186.368C229.862 186.368 231.43 186.731 232.838 187.456C234.246 188.16 235.356 189.195 236.166 190.56C236.998 191.904 237.414 193.504 237.414 195.36ZM228.166 190.688C227.228 190.688 226.438 190.955 225.798 191.488C225.18 192.021 224.785 192.747 224.614 193.664H231.718C231.548 192.747 231.142 192.021 230.502 191.488C229.884 190.955 229.105 190.688 228.166 190.688ZM263.81 186.368C265.943 186.368 267.639 187.008 268.898 188.288C270.178 189.568 270.818 191.499 270.818 194.08V204H264.738V195.072C264.738 193.856 264.503 192.96 264.034 192.384C263.586 191.808 262.946 191.52 262.114 191.52C261.196 191.52 260.46 191.84 259.906 192.48C259.351 193.12 259.074 194.091 259.074 195.392V204H252.994V195.072C252.994 192.704 252.119 191.52 250.37 191.52C249.431 191.52 248.684 191.84 248.13 192.48C247.575 193.12 247.298 194.091 247.298 195.392V204H241.218V186.656H247.01V188.48C247.65 187.776 248.407 187.253 249.282 186.912C250.178 186.549 251.148 186.368 252.194 186.368C253.41 186.368 254.498 186.592 255.458 187.04C256.418 187.488 257.196 188.171 257.794 189.088C258.476 188.213 259.34 187.541 260.386 187.072C261.431 186.603 262.572 186.368 263.81 186.368ZM293.633 195.36C293.633 195.403 293.601 195.904 293.537 196.864H280.929C281.185 197.76 281.676 198.453 282.401 198.944C283.148 199.413 284.076 199.648 285.185 199.648C286.017 199.648 286.732 199.531 287.329 199.296C287.948 199.061 288.566 198.677 289.185 198.144L292.385 201.472C290.7 203.349 288.236 204.288 284.993 204.288C282.966 204.288 281.185 203.904 279.649 203.136C278.113 202.368 276.918 201.301 276.065 199.936C275.233 198.571 274.817 197.024 274.817 195.296C274.817 193.589 275.222 192.064 276.033 190.72C276.865 189.355 278.006 188.288 279.457 187.52C280.908 186.752 282.54 186.368 284.353 186.368C286.081 186.368 287.649 186.731 289.057 187.456C290.465 188.16 291.574 189.195 292.385 190.56C293.217 191.904 293.633 193.504 293.633 195.36ZM284.385 190.688C283.446 190.688 282.657 190.955 282.017 191.488C281.398 192.021 281.004 192.747 280.833 193.664H287.937C287.766 192.747 287.361 192.021 286.721 191.488C286.102 190.955 285.324 190.688 284.385 190.688ZM308.732 186.368C310.887 186.368 312.615 187.008 313.916 188.288C315.239 189.568 315.9 191.499 315.9 194.08V204H309.82V195.072C309.82 192.704 308.871 191.52 306.972 191.52C305.927 191.52 305.084 191.861 304.444 192.544C303.826 193.227 303.516 194.251 303.516 195.616V204H297.436V186.656H303.228V188.544C303.911 187.84 304.722 187.307 305.66 186.944C306.599 186.56 307.623 186.368 308.732 186.368ZM332.686 203.296C332.174 203.616 331.544 203.861 330.798 204.032C330.072 204.203 329.294 204.288 328.462 204.288C326.2 204.288 324.462 203.733 323.246 202.624C322.03 201.515 321.422 199.861 321.422 197.664V191.84H318.894V187.296H321.422V182.784H327.502V187.296H331.47V191.84H327.502V197.6C327.502 198.219 327.662 198.709 327.982 199.072C328.323 199.413 328.771 199.584 329.326 199.584C330.03 199.584 330.648 199.403 331.182 199.04L332.686 203.296ZM141.784 249.448C139.971 249.448 138.211 249.224 136.504 248.776C134.797 248.328 133.411 247.731 132.344 246.984L134.424 242.312C135.427 242.973 136.589 243.507 137.912 243.912C139.235 244.317 140.536 244.52 141.816 244.52C144.248 244.52 145.464 243.912 145.464 242.696C145.464 242.056 145.112 241.587 144.408 241.288C143.725 240.968 142.616 240.637 141.08 240.296C139.395 239.933 137.987 239.549 136.856 239.144C135.725 238.717 134.755 238.045 133.944 237.128C133.133 236.211 132.728 234.973 132.728 233.416C132.728 232.051 133.101 230.824 133.848 229.736C134.595 228.627 135.704 227.752 137.176 227.112C138.669 226.472 140.493 226.152 142.648 226.152C144.12 226.152 145.571 226.323 147 226.664C148.429 226.984 149.688 227.464 150.776 228.104L148.824 232.808C146.691 231.656 144.621 231.08 142.616 231.08C141.357 231.08 140.44 231.272 139.864 231.656C139.288 232.019 139 232.499 139 233.096C139 233.693 139.341 234.141 140.024 234.44C140.707 234.739 141.805 235.048 143.32 235.368C145.027 235.731 146.435 236.125 147.544 236.552C148.675 236.957 149.645 237.619 150.456 238.536C151.288 239.432 151.704 240.659 151.704 242.216C151.704 243.56 151.331 244.776 150.584 245.864C149.837 246.952 148.717 247.827 147.224 248.488C145.731 249.128 143.917 249.448 141.784 249.448ZM164.047 249.288C162.191 249.288 160.516 248.904 159.023 248.136C157.529 247.368 156.356 246.301 155.503 244.936C154.671 243.571 154.255 242.024 154.255 240.296C154.255 238.589 154.671 237.053 155.503 235.688C156.356 234.323 157.519 233.267 158.991 232.52C160.484 231.752 162.169 231.368 164.047 231.368C165.924 231.368 167.609 231.752 169.103 232.52C170.596 233.267 171.759 234.323 172.591 235.688C173.423 237.032 173.839 238.568 173.839 240.296C173.839 242.024 173.423 243.571 172.591 244.936C171.759 246.301 170.596 247.368 169.103 248.136C167.609 248.904 165.924 249.288 164.047 249.288ZM164.047 244.456C165.113 244.456 165.988 244.093 166.671 243.368C167.353 242.621 167.695 241.597 167.695 240.296C167.695 239.016 167.353 238.013 166.671 237.288C165.988 236.563 165.113 236.2 164.047 236.2C162.98 236.2 162.105 236.563 161.423 237.288C160.74 238.013 160.399 239.016 160.399 240.296C160.399 241.597 160.74 242.621 161.423 243.368C162.105 244.093 162.98 244.456 164.047 244.456ZM177.655 225.256H183.735V249H177.655V225.256ZM206.926 231.656V249H201.134V247.144C200.494 247.848 199.726 248.381 198.83 248.744C197.934 249.107 196.985 249.288 195.982 249.288C193.742 249.288 191.95 248.627 190.606 247.304C189.284 245.981 188.622 243.997 188.622 241.352V231.656H194.702V240.36C194.702 241.661 194.948 242.611 195.438 243.208C195.929 243.805 196.644 244.104 197.582 244.104C198.542 244.104 199.321 243.773 199.918 243.112C200.537 242.429 200.846 241.395 200.846 240.008V231.656H206.926ZM223.811 248.296C223.299 248.616 222.669 248.861 221.923 249.032C221.197 249.203 220.419 249.288 219.587 249.288C217.325 249.288 215.587 248.733 214.371 247.624C213.155 246.515 212.547 244.861 212.547 242.664V236.84H210.019V232.296H212.547V227.784H218.627V232.296H222.595V236.84H218.627V242.6C218.627 243.219 218.787 243.709 219.107 244.072C219.448 244.413 219.896 244.584 220.451 244.584C221.155 244.584 221.773 244.403 222.307 244.04L223.811 248.296ZM227.155 231.656H233.235V249H227.155V231.656ZM230.195 229.736C229.086 229.736 228.19 229.427 227.507 228.808C226.824 228.189 226.483 227.421 226.483 226.504C226.483 225.587 226.824 224.819 227.507 224.2C228.19 223.581 229.086 223.272 230.195 223.272C231.304 223.272 232.2 223.571 232.883 224.168C233.566 224.744 233.907 225.491 233.907 226.408C233.907 227.368 233.566 228.168 232.883 228.808C232.2 229.427 231.304 229.736 230.195 229.736ZM246.89 249.288C245.034 249.288 243.36 248.904 241.866 248.136C240.373 247.368 239.2 246.301 238.346 244.936C237.514 243.571 237.098 242.024 237.098 240.296C237.098 238.589 237.514 237.053 238.346 235.688C239.2 234.323 240.362 233.267 241.834 232.52C243.328 231.752 245.013 231.368 246.89 231.368C248.768 231.368 250.453 231.752 251.946 232.52C253.44 233.267 254.602 234.323 255.434 235.688C256.266 237.032 256.682 238.568 256.682 240.296C256.682 242.024 256.266 243.571 255.434 244.936C254.602 246.301 253.44 247.368 251.946 248.136C250.453 248.904 248.768 249.288 246.89 249.288ZM246.89 244.456C247.957 244.456 248.832 244.093 249.514 243.368C250.197 242.621 250.538 241.597 250.538 240.296C250.538 239.016 250.197 238.013 249.514 237.288C248.832 236.563 247.957 236.2 246.89 236.2C245.824 236.2 244.949 236.563 244.266 237.288C243.584 238.013 243.242 239.016 243.242 240.296C243.242 241.597 243.584 242.621 244.266 243.368C244.949 244.093 245.824 244.456 246.89 244.456ZM271.795 231.368C273.95 231.368 275.678 232.008 276.979 233.288C278.302 234.568 278.963 236.499 278.963 239.08V249H272.883V240.072C272.883 237.704 271.934 236.52 270.035 236.52C268.99 236.52 268.147 236.861 267.507 237.544C266.888 238.227 266.579 239.251 266.579 240.616V249H260.499V231.656H266.291V233.544C266.974 232.84 267.784 232.307 268.723 231.944C269.662 231.56 270.686 231.368 271.795 231.368ZM290.084 249.288C288.633 249.288 287.204 249.128 285.796 248.808C284.388 248.467 283.257 248.029 282.404 247.496L284.228 243.336C285.017 243.827 285.956 244.221 287.044 244.52C288.132 244.797 289.209 244.936 290.276 244.936C291.257 244.936 291.951 244.84 292.356 244.648C292.783 244.435 292.996 244.136 292.996 243.752C292.996 243.368 292.74 243.101 292.228 242.952C291.737 242.781 290.948 242.621 289.86 242.472C288.473 242.301 287.289 242.077 286.308 241.8C285.348 241.523 284.516 241.011 283.812 240.264C283.108 239.517 282.756 238.472 282.756 237.128C282.756 236.019 283.087 235.037 283.748 234.184C284.409 233.309 285.369 232.627 286.628 232.136C287.908 231.624 289.433 231.368 291.204 231.368C292.463 231.368 293.711 231.496 294.948 231.752C296.185 232.008 297.22 232.371 298.052 232.84L296.228 236.968C294.692 236.115 293.028 235.688 291.236 235.688C290.276 235.688 289.572 235.805 289.124 236.04C288.676 236.253 288.452 236.541 288.452 236.904C288.452 237.309 288.697 237.597 289.188 237.768C289.679 237.917 290.489 238.077 291.62 238.248C293.049 238.461 294.233 238.707 295.172 238.984C296.111 239.261 296.921 239.773 297.604 240.52C298.308 241.245 298.66 242.269 298.66 243.592C298.66 244.68 298.329 245.661 297.668 246.536C297.007 247.389 296.025 248.061 294.724 248.552C293.444 249.043 291.897 249.288 290.084 249.288Z" fill="white"/>
<defs>
<filter id="filter0_d_1_2579" x="0" y="0" width="430" height="430" filterUnits="userSpaceOnUse" color-interpolation-filters="sRGB">
<feFlood flood-opacity="0" result="BackgroundImageFix"/>
<feColorMatrix in="SourceAlpha" type="matrix" values="0 0 0 0 0 0 0 0 0 0 0 0 0 0 0 0 0 0 127 0" result="hardAlpha"/>
<feOffset dy="20"/>
<feGaussianBlur stdDeviation="25"/>
<feComposite in2="hardAlpha" operator="out"/>
<feColorMatrix type="matrix" values="0 0 0 0 0.14902 0 0 0 0 0.784314 0 0 0 0 0.933333 0 0 0 0.5 0"/>
<feBlend mode="normal" in2="BackgroundImageFix" result="effect1_dropShadow_1_2579"/>
<feBlend mode="normal" in="SourceGraphic" in2="effect1_dropShadow_1_2579" result="shape"/>
</filter>
<filter id="filter1_d_1_2579" x="21" y="21" width="388" height="388" filterUnits="userSpaceOnUse" color-interpolation-filters="sRGB">
<feFlood flood-opacity="0" result="BackgroundImageFix"/>
<feColorMatrix in="SourceAlpha" type="matrix" values="0 0 0 0 0 0 0 0 0 0 0 0 0 0 0 0 0 0 127 0" result="hardAlpha"/>
<feOffset dy="20"/>
<feGaussianBlur stdDeviation="25"/>
<feComposite in2="hardAlpha" operator="out"/>
<feColorMatrix type="matrix" values="0 0 0 0 0.14902 0 0 0 0 0.784314 0 0 0 0 0.933333 0 0 0 0.5 0"/>
<feBlend mode="normal" in2="BackgroundImageFix" result="effect1_dropShadow_1_2579"/>
<feBlend mode="normal" in="SourceGraphic" in2="effect1_dropShadow_1_2579" result="shape"/>
</filter>
<linearGradient id="paint0_linear_1_2579" x1="50" y1="273.913" x2="380.003" y2="274.347" gradientUnits="userSpaceOnUse">
<stop stop-color="#00C0B4"/>
<stop offset="1" stop-color="#29C9F3"/>
</linearGradient>
<linearGradient id="paint1_linear_1_2579" x1="71" y1="263.87" x2="359.002" y2="264.248" gradientUnits="userSpaceOnUse">
<stop stop-color="#00C0B4"/>
<stop offset="1" stop-color="#29C9F3"/>
</linearGradient>
</defs>
</svg>
