<svg width="216" height="216" viewBox="0 0 216 216" fill="none" xmlns="http://www.w3.org/2000/svg">
<g filter="url(#filter0_d_1_2610)">
<circle cx="108" cy="88" r="58" fill="white"/>
</g>
<circle cx="108" cy="88" r="45" fill="#F0F7F6"/>
<path fill-rule="evenodd" clip-rule="evenodd" d="M87.8756 67.812C90.2381 65.4747 92.9423 63.596 96.0626 62.1759C95.9341 61.8996 95.811 61.6375 95.6913 61.3829L95.6913 61.3829C95.465 60.9011 95.2512 60.4459 95.0373 59.9717C88.2174 63.167 83.2399 68.1078 80.0156 74.8978C80.7585 75.238 81.4717 75.5634 82.2295 75.9037C83.6708 72.8268 85.528 70.1345 87.8756 67.812ZM95.46 113.854L95.4602 113.854C95.6273 113.492 95.7944 113.129 95.9726 112.752C92.9118 111.362 90.2225 109.483 87.8897 107.161C85.5273 104.809 83.6551 102.116 82.2139 99.0689C81.5618 99.3751 80.9811 99.6408 80.3789 99.9162L80.3785 99.9164L80.3778 99.9167L80 100.09C83.2391 106.82 88.172 111.761 94.9474 114.956C95.1256 114.579 95.2927 114.217 95.4598 113.855L95.46 113.854ZM120.265 114.971C120.181 114.791 120.1 114.616 120.02 114.444C119.76 113.884 119.516 113.359 119.255 112.782C125.436 109.838 130.027 105.297 132.969 99.1578C133.021 99.1635 133.063 99.1648 133.1 99.1659C133.16 99.1678 133.206 99.1692 133.251 99.1874C133.483 99.2918 133.717 99.3962 133.956 99.5029L133.957 99.5032L133.957 99.5035C134.361 99.6838 134.78 99.8706 135.228 100.075C132.003 106.82 127.055 111.717 120.265 114.971ZM134.738 74.0396C132.167 68.5811 126.952 63.0189 120.162 59.9864C120.025 60.2822 119.893 60.5685 119.761 60.8548C119.563 61.2844 119.365 61.7141 119.151 62.1757C122.078 63.5219 124.679 65.2822 126.982 67.4864C129.3 69.7053 131.157 72.2645 132.628 75.1195C133.107 74.8808 133.547 74.6534 133.971 74.4339C134.231 74.2998 134.484 74.1687 134.738 74.0396Z" fill="url(#paint0_linear_1_2610)"/>
<path fill-rule="evenodd" clip-rule="evenodd" d="M107.681 50.001C113.104 50.075 117.428 54.4832 117.339 59.8383C117.249 65.1341 112.807 69.4241 107.502 69.3353C102.109 69.2466 97.7999 64.8531 97.8891 59.5424C97.9633 54.2318 102.376 49.927 107.681 50.001ZM114.887 59.7939C114.991 55.9921 111.737 52.5454 107.948 52.4418C103.803 52.3235 100.46 55.4448 100.326 59.5572C100.207 63.3738 103.491 66.8205 107.339 66.9241C111.395 67.0276 114.783 63.8324 114.887 59.7939ZM100.743 95.9474C102.437 97.2491 104.264 98.0184 106.419 98.2994C106.419 99.1722 106.419 99.971 106.389 100.77H108.811V98.3142C110.906 98.048 112.734 97.2491 114.472 95.9474C114.649 96.1468 114.822 96.3419 114.991 96.533L114.998 96.5411L115 96.5427L115.001 96.5443L115.002 96.5453L115.003 96.5471L115.004 96.5481C115.37 96.9612 115.719 97.3561 116.062 97.7373C116.59 97.212 117.064 96.729 117.611 96.1721L117.613 96.1705L117.613 96.1703L117.919 95.8586C117.31 95.3704 116.686 94.8675 116.062 94.3497C117.31 92.7077 118.083 91.0361 118.38 89.1426C118.41 88.9799 118.722 88.758 118.915 88.7432C119.394 88.7114 119.865 88.7176 120.328 88.7236H120.328H120.329H120.329H120.329H120.329C120.512 88.726 120.695 88.7284 120.876 88.7284V86.3172C120.668 86.3172 120.466 86.3197 120.269 86.3222H120.269H120.269H120.269H120.268H120.268H120.268H120.268H120.268C119.789 86.3282 119.337 86.3338 118.885 86.3024C118.692 86.2876 118.41 86.0805 118.38 85.9326C118.083 84.0095 117.31 82.3083 116.047 80.6811C116.671 80.1338 117.28 79.6012 117.89 79.0687C117.251 78.4178 116.701 77.8704 116.003 77.1752C115.735 77.4933 115.471 77.8039 115.208 78.1146L115.207 78.1154L115.206 78.1158C114.943 78.426 114.68 78.7363 114.413 79.0539C112.704 77.7225 110.876 76.9829 108.781 76.7018V74.2462H106.33V76.7166C104.22 76.9533 102.422 77.7817 100.654 79.0835C100.104 78.4474 99.5841 77.8409 99.1829 77.3675C98.8487 77.6707 98.5367 77.9518 98.2247 78.2328L98.2245 78.2329C97.9125 78.514 97.6005 78.795 97.2662 79.0983C97.5476 79.3503 97.8289 79.5991 98.1118 79.8493L98.1122 79.8496C98.4268 80.1278 98.7434 80.4078 99.0641 80.6959C97.8308 82.2935 97.0731 83.9947 96.761 85.903C96.7313 86.0509 96.4044 86.258 96.1964 86.2728C95.7419 86.3044 95.2873 86.2985 94.822 86.2925H94.822H94.8219H94.8219H94.8217H94.8217H94.8216H94.8216H94.8216C94.633 86.2901 94.4428 86.2876 94.25 86.2876V88.6988C94.4479 88.6988 94.6422 88.6964 94.8337 88.6939C95.3036 88.6879 95.7574 88.6821 96.2113 88.7136C96.4193 88.7284 96.7462 88.9207 96.7759 89.0835C97.0731 91.0065 97.8606 92.6929 99.1235 94.3645C98.871 94.58 98.6209 94.7955 98.3742 95.0081L98.3741 95.0082L98.374 95.0082L98.3739 95.0083L98.3727 95.0094C98.0103 95.3216 97.6553 95.6276 97.3108 95.9178C97.5151 96.1259 97.7102 96.3234 97.9016 96.5171C98.3088 96.9292 98.699 97.3241 99.1235 97.7669C99.5761 97.2676 100.009 96.7783 100.454 96.2742L100.743 95.9474ZM116.121 87.4858C116.151 92.1012 112.288 95.9474 107.622 95.9474C102.942 95.9474 99.1235 92.1604 99.0938 87.5154C99.0789 82.8852 102.912 79.0539 107.593 79.0539C112.273 79.0391 116.092 82.8261 116.121 87.4858ZM89.3306 77.856H70V97.1164H89.3306V77.856ZM86.879 80.2673V94.7051H72.407V80.2673H86.879ZM107.577 105.652C107.962 105.652 108.35 105.649 108.738 105.645C109.515 105.639 110.295 105.632 111.068 105.652C114.545 105.726 116.982 107.812 117.234 111.273C117.442 113.965 117.368 116.687 117.249 119.394C117.116 122.471 114.515 124.897 111.469 124.957L110.948 124.965C108.475 125.008 105.992 125.05 103.535 124.912C100.489 124.749 98.1712 122.605 97.9781 119.572C97.7849 116.658 97.8146 113.699 98.0226 110.785C98.2158 107.96 100.727 105.8 103.565 105.681C104.501 105.64 105.437 105.649 106.373 105.659C106.774 105.663 107.175 105.667 107.577 105.667V105.652ZM108.546 122.562H108.547C109.477 122.565 110.41 122.568 111.336 122.545C113.208 122.501 114.753 121.14 114.827 119.291C114.931 116.702 114.946 114.113 114.842 111.539C114.753 109.394 113.238 108.093 111.098 108.063C108.795 108.048 106.492 108.048 104.189 108.063C101.886 108.078 100.37 109.542 100.326 111.85C100.281 114.113 100.296 116.392 100.326 118.655C100.355 121.125 101.871 122.56 104.352 122.56H107.621C107.928 122.56 108.235 122.561 108.543 122.562H108.544H108.546ZM125.095 97.1311H146C142.494 90.1488 139.047 83.2849 135.54 76.3174C133.802 79.7773 132.08 83.2118 130.358 86.6424L130.318 86.7238L130.306 86.7473L130.302 86.7557C128.568 90.2104 126.837 93.6615 125.095 97.1311ZM131.618 89.547C132.912 86.9621 134.21 84.3709 135.54 81.7316C136.488 83.613 137.42 85.4699 138.347 87.3175L138.352 87.3288L138.353 87.329L138.353 87.3292C139.588 89.7924 140.816 92.2391 142.063 94.705H129.032C129.898 92.9803 130.757 91.265 131.618 89.547ZM107.591 82.6486C104.946 82.6634 102.777 84.8083 102.762 87.4415C102.732 90.1042 104.916 92.3083 107.576 92.3379C110.191 92.3675 112.405 90.1929 112.45 87.5746C112.494 84.8675 110.28 82.6338 107.591 82.6486ZM110.028 87.5006C110.013 88.8172 108.943 89.8823 107.606 89.8823C106.283 89.8823 105.199 88.832 105.169 87.5302C105.154 86.1841 106.239 85.0894 107.621 85.1042C108.943 85.1042 110.028 86.1841 110.028 87.5006Z" fill="url(#paint1_linear_1_2610)"/>
<defs>
<filter id="filter0_d_1_2610" x="0" y="0" width="216" height="216" filterUnits="userSpaceOnUse" color-interpolation-filters="sRGB">
<feFlood flood-opacity="0" result="BackgroundImageFix"/>
<feColorMatrix in="SourceAlpha" type="matrix" values="0 0 0 0 0 0 0 0 0 0 0 0 0 0 0 0 0 0 127 0" result="hardAlpha"/>
<feOffset dy="20"/>
<feGaussianBlur stdDeviation="25"/>
<feComposite in2="hardAlpha" operator="out"/>
<feColorMatrix type="matrix" values="0 0 0 0 0.14902 0 0 0 0 0.784314 0 0 0 0 0.933333 0 0 0 0.5 0"/>
<feBlend mode="normal" in2="BackgroundImageFix" result="effect1_dropShadow_1_2610"/>
<feBlend mode="normal" in="SourceGraphic" in2="effect1_dropShadow_1_2610" result="shape"/>
</filter>
<linearGradient id="paint0_linear_1_2610" x1="80" y1="59.9717" x2="145.179" y2="83.4881" gradientUnits="userSpaceOnUse">
<stop stop-color="#172E65"/>
<stop offset="1" stop-color="#311145"/>
</linearGradient>
<linearGradient id="paint1_linear_1_2610" x1="70" y1="105.44" x2="146.001" y2="105.541" gradientUnits="userSpaceOnUse">
<stop stop-color="#00C0B4"/>
<stop offset="1" stop-color="#29C9F3"/>
</linearGradient>
</defs>
</svg>
