<svg width="216" height="216" viewBox="0 0 216 216" fill="none" xmlns="http://www.w3.org/2000/svg">
<g filter="url(#filter0_d_1_2646)">
<circle cx="108" cy="88" r="58" fill="white"/>
</g>
<circle cx="108" cy="88" r="45" fill="#F0F7F6"/>
<path fill-rule="evenodd" clip-rule="evenodd" d="M90.494 71.5423C88.8873 71.5155 87.2806 71.5155 85.6738 71.5423C85.0178 71.5558 84.6562 71.9182 84.6562 72.455C84.6562 73.0187 85.0445 73.3409 85.7542 73.3543C86.2724 73.3633 86.7966 73.3603 87.3188 73.3573H87.3188C87.5791 73.3558 87.839 73.3543 88.0973 73.3543C88.3557 73.3543 88.6155 73.3558 88.8759 73.3573H88.8759C89.3981 73.3603 89.9223 73.3633 90.4405 73.3543C91.1233 73.3409 91.4715 73.0456 91.4848 72.4953C91.4982 71.945 91.1367 71.5558 90.494 71.5423ZM109.347 71.5423C109.213 71.5333 109.079 71.5363 108.945 71.5393C108.878 71.5408 108.812 71.5423 108.745 71.5423H99.3184H96.4397C96.3966 71.5423 96.3527 71.5415 96.3083 71.5406C96.1736 71.5381 96.0351 71.5355 95.9041 71.5557C95.2748 71.6094 94.8732 71.9852 94.9401 72.5221C95.0071 73.0992 95.3686 73.3677 95.9443 73.3677H102.706H109.334C110.017 73.3677 110.351 73.059 110.365 72.4952C110.351 71.9047 110.003 71.5826 109.347 71.5423ZM102.613 75.3669H109.16C109.964 75.3669 110.312 75.6354 110.325 76.2259C110.352 76.8568 109.964 77.2057 109.174 77.2057H96.1459C95.3425 77.2057 94.9141 76.8836 94.9141 76.293C94.9141 75.7025 95.3425 75.3669 96.1325 75.3669H102.613ZM120.941 93.0442C121.476 93.0576 121.811 93.4603 121.811 94.1045C121.82 95.3468 121.817 96.595 121.814 97.8492V97.8495V97.8499V97.8502V97.8505V97.8509V97.8512V97.8516V97.8519V97.8523V97.8526C121.813 98.4808 121.811 99.1105 121.811 99.7417V105.177C121.811 106.063 121.53 106.305 120.646 106.305C119.781 106.305 118.92 106.312 118.06 106.318L118.059 106.318C117.202 106.325 116.347 106.332 115.491 106.332C114.527 106.332 114.246 106.05 114.246 105.097V94.2253C114.246 93.3529 114.554 93.0173 115.398 93.0173C117.245 93.0173 119.093 93.0308 120.941 93.0442ZM118.444 94.8561H118.444C118.112 94.8528 117.781 94.8494 117.446 94.8561C117.188 94.8628 116.978 94.8584 116.807 94.8548C116.469 94.8477 116.283 94.8438 116.183 94.9345C116.061 95.0456 116.068 95.2984 116.083 95.8606C116.087 96.0088 116.091 96.1785 116.094 96.3728C116.094 96.5338 116.362 96.8023 116.536 96.8291C116.893 96.8776 117.244 96.8701 117.613 96.8621C117.755 96.8591 117.9 96.856 118.049 96.856H118.598C118.847 96.8516 119.051 96.8568 119.219 96.861H119.219H119.219C119.566 96.8698 119.755 96.8745 119.859 96.7827C119.983 96.6727 119.984 96.4239 119.986 95.8769V95.8763C119.987 95.7392 119.987 95.5834 119.99 95.4064C119.99 95.0038 119.829 94.8427 119.441 94.8561C119.106 94.8628 118.775 94.8595 118.444 94.8561ZM118.089 104.506H118.624C118.892 104.497 119.106 104.501 119.279 104.504C119.596 104.509 119.771 104.512 119.868 104.427C119.988 104.322 119.991 104.082 119.996 103.547C119.998 103.402 119.999 103.235 120.004 103.043C120.004 102.627 119.803 102.507 119.428 102.52C119.107 102.527 118.782 102.523 118.457 102.52H118.457C118.132 102.517 117.808 102.513 117.486 102.52C117.243 102.524 117.042 102.52 116.876 102.517C116.504 102.51 116.306 102.506 116.202 102.603C116.084 102.712 116.084 102.948 116.084 103.449C116.084 103.595 116.083 103.763 116.08 103.956C116.067 104.345 116.201 104.52 116.616 104.506C116.946 104.497 117.27 104.5 117.595 104.503C117.759 104.505 117.923 104.506 118.089 104.506ZM117.995 100.601H118.665L118.703 100.601C120.111 100.601 120.136 100.601 119.963 99.1243C119.937 98.9498 119.669 98.7082 119.495 98.6948C118.517 98.6545 117.54 98.6545 116.562 98.6813C116.402 98.6813 116.147 98.8424 116.107 98.99C115.772 100.252 116.067 100.601 117.326 100.601H117.995ZM109.483 79.1928C109.33 79.1641 109.171 79.1695 109.009 79.175L109.009 79.175C108.944 79.1772 108.879 79.1794 108.813 79.1794H97.2985H96.2943C96.1337 79.1794 95.9864 79.1794 95.8257 79.1928C95.2366 79.2734 94.8617 79.6492 94.9152 80.1458C94.9822 80.7229 95.3303 81.0048 95.9194 81.0048H102.681H109.376C109.925 81.0048 110.273 80.7632 110.326 80.1861C110.393 79.5821 110.045 79.2868 109.483 79.1928ZM95.7696 83.031C100.362 83.031 104.955 83.031 109.547 83.0445C110.043 83.0445 110.31 83.3666 110.351 83.8766C110.364 84.3732 110.136 84.6953 109.654 84.8027C109.413 84.843 109.159 84.843 108.918 84.843H102.625H96.332C96.2826 84.843 96.2309 84.8444 96.1784 84.8457C95.9462 84.8519 95.6973 84.8585 95.5554 84.749C95.2876 84.5343 94.9395 84.1719 94.9662 83.9035C94.9851 83.6859 95.1902 83.4884 95.394 83.292L95.394 83.292L95.394 83.292L95.394 83.292L95.394 83.292L95.394 83.292L95.394 83.292L95.394 83.292L95.394 83.292C95.4794 83.2097 95.5646 83.1277 95.6357 83.0445C95.6562 83.0239 95.7001 83.0269 95.7376 83.0295C95.7491 83.0303 95.7601 83.031 95.7696 83.031ZM125.482 98.7748C127.437 98.7479 129.405 98.7479 131.36 98.7748C131.923 98.7748 132.284 99.0835 132.324 99.6875C132.338 100.224 131.949 100.573 131.307 100.587C130.664 100.596 130.028 100.593 129.39 100.59C129.07 100.588 128.75 100.587 128.428 100.587C128.106 100.587 127.786 100.588 127.466 100.59C126.828 100.593 126.191 100.596 125.549 100.587C124.906 100.587 124.518 100.238 124.532 99.6875C124.545 99.0835 124.92 98.7748 125.482 98.7748ZM129.353 94.9598H129.353C129.035 94.9613 128.717 94.9628 128.401 94.9628C128.088 94.9628 127.775 94.9613 127.463 94.9598C126.839 94.9568 126.218 94.9538 125.602 94.9628C124.906 94.9762 124.531 95.2983 124.531 95.8754C124.531 96.4123 124.906 96.7881 125.549 96.7881C127.464 96.8015 129.378 96.8015 131.28 96.7881C131.949 96.7881 132.324 96.3989 132.31 95.8217C132.284 95.2715 131.922 94.9628 131.266 94.9628C130.632 94.9538 129.992 94.9568 129.354 94.9598H129.354H129.354H129.353H129.353ZM132.324 103.486C132.338 104.076 131.949 104.412 131.213 104.425C130.594 104.434 129.932 104.431 129.319 104.428H129.318H129.318H129.317H129.317C129.029 104.426 128.752 104.425 128.495 104.425V104.412C128.183 104.412 127.869 104.413 127.554 104.415H127.553H127.553H127.553H127.553C126.919 104.418 126.282 104.421 125.656 104.412C124.96 104.398 124.545 104.063 124.532 103.512C124.518 102.935 124.92 102.6 125.67 102.6C127.517 102.586 129.379 102.586 131.226 102.6C131.923 102.6 132.324 102.922 132.324 103.486ZM91.4856 76.2266C91.4321 75.636 91.0706 75.3676 90.4948 75.3676H88.0981C87.8358 75.3676 87.5705 75.3661 87.3042 75.3646H87.3042H87.3042H87.3042C86.7686 75.3616 86.2291 75.3586 85.7014 75.3676C85.0453 75.381 84.6838 75.7031 84.6838 76.2534C84.6704 76.7903 85.0453 77.1795 85.6746 77.1929C87.2948 77.2063 88.9283 77.2198 90.5484 77.1929C91.1509 77.1929 91.5258 76.7769 91.4856 76.2266ZM85.5806 79.2058C87.2543 79.179 88.928 79.1655 90.6017 79.2058C91.1908 79.2058 91.5389 79.6353 91.472 80.1722C91.4184 80.7359 91.0837 81.0043 90.5347 81.0043H88.0577H85.6476C85.0718 81.0177 84.6969 80.7359 84.6702 80.1453C84.6434 79.5413 85.0183 79.2192 85.5806 79.2058ZM85.6345 83.0177H88.1115H90.535C91.1241 83.0177 91.4856 83.2996 91.499 83.8902C91.5124 84.4941 91.1375 84.8163 90.5752 84.8297C88.9283 84.8565 87.268 84.8565 85.6211 84.8297C85.0587 84.8163 84.6704 84.5076 84.6838 83.9036C84.6972 83.313 85.0453 83.0177 85.6345 83.0177Z" fill="url(#paint0_linear_1_2646)"/>
<path fill-rule="evenodd" clip-rule="evenodd" d="M102.052 66.2338C99.9202 66.2305 97.788 66.2271 95.659 66.2271C94.4138 66.2271 94.2264 66.0258 94.213 64.7776C94.213 64.5091 94.2115 64.2407 94.21 63.9723C94.207 63.4354 94.2041 62.8985 94.213 62.3616C94.2398 60.3081 95.7929 58.7243 97.8549 58.6572L97.8681 58.6569C98.3589 58.6436 98.8367 58.6306 99.3277 58.6572C99.8098 58.6841 99.9303 58.4827 99.9303 58.0264C99.9213 56.9526 99.9243 55.8789 99.9273 54.8052C99.9288 54.2683 99.9303 53.7314 99.9303 53.1945C99.9303 52.255 100.185 52 101.122 52H115.85C116.788 52 117.029 52.2416 117.029 53.208C117.042 54.7917 117.055 56.3889 117.029 57.9727C117.015 58.4962 117.203 58.6975 117.725 58.6572C118.167 58.6304 118.622 58.6438 119.064 58.6572C121.086 58.6975 122.665 60.2276 122.759 62.2543C122.788 62.8867 122.782 63.526 122.777 64.1673C122.775 64.4242 122.773 64.6814 122.773 64.9386C122.759 65.9453 122.491 66.2271 121.501 66.2271C120.142 66.2271 118.779 66.2305 117.417 66.2338L117.416 66.2338C116.054 66.2372 114.692 66.2405 113.333 66.2405H108.446C106.318 66.2405 104.186 66.2372 102.054 66.2338L102.052 66.2338ZM100.01 60.4916C99.6808 60.5005 99.354 60.5094 99.0332 60.4826C96.5427 60.3081 95.9 61.3953 95.9938 63.5562C96.0205 64.187 96.1678 64.3883 96.8239 64.3883C100.707 64.3615 104.576 64.3615 108.459 64.3615H119.157L119.197 64.3615C120.069 64.3615 120.508 64.3616 120.725 64.1423C120.945 63.9205 120.938 63.4744 120.925 62.5771V62.577L120.925 62.5764C120.898 61.3013 120.108 60.5094 118.823 60.4826C118.287 60.4736 117.752 60.4766 117.216 60.4796H117.216C116.948 60.4811 116.68 60.4826 116.413 60.4826C115.462 60.4692 115.194 60.2142 115.194 59.2344C115.194 58.7934 115.192 58.3524 115.19 57.9114C115.184 56.8088 115.179 55.7063 115.208 54.6038C115.221 53.973 115.047 53.7583 114.391 53.7583C110.441 53.7851 106.504 53.7851 102.555 53.7583C101.925 53.7448 101.751 53.9596 101.765 54.5636C101.805 56.1071 101.791 57.6506 101.778 59.1941C101.765 60.2142 101.497 60.4826 100.506 60.4826C100.34 60.4826 100.175 60.4871 100.01 60.4916L100.01 60.4916ZM138.989 66.5893C138.989 63.4621 137.047 61.5427 133.928 61.5427C132.689 61.5427 131.45 61.5461 130.212 61.5494C128.973 61.5528 127.735 61.5562 126.496 61.5562H125.693V62.442C125.7 62.91 125.703 63.1415 125.821 63.256C125.936 63.3681 126.16 63.3681 126.604 63.3681C127.232 63.3681 127.862 63.3673 128.492 63.3664C130.384 63.3639 132.28 63.3614 134.169 63.3815C135.949 63.3949 137.154 64.6029 137.154 66.388C137.163 75.6764 137.16 84.9708 137.157 94.2631V94.2646V94.2661V94.2676C137.156 98.9115 137.154 103.555 137.154 108.197C137.154 108.962 136.927 109.647 136.405 110.224C135.668 111.042 134.718 111.217 133.673 111.217H83.329C80.8921 111.217 79.7942 110.103 79.7808 107.633V97.9024V66.7638C79.7808 64.5358 80.9189 63.3681 83.088 63.3681H90.5325C90.7382 63.3681 90.9549 63.3462 91.1924 63.3221L91.2689 63.3144V61.583C91.1716 61.5781 91.0778 61.5715 90.9863 61.565L90.9863 61.565C90.8259 61.5536 90.6725 61.5427 90.5191 61.5427H82.8871C79.995 61.5293 78 63.5292 78 66.4149V86.1449V108.291C78 110.868 80.0218 112.975 82.539 112.975C99.8381 112.989 117.124 112.989 134.423 112.962C135.025 112.962 135.682 112.814 136.231 112.559C138.092 111.7 138.989 110.17 139.002 108.116V96.3052C138.995 91.3526 138.995 86.3999 138.995 81.4473C138.995 76.4946 138.995 71.542 138.989 66.5893ZM91.2533 103.889C91.2801 102.842 91.2667 101.782 91.2533 100.735C91.2399 100.104 90.865 99.7015 90.3295 99.7418C89.7403 99.782 89.4591 100.131 89.4458 100.708C89.4391 100.99 89.4391 101.269 89.4391 101.547C89.4391 101.826 89.4391 102.104 89.4324 102.386C89.4285 102.579 89.4434 102.794 89.4584 103.009C89.4956 103.545 89.5332 104.085 89.2851 104.305C89.0265 104.547 88.5362 104.526 88.0398 104.505C87.7909 104.495 87.5404 104.484 87.3168 104.507C86.6741 104.574 86.4867 104.345 86.4867 103.688C86.5068 100.699 86.5043 97.717 86.5018 94.7316V94.7315V94.7314V94.7312C86.5009 93.7355 86.5001 92.7394 86.5001 91.7424C86.5001 91.6888 86.5006 91.6352 86.5012 91.5816L86.5012 91.5813C86.5033 91.3666 86.5054 91.1518 86.4733 90.9371C86.3796 90.3331 85.7637 90.011 85.2013 90.2526C84.7059 90.4673 84.6523 90.8968 84.6523 91.38V105.003C84.6523 106.104 84.88 106.318 86.0047 106.332H97.5196H109.302C110.012 106.332 110.36 105.996 110.347 105.392C110.333 104.829 109.985 104.52 109.316 104.507L109.141 104.503L109.044 104.5C108.489 104.487 107.927 104.474 107.374 104.52C106.745 104.574 106.531 104.372 106.544 103.715C106.564 101.097 106.562 98.4801 106.559 95.8629C106.558 94.9905 106.557 94.118 106.557 93.2456C106.557 92.5074 106.209 92.0913 105.634 92.0779C105.071 92.0779 104.71 92.5074 104.696 93.2322C104.687 93.948 104.69 94.6639 104.693 95.3797C104.695 95.7376 104.696 96.0955 104.696 96.4534C104.696 97.0658 104.697 97.6791 104.698 98.2928V98.294V98.2953V98.2965V98.2967V98.2968V98.297C104.7 100.143 104.703 101.993 104.683 103.835C104.683 104.05 104.522 104.453 104.415 104.466C103.893 104.507 103.331 104.547 102.849 104.372C102.732 104.333 102.728 103.969 102.725 103.618V103.617C102.723 103.485 102.722 103.355 102.715 103.245C102.706 103.093 102.709 102.948 102.712 102.8V102.8V102.8V102.8L102.712 102.8C102.713 102.725 102.715 102.65 102.715 102.574C102.715 101.846 102.716 101.116 102.718 100.386L102.718 100.384C102.721 98.9211 102.724 97.4561 102.715 95.9971C102.715 95.1649 102.005 94.6415 101.416 95.0844C101.135 95.2857 100.947 95.7823 100.934 96.1581C100.909 97.6262 100.91 99.0942 100.911 100.562C100.911 101.443 100.912 102.324 100.907 103.205C100.905 103.393 100.907 103.554 100.909 103.692C100.914 104.099 100.916 104.302 100.816 104.403C100.718 104.503 100.519 104.505 100.126 104.509C99.978 104.511 99.8028 104.513 99.5949 104.52C99.046 104.533 98.9121 104.319 98.9255 103.822C98.9521 102.525 98.9389 101.24 98.9256 99.943L98.9255 99.9297C98.9255 99.2049 98.5639 98.7888 97.9882 98.7888C97.4124 98.7888 97.0777 99.2049 97.0777 99.9431C97.0688 100.686 97.0718 101.435 97.0747 102.183V102.183V102.183V102.183C97.0762 102.555 97.0777 102.928 97.0777 103.299C97.0762 103.456 97.0771 103.593 97.0779 103.711C97.0805 104.111 97.0818 104.308 96.9843 104.406C96.8904 104.5 96.7046 104.503 96.34 104.508H96.3399H96.3399C96.2087 104.51 96.0543 104.513 95.8727 104.52C95.2032 104.547 95.0559 104.305 95.0693 103.674C95.0934 102.33 95.0886 100.99 95.0838 99.649C95.0805 98.7548 95.0773 97.8602 95.0827 96.9635C95.0827 96.4534 94.9354 96.0776 94.4266 95.93C93.7839 95.7555 93.3019 96.185 93.3019 96.95C93.2962 97.83 93.2978 98.7125 93.2994 99.5953C93.3016 100.773 93.3038 101.951 93.2885 103.124C93.2867 103.338 93.2898 103.519 93.2925 103.672C93.2996 104.075 93.3032 104.281 93.202 104.387C93.0966 104.497 92.8772 104.498 92.429 104.5C92.2785 104.501 92.1023 104.501 91.896 104.507C91.4006 104.52 91.2533 104.359 91.2533 103.889ZM124.232 70.1328C119.76 70.1328 116.172 73.6896 116.172 78.1591C116.172 82.6822 119.72 86.2658 124.219 86.2793C128.718 86.2793 132.333 82.6956 132.333 78.2127C132.319 73.703 128.731 70.1328 124.232 70.1328ZM123.268 71.9582V75.4478C123.268 75.4684 123.206 75.4967 123.152 75.5209C123.136 75.5284 123.12 75.5355 123.108 75.5418L123.103 75.5362L123.102 75.5352C122.367 74.7187 121.632 73.9017 120.751 72.9245C120.994 72.8299 121.222 72.7403 121.443 72.6531L121.443 72.653C122.037 72.4187 122.585 72.2027 123.268 71.9582ZM119.479 74.2936C120.099 74.9876 120.712 75.67 121.327 76.3553C121.854 76.9423 122.383 77.5316 122.92 78.1322C121.826 79.1169 120.779 80.0549 119.731 80.9929L119.731 80.9932L119.104 81.5548C117.524 79.716 117.685 76.2397 119.479 74.2936ZM126 84.1586C123.965 84.776 122.09 84.3465 120.349 83.0312C120.408 82.9618 120.456 82.9009 120.499 82.846C120.565 82.7628 120.62 82.6932 120.684 82.6285C120.849 82.4788 121.014 82.3288 121.179 82.1788C122.139 81.3063 123.103 80.4312 124.085 79.5952C124.339 79.3804 124.768 79.2328 125.076 79.2731C126.35 79.4288 127.624 79.6327 128.966 79.8475L128.966 79.8475L128.967 79.8477C129.359 79.9106 129.758 79.9743 130.164 80.0381C129.374 82.1722 128.035 83.5412 126 84.1586ZM125.544 77.4477C125.384 77.4209 125.17 77.1256 125.17 76.9511C125.149 75.8636 125.152 74.7685 125.154 73.6772V73.6759C125.155 73.313 125.156 72.9506 125.156 72.589C125.156 72.2669 125.237 72.0924 125.625 72.1327C128.102 72.3743 130.686 75.5821 130.418 78.2262C129.743 78.1169 129.076 78.0122 128.414 77.9082L128.414 77.9081C127.45 77.7566 126.497 77.6069 125.544 77.4477ZM107.284 60.4856C106.483 60.4886 105.679 60.4916 104.875 60.4827C104.085 60.4692 103.777 60.174 103.763 59.3955C103.75 58.8989 103.737 58.4023 103.777 57.9191C103.857 56.738 104.781 55.8253 105.959 55.7985C107.646 55.7716 109.347 55.7716 111.034 55.7985C112.199 55.8119 113.123 56.7514 113.203 57.9325C113.23 58.4694 113.23 59.0063 113.203 59.5431C113.176 60.1605 112.828 60.4827 112.212 60.4827H108.476C108.08 60.4827 107.683 60.4842 107.284 60.4856ZM107.187 57.6135C106.846 57.6 106.506 57.5866 106.187 57.6641C106.04 57.6987 105.921 57.8614 105.798 58.0303C105.73 58.1235 105.661 58.2185 105.584 58.2949C105.636 58.3279 105.688 58.3668 105.741 58.4063C105.881 58.5116 106.027 58.6207 106.173 58.6305C106.718 58.6592 107.256 58.6537 107.797 58.6483C108.014 58.6461 108.231 58.6439 108.45 58.6439C108.717 58.6439 108.985 58.6454 109.253 58.6469C109.789 58.6498 110.324 58.6528 110.86 58.6439C111.355 58.6439 111.569 58.2681 111.275 57.9191C111.141 57.7446 110.833 57.6507 110.592 57.6372C109.839 57.6171 109.086 57.6196 108.333 57.6221C108.081 57.623 107.83 57.6238 107.579 57.6238C107.449 57.6238 107.318 57.6186 107.187 57.6135Z" fill="url(#paint1_linear_1_2646)"/>
<defs>
<filter id="filter0_d_1_2646" x="0" y="0" width="216" height="216" filterUnits="userSpaceOnUse" color-interpolation-filters="sRGB">
<feFlood flood-opacity="0" result="BackgroundImageFix"/>
<feColorMatrix in="SourceAlpha" type="matrix" values="0 0 0 0 0 0 0 0 0 0 0 0 0 0 0 0 0 0 127 0" result="hardAlpha"/>
<feOffset dy="20"/>
<feGaussianBlur stdDeviation="25"/>
<feComposite in2="hardAlpha" operator="out"/>
<feColorMatrix type="matrix" values="0 0 0 0 0.14902 0 0 0 0 0.784314 0 0 0 0 0.933333 0 0 0 0.5 0"/>
<feBlend mode="normal" in2="BackgroundImageFix" result="effect1_dropShadow_1_2646"/>
<feBlend mode="normal" in="SourceGraphic" in2="effect1_dropShadow_1_2646" result="shape"/>
</filter>
<linearGradient id="paint0_linear_1_2646" x1="84.6563" y1="71.5222" x2="135.845" y2="96.7088" gradientUnits="userSpaceOnUse">
<stop stop-color="#172E65"/>
<stop offset="1" stop-color="#311145"/>
</linearGradient>
<linearGradient id="paint1_linear_1_2646" x1="78" y1="97.0751" x2="139.003" y2="97.1553" gradientUnits="userSpaceOnUse">
<stop stop-color="#00C0B4"/>
<stop offset="1" stop-color="#29C9F3"/>
</linearGradient>
</defs>
</svg>
