<svg width="216" height="216" viewBox="0 0 216 216" fill="none" xmlns="http://www.w3.org/2000/svg">
<g filter="url(#filter0_d_1_2583)">
<circle cx="108" cy="88" r="58" fill="white"/>
</g>
<circle cx="108" cy="88" r="45" fill="#F0F7F6"/>
<path fill-rule="evenodd" clip-rule="evenodd" d="M128.352 107.835C128.657 107.82 128.964 107.804 129.18 107.927C129.549 108.133 129.959 108.543 130 108.933C130.041 109.241 129.61 109.672 129.282 109.897C129.088 110.027 128.778 110.016 128.494 110.005C128.419 110.003 128.346 110 128.278 110H86.8656C85.287 110 85.041 109.754 85.041 108.153C85.041 104.724 85.0307 101.3 85.0205 97.8779C85.0102 94.4613 85 91.0474 85 87.6334C85 80.636 85.0204 73.659 85.0408 66.6617L85.041 66.6005C85.041 66.5376 85.0346 66.4668 85.0281 66.3942C85.0112 66.2062 84.9933 66.0065 85.082 65.9029C85.0997 65.8801 85.1178 65.8567 85.1362 65.8329C85.4169 65.4698 85.78 65 86.1071 65C86.4556 65 86.8656 65.5335 87.1321 65.8824C87.2199 65.9848 87.2033 66.1708 87.1866 66.3584C87.1799 66.4338 87.1731 66.5094 87.1731 66.58C87.1731 69.5349 87.1782 72.4949 87.1834 75.4549C87.1885 78.4148 87.1936 81.3748 87.1936 84.3297V91.409V91.4295V95.2257C87.1731 99.3707 87.1731 103.577 87.1731 107.681V107.681H89.6538V107.886H114.85H118.191H127.478V107.866C127.571 107.866 127.668 107.861 127.765 107.856C127.863 107.851 127.96 107.845 128.052 107.845C128.149 107.845 128.25 107.84 128.352 107.835ZM87.8701 93.6257C87.8496 93.6392 87.8291 93.6527 87.8086 93.6662H87.8701V93.6257ZM87.8701 93.6257C88.6911 93.0862 89.5322 92.5676 90.4122 92.1272C90.7403 91.963 91.2528 91.9835 91.5808 92.1272C93.1389 92.8454 94.82 92.6607 95.9885 91.5937C97.1366 90.5266 97.4031 88.7619 96.7061 87.1409C96.6036 86.8946 96.5626 86.4637 96.7061 86.2585C97.8951 84.5144 99.1251 82.7909 100.355 81.0673L100.355 81.067C100.478 80.8823 100.827 80.6771 100.991 80.7181C102.221 81.0875 103.348 80.8413 104.722 80.1026C104.96 80.3733 105.195 80.6526 105.432 80.9342C105.933 81.5276 106.442 82.1314 106.998 82.688C107.449 83.1395 107.633 83.5294 107.531 84.2065C107.244 85.9097 108.166 87.6333 109.601 88.1668C110.995 88.7004 112.41 88.6593 113.558 87.6538C114.809 86.5458 115.239 85.1504 114.706 83.4883C114.604 83.16 114.645 82.6675 114.829 82.4008C116.223 80.4514 117.658 78.543 119.114 76.6552C119.278 76.4295 119.729 76.2653 120.016 76.3064C121.943 76.5321 123.501 75.7113 124.198 74.0697C124.854 72.5102 124.362 70.6839 123.03 69.658C121.717 68.6525 119.749 68.673 118.458 69.699C117.084 70.7865 116.715 72.5923 117.433 74.3365C117.556 74.6238 117.576 75.0957 117.412 75.3214C116.039 77.2298 114.624 79.1176 113.189 80.9849C113.066 81.1491 112.717 81.3337 112.553 81.2927C111.303 80.8823 110.134 81.067 108.74 81.8673C108.474 81.5582 108.197 81.2491 107.919 80.9375C107.384 80.339 106.84 79.7313 106.342 79.0971C106.096 78.7893 105.911 78.2763 105.952 77.8864C106.116 76.2038 105.46 74.7469 104.086 73.9671C102.754 73.2079 101.052 73.372 99.8633 74.357C98.6127 75.4035 98.2642 76.963 98.7972 78.6456C98.8997 78.974 98.8792 79.4664 98.6947 79.7332C97.5876 81.3748 96.4396 82.9958 95.23 84.5554C94.984 84.8837 94.3895 85.1094 93.9794 85.1094C91.2323 85.0683 89.6537 86.6073 89.7357 89.316C89.7357 89.6032 89.6332 90.0136 89.4282 90.1573C88.987 90.4645 88.5278 90.7178 87.9835 91.0181C87.9461 91.0387 87.9083 91.0595 87.8701 91.0807V93.6257ZM122.333 72.6539C122.353 71.7715 121.635 71.0328 120.733 71.0328C119.893 71.0328 119.175 71.7305 119.155 72.5923C119.134 73.4746 119.872 74.2134 120.754 74.2134C121.615 74.1928 122.312 73.4952 122.333 72.6539ZM112.717 84.74C112.717 83.8987 112 83.1805 111.18 83.16C110.319 83.1395 109.56 83.9192 109.581 84.7811C109.601 85.5813 110.38 86.2995 111.2 86.2995C112.102 86.2995 112.717 85.6429 112.717 84.74ZM103.82 77.2093C103.82 76.3269 103.041 75.5677 102.18 75.5882C101.36 75.6087 100.622 76.3474 100.622 77.1682C100.622 78.03 101.401 78.8098 102.262 78.7893C103.061 78.7688 103.82 78.03 103.82 77.2093ZM94.9225 88.8645C94.9225 88.0437 94.2254 87.2845 93.4054 87.2435C92.6059 87.2024 91.8678 87.9206 91.8678 88.7619C91.8268 89.6853 92.5239 90.4445 93.3849 90.4445C94.1639 90.4445 94.902 89.6853 94.9225 88.8645Z" fill="url(#paint0_linear_1_2583)"/>
<path fill-rule="evenodd" clip-rule="evenodd" d="M118.231 106.861H120.405V80.5953H121.84V106.861H124.095V106.491C124.095 103.926 124.1 101.361 124.105 98.7964C124.11 96.2315 124.115 93.6665 124.115 91.1015C124.115 89.8559 124.118 88.6125 124.12 87.3699C124.124 84.887 124.129 82.4072 124.115 79.9182C124.115 78.7896 123.767 78.4613 122.66 78.4408C121.976 78.4271 121.293 78.4316 120.61 78.4362C120.268 78.4385 119.926 78.4408 119.585 78.4408C118.641 78.4408 118.231 78.8922 118.231 79.8361C118.231 80.8416 118.221 81.8522 118.211 82.8628C118.201 83.8734 118.19 84.884 118.19 85.8895C118.19 92.8252 118.211 99.8224 118.231 106.758V106.861ZM101.769 106.861H99.5342V106.389C99.5342 99.679 99.5138 92.9895 99.4934 86.2799L99.4932 86.2178C99.4932 85.4175 99.8212 84.966 100.621 84.9455L100.651 84.945C101.809 84.9247 102.947 84.9047 104.106 84.925C105.151 84.925 105.479 85.3354 105.479 86.3614C105.452 90.9305 105.443 95.4814 105.434 100.032C105.429 102.308 105.425 104.583 105.418 106.861H103.204V87.1617H101.769V106.861ZM110.974 106.861H108.883V106.45L108.821 91.7377C108.821 90.9374 109.19 90.4655 110.072 90.486C110.724 90.5106 111.383 90.5131 112.04 90.5155H112.04C112.479 90.5172 112.917 90.5188 113.352 90.527C114.541 90.5681 114.787 90.9169 114.787 92.1276C114.746 97.0318 114.746 101.957 114.746 106.861H112.614V92.7021H110.974V106.861ZM92.3176 97.0114V106.861H90.0625V106.656C90.0625 104.942 90.0728 103.234 90.083 101.526C90.0933 99.8175 90.1035 98.1092 90.1035 96.3958C90.1035 95.1236 90.4315 94.8363 91.7026 94.8158C92.0245 94.8158 92.3442 94.8135 92.6631 94.8112C93.2986 94.8066 93.9311 94.8021 94.5728 94.8158C95.7208 94.8363 96.0283 95.1441 96.0283 96.2932C96.0283 98.0066 96.0232 99.7149 96.0181 101.423C96.013 103.131 96.0078 104.84 96.0078 106.553V106.861H93.9577V97.0114H92.3176Z" fill="url(#paint1_linear_1_2583)"/>
<defs>
<filter id="filter0_d_1_2583" x="0" y="0" width="216" height="216" filterUnits="userSpaceOnUse" color-interpolation-filters="sRGB">
<feFlood flood-opacity="0" result="BackgroundImageFix"/>
<feColorMatrix in="SourceAlpha" type="matrix" values="0 0 0 0 0 0 0 0 0 0 0 0 0 0 0 0 0 0 127 0" result="hardAlpha"/>
<feOffset dy="20"/>
<feGaussianBlur stdDeviation="25"/>
<feComposite in2="hardAlpha" operator="out"/>
<feColorMatrix type="matrix" values="0 0 0 0 0.14902 0 0 0 0 0.784314 0 0 0 0 0.933333 0 0 0 0.5 0"/>
<feBlend mode="normal" in2="BackgroundImageFix" result="effect1_dropShadow_1_2583"/>
<feBlend mode="normal" in="SourceGraphic" in2="effect1_dropShadow_1_2583" result="shape"/>
</filter>
<linearGradient id="paint0_linear_1_2583" x1="85" y1="98.2692" x2="130.003" y2="98.3284" gradientUnits="userSpaceOnUse">
<stop stop-color="#00C0B4"/>
<stop offset="1" stop-color="#29C9F3"/>
</linearGradient>
<linearGradient id="paint1_linear_1_2583" x1="90.0625" y1="78.4316" x2="128.392" y2="94.9322" gradientUnits="userSpaceOnUse">
<stop stop-color="#172E65"/>
<stop offset="1" stop-color="#311145"/>
</linearGradient>
</defs>
</svg>
