<svg width="216" height="216" viewBox="0 0 216 216" fill="none" xmlns="http://www.w3.org/2000/svg">
<g filter="url(#filter0_d_1_2626)">
<circle cx="108" cy="88" r="58" fill="white"/>
</g>
<circle cx="108" cy="88" r="45" fill="#F0F7F6"/>
<path d="M99.0197 84.0664C99.0197 83.5747 98.861 83.186 98.4643 82.8887C98.2603 82.74 98.0676 82.5342 97.9656 82.317C95.948 77.9836 93.9078 72.9298 91.9015 68.5964L87.889 67.4302C86.6308 70.1629 85.2933 73.2042 83.9785 75.834C82.6863 78.4295 81.9156 81.2994 80 83.5633C80 83.9406 80 84.3293 80 84.7066C80.034 84.8324 80.0793 84.9582 80.0907 85.084C80.272 86.6275 80.7934 88.0567 81.6775 89.303C84.1825 92.8246 88.1497 94.1853 92.2756 93.0076C96.084 91.9214 98.9971 88.0453 99.0197 84.0664ZM89.4872 69.6255C91.5275 74.0275 93.4997 78.3152 95.5173 82.66C91.4821 82.66 87.5149 82.66 83.4571 82.66C85.452 78.3037 87.4469 74.0275 89.4872 69.6255ZM89.3285 90.9952C85.7014 90.9266 82.8677 88.0224 82.5277 85.0497C87.1862 85.0497 91.8335 85.0497 96.4921 85.0497C96.0954 88.1368 93.103 91.0638 89.3285 90.9952Z" fill="url(#paint0_linear_1_2626)"/>
<path d="M137.467 94.2308C137.331 94.0021 137.07 93.8306 136.957 93.5905C134.906 89.1885 132.865 84.775 130.814 80.3616C130.768 80.2587 130.576 79.9157 130.53 79.7785L126.903 78.7266C126.835 78.8866 126.711 79.1725 126.643 79.3097C124.478 83.9861 122.324 88.6511 120.148 93.3161C119.966 93.6934 119.626 93.9907 119.422 94.3566C119.241 94.6767 119.105 95.0312 119.037 95.3856C118.98 95.6371 119.071 95.9116 119.094 96.1745C119.445 99.4103 121.009 101.914 123.809 103.481C127.198 105.39 130.632 105.242 133.863 103.046C136.538 101.228 137.932 98.6099 138.011 95.3284C138.011 94.974 137.683 94.5852 137.467 94.2308ZM128.49 80.9447C130.519 85.3353 132.514 89.6344 134.52 93.9792C130.485 93.9792 126.518 93.9792 122.46 93.9792C124.466 89.623 126.45 85.3467 128.49 80.9447ZM128.853 102.314C124.999 102.509 121.95 99.5818 121.519 96.3803C126.178 96.3803 130.836 96.3803 135.495 96.3803C135.166 99.2274 132.423 102.132 128.853 102.314Z" fill="url(#paint1_linear_1_2626)"/>
<path d="M118.765 106.614C118.346 106.488 118.221 106.305 118.221 105.871C118.21 103.858 117.303 102.338 115.49 101.514C114.764 101.183 113.891 101.103 113.075 101.034C112.146 100.954 111.205 101.011 110.242 101.011C110.219 100.783 110.208 100.634 110.208 100.485C110.208 92.939 110.208 85.3927 110.196 77.8464C110.196 77.5034 110.287 77.3547 110.627 77.2404C111.715 76.8745 112.622 76.2342 113.245 75.2509C113.472 74.8965 113.699 74.8622 114.084 74.9765C118.199 76.177 132.662 80.3961 133.376 80.5676C134.09 80.7391 134.702 80.3961 134.872 79.7787C135.053 79.1155 134.725 78.5438 133.999 78.2809C133.909 78.2466 133.818 78.2237 133.727 78.1894C127.493 76.3829 121.259 74.5763 115.013 72.8041C114.413 72.6326 114.197 72.381 114.141 71.7522C113.971 69.6026 112.44 67.8189 110.378 67.2472C108.292 66.6756 106.025 67.5102 104.801 69.3282C104.585 69.6598 104.393 69.7169 104.019 69.614C101.072 68.7451 98.1133 67.8875 95.1549 67.0414C91.7545 66.0696 88.3654 65.0863 84.9763 64.103C84.0469 63.84 83.4008 64.0801 83.1854 64.7775C82.9474 65.5322 83.3781 66.1267 84.3416 66.4011C85.3277 66.687 99.3941 70.7803 102.976 71.775C103.622 71.958 103.849 72.221 103.917 72.8955C104.143 74.9994 105.3 76.4286 107.249 77.1718C107.691 77.3433 107.85 77.5262 107.85 78.0065C107.839 85.3012 107.839 92.6074 107.839 99.9022C107.839 101.011 107.839 101 106.728 101.011C105.674 101.034 104.585 100.943 103.565 101.148C101.253 101.606 99.8589 103.424 99.8135 105.848C99.8022 106.271 99.7115 106.477 99.2808 106.602C98.2833 106.888 97.5126 107.517 96.9005 108.352C96.0277 109.552 95.971 110.924 95.9937 112.331C96.0164 113.531 96.4471 113.977 97.6373 113.977C101.128 113.977 104.631 113.977 108.122 113.977C112.236 113.977 116.362 113.977 120.477 113.977C121.531 113.977 122.007 113.508 122.018 112.456C122.03 112.056 122.03 111.656 122.018 111.256C121.973 109.049 120.715 107.22 118.765 106.614ZM106.195 72.2896C106.195 70.7346 107.464 69.4768 109.006 69.4654C110.582 69.4654 111.862 70.746 111.84 72.3239C111.817 73.8903 110.559 75.1251 109.006 75.1137C107.453 75.1251 106.195 73.856 106.195 72.2896ZM104.744 103.389C106.138 103.367 107.533 103.378 108.927 103.378C110.355 103.378 111.794 103.367 113.223 103.378C115.002 103.401 116.022 104.59 115.807 106.305C111.284 106.305 106.75 106.305 102.194 106.305C102.024 104.601 103.01 103.424 104.744 103.389ZM119.627 111.576C112.542 111.576 105.492 111.576 98.442 111.576C98.204 110.318 99.0201 109.061 100.301 108.821C100.562 108.775 100.822 108.752 101.083 108.752C106.365 108.752 111.658 108.741 116.94 108.752C118.731 108.752 119.763 109.861 119.627 111.576Z" fill="url(#paint2_linear_1_2626)"/>
<defs>
<filter id="filter0_d_1_2626" x="0" y="0" width="216" height="216" filterUnits="userSpaceOnUse" color-interpolation-filters="sRGB">
<feFlood flood-opacity="0" result="BackgroundImageFix"/>
<feColorMatrix in="SourceAlpha" type="matrix" values="0 0 0 0 0 0 0 0 0 0 0 0 0 0 0 0 0 0 127 0" result="hardAlpha"/>
<feOffset dy="20"/>
<feGaussianBlur stdDeviation="25"/>
<feComposite in2="hardAlpha" operator="out"/>
<feColorMatrix type="matrix" values="0 0 0 0 0.14902 0 0 0 0 0.784314 0 0 0 0 0.933333 0 0 0 0.5 0"/>
<feBlend mode="normal" in2="BackgroundImageFix" result="effect1_dropShadow_1_2626"/>
<feBlend mode="normal" in="SourceGraphic" in2="effect1_dropShadow_1_2626" result="shape"/>
</filter>
<linearGradient id="paint0_linear_1_2626" x1="80" y1="67.4302" x2="103.729" y2="73.669" gradientUnits="userSpaceOnUse">
<stop stop-color="#172E65"/>
<stop offset="1" stop-color="#311145"/>
</linearGradient>
<linearGradient id="paint1_linear_1_2626" x1="119.019" y1="78.7266" x2="142.729" y2="84.9297" gradientUnits="userSpaceOnUse">
<stop stop-color="#172E65"/>
<stop offset="1" stop-color="#311145"/>
</linearGradient>
<linearGradient id="paint2_linear_1_2626" x1="83.1211" y1="100.939" x2="134.921" y2="101.01" gradientUnits="userSpaceOnUse">
<stop stop-color="#00C0B4"/>
<stop offset="1" stop-color="#29C9F3"/>
</linearGradient>
</defs>
</svg>
