<svg width="216" height="216" viewBox="0 0 216 216" fill="none" xmlns="http://www.w3.org/2000/svg">
<g filter="url(#filter0_d_1_2633)">
<circle cx="108" cy="88" r="58" fill="white"/>
</g>
<circle cx="108" cy="88" r="45" fill="#F0F7F6"/>
<g clip-path="url(#clip0_1_2633)">
<path d="M130 89.4441C130 96.7341 130 104.024 130 111.331C130 114.82 127.801 117 124.272 117C113.418 117 102.582 117 91.7283 117C88.1991 117 86 114.82 86 111.331C86 96.8038 86 82.2762 86 67.7486C86 64.0338 88.1459 61.941 91.9589 61.9236C92.3136 61.9236 92.6683 61.9061 93.023 61.9236C94.495 62.0456 95.6655 61.9759 96.4281 60.2667C97.102 58.7146 98.769 58.017 100.56 58.017C105.526 57.9995 110.492 57.9821 115.457 58.017C117.728 58.0344 119.306 59.2203 120.21 61.226C120.459 61.8015 120.76 61.9236 121.328 61.9236C122.658 61.9061 123.988 61.8538 125.318 62.0108C128.067 62.3072 129.982 64.4524 129.982 67.2254C130 74.6374 130 82.032 130 89.4441ZM127.34 89.5139C127.34 82.1541 127.34 74.8118 127.34 67.4521C127.34 65.6383 126.276 64.5745 124.449 64.5396C123.385 64.5221 122.321 64.5745 121.257 64.5221C120.689 64.4873 120.459 64.714 120.228 65.2023C119.27 67.3474 117.55 68.4636 115.156 68.4811C110.332 68.4985 105.526 68.4985 100.702 68.4811C98.8577 68.4811 97.1374 67.8009 96.4103 66.1964C95.6477 64.4873 94.495 64.4175 93.0052 64.5396C92.6505 64.5745 92.2958 64.5396 91.9412 64.5396C89.6356 64.5396 88.6602 65.4988 88.6602 67.7834C88.6602 82.2762 88.6602 96.7864 88.6602 111.279C88.6602 113.372 89.6711 114.366 91.7993 114.366C102.617 114.366 113.436 114.366 124.254 114.366C126.311 114.366 127.322 113.355 127.322 111.297C127.34 104.042 127.34 96.769 127.34 89.5139ZM108.044 60.633C105.615 60.633 103.203 60.633 100.773 60.633C99.1769 60.633 98.0242 61.7143 98.0064 63.1967C97.9887 64.6965 99.1415 65.8476 100.773 65.865C105.579 65.8825 110.403 65.8825 115.209 65.865C116.841 65.865 117.994 64.714 117.976 63.1967C117.958 61.7143 116.805 60.6504 115.209 60.633C112.833 60.633 110.439 60.633 108.044 60.633Z" fill="url(#paint0_linear_1_2633)"/>
<path d="M98.6793 85.5556C99.3532 85.5556 100.045 85.5382 100.719 85.5556C102.9 85.6079 104.585 87.2299 104.638 89.375C104.674 90.7702 104.674 92.1654 104.638 93.5606C104.585 95.5837 102.989 97.2056 100.932 97.2928C99.4064 97.3626 97.8635 97.3626 96.3206 97.2928C94.4052 97.2056 92.8268 95.7232 92.7204 93.8571C92.614 92.2701 92.614 90.6656 92.7204 89.0785C92.8446 87.1252 94.4762 85.6602 96.4625 85.573C97.2073 85.5382 97.9522 85.5556 98.6793 85.5556ZM101.978 91.5027C101.978 90.8923 101.978 90.2819 101.978 89.6715C101.978 89.6192 101.978 89.5494 101.978 89.4971C101.925 88.6774 101.481 88.2065 100.648 88.1716C99.3178 88.1367 97.9877 88.1367 96.6576 88.1716C95.8595 88.1891 95.3806 88.6599 95.3629 89.4273C95.3274 90.7353 95.3452 92.0433 95.3629 93.3513C95.3806 94.1885 95.8418 94.6594 96.693 94.6594C98.0231 94.6768 99.3532 94.6942 100.683 94.6594C101.517 94.6419 101.96 94.1536 101.978 93.3165C101.996 92.7235 101.978 92.1131 101.978 91.5027Z" fill="url(#paint1_linear_1_2633)"/>
<path d="M98.609 104.181C99.478 103.274 100.134 102.577 100.826 101.897C101.588 101.147 102.316 101.077 102.919 101.652C103.539 102.263 103.468 102.978 102.67 103.763C101.979 104.443 101.269 105.106 100.436 105.908C101.269 106.658 102.032 107.338 102.759 108.036C103.486 108.733 103.521 109.448 102.954 110.024C102.369 110.617 101.659 110.582 100.932 109.884C100.187 109.169 99.478 108.437 98.6444 107.582C97.9173 108.349 97.2434 109.099 96.5517 109.797C95.7714 110.564 95.0797 110.634 94.459 110.059C93.8206 109.466 93.8915 108.751 94.7073 107.948C95.399 107.268 96.1084 106.623 97.0306 105.786C96.197 105.053 95.4522 104.443 94.7605 103.78C93.9092 102.978 93.8383 102.315 94.4413 101.67C95.0443 101.042 95.7714 101.112 96.5695 101.914C97.2079 102.629 97.8464 103.362 98.609 104.181Z" fill="url(#paint2_linear_1_2633)"/>
<path d="M96.6749 78.5268C97.9163 77.306 98.9627 76.2596 100.009 75.2132C100.772 74.4458 101.534 73.6785 102.315 72.9285C102.918 72.353 103.645 72.3007 104.212 72.789C104.78 73.2774 104.851 74.0447 104.265 74.6377C102.102 76.8526 99.9026 79.05 97.7035 81.2301C97.136 81.7881 96.4443 81.7533 95.8768 81.2126C94.9014 80.2883 93.9615 79.3291 93.0393 78.3524C92.525 77.8118 92.5427 77.1839 93.0393 76.6259C93.5358 76.0678 94.2807 75.998 94.8482 76.5387C95.4689 77.1142 96.0187 77.7943 96.6749 78.5268Z" fill="url(#paint3_linear_1_2633)"/>
<path d="M116.059 90.8042C117.939 90.8042 119.837 90.8042 121.717 90.8042C122.71 90.8042 123.278 91.2576 123.295 92.0599C123.331 92.8795 122.728 93.4202 121.717 93.4202C117.886 93.4376 114.038 93.4376 110.207 93.4202C109.232 93.4202 108.682 92.9144 108.664 92.1122C108.664 91.2925 109.196 90.8216 110.189 90.8216C112.158 90.7867 114.109 90.8042 116.059 90.8042Z" fill="url(#paint4_linear_1_2633)"/>
<path d="M116.081 109.135C114.165 109.135 112.25 109.135 110.335 109.135C109.288 109.135 108.703 108.664 108.703 107.844C108.703 107.007 109.271 106.536 110.317 106.519C114.13 106.519 117.925 106.519 121.738 106.519C122.767 106.519 123.352 107.024 123.334 107.861C123.317 108.664 122.749 109.117 121.756 109.135C119.858 109.135 117.961 109.135 116.081 109.135Z" fill="url(#paint5_linear_1_2633)"/>
<path d="M115.954 77.6724C114.038 77.6724 112.123 77.6724 110.208 77.6724C109.498 77.6724 108.913 77.3934 108.736 76.6609C108.576 76.033 108.789 75.4924 109.409 75.2133C109.658 75.0913 109.977 75.0564 110.261 75.0564C114.091 75.0389 117.922 75.0389 121.753 75.0564C122.764 75.0564 123.296 75.5447 123.296 76.347C123.296 77.1841 122.746 77.6724 121.682 77.6898C119.784 77.6898 117.869 77.6724 115.954 77.6724Z" fill="url(#paint6_linear_1_2633)"/>
<path d="M116.006 82.9219C117.886 82.9219 119.783 82.9219 121.663 82.9219C122.727 82.9219 123.295 83.3753 123.295 84.2124C123.295 85.0321 122.727 85.5379 121.681 85.5379C117.868 85.5553 114.073 85.5553 110.26 85.5379C109.213 85.5379 108.646 85.0147 108.681 84.1776C108.699 83.3753 109.231 82.9219 110.242 82.9219C112.175 82.9219 114.09 82.9219 116.006 82.9219Z" fill="url(#paint7_linear_1_2633)"/>
<path d="M115.957 101.269C114.095 101.269 112.233 101.269 110.388 101.269C109.289 101.269 108.686 100.798 108.704 99.9439C108.721 99.1242 109.289 98.6708 110.353 98.6533C114.13 98.6533 117.908 98.6533 121.685 98.6533C122.732 98.6533 123.317 99.1242 123.335 99.9265C123.352 100.764 122.732 101.252 121.632 101.269C119.735 101.287 117.855 101.269 115.957 101.269Z" fill="url(#paint8_linear_1_2633)"/>
</g>
<defs>
<filter id="filter0_d_1_2633" x="0" y="0" width="216" height="216" filterUnits="userSpaceOnUse" color-interpolation-filters="sRGB">
<feFlood flood-opacity="0" result="BackgroundImageFix"/>
<feColorMatrix in="SourceAlpha" type="matrix" values="0 0 0 0 0 0 0 0 0 0 0 0 0 0 0 0 0 0 127 0" result="hardAlpha"/>
<feOffset dy="20"/>
<feGaussianBlur stdDeviation="25"/>
<feComposite in2="hardAlpha" operator="out"/>
<feColorMatrix type="matrix" values="0 0 0 0 0.14902 0 0 0 0 0.784314 0 0 0 0 0.933333 0 0 0 0.5 0"/>
<feBlend mode="normal" in2="BackgroundImageFix" result="effect1_dropShadow_1_2633"/>
<feBlend mode="normal" in="SourceGraphic" in2="effect1_dropShadow_1_2633" result="shape"/>
</filter>
<linearGradient id="paint0_linear_1_2633" x1="86" y1="101.608" x2="130" y2="101.651" gradientUnits="userSpaceOnUse">
<stop stop-color="#00C0B4"/>
<stop offset="1" stop-color="#29C9F3"/>
</linearGradient>
<linearGradient id="paint1_linear_1_2633" x1="92.6406" y1="85.5479" x2="106.782" y2="90.7267" gradientUnits="userSpaceOnUse">
<stop stop-color="#172E65"/>
<stop offset="1" stop-color="#311145"/>
</linearGradient>
<linearGradient id="paint2_linear_1_2633" x1="94.0313" y1="101.249" x2="105.001" y2="105.244" gradientUnits="userSpaceOnUse">
<stop stop-color="#172E65"/>
<stop offset="1" stop-color="#311145"/>
</linearGradient>
<linearGradient id="paint3_linear_1_2633" x1="92.6602" y1="79.2396" x2="104.672" y2="79.2603" gradientUnits="userSpaceOnUse">
<stop stop-color="#00C0B4"/>
<stop offset="1" stop-color="#29C9F3"/>
</linearGradient>
<linearGradient id="paint4_linear_1_2633" x1="108.664" y1="92.7463" x2="123.296" y2="92.8532" gradientUnits="userSpaceOnUse">
<stop stop-color="#00C0B4"/>
<stop offset="1" stop-color="#29C9F3"/>
</linearGradient>
<linearGradient id="paint5_linear_1_2633" x1="108.703" y1="108.452" x2="123.334" y2="108.56" gradientUnits="userSpaceOnUse">
<stop stop-color="#00C0B4"/>
<stop offset="1" stop-color="#29C9F3"/>
</linearGradient>
<linearGradient id="paint6_linear_1_2633" x1="108.685" y1="76.9994" x2="123.295" y2="77.1055" gradientUnits="userSpaceOnUse">
<stop stop-color="#00C0B4"/>
<stop offset="1" stop-color="#29C9F3"/>
</linearGradient>
<linearGradient id="paint7_linear_1_2633" x1="108.68" y1="82.9219" x2="112.587" y2="90.7256" gradientUnits="userSpaceOnUse">
<stop stop-color="#172E65"/>
<stop offset="1" stop-color="#311145"/>
</linearGradient>
<linearGradient id="paint8_linear_1_2633" x1="108.703" y1="98.6533" x2="112.595" y2="106.451" gradientUnits="userSpaceOnUse">
<stop stop-color="#172E65"/>
<stop offset="1" stop-color="#311145"/>
</linearGradient>
<clipPath id="clip0_1_2633">
<rect width="44" height="59" fill="white" transform="translate(86 58)"/>
</clipPath>
</defs>
</svg>
