<svg width="216" height="216" viewBox="0 0 216 216" fill="none" xmlns="http://www.w3.org/2000/svg">
<g filter="url(#filter0_d_1_2595)">
<circle cx="108" cy="88" r="58" fill="white"/>
</g>
<circle cx="108" cy="88" r="45" fill="#F0F7F6"/>
<path d="M107.829 102.228C105.654 102.228 103.543 101.8 101.557 100.955C99.6398 100.139 97.9154 98.9714 96.4383 97.482C94.9576 95.9925 93.7971 94.2616 92.9858 92.333C92.1454 90.3349 91.7197 88.2123 91.7197 86.0239C91.7197 83.8355 92.1454 81.713 92.9858 79.7149C93.7971 77.7863 94.9576 76.0517 96.4383 74.5659C97.919 73.0765 99.6398 71.9091 101.557 71.093C103.543 70.2476 105.654 69.8195 107.829 69.8195C110.005 69.8195 112.115 70.2476 114.101 71.093C116.018 71.9091 117.743 73.0765 119.22 74.5659C120.701 76.0553 121.861 77.7863 122.673 79.7149C123.513 81.713 123.939 83.8355 123.939 86.0239C123.939 88.2123 123.513 90.3349 122.673 92.333C121.861 94.2616 120.701 95.9962 119.22 97.482C117.739 98.9677 116.018 100.139 114.101 100.955C112.115 101.8 110.005 102.228 107.829 102.228ZM107.829 71.6492C105.901 71.6492 104.027 72.0298 102.267 72.78C100.564 73.5046 99.0359 74.5403 97.7226 75.8614C96.4092 77.1825 95.3796 78.7195 94.6593 80.4321C93.9135 82.2034 93.5351 84.0844 93.5351 86.0276C93.5351 87.9671 93.9135 89.8518 94.6593 91.623C95.3796 93.3357 96.4092 94.8727 97.7226 96.1938C99.0359 97.5149 100.564 98.5506 102.267 99.2751C104.027 100.025 105.897 100.406 107.829 100.406C109.761 100.406 111.631 100.025 113.392 99.2751C115.094 98.5506 116.622 97.5149 117.936 96.1938C119.249 94.8727 120.279 93.3357 120.999 91.623C121.745 89.8518 122.123 87.9708 122.123 86.0276C122.123 84.088 121.745 82.2034 120.999 80.4321C120.279 78.7195 119.249 77.1825 117.936 75.8614C116.622 74.5403 115.094 73.5046 113.392 72.78C111.631 72.0262 109.761 71.6492 107.829 71.6492Z" fill="url(#paint0_linear_1_2595)" stroke="url(#paint1_linear_1_2595)"/>
<path d="M107.829 94.0016C105.712 94.0016 103.718 93.1709 102.219 91.6632C100.72 90.1555 99.8945 88.1537 99.8945 86.0202C99.8945 83.8903 100.72 81.8849 102.219 80.3771C103.718 78.8694 105.708 78.0387 107.829 78.0387C109.95 78.0387 111.94 78.8694 113.439 80.3771C114.938 81.8849 115.764 83.8867 115.764 86.0202C115.764 88.15 114.938 90.1555 113.439 91.6632C111.94 93.1709 109.947 94.0016 107.829 94.0016ZM107.829 79.8758C104.46 79.8758 101.717 82.6351 101.717 86.0238C101.717 89.4126 104.46 92.1719 107.829 92.1719C111.198 92.1719 113.941 89.4126 113.941 86.0238C113.941 82.6314 111.202 79.8758 107.829 79.8758Z" fill="url(#paint2_linear_1_2595)" stroke="url(#paint3_linear_1_2595)"/>
<path d="M107.83 110.999C104.479 110.999 101.227 110.341 98.1635 109.038C95.2057 107.779 92.5499 105.979 90.2725 103.684C87.9914 101.389 86.2015 98.718 84.95 95.7465C83.6549 92.6651 83 89.3935 83 86.0231C83 82.6526 83.6549 79.381 84.95 76.2996C86.2015 73.3244 87.9914 70.653 90.2725 68.3621C92.5536 66.0676 95.2094 64.2671 98.1635 63.0082C101.227 61.7054 104.476 61.0467 107.83 61.0467C111.184 61.0467 114.433 61.7054 117.496 63.0082C120.454 64.2671 123.11 66.0676 125.387 68.3621C127.668 70.6566 129.458 73.3281 130.71 76.2996C132.005 79.381 132.66 82.649 132.66 86.0231C132.66 89.3972 132.005 92.6651 130.71 95.7465C129.458 98.7217 127.668 101.393 125.387 103.684C123.106 105.979 120.45 107.779 117.496 109.038C114.433 110.337 111.181 110.999 107.83 110.999ZM107.83 62.8764C104.723 62.8764 101.711 63.4876 98.8729 64.6952C96.1334 65.8626 93.6705 67.5314 91.5567 69.6576C89.443 71.7838 87.7841 74.2576 86.6235 77.0169C85.423 79.8714 84.8154 82.9015 84.8154 86.0267C84.8154 89.152 85.423 92.1821 86.6235 95.0365C87.7841 97.7922 89.443 100.27 91.5567 102.396C93.6705 104.522 96.1298 106.191 98.8729 107.358C101.711 108.566 104.723 109.177 107.83 109.177C110.937 109.177 113.949 108.566 116.787 107.358C119.526 106.191 121.989 104.522 124.103 102.396C126.217 100.27 127.876 97.7958 129.036 95.0365C130.237 92.1821 130.844 89.152 130.844 86.0267C130.844 82.9015 130.237 79.8714 129.036 77.0169C127.876 74.2613 126.217 71.7838 124.103 69.6576C121.989 67.5314 119.53 65.8626 116.787 64.6952C113.949 63.4876 110.937 62.8764 107.83 62.8764Z" fill="url(#paint4_linear_1_2595)" stroke="url(#paint5_linear_1_2595)"/>
<path d="M107.823 87.3158L106.535 86.0203L125.584 66.8626L125.617 60.7292C125.617 60.4913 125.711 60.2681 125.875 60.0961L136.316 49.2785C136.575 49.0113 136.964 48.9272 137.31 49.0662C137.652 49.2053 137.877 49.5383 137.881 49.9079L137.921 55.6424L144 54.9801C144.386 54.9398 144.753 55.1447 144.92 55.4961C145.088 55.8474 145.015 56.2646 144.739 56.539L133.566 67.6787C133.402 67.8397 133.184 67.9349 132.955 67.9422L126.89 68.1435L107.823 87.3158ZM137.393 57.5747L128.764 66.2515L132.529 66.127L141.603 57.0806L137.928 57.4795V57.5674L137.393 57.5747ZM127.436 61.1061L127.414 65.0219L136.102 56.2865L136.073 52.1549L127.436 61.1061Z" fill="url(#paint6_linear_1_2595)" stroke="url(#paint7_linear_1_2595)"/>
<path d="M107.664 87.8683C108.717 87.8683 109.571 87.0098 109.571 85.9508C109.571 84.8917 108.717 84.0332 107.664 84.0332C106.611 84.0332 105.758 84.8917 105.758 85.9508C105.758 87.0098 106.611 87.8683 107.664 87.8683Z" fill="url(#paint8_linear_1_2595)"/>
<defs>
<filter id="filter0_d_1_2595" x="0" y="0" width="216" height="216" filterUnits="userSpaceOnUse" color-interpolation-filters="sRGB">
<feFlood flood-opacity="0" result="BackgroundImageFix"/>
<feColorMatrix in="SourceAlpha" type="matrix" values="0 0 0 0 0 0 0 0 0 0 0 0 0 0 0 0 0 0 127 0" result="hardAlpha"/>
<feOffset dy="20"/>
<feGaussianBlur stdDeviation="25"/>
<feComposite in2="hardAlpha" operator="out"/>
<feColorMatrix type="matrix" values="0 0 0 0 0.14902 0 0 0 0 0.784314 0 0 0 0 0.933333 0 0 0 0.5 0"/>
<feBlend mode="normal" in2="BackgroundImageFix" result="effect1_dropShadow_1_2595"/>
<feBlend mode="normal" in="SourceGraphic" in2="effect1_dropShadow_1_2595" result="shape"/>
</filter>
<linearGradient id="paint0_linear_1_2595" x1="91.7197" y1="93.7739" x2="123.939" y2="93.816" gradientUnits="userSpaceOnUse">
<stop stop-color="#00C0B4"/>
<stop offset="1" stop-color="#29C9F3"/>
</linearGradient>
<linearGradient id="paint1_linear_1_2595" x1="91.7197" y1="93.7739" x2="123.939" y2="93.816" gradientUnits="userSpaceOnUse">
<stop stop-color="#00C0B4"/>
<stop offset="1" stop-color="#29C9F3"/>
</linearGradient>
<linearGradient id="paint2_linear_1_2595" x1="99.8945" y1="89.8374" x2="115.764" y2="89.8581" gradientUnits="userSpaceOnUse">
<stop stop-color="#00C0B4"/>
<stop offset="1" stop-color="#29C9F3"/>
</linearGradient>
<linearGradient id="paint3_linear_1_2595" x1="99.8945" y1="89.8374" x2="115.764" y2="89.8581" gradientUnits="userSpaceOnUse">
<stop stop-color="#00C0B4"/>
<stop offset="1" stop-color="#29C9F3"/>
</linearGradient>
<linearGradient id="paint4_linear_1_2595" x1="83" y1="97.9683" x2="132.66" y2="98.0332" gradientUnits="userSpaceOnUse">
<stop stop-color="#00C0B4"/>
<stop offset="1" stop-color="#29C9F3"/>
</linearGradient>
<linearGradient id="paint5_linear_1_2595" x1="83" y1="97.9683" x2="132.66" y2="98.0332" gradientUnits="userSpaceOnUse">
<stop stop-color="#00C0B4"/>
<stop offset="1" stop-color="#29C9F3"/>
</linearGradient>
<linearGradient id="paint6_linear_1_2595" x1="106.535" y1="49" x2="151.943" y2="65.3827" gradientUnits="userSpaceOnUse">
<stop stop-color="#172E65"/>
<stop offset="1" stop-color="#311145"/>
</linearGradient>
<linearGradient id="paint7_linear_1_2595" x1="106.535" y1="49" x2="151.943" y2="65.3827" gradientUnits="userSpaceOnUse">
<stop stop-color="#172E65"/>
<stop offset="1" stop-color="#311145"/>
</linearGradient>
<linearGradient id="paint8_linear_1_2595" x1="105.758" y1="86.8679" x2="109.571" y2="86.8728" gradientUnits="userSpaceOnUse">
<stop stop-color="#00C0B4"/>
<stop offset="1" stop-color="#29C9F3"/>
</linearGradient>
</defs>
</svg>
