<svg width="206" height="206" viewBox="0 0 206 206" fill="none" xmlns="http://www.w3.org/2000/svg">
<g filter="url(#filter0_d_1_3193)">
<circle cx="103" cy="98" r="78" fill="white"/>
</g>
<circle cx="103" cy="98" r="60" fill="#F0F7F6"/>
<path d="M137.292 86.0983C135.219 86.0983 133.478 87.8364 133.478 89.9422V101.574L131.87 103.429C131.638 102.727 131.173 102.142 130.709 101.691C129.084 100.17 126.547 100.404 125.171 102.042L118.589 110.415C118.008 111.234 117.776 112.153 117.776 113.089V120.426H116.615C115.919 120.426 115.223 121.011 115.223 121.83V129.635C115.223 130.337 115.803 131.039 116.615 131.039H134.175C134.871 131.039 135.567 130.454 135.567 129.635V121.83C135.567 121.128 134.987 120.426 134.175 120.426H132.55V118.571C132.55 117.986 132.666 117.401 133.014 116.933L140.525 106.571C140.873 106.103 140.989 105.401 140.989 104.833V89.9422C141.105 87.8531 139.364 86.0983 137.292 86.0983ZM133.246 128.582H117.66V122.766H133.246V128.582ZM138.784 104.85C138.784 104.967 138.784 105.201 138.668 105.318L131.157 115.68C130.577 116.616 130.344 117.535 130.344 118.588V120.443H120.18V113.223C120.18 112.755 120.296 112.287 120.529 111.936L126.995 103.68C127.459 102.978 128.504 102.978 129.068 103.563C129.996 104.499 129.996 105.652 129.3 106.471L128.139 107.875C127.675 108.343 127.791 109.045 128.255 109.513C128.719 109.981 129.416 109.864 129.88 109.396L135.302 103.112C135.534 102.878 135.65 102.527 135.65 102.293V89.9589C135.65 89.14 136.347 88.438 137.159 88.438C137.972 88.438 138.668 89.14 138.668 89.9589V104.85H138.784Z" fill="url(#paint0_linear_1_3193)"/>
<path d="M89.2578 120.443H88.0971V113.223C88.0971 112.287 87.7489 111.368 87.1686 110.432L80.7021 102.176C79.4253 100.538 76.8885 100.087 75.1641 101.825C74.6998 102.293 74.3516 102.878 74.1195 103.463L72.6272 101.691V90.0594C72.6272 87.9703 70.9028 86.2155 68.8136 86.2155C66.741 86.2155 65 87.9536 65 90.0594V104.833C65 105.418 65.2321 106.003 65.5803 106.571L72.9754 116.816C73.3236 117.284 73.4396 117.869 73.4396 118.554V120.41H71.6987C71.0023 120.41 70.3059 120.995 70.3059 121.813V129.618C70.3059 130.32 70.8862 131.022 71.6987 131.022H89.2578C89.9542 131.022 90.6506 130.437 90.6506 129.618V121.83C90.634 121.011 90.0536 120.443 89.2578 120.443ZM74.6998 115.546L67.3047 105.301C67.1887 105.184 67.1887 105.067 67.1887 104.833V90.0594C67.1887 89.2404 67.8851 88.5385 68.6975 88.5385C69.51 88.5385 70.2064 89.2404 70.2064 90.0594V102.042C70.2064 102.276 70.3224 102.744 70.5546 102.861L75.9765 109.145C76.4408 109.613 77.1372 109.73 77.6014 109.262C78.0657 108.794 78.1818 108.092 77.7175 107.624L76.5568 106.221C75.8604 105.402 75.9765 104.131 76.6729 103.429C77.4854 102.728 78.3973 102.845 78.8616 103.546L85.3281 111.803C85.5602 112.154 85.7924 112.738 85.7924 113.206V120.426H75.6283V118.571C75.6283 117.535 75.2801 116.482 74.6998 115.546ZM88.3292 128.582H72.7432V122.766H88.3292V128.582Z" fill="url(#paint1_linear_1_3193)"/>
<path d="M81.0513 100.07H124.924C125.621 100.07 126.085 99.6021 126.085 98.9001V74.9342C126.085 74.2322 125.621 73.7643 124.924 73.7643H81.0513C80.3549 73.7643 79.8906 74.2322 79.8906 74.9342V98.9168C79.9072 99.4851 80.3549 100.07 81.0513 100.07ZM88.5624 75.9704H117.314C117.778 79.3463 120.431 82.0203 123.78 82.4883V91.0953C120.431 91.5633 117.894 94.2373 117.314 97.7302H88.5624C88.0981 94.3543 85.4452 91.6803 82.0959 91.2123V82.6053C85.4452 82.0203 88.0981 79.3463 88.5624 75.9704ZM82.2119 93.5521C84.2845 94.02 85.7934 95.6412 86.2577 97.7469H82.2119V93.5521ZM119.734 97.7469C120.199 95.6579 121.807 94.02 123.78 93.5521V97.7469H119.734ZM123.78 80.1652C121.707 79.6973 120.199 78.0761 119.734 75.9704H123.78V80.1652ZM86.2577 75.9704C85.7934 78.0594 84.1851 79.6973 82.2119 80.1652V75.9704H86.2577Z" fill="url(#paint2_linear_1_3193)"/>
<path d="M102.988 96.8108C108.41 96.8108 112.804 92.265 112.804 86.7999C112.804 81.3349 108.41 76.7891 102.988 76.7891C97.5658 76.7891 93.1719 81.3349 93.1719 86.7999C93.1719 92.265 97.5658 96.8108 102.988 96.8108ZM102.988 79.2291C107.15 79.2291 110.499 82.7221 110.499 86.9169C110.499 91.1118 107.15 94.6048 102.988 94.6048C98.8259 94.6048 95.4766 91.1118 95.4766 86.9169C95.4932 82.7221 98.8425 79.2291 102.988 79.2291Z" fill="url(#paint3_linear_1_3193)"/>
<path d="M100.216 88.8893L99.1719 90.1762C100.216 91.1121 101.361 91.58 102.637 91.697V92.7499H103.566V91.697C104.494 91.697 105.29 91.346 105.871 90.8781C106.451 90.2931 106.799 89.7082 106.799 88.789C106.799 87.9701 106.567 87.2681 105.987 86.9339C105.522 86.4659 104.71 86.115 103.566 85.881V83.207C104.262 83.324 104.959 83.5579 105.522 84.0259L106.451 82.739C105.522 82.1541 104.61 81.6861 103.566 81.6861V80.8672H102.637V81.5691C101.709 81.5691 101.012 81.9201 100.449 82.388C99.8683 82.973 99.6361 83.5579 99.6361 84.3601C99.6361 85.1623 99.8683 85.764 100.333 86.2152C100.797 86.6832 101.609 87.0342 102.637 87.2681V90.1762C101.841 90.0592 101.029 89.5912 100.216 88.8893ZM103.566 87.6191C104.146 87.7361 104.494 87.9701 104.726 88.2041C104.959 88.438 105.075 88.672 105.075 89.023C105.075 89.3739 104.959 89.6079 104.726 89.8419C104.494 90.0759 104.146 90.1929 103.682 90.1929V87.6358L103.566 87.6191ZM101.609 85.0454C101.377 84.8114 101.377 84.5774 101.377 84.2264C101.377 83.8755 101.493 83.6415 101.725 83.4075C101.957 83.1735 102.306 83.0566 102.77 83.0566V85.4966C102.19 85.5133 101.841 85.2793 101.609 85.0454Z" fill="url(#paint4_linear_1_3193)"/>
<path d="M101.031 72.5945C101.728 72.5945 102.424 72.4775 102.988 72.3605C103.568 72.4775 104.265 72.5945 104.945 72.5945C110.018 72.5945 114.18 68.3996 114.18 63.2855C114.18 58.1714 110.035 53.9766 104.961 53.9766C104.265 53.9766 103.684 54.0936 103.005 54.2105C102.424 54.2105 101.728 54.0936 101.048 54.0936C95.9743 54.0936 91.8125 58.2884 91.8125 63.4025C91.8125 68.5166 95.9577 72.5945 101.031 72.5945ZM111.892 63.4025C111.892 66.1935 110.267 68.6336 107.846 69.6865C109.355 68.0486 110.383 65.8426 110.383 63.4025C110.383 60.9625 109.455 58.7397 107.846 57.1185C110.151 58.1714 111.892 60.6115 111.892 63.4025ZM101.031 56.4166C104.845 56.4166 107.962 59.5586 107.962 63.4025C107.962 67.2464 104.845 70.3884 101.031 70.3884C97.2179 70.3884 94.1007 67.2464 94.1007 63.4025C94.1007 59.5586 97.2179 56.4166 101.031 56.4166Z" fill="url(#paint5_linear_1_3193)"/>
<path d="M98.491 65.2742L97.5625 66.444C98.491 67.263 99.6351 67.7309 100.796 67.8479V68.7838H101.608V67.8479C102.537 67.8479 103.233 67.4969 103.797 67.029C104.377 66.561 104.609 65.8591 104.609 65.1739C104.609 64.355 104.377 63.77 103.913 63.4358C103.449 63.0848 102.752 62.7338 101.724 62.4999V60.0264C102.421 60.1434 103.001 60.3773 103.565 60.8453L104.377 59.6754C103.565 59.0905 102.653 58.7395 101.608 58.6225V57.8203H100.796V58.5222C99.9833 58.5222 99.2869 58.8732 98.7232 59.3412C98.1594 59.8091 97.9107 60.5111 97.9107 61.1963C97.9107 62.0152 98.1428 62.6001 98.6071 62.9344C99.0714 63.2854 99.7677 63.6363 100.796 63.8703V66.4273C99.9833 66.3103 99.1874 65.9594 98.491 65.2742ZM101.608 64.1043C102.189 64.2213 102.537 64.4552 102.653 64.5722C102.885 64.8062 103.001 65.0402 103.001 65.2742C103.001 65.6251 102.885 65.8591 102.653 66.0931C102.421 66.3271 102.072 66.444 101.608 66.444V64.1043ZM99.7512 61.7812C99.6351 61.5472 99.519 61.3133 99.519 61.0793C99.519 60.7283 99.6351 60.4943 99.8672 60.3774C100.099 60.1434 100.448 60.0264 100.796 60.0264V62.3494C100.331 62.1322 99.9833 61.8982 99.7512 61.7812Z" fill="url(#paint6_linear_1_3193)"/>
<defs>
<filter id="filter0_d_1_3193" x="0" y="0" width="206" height="206" filterUnits="userSpaceOnUse" color-interpolation-filters="sRGB">
<feFlood flood-opacity="0" result="BackgroundImageFix"/>
<feColorMatrix in="SourceAlpha" type="matrix" values="0 0 0 0 0 0 0 0 0 0 0 0 0 0 0 0 0 0 127 0" result="hardAlpha"/>
<feOffset dy="5"/>
<feGaussianBlur stdDeviation="12.5"/>
<feComposite in2="hardAlpha" operator="out"/>
<feColorMatrix type="matrix" values="0 0 0 0 0.109804 0 0 0 0 0.0862745 0 0 0 0 0.294118 0 0 0 0.2 0"/>
<feBlend mode="normal" in2="BackgroundImageFix" result="effect1_dropShadow_1_3193"/>
<feBlend mode="normal" in="SourceGraphic" in2="effect1_dropShadow_1_3193" result="shape"/>
</filter>
<linearGradient id="paint0_linear_1_3193" x1="115.223" y1="119.315" x2="140.995" y2="119.334" gradientUnits="userSpaceOnUse">
<stop stop-color="#00C0B4"/>
<stop offset="1" stop-color="#29C9F3"/>
</linearGradient>
<linearGradient id="paint1_linear_1_3193" x1="65" y1="119.333" x2="90.6508" y2="119.353" gradientUnits="userSpaceOnUse">
<stop stop-color="#00C0B4"/>
<stop offset="1" stop-color="#29C9F3"/>
</linearGradient>
<linearGradient id="paint2_linear_1_3193" x1="79.8906" y1="73.7643" x2="123.961" y2="101.571" gradientUnits="userSpaceOnUse">
<stop stop-color="#172E65"/>
<stop offset="1" stop-color="#311145"/>
</linearGradient>
<linearGradient id="paint3_linear_1_3193" x1="93.1719" y1="76.7891" x2="116.466" y2="84.9957" gradientUnits="userSpaceOnUse">
<stop stop-color="#172E65"/>
<stop offset="1" stop-color="#311145"/>
</linearGradient>
<linearGradient id="paint4_linear_1_3193" x1="99.1719" y1="80.8672" x2="108.831" y2="83.095" gradientUnits="userSpaceOnUse">
<stop stop-color="#172E65"/>
<stop offset="1" stop-color="#311145"/>
</linearGradient>
<linearGradient id="paint5_linear_1_3193" x1="91.8125" y1="67.7376" x2="114.18" y2="67.773" gradientUnits="userSpaceOnUse">
<stop stop-color="#00C0B4"/>
<stop offset="1" stop-color="#29C9F3"/>
</linearGradient>
<linearGradient id="paint6_linear_1_3193" x1="97.5625" y1="65.9238" x2="104.609" y2="65.9297" gradientUnits="userSpaceOnUse">
<stop stop-color="#00C0B4"/>
<stop offset="1" stop-color="#29C9F3"/>
</linearGradient>
</defs>
</svg>
