<svg width="400" height="428" viewBox="0 0 400 428" fill="none" xmlns="http://www.w3.org/2000/svg">
<path opacity="0.5" d="M0 427.916H135.092C136.148 425.539 136.148 421.973 136.148 419.595C136.148 406.52 129.815 397.011 118.206 392.256C106.596 387.502 87.5989 382.747 61.2137 377.992C36.9393 373.238 15.8311 368.483 0 363.729V427.916H0ZM392.612 154.525C384.169 159.28 377.836 167.6 373.615 177.11C369.393 186.619 366.227 198.505 366.227 210.392C366.227 223.467 368.338 234.165 373.615 243.674C378.892 253.184 385.224 260.316 392.612 266.259L394.723 267.448C397.889 250.806 400 232.976 400 213.958C400 192.562 397.889 172.355 392.612 154.525ZM0 1.18866V64.1874C15.8311 64.1874 28.496 58.2441 37.9947 46.3576C48.5488 34.471 52.7704 19.0185 52.7704 0H0V1.18866ZM96.0422 1.18866C96.0422 21.3958 91.8206 39.2256 83.3773 54.6782C75.9894 71.3193 64.3799 83.2059 49.6042 92.7151C34.8285 101.036 18.9974 105.79 0 105.79V162.846C21.1082 153.337 47.4934 148.582 77.0449 148.582C93.9314 148.582 110.818 149.771 127.704 153.337V112.922H181.53C208.971 112.922 231.135 121.243 246.966 139.073C263.852 156.903 271.24 181.864 271.24 213.958C271.24 246.052 262.797 271.013 246.966 288.843C230.079 306.673 208.971 314.994 181.53 314.994H127.704V225.845C111.873 221.09 94.9868 218.713 75.9894 218.713C52.7704 218.713 35.8839 222.279 24.2744 230.599C12.6649 237.731 6.33245 248.429 6.33245 261.504C6.33245 275.768 12.6649 285.277 25.3298 291.221C37.9947 297.164 58.0475 303.107 84.4327 307.862C110.818 312.616 132.982 317.371 149.868 324.503C166.755 330.446 181.53 341.144 194.195 355.408C206.86 369.672 212.137 391.068 212.137 417.218C212.137 420.784 212.137 424.35 212.137 427.916C243.799 425.539 273.351 417.218 298.681 402.954C313.456 394.634 327.177 385.124 339.842 373.238V316.182H379.947C381.003 313.805 382.058 312.616 382.058 310.239C376.781 307.862 372.559 305.484 368.338 303.107C354.617 294.787 343.008 281.711 335.62 266.259C327.177 250.806 324.011 231.788 324.011 211.581C324.011 191.374 328.232 172.355 335.62 156.903C339.842 147.393 346.174 140.261 352.507 133.129H348.285V65.3761C334.565 49.9235 317.678 36.8483 298.681 27.3391C265.963 9.50924 229.024 1.18866 186.807 1.18866H96.0422Z" fill="url(#paint0_linear_1_1021)" fill-opacity="0.2"/>
<defs>
<linearGradient id="paint0_linear_1_1021" x1="0" y1="0" x2="479.447" y2="161.03" gradientUnits="userSpaceOnUse">
<stop stop-color="#316EFF"/>
<stop offset="1" stop-color="#D4008C"/>
</linearGradient>
</defs>
</svg>
