<svg width="65" height="65" viewBox="0 0 65 65" fill="none" xmlns="http://www.w3.org/2000/svg">
<circle cx="32.5" cy="32.5" r="32.5" fill="url(#paint0_linear_1_1684)"/>
<path d="M52.6892 14.4369C52.5724 14.2388 52.4599 14.0281 52.1598 14.0323C51.0969 14.045 50.034 14.0323 48.9711 14.0323C48.8877 14.0323 48.7877 14.0323 48.7043 14.0323C48.7043 13.9481 48.7043 13.8764 48.7043 13.8006C48.7043 12.7598 48.6834 11.7232 48.7126 10.6825C48.721 10.3201 48.5417 10.1515 48.2875 9.99563C48.2583 9.97878 48.2291 9.94507 48.1999 9.94507C48.104 9.94507 48.004 9.94507 47.9081 9.94507C47.7289 10.0715 47.533 10.2274 47.3663 10.3917C45.8949 11.8707 44.411 13.3413 42.9646 14.8498C42.0225 15.8316 41.9558 15.9749 41.9517 17.3443C41.9475 18.1533 41.9517 18.9581 41.9433 19.7672C41.9433 19.8557 41.9058 19.9652 41.8475 20.0242C41.1305 20.7574 40.4052 21.4864 39.6883 22.2195C39.6049 22.308 39.5466 22.3164 39.4465 22.2364C39.1881 22.0257 38.9255 21.8192 38.6546 21.6254C37.0123 20.4709 35.2116 19.7545 33.1941 19.6281C32.2896 19.5691 31.3851 19.5818 30.4972 19.7377C27.817 20.2138 25.6162 21.5453 23.9072 23.6733C22.5191 25.4009 21.6646 27.3687 21.5521 29.6188C21.5104 30.4362 21.4937 31.2663 21.5854 32.0796C21.7438 33.4869 22.2107 34.8142 22.9276 36.032C24.2948 38.3537 26.2122 40.0308 28.7549 40.9325C29.4885 41.1938 30.2346 41.4424 31.0224 41.4719C31.8144 41.5014 32.6064 41.5056 33.3942 41.4929C33.761 41.4887 34.1278 41.4466 34.4863 41.3665C37.2248 40.7555 39.4882 39.3482 41.1305 37.0559C42.8937 34.5909 43.5815 31.8183 43.0771 28.7802C42.8145 27.179 42.2351 25.7043 41.3181 24.3727C41.0638 24.0019 40.7887 23.6438 40.4928 23.235C40.5428 23.2013 40.597 23.1803 40.6387 23.1423C41.3389 22.4386 42.0392 21.7392 42.7311 21.0313C42.8478 20.9133 42.9646 20.8627 43.1313 20.8627C44.165 20.8543 45.1988 20.8417 46.2367 20.8206C46.5951 20.8122 46.9369 20.7363 47.212 20.4751C47.3663 20.3318 47.533 20.2054 47.6831 20.0579C48.9252 18.8317 50.1674 17.6055 51.397 16.3667C51.8305 15.9327 52.2306 15.465 52.6391 15.0099C52.7934 14.8287 52.7975 14.6223 52.6892 14.4369ZM39.0756 37.4099C35.3616 41.2148 29.1217 41.198 25.3786 37.1149C21.723 33.1288 22.0231 27.1411 25.8163 23.5553C29.8762 19.7166 35.4116 20.3992 38.592 23.2687C37.6417 24.2505 36.6913 25.2323 35.7243 26.2267C34.2904 25.2239 32.7398 24.8152 31.0308 25.2534C29.7261 25.5905 28.6799 26.3321 27.9087 27.4487C26.5082 29.4755 26.5624 32.4461 28.5631 34.4561C30.4847 36.3859 33.5276 36.5039 35.5909 34.9575C36.8163 34.0389 37.5166 32.7875 37.7292 31.279C37.9418 29.7662 37.5041 28.4052 36.658 27.179C37.6375 26.1888 38.6004 25.2113 39.5674 24.2337C42.6353 27.9038 42.9312 33.4574 39.0756 37.4099ZM31.9603 31.8267C32.7773 32.1175 33.6151 31.5571 33.6568 30.6764C33.6693 30.3772 33.7443 30.116 33.9652 29.9053C34.5571 29.3449 35.1449 28.776 35.7243 28.224C36.7205 29.6188 36.8163 32.0206 35.1615 33.567C33.6151 35.0123 31.2183 35.0502 29.7428 33.7566C27.8462 32.0922 27.9296 29.564 29.155 27.9965C30.5014 26.2773 32.944 25.9402 34.7364 27.2001C34.6947 27.2465 34.6613 27.2928 34.6155 27.3349C34.0778 27.8743 33.5401 28.4137 33.0024 28.9488C32.8315 29.1173 32.6439 29.2437 32.3813 29.2437C31.7102 29.2395 31.135 29.7073 31.0266 30.3182C30.9224 30.9629 31.3142 31.595 31.9603 31.8267ZM50.3549 15.5408C49.2462 16.6448 48.1416 17.7488 47.0328 18.8528C46.8744 19.0087 46.7035 19.152 46.5409 19.3079C46.3409 19.4975 46.0866 19.5101 45.8407 19.5143C45.3113 19.5228 44.7778 19.5186 44.1984 19.4764C44.6736 19.0171 45.1529 18.5663 45.6156 18.0943C45.9282 17.7783 46.2325 17.4496 46.5118 17.0999C46.791 16.746 46.5284 16.156 46.0741 16.1013C45.9657 16.0886 45.8198 16.1434 45.7323 16.2192C45.3947 16.5016 45.0695 16.7923 44.7528 17.0957C44.2901 17.5423 43.8399 18.0016 43.3856 18.4525C43.3522 18.4862 43.3147 18.5157 43.2813 18.5452C43.2647 18.5368 43.2438 18.5326 43.2272 18.5241C43.2522 17.9005 43.2855 17.2811 43.3022 16.6575C43.3064 16.4636 43.4022 16.3288 43.5231 16.2024C44.215 15.4734 44.9028 14.7402 45.6031 14.0197C46.17 13.434 46.7494 12.8567 47.3454 12.25C47.3538 12.33 47.3621 12.3806 47.3621 12.4269C47.3788 13.1685 47.3871 13.9144 47.4038 14.656C47.4163 15.0942 47.6164 15.3428 48.0624 15.3386C48.7918 15.3302 49.5171 15.3512 50.2465 15.3597C50.3216 15.3597 50.3924 15.3597 50.4675 15.3597C50.4841 15.3807 50.4966 15.406 50.5133 15.4271C50.4633 15.4692 50.4008 15.4945 50.3549 15.5408Z" fill="white"/>
<path d="M48.0001 25.8012C47.6083 24.4908 47.0539 23.2604 46.3703 22.0805C46.2536 21.8825 46.0911 21.7771 45.8702 21.7561C45.3533 21.7139 45.0323 22.1606 45.2407 22.6367C45.3533 22.8895 45.4617 23.1466 45.5909 23.3952C46.6163 25.3925 47.2207 27.5035 47.3499 29.7579C47.4208 30.9925 47.3332 32.2102 47.1081 33.4196C46.808 35.0292 46.237 36.5419 45.445 37.9745C44.4154 39.8328 43.0774 41.4213 41.3809 42.6897C39.0342 44.4426 36.4165 45.4707 33.4987 45.6856C32.0106 45.7951 30.5309 45.6982 29.0761 45.3696C26.7002 44.8344 24.5744 43.781 22.732 42.163C21.915 41.4424 21.1481 40.6671 20.477 39.8075C19.4099 38.4338 18.6138 36.9001 18.0969 35.2356C17.8426 34.4182 17.6217 33.5797 17.5133 32.7369C17.4008 31.8647 17.43 30.9714 17.4133 30.0907C17.3925 28.9783 17.5383 27.887 17.8301 26.8125C18.6846 23.6017 20.3353 20.9175 22.8946 18.8191C25.0621 17.0452 27.5255 15.937 30.2933 15.5367C31.6271 15.3428 32.961 15.3344 34.2948 15.5114C35.8871 15.7263 37.4085 16.1771 38.8549 16.885C39.2759 17.0915 39.6969 17.3106 40.1263 17.496C40.4264 17.6267 40.7515 17.475 40.8974 17.1884C41.0433 16.8977 40.9683 16.5943 40.6848 16.4005C40.4722 16.2572 40.2513 16.1266 40.0262 16.0044C38.138 14.9762 36.1289 14.3442 33.9906 14.1377C32.9276 14.0366 31.8689 14.0197 30.8102 14.1167C29.5847 14.2262 28.3842 14.4917 27.2171 14.892C25.158 15.5957 23.3031 16.6659 21.6608 18.1112C20.056 19.5228 18.768 21.183 17.8093 23.1002C16.8339 25.0512 16.2337 27.1032 16.1003 29.2901C16.0169 30.6933 16.0461 32.0922 16.2879 33.4828C16.5171 34.8059 16.9256 36.0742 17.4675 37.3046C18.6138 39.9044 20.3436 42.0239 22.5611 43.7557C22.8237 43.958 23.0863 44.1602 23.3489 44.3625C23.0363 44.9356 22.732 45.4833 22.4402 46.0395C21.6983 47.4511 20.9605 48.8669 20.2227 50.2827C20.0643 50.5903 20.1143 50.8305 20.3769 51.058C20.4686 51.1381 20.5895 51.1971 20.6979 51.2392C20.7688 51.2392 20.8355 51.2392 20.9063 51.2392C21.0981 51.0285 21.3315 50.8136 21.4732 50.5608C22.4486 48.8079 23.4073 47.0424 24.3618 45.2769C24.441 45.1336 24.5077 45.1041 24.6494 45.1673C25.0579 45.3527 25.4706 45.5297 25.8832 45.7024C27.5589 46.4019 29.2804 46.9033 31.1061 46.9918C32.3066 47.0508 33.5029 47.0845 34.695 46.9033C36.3248 46.659 37.8796 46.1744 39.3718 45.4749C39.6552 45.3401 39.9512 45.2305 40.2555 45.1041C40.6931 45.9089 41.11 46.6884 41.5351 47.4638C42.1562 48.6015 42.7856 49.7349 43.4067 50.8726C43.4984 51.037 43.6234 51.1423 43.8027 51.1802C44.2862 51.2898 44.6822 50.8726 44.5238 50.4049C44.4529 50.1858 44.3612 49.9751 44.2529 49.7729C43.3358 48.0326 42.4188 46.2966 41.4935 44.5648C41.4018 44.392 41.4226 44.3035 41.5727 44.1897C42.127 43.7599 42.6939 43.3386 43.2108 42.8666C44.4446 41.7458 45.5284 40.4943 46.3703 39.0406C47.6583 36.82 48.4211 34.4308 48.6296 31.8605C48.7088 30.8871 48.7046 29.9096 48.6129 28.9404C48.5128 27.8743 48.3044 26.8251 48.0001 25.8012Z" fill="white"/>
<defs>
<linearGradient id="paint0_linear_1_1684" x1="2.47148e-07" y1="48.0435" x2="65.0005" y2="48.1289" gradientUnits="userSpaceOnUse">
<stop stop-color="#00C0B4"/>
<stop offset="1" stop-color="#29C9F3"/>
</linearGradient>
</defs>
</svg>
