<svg width="65" height="65" viewBox="0 0 65 65" fill="none" xmlns="http://www.w3.org/2000/svg">
<circle cx="32.5" cy="32.5" r="32.5" fill="url(#paint0_linear_1_1620)"/>
<circle cx="32.5" cy="32.5" r="32.5" fill="url(#paint1_linear_1_1620)"/>
<path fill-rule="evenodd" clip-rule="evenodd" d="M31.8905 30.3946C29.4558 28.8468 27.6801 27.308 26.3071 25.5622C25.2545 24.2214 24.5955 22.7636 24.3575 21.2518C24.1103 19.686 24.3209 18.4532 25.0257 17.3823C26.2705 15.4926 28.8883 14.7727 31.1217 15.7086C31.5519 15.8885 31.9638 16.1225 32.3574 16.3565C32.4202 16.3901 32.483 16.4273 32.548 16.4658L32.5481 16.4659L32.5481 16.4659L32.5481 16.4659C32.5873 16.4891 32.6273 16.5128 32.6686 16.5364C32.7509 16.4914 32.8425 16.4375 32.934 16.3835C33.3184 16.1585 33.712 15.9335 34.1331 15.7445C36.3207 14.7817 38.8744 15.4026 40.2108 17.2113C41.3732 18.8131 41.1536 20.5769 40.879 21.7647C40.4854 23.4925 39.5792 25.1123 38.1879 26.5701C36.8333 27.9829 35.2406 29.2787 33.4466 30.4036C33.1811 30.5746 32.9249 30.6555 32.6777 30.6555C32.4214 30.6555 32.1651 30.5656 31.8905 30.3946ZM29.0714 17.0944C28.4215 17.0944 27.7625 17.2833 27.2407 17.6523C26.6915 18.0302 26.0508 18.7771 26.1149 20.154C26.1607 21.4858 26.5909 22.7726 27.4055 23.9604C28.8242 26.0392 30.8562 27.542 32.6686 28.7298C32.6713 28.7298 32.6748 28.729 32.6786 28.7279C32.6813 28.7271 32.6841 28.7262 32.6869 28.7253C32.6937 28.7231 32.7006 28.7208 32.7052 28.7208C33.2635 28.3699 33.7212 28.0549 34.1239 27.7399C35.561 26.6241 36.9431 25.4992 37.9225 24.0234C38.8927 22.5656 39.3138 21.2518 39.268 19.893C39.2222 18.4712 38.2886 17.4273 36.8516 17.1664C35.863 16.9864 34.9019 17.2383 33.9317 17.9223C33.712 18.0752 33.5015 18.2462 33.2818 18.4352L32.9523 18.7051L32.6503 18.9481L32.3574 18.6961L32.3329 18.6752L32.3329 18.6751L32.3329 18.6751C32.2697 18.6208 32.2128 18.572 32.156 18.5162C32.1373 18.4992 32.1187 18.4822 32.1004 18.4653L32.1004 18.4653L32.1004 18.4653C32.0024 18.3753 31.9099 18.2903 31.8173 18.2372C31.6709 18.1562 31.5336 18.0663 31.3963 17.9763L31.3963 17.9763L31.3963 17.9762C30.9661 17.6973 30.5542 17.4363 30.124 17.2743C29.7945 17.1574 29.4375 17.0944 29.0714 17.0944ZM48.0819 23.97C48.8691 23.979 49.5831 24.3299 50.0224 24.9148C50.4618 25.4908 50.5899 26.2557 50.3885 26.9846C49.4183 30.3141 48.5396 33.2387 47.6975 35.9294C47.2856 37.2252 46.2696 38.0171 44.8326 38.1701L44.7319 38.1791C44.6794 38.1834 44.6269 38.1882 44.5742 38.193L44.5742 38.193C44.4062 38.2084 44.2357 38.224 44.0546 38.224C40.2194 38.224 36.311 38.242 32.5399 38.26C28.7047 38.278 24.7505 38.296 20.8512 38.296H20.8055C20.8536 38.4804 20.9017 38.6598 20.9484 38.8343L20.9488 38.8356L20.9489 38.836L20.9489 38.8361L20.949 38.8364C20.991 38.9933 21.032 39.1461 21.0709 39.2949C21.1134 39.4567 21.159 39.6186 21.204 39.7786L21.2041 39.7787L21.2041 39.7788C21.2367 39.8946 21.269 40.0095 21.2998 40.1228C21.3258 40.2208 21.3523 40.3197 21.379 40.4197C21.4654 40.7422 21.5546 41.0752 21.6384 41.4186V41.4276C21.7008 41.422 21.7631 41.4268 21.8211 41.4313C21.8568 41.434 21.8908 41.4366 21.9222 41.4366C21.9405 41.4366 21.9565 41.4389 21.9725 41.4411C21.9885 41.4434 22.0045 41.4456 22.0229 41.4456H26.4896C29.469 41.4456 32.446 41.4434 35.4231 41.4411C38.4002 41.4389 41.3772 41.4366 44.3566 41.4366C44.3808 41.4366 44.4024 41.4341 44.4228 41.4317C44.441 41.4296 44.4583 41.4276 44.4756 41.4276L44.4959 41.4264C44.65 41.4173 44.8599 41.4049 45.0614 41.4996C45.1712 41.5536 45.6838 41.8236 45.7113 42.2735C45.7387 42.6964 45.3085 43.0204 45.1804 43.1104C45.0339 43.2184 44.86 43.2364 44.7136 43.2364C44.6849 43.2364 44.6587 43.2339 44.6336 43.2316L44.6336 43.2316C44.6108 43.2294 44.589 43.2274 44.5671 43.2274H44.4756H21.3638C20.4394 43.2274 20.1739 43.0294 19.9451 42.1475L18.325 36.0193C17.7712 33.9227 17.2175 31.8239 16.6638 29.725C16.11 27.6259 15.5562 25.5269 15.0024 23.43C14.7552 22.4942 14.2976 22.1432 13.309 22.1342C12.394 22.1281 11.4874 22.1303 10.6497 22.1323C10.2556 22.1333 9.87686 22.1342 9.51962 22.1342C9.21756 22.1342 8.88805 22.1072 8.65007 21.8643C8.53108 21.7473 8.40293 21.5403 8.41208 21.2073C8.42124 20.8744 8.57684 20.3075 9.53792 20.3075C9.76675 20.3075 9.9933 20.3097 10.2198 20.312C10.4464 20.3142 10.6729 20.3165 10.9017 20.3165C11.7255 20.3165 12.5859 20.3165 13.428 20.3255C15.1031 20.3435 16.2838 21.2433 16.7415 22.8361L16.7872 22.9621C16.8788 23.2681 16.9703 23.592 17.0344 23.925C17.0435 23.934 17.0435 23.943 17.0435 23.952H17.1168C17.5836 23.949 18.0534 23.945 18.5233 23.941H18.5233H18.5233C19.463 23.933 20.4027 23.925 21.3181 23.925C21.5789 23.925 21.8398 23.9205 22.1007 23.916C22.3615 23.9115 22.6224 23.907 22.8833 23.907H22.9107C22.9948 23.907 23.0829 23.9147 23.1723 23.9226L23.1723 23.9226C23.2191 23.9267 23.2663 23.9309 23.3135 23.934C23.8993 23.961 24.2745 24.3209 24.2745 24.8429C24.2745 25.3738 23.8901 25.7517 23.3043 25.7607C23.2265 25.7607 23.1465 25.763 23.0664 25.7652L23.0663 25.7652C22.9862 25.7675 22.9061 25.7697 22.8283 25.7697C22.4439 25.7787 22.0412 25.7877 21.6476 25.7877H17.5286C17.7022 26.4552 17.8786 27.1199 18.0547 27.7833C18.1943 28.3095 18.3338 28.8349 18.4714 29.3602C19.0359 31.4947 19.6169 33.7101 20.1908 35.899L20.2838 36.2533C20.2907 36.2739 20.2964 36.2919 20.3012 36.3073C20.3091 36.3322 20.3147 36.3502 20.3204 36.3613C20.3387 36.3703 20.3661 36.3703 20.421 36.3703H20.4211C26.0399 36.3613 31.7503 36.3613 37.2777 36.3613H37.2812H44.4024C45.3268 36.3613 45.7753 36.0373 46.0408 35.1555C46.484 33.686 46.9389 32.1652 47.4168 30.5673C47.7876 29.3275 48.1723 28.0412 48.5762 26.6966C48.6677 26.3906 48.6494 26.1387 48.5396 25.9857C48.4206 25.8327 48.1735 25.7517 47.8348 25.7517H43.8989H42.1598H42.0683C41.9768 25.7517 41.8761 25.7517 41.7663 25.7427C40.915 25.6887 40.8052 25.1128 40.8052 24.8698C40.796 24.5369 40.9333 24.3389 41.0432 24.2219C41.2262 24.042 41.4734 23.952 41.8029 23.952H41.8578H43.606C43.8974 23.952 44.191 23.9516 44.4861 23.9513H44.4861C45.6741 23.9498 46.8868 23.9483 48.0819 23.97ZM25.1441 44.2083C24.2196 44.1814 23.3226 44.5143 22.6361 45.1532C21.9313 45.8101 21.5286 46.692 21.5011 47.6459C21.4737 48.5638 21.8306 49.4366 22.4897 50.1206C23.1578 50.8135 24.0548 51.2004 25.0159 51.2274H25.0983C27.0113 51.2274 28.5948 49.6976 28.6497 47.7719C28.6955 45.8731 27.1303 44.2713 25.1441 44.2083ZM25.0434 49.4366C24.1098 49.4187 23.3226 48.6448 23.3317 47.7269C23.3409 46.782 24.1006 46.0531 25.0617 46.0531H25.0708C25.5468 46.0531 25.9862 46.2151 26.3157 46.539C26.6452 46.863 26.8191 47.2859 26.8191 47.7449C26.8191 48.1858 26.6177 48.6268 26.2791 48.9507C25.9404 49.2657 25.4919 49.4456 25.0434 49.4366ZM37.5381 45.2613C38.2154 44.5864 39.1124 44.2175 40.0643 44.2085C42.0231 44.1995 43.6432 45.7563 43.6615 47.691C43.6798 49.6077 42.0963 51.2005 40.1192 51.2275H40.0643C39.1582 51.2275 38.2886 50.8676 37.6204 50.2287C36.9248 49.5628 36.5312 48.6809 36.5221 47.736C36.5037 46.8091 36.8699 45.9362 37.5381 45.2613ZM40.0643 46.0442C39.5884 46.0442 39.149 46.2062 38.8286 46.5392C38.5083 46.8721 38.3344 47.2951 38.3435 47.763C38.3618 48.6899 39.1765 49.4548 40.1009 49.4368C40.5586 49.4368 41.0071 49.2388 41.3366 48.9058C41.6661 48.5639 41.84 48.1499 41.8309 47.7C41.8034 46.7551 41.0346 46.0442 40.0826 46.0442H40.0643Z" fill="white"/>
<defs>
<linearGradient id="paint0_linear_1_1620" x1="2.47148e-07" y1="48.0435" x2="65.0005" y2="48.1289" gradientUnits="userSpaceOnUse">
<stop stop-color="#00C0B4"/>
<stop offset="1" stop-color="#29C9F3"/>
</linearGradient>
<linearGradient id="paint1_linear_1_1620" x1="0" y1="0" x2="76.7857" y2="27.5895" gradientUnits="userSpaceOnUse">
<stop stop-color="#316EFF"/>
<stop offset="1" stop-color="#D4008C"/>
</linearGradient>
</defs>
</svg>
