<svg width="65" height="65" viewBox="0 0 65 65" fill="none" xmlns="http://www.w3.org/2000/svg">
<circle opacity="0.5" cx="32.5" cy="32.5" r="32.5" fill="url(#paint0_linear_1_1636)"/>
<path d="M32.5002 50C26.0171 50 19.534 50 13.0509 50C12.2491 50 11.988 49.7472 12.0004 48.9457C12.0377 46.9356 12.8333 45.2462 14.2008 43.7973C15.5061 42.41 17.0912 41.4112 18.7943 40.585C21.175 39.432 23.6924 38.6736 26.2844 38.1187C26.4149 38.094 26.6325 38.0139 26.6325 37.9522C26.6387 37.7118 26.6636 37.3727 26.5268 37.237C25.2526 36.0594 24.3886 34.6289 23.8478 33.0012C23.6551 32.4278 23.5494 31.8297 23.4313 31.2378C23.3878 31.0158 23.3257 30.8925 23.0708 30.837C20.6093 30.2698 19.1113 28.3954 19.0802 25.9045C19.0678 24.6467 19.3102 23.432 19.7143 22.2544C19.7888 22.0447 19.994 21.8598 20.1867 21.7179C20.3669 21.5823 20.4539 21.459 20.4602 21.2185C20.485 18.7831 21.2496 16.6004 22.7973 14.7075C24.0467 13.1846 25.6877 12.2413 27.5586 11.674C29.5104 11.0821 31.5119 10.9218 33.5445 11.0328C35.2227 11.1253 36.8575 11.3904 38.4115 12.0316C41.7494 13.4004 43.639 15.9345 44.3538 19.3873C44.4843 20.0285 44.4781 20.6944 44.5527 21.3418C44.5651 21.4652 44.6459 21.6193 44.7392 21.681C45.0935 21.8906 45.2737 22.1927 45.3856 22.5811C45.7523 23.8759 46.0072 25.1707 45.8705 26.5272C45.6467 28.6913 44.1922 30.3499 42.0353 30.8308C41.7245 30.8987 41.6126 31.0097 41.5567 31.3303C41.1775 33.6116 40.2203 35.6093 38.4923 37.2C38.2436 37.4281 38.3617 37.6994 38.368 37.9461C38.368 38.0077 38.5855 38.0879 38.716 38.1187C41.9793 38.8216 45.1308 39.8143 47.9963 41.5653C49.6683 42.5827 51.129 43.822 52.0925 45.5545C52.7016 46.6459 52.9938 47.8173 53 49.0628C53 49.7102 52.7141 49.9938 52.049 49.9938C45.5348 50 39.0144 50 32.5002 50ZM39.9716 31.7434C39.9468 31.731 39.9219 31.7125 39.8908 31.7002C39.8038 31.7434 39.7106 31.7804 39.6235 31.8235C38.629 32.3538 37.6407 32.8902 36.64 33.4081C36.4286 33.5191 36.3478 33.6362 36.3416 33.8767C36.3043 34.7707 35.8568 35.4243 35.0425 35.7819C34.2158 36.1457 33.4139 36.0409 32.7178 35.4613C32.0154 34.8817 31.7792 34.111 31.9967 33.2416C32.3759 31.7125 34.1661 31.0775 35.4527 32.0023C35.577 32.0886 35.6703 32.1935 35.8568 32.0886C37.2491 31.3364 38.6477 30.6027 40.0338 29.8505C40.1208 29.8073 40.2078 29.6594 40.2016 29.573C40.1705 29.1908 40.3384 28.9071 40.5808 28.6297C41.0843 28.0378 41.5132 27.3966 41.7307 26.6443C41.9545 25.8613 41.8675 25.1337 41.2894 24.5233C41.2024 24.4309 41.0221 24.3569 40.8916 24.3692C39.5241 24.4863 38.1628 24.4124 36.8078 24.1966C34.7876 23.8759 32.8856 23.21 31.0954 22.2174C30.9463 22.1372 30.853 22.1434 30.7101 22.2482C30.4241 22.4702 30.132 22.6798 29.815 22.8586C28.0808 23.8328 26.1911 24.2151 24.2207 24.2829C23.9535 24.2952 23.7732 24.3754 23.6178 24.5788C23.0459 25.331 23.0024 26.1572 23.394 26.965C23.6986 27.5939 24.1461 28.1611 24.5191 28.7592C24.6248 28.9256 24.7677 29.1229 24.7677 29.3018C24.7615 30.3992 24.9542 31.4659 25.2774 32.5141C25.9612 34.7091 27.2665 36.3738 29.4855 37.2185C31.1141 37.8351 32.8048 37.8412 34.4706 37.5206C36.9259 37.0459 38.5296 35.5106 39.4619 33.2478C39.6733 32.7607 39.81 32.2428 39.9716 31.7434ZM51.4274 48.4709C51.4087 48.2859 51.3963 48.1441 51.3715 48.0023C51.1912 47.0466 50.7747 46.1958 50.178 45.425C49.2519 44.2289 48.0646 43.3472 46.7655 42.6012C44.4719 41.2879 41.9856 40.4617 39.4246 39.8328C39.0828 39.7464 38.7285 39.6848 38.3617 39.6046C38.3555 39.7403 38.3493 39.8204 38.3431 39.9006C38.3307 40.3815 38.3804 40.8748 38.3058 41.3434C38.1628 42.2189 37.5599 42.7861 36.8326 43.2301C35.863 43.822 34.7876 44.0994 33.6626 44.2042C33.3891 44.2289 33.2337 44.2659 33.2461 44.605C33.271 45.758 33.2523 46.9048 33.2523 48.0578C33.2523 48.4647 33.2523 48.4647 33.6564 48.4647C39.4495 48.4647 45.2364 48.4647 51.0296 48.4647C51.1477 48.4709 51.2658 48.4709 51.4274 48.4709ZM26.6511 39.5923C26.5455 39.6046 26.4833 39.6108 26.4274 39.6231C25.5882 39.8328 24.7366 40.0239 23.9037 40.2705C21.5728 40.9488 19.3227 41.8181 17.2901 43.1684C15.9537 44.0624 14.7851 45.1229 14.0765 46.6027C13.803 47.1699 13.6165 47.7619 13.573 48.4092C19.6397 48.4092 25.6752 48.4092 31.7294 48.4092C31.7294 47.022 31.7294 45.6593 31.7294 44.2782C31.5616 44.2536 31.4062 44.2289 31.257 44.2104C30.1817 44.0809 29.1437 43.8096 28.2051 43.2486C27.1795 42.6382 26.5455 41.8058 26.6573 40.5542C26.6698 40.2459 26.6511 39.9253 26.6511 39.5923ZM24.5129 22.8586C25.265 22.7353 25.9674 22.6613 26.6511 22.5072C27.9254 22.2297 29.1312 21.7673 30.1009 20.8547C30.6355 20.3553 30.8282 20.3245 31.4622 20.6944C33.905 22.1249 36.5405 22.8586 39.3749 22.9203C39.7541 22.9264 40.1332 22.9203 40.5994 22.9203C40.4378 22.0879 40.3384 21.3357 40.1395 20.6081C39.6919 18.9804 38.8155 17.6486 37.2553 16.8532C35.8381 16.1318 34.3277 16.0332 32.7799 16.2305C32.6183 16.249 32.4505 16.2305 32.2889 16.2305C31.4435 16.2305 30.5857 16.1318 29.7528 16.249C27.223 16.5942 25.6442 18.0802 24.9169 20.4786C24.6869 21.2309 24.544 21.9954 24.5129 22.8586ZM42.1223 29.1538C42.1907 29.1661 42.2155 29.1784 42.2342 29.1723C42.3088 29.1414 42.3896 29.1168 42.4642 29.0798C43.3966 28.6359 44.0057 27.9206 44.2543 26.9218C44.534 25.7811 44.3538 24.659 44.0865 23.543C43.9933 23.1422 43.8503 22.8216 43.4525 22.6243C43.1106 22.4578 43.005 22.1619 42.9987 21.7796C42.9925 21.1569 42.9739 20.528 42.8869 19.9052C42.3896 16.4709 40.0524 13.8813 36.6772 13.012C34.0542 12.3338 31.4124 12.3338 28.7707 12.9133C27.0924 13.2833 25.5571 13.9738 24.3761 15.2501C22.6854 17.069 21.9457 19.2517 22.0141 21.7056C22.0265 22.0447 21.9955 22.3838 21.6722 22.538C21.1315 22.7969 20.9761 23.247 20.8766 23.765C20.8393 23.9561 20.7958 24.1472 20.7585 24.3384C20.541 25.6085 20.5223 26.8601 21.2434 28.007C21.6101 28.5865 22.1571 28.9441 22.8097 29.1599C22.3436 28.5372 21.983 27.8713 21.7841 27.1253C21.3987 25.6702 21.6225 24.3815 22.7662 23.3149C22.8533 23.2347 22.8968 23.0867 22.9154 22.9634C22.9714 22.5257 22.99 22.0817 23.0584 21.6501C23.2697 20.2443 23.6862 18.9002 24.5253 17.7349C26.2471 15.3488 28.7023 14.5781 31.5305 14.6644C31.9035 14.6767 32.2827 14.7754 32.6432 14.7322C33.6999 14.6027 34.7503 14.6212 35.7946 14.8247C37.852 15.2255 39.5179 16.2181 40.6492 18.0062C41.5877 19.4921 41.9421 21.1445 42.0664 22.8648C42.0788 23.0312 42.1347 23.2409 42.2466 23.3519C43.1976 24.2952 43.5209 25.4112 43.2722 26.706C43.1106 27.6062 42.7315 28.4139 42.1223 29.1538ZM28.174 38.3222C28.1678 38.4455 28.1553 38.538 28.1553 38.6243C28.1553 39.3457 28.1616 40.0609 28.1491 40.7823C28.1429 41.1152 28.2424 41.4112 28.5097 41.5962C28.895 41.8613 29.2928 42.1387 29.728 42.3052C31.2198 42.8663 32.7613 42.8909 34.309 42.5888C35.0238 42.447 35.7014 42.2004 36.2919 41.7626C36.6524 41.4913 36.8513 41.1584 36.8326 40.6836C36.8078 40.0054 36.8264 39.3272 36.8264 38.649C36.8264 38.5441 36.8078 38.4393 36.8016 38.3283C33.9174 39.469 31.0706 39.4628 28.174 38.3222ZM34.1288 33.0813C33.7434 33.0813 33.4202 33.4081 33.4264 33.7904C33.4326 34.1603 33.7496 34.4748 34.1163 34.4809C34.5017 34.4871 34.8249 34.1727 34.8311 33.7842C34.8374 33.3958 34.5266 33.0813 34.1288 33.0813Z" fill="white"/>
<defs>
<linearGradient id="paint0_linear_1_1636" x1="7.5" y1="9.5" x2="49.5" y2="58.5" gradientUnits="userSpaceOnUse">
<stop stop-color="white"/>
<stop offset="1" stop-color="white" stop-opacity="0.56"/>
</linearGradient>
</defs>
</svg>
