<svg width="65" height="65" viewBox="0 0 65 65" fill="none" xmlns="http://www.w3.org/2000/svg">
<circle cx="32.5" cy="32.5" r="32.5" fill="url(#paint0_linear_1_1163)"/>
<path d="M51.9997 27.6697C51.9997 31.0863 51.9997 34.503 51.9997 37.9196C51.9997 38.483 51.9962 39.0463 51.9926 39.6097C51.9785 41.1145 50.7698 42.3685 49.3024 42.3685C43.3051 42.3721 37.3078 42.3685 31.3141 42.3685C30.7647 42.3685 30.3748 41.9723 30.3713 41.4307C30.3713 40.8891 30.7647 40.4857 31.307 40.4857C33.4975 40.4821 35.6915 40.4821 37.882 40.4821C41.6569 40.4821 45.4318 40.4821 49.2067 40.4821C49.7986 40.4821 50.1708 40.0822 50.1708 39.4498C50.1708 36.2331 50.1708 33.0164 50.1708 29.7996C50.1708 25.1799 50.1708 20.5566 50.1708 15.9368C50.1708 15.4244 49.951 15.0645 49.5434 14.93C49.4264 14.89 49.2988 14.8755 49.1783 14.8755C45.5629 14.8719 41.9476 14.8755 38.3322 14.8755C34.3694 14.8755 30.4067 14.8755 26.444 14.8755C26.2561 14.8755 26.0647 14.8682 25.8839 14.9082C25.4763 15.0027 25.1999 15.3735 25.1999 15.8096C25.1963 17.2817 25.1963 18.7537 25.1963 20.2258C25.1963 22.3085 25.1963 24.3948 25.1963 26.4775C25.1963 29.0582 25.1963 31.6388 25.1963 34.2194C25.1963 34.6047 25.0262 34.91 24.7001 35.0772C24.3634 35.2517 24.0089 35.2226 23.7005 34.9718C23.4843 34.7974 23.3815 34.5575 23.3638 34.2776C23.3567 34.1431 23.3603 34.0123 23.3603 33.8778C23.3603 27.8732 23.3603 21.8723 23.3603 15.8678C23.3603 14.901 23.736 14.1159 24.4874 13.5379C24.9411 13.189 25.4657 13.0073 26.0399 13.0073C27.6455 13.0036 29.2547 13 30.8604 13C33.5719 13 36.2835 13 38.995 13C42.4048 13 45.811 13 49.2208 13C50.4189 13 51.4397 13.7197 51.8402 14.8791C51.9395 15.1699 51.9926 15.4934 51.9962 15.8024C52.0068 19.1354 52.0033 22.4648 52.0033 25.7978C51.9997 26.423 51.9997 27.0445 51.9997 27.6697Z" fill="white"/>
<path d="M45.8613 20.6154C45.5104 20.9789 45.1595 21.3424 44.8086 21.7058C44.0607 22.4728 43.3164 23.236 42.5685 24.003C41.3208 25.2824 40.0732 26.5618 38.8255 27.8376C37.4574 29.2406 36.0892 30.6436 34.721 32.0466C33.4308 33.3696 32.1513 34.6927 30.8646 36.0084C29.858 37.0407 28.8478 38.062 27.8376 39.0943C27.0968 39.8503 26.3631 40.6136 25.6259 41.3696C24.2967 42.7363 22.9675 44.1029 21.6383 45.4696C20.7167 46.4146 19.7952 47.3633 18.8736 48.3083C18.4766 48.7154 17.8882 48.7226 17.5125 48.3265C17.151 47.9412 17.1935 47.3487 17.5941 46.9453C18.4979 46.0293 19.3876 45.1061 20.2879 44.1865C21.1527 43.2996 22.0176 42.4164 22.8824 41.5332C23.921 40.4682 24.9595 39.4032 25.998 38.3383C27.1323 37.1752 28.27 36.0121 29.4043 34.8489C30.3719 33.8567 31.336 32.8608 32.3037 31.8685C33.6435 30.4946 34.9833 29.1243 36.3267 27.754C37.266 26.7908 38.2088 25.8349 39.1481 24.8717C40.2469 23.7413 41.3457 22.6072 42.4445 21.4768C43.1108 20.7899 43.7843 20.1102 44.4506 19.4269C44.4896 19.3869 44.5286 19.3396 44.596 19.2669C44.5003 19.2669 44.44 19.2669 44.3762 19.2669C42.3665 19.2669 40.3603 19.2669 38.3506 19.2669C37.8756 19.2669 37.5034 18.9871 37.3971 18.5582C37.2482 17.9657 37.6807 17.3987 38.3009 17.3805C38.4711 17.3769 38.6448 17.3805 38.8149 17.3805C41.4378 17.3805 44.0607 17.3805 46.6837 17.3805C47.3784 17.3805 47.7435 17.7513 47.7435 18.4673C47.7435 21.3133 47.7435 24.1593 47.7435 27.0052C47.7435 27.445 47.5272 27.8049 47.1728 27.9466C46.8006 28.092 46.4604 28.023 46.1768 27.7358C45.9783 27.5359 45.9039 27.2815 45.9039 26.9943C45.9074 25.7404 45.9039 24.4864 45.9039 23.2324C45.9039 22.371 45.9039 21.5132 45.9039 20.6518C45.8861 20.6336 45.872 20.6227 45.8613 20.6154Z" fill="white"/>
<path d="M21.2339 52.9889C19.3624 52.9889 17.4873 52.9925 15.6158 52.9853C14.7085 52.9816 13.9818 52.5854 13.4643 51.8294C13.1631 51.3933 13 50.8953 13 50.3501C13 47.1588 13 43.9675 13 40.7726C13 40.1111 13 39.4532 13 38.7917C12.9965 37.3487 14.113 36.1347 15.5201 36.1202C17.4732 36.0947 19.4297 36.1093 21.3827 36.1129C21.84 36.1129 22.2086 36.4291 22.2866 36.858C22.3681 37.3124 22.159 37.7522 21.7549 37.9157C21.606 37.9739 21.4323 37.9884 21.2693 37.9884C19.451 37.992 17.6291 37.992 15.8108 37.992C15.1019 37.992 14.829 38.2719 14.829 38.9952C14.829 42.5318 14.829 46.072 14.829 49.6086C14.829 49.7976 14.829 49.983 14.829 50.172C14.829 50.8008 15.1302 51.1134 15.7399 51.1134C18.338 51.1134 20.9397 51.1134 23.5378 51.1134C24.5905 51.1134 25.6397 51.0952 26.6924 51.1207C27.2807 51.1352 27.6423 50.7245 27.6352 50.1647C27.6139 48.2819 27.6317 46.3955 27.621 44.5127C27.6175 43.8694 27.9365 43.5604 28.3547 43.4696C28.9325 43.3424 29.45 43.7785 29.4535 44.3892C29.4606 45.5086 29.4571 46.6318 29.4571 47.7513C29.4571 48.5873 29.4606 49.4232 29.4571 50.2592C29.4535 51.6731 28.532 52.7854 27.1638 52.9707C26.7172 53.0325 26.2564 52.9925 25.8027 52.9962C25.0406 52.9998 24.2786 52.9962 23.5165 52.9962C22.758 52.9889 21.9959 52.9889 21.2339 52.9889Z" fill="white"/>
<defs>
<linearGradient id="paint0_linear_1_1163" x1="0" y1="0" x2="76.7857" y2="27.5895" gradientUnits="userSpaceOnUse">
<stop stop-color="#172E65"/>
<stop offset="1" stop-color="#311145"/>
</linearGradient>
</defs>
</svg>
