<svg width="65" height="65" viewBox="0 0 65 65" fill="none" xmlns="http://www.w3.org/2000/svg">
<circle cx="32.5" cy="32.5" r="32.5" fill="url(#paint0_linear_1_1287)"/>
<path d="M48.0444 49.4872C48.0444 41.0161 48.0444 32.6314 48.0444 24.2036C46.0389 24.2036 44.1389 24.2036 42.1333 24.2036C42.1333 32.6314 42.1333 41.0593 42.1333 49.4872C41.1833 49.4872 40.2333 49.4872 39.2833 49.4872C39.2833 44.9491 39.2833 40.5191 39.2833 36.089C37.2778 36.089 35.3778 36.089 33.4778 36.089C33.4778 40.6271 33.4778 45.0572 33.4778 49.4872C32.4222 49.4872 31.4722 49.4872 30.5222 49.4872C30.5222 43.0042 30.5222 36.6293 30.5222 30.1463C28.5167 30.1463 26.6167 30.1463 24.7167 30.1463C24.7167 36.6293 24.7167 43.0042 24.7167 49.4872C23.7667 49.4872 22.8167 49.4872 21.7611 49.4872C21.7611 47.0021 21.7611 44.5169 21.7611 42.0318C19.8611 42.0318 17.9611 42.0318 15.9556 42.0318C15.9556 44.5169 15.9556 47.0021 15.9556 49.4872C14.9 49.4872 13.9606 49.4872 13 49.4872C13 49.995 13 50.4921 13 50.9999C25.6667 50.9999 38.3333 50.9999 51 50.9999C51 50.4921 51 49.995 51 49.4872C50.0289 49.4872 49.1 49.4872 48.0444 49.4872ZM20.2833 49.4872C19.3333 49.4872 18.3833 49.4872 17.4333 49.4872C17.4333 47.5423 17.4333 45.5974 17.4333 43.5445C18.3833 43.5445 19.3333 43.5445 20.2833 43.5445C20.2833 45.5974 20.2833 47.4343 20.2833 49.4872ZM29.0444 49.4872C28.0944 49.4872 27.1444 49.4872 26.1944 49.4872C26.1944 43.5445 26.1944 37.6017 26.1944 31.659C27.1444 31.659 28.0944 31.659 29.0444 31.659C29.0444 37.6017 29.0444 43.5445 29.0444 49.4872ZM37.8056 49.4872C36.8556 49.4872 35.9056 49.4872 34.9556 49.4872C34.9556 45.4894 34.9556 41.5996 34.9556 37.6017C35.9056 37.6017 36.75 37.6017 37.8056 37.6017C37.8056 41.4915 37.8056 45.4894 37.8056 49.4872ZM46.5667 49.4872C45.6167 49.4872 44.6667 49.4872 43.7167 49.4872C43.7167 41.5996 43.7167 33.6039 43.7167 25.7162C44.6667 25.7162 45.6167 25.7162 46.5667 25.7162C46.5667 33.6039 46.5667 41.4915 46.5667 49.4872Z" fill="white"/>
<path d="M16.2201 32.5991C17.0012 33.0854 17.7929 33.55 18.5951 33.993C18.7429 34.0794 19.0068 34.0686 19.1545 33.993C19.9462 33.5608 20.7168 33.0962 21.4768 32.6099C21.6245 32.5127 21.7618 32.2534 21.7618 32.0697C21.7934 31.3566 21.7618 30.6326 21.7829 29.9087C21.7934 29.3576 21.8462 28.8066 21.0229 28.6121C22.8068 26.7536 24.5062 24.9816 26.2162 23.2312C26.3006 23.1448 26.6068 23.1448 26.7123 23.2312C27.3879 23.8147 28.0107 23.6418 28.6334 23.1448C28.7179 23.08 28.8234 23.0475 28.9079 22.9827C29.1718 22.7666 29.3934 22.8314 29.6573 23.0151C30.4068 23.5554 31.1351 24.1496 31.9479 24.5602C33.204 25.1761 33.7529 26.0837 33.4679 27.4884C33.4573 27.5208 33.4573 27.564 33.4679 27.5964C33.5734 27.8017 33.6368 28.0719 33.8057 28.1799C34.5657 28.6661 35.3468 29.1091 36.1384 29.5521C36.2651 29.617 36.4868 29.6386 36.6029 29.5737C37.4368 29.1091 38.2495 28.6121 39.0623 28.1151C39.1679 28.0502 39.2734 27.899 39.2734 27.7909C39.2734 26.7645 39.2312 25.738 39.2312 24.7115C39.2312 24.463 39.2629 24.1605 39.3895 23.966C39.9173 23.1664 40.4873 22.3776 41.0573 21.5997C42.1023 20.1626 43.1684 18.7256 44.2662 17.2237C45.0051 18.0448 45.6279 17.5046 46.2612 17.1048C46.3984 17.0184 46.5251 16.9211 46.6729 16.8671C47.8234 16.4673 48.3301 15.6786 48.0662 14.4252C48.0451 14.3063 48.0451 14.1659 48.0662 14.047C48.2984 12.9233 47.834 12.2426 46.8101 11.8428C46.2084 11.6159 45.6806 11 45.1318 11C44.5829 11 44.0234 11.5511 43.4745 11.8536C43.3057 11.9508 43.1473 12.0805 42.9679 12.1453C42.3768 12.383 42.1129 12.772 42.1973 13.4635C42.2607 13.939 42.1973 14.436 42.1656 14.9222C42.1234 15.5813 42.039 16.2512 42.989 16.4457C41.2051 18.8768 39.4845 21.2323 37.7429 23.5986C37.3418 23.3609 37.0145 23.1448 36.6662 22.9935C36.4973 22.9179 36.2334 22.9071 36.0751 22.9935C35.3784 23.3717 34.7029 23.7823 34.0273 24.1929C32.9295 23.4473 31.8529 22.7234 30.7973 21.9778C30.6601 21.8806 30.5545 21.6321 30.544 21.4592C30.5123 20.6164 30.544 19.7628 30.5123 18.92C30.5018 18.7364 30.3751 18.477 30.2273 18.3798C29.4673 17.8936 28.6862 17.4506 27.8945 17.0184C27.7573 16.9427 27.5145 16.9211 27.3879 16.9968C26.5645 17.4506 25.7623 17.926 24.9707 18.423C24.8545 18.4986 24.7384 18.6931 24.7384 18.8336C24.7173 19.752 24.7173 20.6704 24.749 21.5889C24.7595 21.8266 24.8968 22.0643 24.9918 22.3668C23.2501 24.1172 21.4557 25.9109 19.6401 27.7369C19.5134 27.6613 19.3445 27.5316 19.144 27.4668C18.9857 27.4127 18.764 27.3803 18.6268 27.456C17.8034 27.9098 17.0012 28.3852 16.2095 28.8714C16.0829 28.9471 15.9668 29.174 15.9668 29.336C15.9456 30.2761 15.9456 31.2053 15.9668 32.1453C15.9668 32.2966 16.0829 32.5127 16.2201 32.5991ZM43.8756 13.3771C44.224 13.0529 44.7095 12.6532 45.1318 12.6748C45.5962 12.6964 46.124 13.0637 46.4829 13.4311C46.6729 13.6364 46.599 14.1334 46.599 14.5008C46.599 14.7385 46.6095 15.0843 46.4723 15.1923C46.0712 15.4949 45.5962 15.8947 45.1423 15.9055C44.7201 15.9163 44.2134 15.5597 43.8651 15.2355C43.6751 15.0627 43.7384 14.6089 43.6856 14.2739C43.7384 13.9714 43.6962 13.55 43.8756 13.3771ZM35.0618 25.3382C35.3468 24.96 35.9168 24.6143 36.3601 24.6143C36.8034 24.6143 37.2995 24.9924 37.6795 25.3274C37.859 25.4895 37.8062 25.9109 37.859 26.2134C37.8062 26.5484 37.8695 26.9805 37.6901 27.1426C37.3207 27.4776 36.8456 27.7477 36.3706 27.8882C35.9695 28.007 34.9034 27.0562 34.914 26.678C34.9351 26.2242 34.8295 25.6407 35.0618 25.3382ZM26.3218 19.363C26.6912 19.0389 27.1873 18.6607 27.6307 18.6607C28.074 18.6607 28.6123 19.0173 28.929 19.3739C29.1401 19.6116 29.0662 20.141 29.0768 20.5408C29.0873 20.7569 29.0662 21.081 28.9395 21.1675C28.5279 21.4592 28.074 21.805 27.6095 21.8698C27.2612 21.913 26.8707 21.5132 26.4907 21.3404C25.9418 21.1026 26.3218 20.6056 26.1423 20.2382C26.2057 19.9465 26.1529 19.5251 26.3218 19.363ZM17.4129 30.5246C17.4129 30.2761 17.4234 29.9195 17.5712 29.8006C17.9618 29.4873 18.4368 29.0767 18.8801 29.0767C19.3234 29.0767 19.8195 29.4657 20.189 29.8006C20.3579 29.9627 20.2945 30.4057 20.3368 30.7515C20.2945 31.0324 20.3473 31.4646 20.1784 31.6267C19.8301 31.9616 19.3445 32.3506 18.9223 32.3398C18.4579 32.3182 17.9301 31.9508 17.5712 31.5835C17.3706 31.3782 17.4234 30.8919 17.4129 30.5246Z" fill="white"/>
<defs>
<linearGradient id="paint0_linear_1_1287" x1="0" y1="0" x2="76.7857" y2="27.5895" gradientUnits="userSpaceOnUse">
<stop stop-color="#172E65"/>
<stop offset="1" stop-color="#311145"/>
</linearGradient>
</defs>
</svg>
