<svg width="65" height="65" viewBox="0 0 65 65" fill="none" xmlns="http://www.w3.org/2000/svg">
<circle cx="32.5" cy="32.5" r="32.5" fill="url(#paint0_linear_1_1292)"/>
<path d="M40.6197 23.7353C41.4096 23.8433 42.1084 23.8741 42.7616 24.0284C45.2074 24.6302 46.9696 26.8365 46.9848 29.3976C47.0152 34.9212 47.0152 40.4601 47 45.9836C47 49.4242 44.7365 51.8928 41.3489 51.9391C35.4699 52.0162 29.6061 52.0162 23.7271 51.9391C20.2939 51.9082 18.0152 49.4088 18 45.891C18 40.6452 18 35.3994 18 30.1537C18 26.2965 20.1571 24.013 23.9398 23.8279C24.0613 23.8279 24.1828 23.797 24.3803 23.7816C24.3803 21.5135 24.3499 19.2918 24.3955 17.0546C24.4107 16.314 24.5018 15.558 24.6993 14.8483C25.7019 11.2071 29.2111 8.7848 33.1 9.01623C36.7611 9.23224 40.012 12.1174 40.5437 15.7895C40.726 17.1009 40.6197 18.4586 40.6197 19.801C40.6197 21.097 40.6197 22.4084 40.6197 23.7353ZM32.5835 26.0805C29.6668 26.0805 26.7653 26.0805 23.8486 26.0805C21.6763 26.0805 20.2179 27.5462 20.2179 29.7371C20.2179 35.1063 20.2179 40.4755 20.2179 45.8602C20.2179 48.3133 21.6155 49.7328 24.0461 49.7328C29.6365 49.7328 35.2268 49.7328 40.8324 49.7328C43.4604 49.7328 44.8125 48.375 44.8276 45.7059C44.8428 42.5893 44.8276 39.4881 44.8276 36.3715C44.8276 34.1806 44.858 32.0051 44.8276 29.8142C44.7973 27.4845 43.3693 26.0805 41.0906 26.0805C38.2499 26.0805 35.4243 26.0805 32.5835 26.0805ZM38.3562 23.797C38.3866 23.6427 38.4322 23.5193 38.4322 23.3959C38.4322 21.1587 38.5233 18.9215 38.417 16.6998C38.2651 13.4906 35.4851 11.1608 32.1278 11.2843C29.0744 11.3923 26.6134 13.9997 26.5982 17.1009C26.5982 18.2581 26.5982 19.4152 26.5982 20.5724C26.5982 21.637 26.5982 22.717 26.5982 23.8124C30.5783 23.797 34.4673 23.797 38.3562 23.797Z" fill="white"/>
<path d="M31.5979 40.9533C31.5979 40.691 31.5828 40.4442 31.5979 40.1819C31.6891 39.1945 31.5524 38.4539 30.5649 37.8367C29.3345 37.0653 29.0154 35.3527 29.5623 33.9641C30.094 32.6064 31.4308 31.7578 32.9348 31.8349C34.3476 31.9121 35.5932 32.9767 35.973 34.4424C36.3224 35.8156 35.7603 37.3893 34.4995 38.1144C33.8766 38.4693 33.7399 38.8859 33.7703 39.5185C33.8007 40.6293 33.7855 41.7248 33.7703 42.8356C33.7551 43.6379 33.3145 44.1317 32.6765 44.1317C32.0537 44.1162 31.6283 43.6534 31.6131 42.8819C31.5979 42.2339 31.6131 41.5859 31.5979 40.9533C31.6131 40.9533 31.6131 40.9533 31.5979 40.9533ZM32.6917 34.0721C32.0537 34.0721 31.522 34.6121 31.522 35.2293C31.5068 35.8773 32.1144 36.4636 32.7525 36.4327C33.3753 36.4018 33.8766 35.8464 33.8766 35.2138C33.8462 34.5658 33.3449 34.0721 32.6917 34.0721Z" fill="white"/>
<defs>
<linearGradient id="paint0_linear_1_1292" x1="0" y1="0" x2="76.7857" y2="27.5895" gradientUnits="userSpaceOnUse">
<stop stop-color="#172E65"/>
<stop offset="1" stop-color="#311145"/>
</linearGradient>
</defs>
</svg>
