<svg width="235" height="252" viewBox="0 0 235 252" fill="none" xmlns="http://www.w3.org/2000/svg">
<path opacity="0.5" d="M0 251.401H79.3668C79.9868 250.004 79.9868 247.909 79.9868 246.513C79.9868 238.831 76.2665 233.244 69.4459 230.451C62.6253 227.658 51.4644 224.864 35.9631 222.071C21.7018 219.277 9.30079 216.484 0 213.691V251.401H0ZM230.66 90.7837C225.699 93.577 221.979 98.4654 219.499 104.052C217.018 109.639 215.158 116.622 215.158 123.605C215.158 131.287 216.398 137.572 219.499 143.159C222.599 148.746 226.319 152.936 230.66 156.427L231.9 157.126C233.76 147.349 235 136.874 235 125.7C235 113.13 233.76 101.259 230.66 90.7837ZM0 0.698336V37.7101C9.30079 37.7101 16.7414 34.2185 22.3219 27.2351C28.5224 20.2517 31.0026 11.1734 31.0026 0H0V0.698336ZM56.4248 0.698336C56.4248 12.57 53.9446 23.0451 48.9842 32.1235C44.6438 41.9002 37.8232 48.8835 29.1425 54.4702C20.4617 59.3586 11.1609 62.1519 0 62.1519V95.672C12.4011 90.0853 27.9024 87.292 45.2639 87.292C55.1847 87.292 65.1055 87.9903 75.0264 90.0853V66.3419H106.649C122.77 66.3419 135.792 71.2303 145.092 81.7053C155.013 92.1804 159.354 106.845 159.354 125.7C159.354 144.556 154.393 159.221 145.092 169.696C135.171 180.171 122.77 185.059 106.649 185.059H75.0264V132.684C65.7256 129.89 55.8047 128.494 44.6438 128.494C31.0026 128.494 21.0818 130.589 14.2612 135.477C7.44063 139.667 3.72032 145.952 3.72032 153.634C3.72032 162.014 7.44063 167.601 14.8813 171.092C22.3219 174.584 34.1029 178.076 49.6042 180.869C65.1055 183.662 78.1266 186.456 88.0475 190.646C97.9683 194.137 106.649 200.422 114.09 208.802C121.53 217.182 124.631 229.753 124.631 245.116C124.631 247.211 124.631 249.306 124.631 251.401C143.232 250.004 160.594 245.116 175.475 236.736C184.156 231.848 192.216 226.261 199.657 219.277V185.757H223.219C223.839 184.361 224.459 183.662 224.459 182.266C221.359 180.869 218.879 179.472 216.398 178.076C208.338 173.187 201.517 165.506 197.177 156.427C192.216 147.349 190.356 136.176 190.356 124.304C190.356 112.432 192.836 101.259 197.177 92.1804C199.657 86.5937 203.377 82.4036 207.098 78.2136H204.617V38.4085C196.557 29.3301 186.636 21.6484 175.475 16.0617C156.253 5.58669 134.551 0.698336 109.749 0.698336H56.4248Z" fill="url(#paint0_linear_1_1085)" fill-opacity="0.1"/>
<defs>
<linearGradient id="paint0_linear_1_1085" x1="0" y1="0" x2="281.675" y2="94.6048" gradientUnits="userSpaceOnUse">
<stop stop-color="#316EFF"/>
<stop offset="1" stop-color="#D4008C"/>
</linearGradient>
</defs>
</svg>
